<?xml version="1.0" encoding="UTF-8" standalone="no"?>
<!DOCTYPE svg PUBLIC "-//W3C//DTD SVG 1.1//EN"
 "http://www.w3.org/Graphics/SVG/1.1/DTD/svg11.dtd">
<!-- Generated by graphviz version 13.1.2 (20250808.2320)
 -->
<!-- Title: PyPSA&#45;GB.distribution.Distribution.building_block_update Pages: 1 -->
<svg width="1171pt" height="390pt"
 viewBox="0.00 0.00 1171.00 390.00" xmlns="http://www.w3.org/2000/svg" xmlns:xlink="http://www.w3.org/1999/xlink">
<g id="graph0" class="graph" transform="scale(1 1) rotate(0) translate(4 386)">
<title>PyPSA&#45;GB.distribution.Distribution.building_block_update</title>
<!-- Node1 -->
<g id="Node000001" class="node">
<title>Node1</title>
<g id="a_Node000001"><a xlink:title=" ">
<polygon fill="#999999" stroke="#666666" points="204.25,-207 0,-207 0,-175 204.25,-175 204.25,-207"/>
<text xml:space="preserve" text-anchor="start" x="8" y="-193.5" font-family="Helvetica,sans-Serif" font-size="10.00">PyPSA&#45;GB.distribution.Distribution.building</text>
<text xml:space="preserve" text-anchor="middle" x="102.12" y="-181.5" font-family="Helvetica,sans-Serif" font-size="10.00">_block_update</text>
</a>
</g>
</g>
<!-- Node2 -->
<g id="Node000002" class="node">
<title>Node2</title>
<g id="a_Node000002"><a xlink:href="class_py_p_s_a-_g_b_1_1distribution_1_1_distribution.html#adc2bb991dc04c161398b51c6f261f028" target="_top" xlink:title=" ">
<polygon fill="white" stroke="#666666" points="440.75,-132 240.25,-132 240.25,-100 440.75,-100 440.75,-132"/>
<text xml:space="preserve" text-anchor="start" x="248.25" y="-118.5" font-family="Helvetica,sans-Serif" font-size="10.00">PyPSA&#45;GB.distribution.Distribution.modify</text>
<text xml:space="preserve" text-anchor="middle" x="340.5" y="-106.5" font-family="Helvetica,sans-Serif" font-size="10.00">_generators</text>
</a>
</g>
</g>
<!-- Node1&#45;&gt;Node2 -->
<g id="edge1_Node000001_Node000002" class="edge">
<title>Node1&#45;&gt;Node2</title>
<g id="a_edge1_Node000001_Node000002"><a xlink:title=" ">
<path fill="none" stroke="#63b8ff" d="M155,-174.54C190.87,-163.16 238.79,-147.96 276.8,-135.89"/>
<polygon fill="#63b8ff" stroke="#63b8ff" points="277.83,-139.24 286.3,-132.88 275.71,-132.57 277.83,-139.24"/>
</a>
</g>
</g>
<!-- Node11 -->
<g id="Node000011" class="node">
<title>Node11</title>
<g id="a_Node000011"><a xlink:href="class_py_p_s_a-_g_b_1_1distribution_1_1_distribution.html#a25bc59aa0daf71e026ac0470102d2a1c" target="_top" xlink:title=" ">
<polygon fill="white" stroke="#666666" points="440.75,-282 240.25,-282 240.25,-250 440.75,-250 440.75,-282"/>
<text xml:space="preserve" text-anchor="start" x="248.25" y="-268.5" font-family="Helvetica,sans-Serif" font-size="10.00">PyPSA&#45;GB.distribution.Distribution.modify</text>
<text xml:space="preserve" text-anchor="middle" x="340.5" y="-256.5" font-family="Helvetica,sans-Serif" font-size="10.00">_storage</text>
</a>
</g>
</g>
<!-- Node1&#45;&gt;Node11 -->
<g id="edge10_Node000001_Node000011" class="edge">
<title>Node1&#45;&gt;Node11</title>
<g id="a_edge10_Node000001_Node000011"><a xlink:title=" ">
<path fill="none" stroke="#63b8ff" d="M155,-207.46C190.87,-218.84 238.79,-234.04 276.8,-246.11"/>
<polygon fill="#63b8ff" stroke="#63b8ff" points="275.71,-249.43 286.3,-249.12 277.83,-242.76 275.71,-249.43"/>
</a>
</g>
</g>
<!-- Node3 -->
<g id="Node000003" class="node">
<title>Node3</title>
<g id="a_Node000003"><a xlink:href="class_py_p_s_a-_g_b_1_1distribution_1_1_distribution.html#ad4a7232beaca8ab702ae07b7e4f8e1d7" target="_top" xlink:title=" ">
<polygon fill="white" stroke="#666666" points="693,-182 476.75,-182 476.75,-150 693,-150 693,-182"/>
<text xml:space="preserve" text-anchor="start" x="484.75" y="-168.5" font-family="Helvetica,sans-Serif" font-size="10.00">PyPSA&#45;GB.distribution.Distribution.generation</text>
<text xml:space="preserve" text-anchor="middle" x="584.88" y="-156.5" font-family="Helvetica,sans-Serif" font-size="10.00">_capacities_rgb</text>
</a>
</g>
</g>
<!-- Node2&#45;&gt;Node3 -->
<g id="edge2_Node000002_Node000003" class="edge">
<title>Node2&#45;&gt;Node3</title>
<g id="a_edge2_Node000002_Node000003"><a xlink:title=" ">
<path fill="none" stroke="#63b8ff" d="M421.2,-132.44C444.19,-137.18 469.44,-142.39 493.05,-147.26"/>
<polygon fill="#63b8ff" stroke="#63b8ff" points="492.15,-150.65 502.65,-149.24 493.56,-143.79 492.15,-150.65"/>
</a>
</g>
</g>
<!-- Node6 -->
<g id="Node000006" class="node">
<title>Node6</title>
<g id="a_Node000006"><a xlink:href="class_py_p_s_a-_g_b_1_1distribution_1_1_distribution.html#a52d82b3645f6a9fd0c35181b0c89e315" target="_top" xlink:title=" ">
<polygon fill="white" stroke="#666666" points="693,-132 476.75,-132 476.75,-100 693,-100 693,-132"/>
<text xml:space="preserve" text-anchor="start" x="484.75" y="-118.5" font-family="Helvetica,sans-Serif" font-size="10.00">PyPSA&#45;GB.distribution.Distribution.generation</text>
<text xml:space="preserve" text-anchor="middle" x="584.88" y="-106.5" font-family="Helvetica,sans-Serif" font-size="10.00">_capacities_scotland</text>
</a>
</g>
</g>
<!-- Node2&#45;&gt;Node6 -->
<g id="edge5_Node000002_Node000006" class="edge">
<title>Node2&#45;&gt;Node6</title>
<g id="a_edge5_Node000002_Node000006"><a xlink:title=" ">
<path fill="none" stroke="#63b8ff" d="M441.13,-116C449.03,-116 457.06,-116 465.07,-116"/>
<polygon fill="#63b8ff" stroke="#63b8ff" points="464.85,-119.5 474.85,-116 464.85,-112.5 464.85,-119.5"/>
</a>
</g>
</g>
<!-- Node9 -->
<g id="Node000009" class="node">
<title>Node9</title>
<g id="a_Node000009"><a xlink:href="class_py_p_s_a-_g_b_1_1distribution_1_1_distribution.html#a8f6f20650f4bacaaf45c135f9cfb9941" target="_top" xlink:title=" ">
<polygon fill="white" stroke="#666666" points="679.88,-32 489.88,-32 489.88,0 679.88,0 679.88,-32"/>
<text xml:space="preserve" text-anchor="start" x="497.88" y="-18.5" font-family="Helvetica,sans-Serif" font-size="10.00">PyPSA&#45;GB.distribution.Distribution.read</text>
<text xml:space="preserve" text-anchor="middle" x="584.88" y="-6.5" font-family="Helvetica,sans-Serif" font-size="10.00">_rgb_generators</text>
</a>
</g>
</g>
<!-- Node2&#45;&gt;Node9 -->
<g id="edge8_Node000002_Node000009" class="edge">
<title>Node2&#45;&gt;Node9</title>
<g id="a_edge8_Node000002_Node000009"><a xlink:title=" ">
<path fill="none" stroke="#63b8ff" d="M365.91,-99.73C392.25,-82.84 435.91,-56.74 476.75,-41 481.62,-39.12 486.67,-37.36 491.8,-35.72"/>
<polygon fill="#63b8ff" stroke="#63b8ff" points="492.43,-39.18 500.98,-32.93 490.4,-32.48 492.43,-39.18"/>
</a>
</g>
</g>
<!-- Node10 -->
<g id="Node000010" class="node">
<title>Node10</title>
<g id="a_Node000010"><a xlink:href="class_py_p_s_a-_g_b_1_1distribution_1_1_distribution.html#adfede53162aa16186b9b6c2ed9b08166" target="_top" xlink:title=" ">
<polygon fill="white" stroke="#666666" points="679.88,-82 489.88,-82 489.88,-50 679.88,-50 679.88,-82"/>
<text xml:space="preserve" text-anchor="start" x="497.88" y="-68.5" font-family="Helvetica,sans-Serif" font-size="10.00">PyPSA&#45;GB.distribution.Distribution.read</text>
<text xml:space="preserve" text-anchor="middle" x="584.88" y="-56.5" font-family="Helvetica,sans-Serif" font-size="10.00">_scotland_generators</text>
</a>
</g>
</g>
<!-- Node2&#45;&gt;Node10 -->
<g id="edge9_Node000002_Node000010" class="edge">
<title>Node2&#45;&gt;Node10</title>
<g id="a_edge9_Node000002_Node000010"><a xlink:title=" ">
<path fill="none" stroke="#63b8ff" d="M421.2,-99.56C444.19,-94.82 469.44,-89.61 493.05,-84.74"/>
<polygon fill="#63b8ff" stroke="#63b8ff" points="493.56,-88.21 502.65,-82.76 492.15,-81.35 493.56,-88.21"/>
</a>
</g>
</g>
<!-- Node4 -->
<g id="Node000004" class="node">
<title>Node4</title>
<g id="a_Node000004"><a xlink:href="class_py_p_s_a-_g_b_1_1distribution_1_1_distribution.html#a2e5b3aced22f9c6dc561f471330f0518" target="_top" xlink:title=" ">
<polygon fill="white" stroke="#666666" points="925.38,-232 740.62,-232 740.62,-200 925.38,-200 925.38,-232"/>
<text xml:space="preserve" text-anchor="start" x="748.62" y="-218.5" font-family="Helvetica,sans-Serif" font-size="10.00">PyPSA&#45;GB.distribution.Distribution.rgb</text>
<text xml:space="preserve" text-anchor="middle" x="833" y="-206.5" font-family="Helvetica,sans-Serif" font-size="10.00">_total_tech</text>
</a>
</g>
</g>
<!-- Node3&#45;&gt;Node4 -->
<g id="edge3_Node000003_Node000004" class="edge">
<title>Node3&#45;&gt;Node4</title>
<g id="a_edge3_Node000003_Node000004"><a xlink:title=" ">
<path fill="none" stroke="#63b8ff" d="M666.81,-182.44C690.15,-187.18 715.79,-192.39 739.77,-197.26"/>
<polygon fill="#63b8ff" stroke="#63b8ff" points="739.04,-200.69 749.54,-199.25 740.43,-193.83 739.04,-200.69"/>
</a>
</g>
</g>
<!-- Node5 -->
<g id="Node000005" class="node">
<title>Node5</title>
<g id="a_Node000005"><a xlink:href="class_py_p_s_a-_g_b_1_1distribution_1_1_distribution.html#af87c046f2f6e6bfdbb809fc07d550f28" target="_top" xlink:title=" ">
<polygon fill="white" stroke="#666666" points="1163,-232 973,-232 973,-200 1163,-200 1163,-232"/>
<text xml:space="preserve" text-anchor="start" x="981" y="-218.5" font-family="Helvetica,sans-Serif" font-size="10.00">PyPSA&#45;GB.distribution.Distribution.read</text>
<text xml:space="preserve" text-anchor="middle" x="1068" y="-206.5" font-family="Helvetica,sans-Serif" font-size="10.00">_building_block_rgb</text>
</a>
</g>
</g>
<!-- Node4&#45;&gt;Node5 -->
<g id="edge4_Node000004_Node000005" class="edge">
<title>Node4&#45;&gt;Node5</title>
<g id="a_edge4_Node000004_Node000005"><a xlink:title=" ">
<path fill="none" stroke="#63b8ff" d="M925.75,-216C937.43,-216 949.46,-216 961.33,-216"/>
<polygon fill="#63b8ff" stroke="#63b8ff" points="961.14,-219.5 971.14,-216 961.14,-212.5 961.14,-219.5"/>
</a>
</g>
</g>
<!-- Node7 -->
<g id="Node000007" class="node">
<title>Node7</title>
<g id="a_Node000007"><a xlink:href="class_py_p_s_a-_g_b_1_1distribution_1_1_distribution.html#a034d0040f046c1069685119c7127b963" target="_top" xlink:title=" ">
<polygon fill="white" stroke="#666666" points="937,-182 729,-182 729,-150 937,-150 937,-182"/>
<text xml:space="preserve" text-anchor="start" x="737" y="-168.5" font-family="Helvetica,sans-Serif" font-size="10.00">PyPSA&#45;GB.distribution.Distribution.scotland</text>
<text xml:space="preserve" text-anchor="middle" x="833" y="-156.5" font-family="Helvetica,sans-Serif" font-size="10.00">_total_tech</text>
</a>
</g>
</g>
<!-- Node6&#45;&gt;Node7 -->
<g id="edge6_Node000006_Node000007" class="edge">
<title>Node6&#45;&gt;Node7</title>
<g id="a_edge6_Node000006_Node000007"><a xlink:title=" ">
<path fill="none" stroke="#63b8ff" d="M666.81,-132.44C690.15,-137.18 715.79,-142.39 739.77,-147.26"/>
<polygon fill="#63b8ff" stroke="#63b8ff" points="739.04,-150.69 749.54,-149.25 740.43,-143.83 739.04,-150.69"/>
</a>
</g>
</g>
<!-- Node8 -->
<g id="Node000008" class="node">
<title>Node8</title>
<g id="a_Node000008"><a xlink:href="class_py_p_s_a-_g_b_1_1distribution_1_1_distribution.html#a92bf89f6aa81ce7e84b5acc2611ddc77" target="_top" xlink:title=" ">
<polygon fill="white" stroke="#666666" points="1163,-182 973,-182 973,-150 1163,-150 1163,-182"/>
<text xml:space="preserve" text-anchor="start" x="981" y="-168.5" font-family="Helvetica,sans-Serif" font-size="10.00">PyPSA&#45;GB.distribution.Distribution.read</text>
<text xml:space="preserve" text-anchor="middle" x="1068" y="-156.5" font-family="Helvetica,sans-Serif" font-size="10.00">_building_block_scotland</text>
</a>
</g>
</g>
<!-- Node7&#45;&gt;Node8 -->
<g id="edge7_Node000007_Node000008" class="edge">
<title>Node7&#45;&gt;Node8</title>
<g id="a_edge7_Node000007_Node000008"><a xlink:title=" ">
<path fill="none" stroke="#63b8ff" d="M937.21,-166C945.24,-166 953.35,-166 961.39,-166"/>
<polygon fill="#63b8ff" stroke="#63b8ff" points="961.18,-169.5 971.18,-166 961.18,-162.5 961.18,-169.5"/>
</a>
</g>
</g>
<!-- Node12 -->
<g id="Node000012" class="node">
<title>Node12</title>
<g id="a_Node000012"><a xlink:href="class_py_p_s_a-_g_b_1_1distribution_1_1_distribution.html#a0c1cfda5cfbed79a9a5901b86fcab425" target="_top" xlink:title=" ">
<polygon fill="white" stroke="#666666" points="679.88,-332 489.88,-332 489.88,-300 679.88,-300 679.88,-332"/>
<text xml:space="preserve" text-anchor="start" x="497.88" y="-318.5" font-family="Helvetica,sans-Serif" font-size="10.00">PyPSA&#45;GB.distribution.Distribution.read</text>
<text xml:space="preserve" text-anchor="middle" x="584.88" y="-306.5" font-family="Helvetica,sans-Serif" font-size="10.00">_rgb_storage</text>
</a>
</g>
</g>
<!-- Node11&#45;&gt;Node12 -->
<g id="edge11_Node000011_Node000012" class="edge">
<title>Node11&#45;&gt;Node12</title>
<g id="a_edge11_Node000011_Node000012"><a xlink:title=" ">
<path fill="none" stroke="#63b8ff" d="M421.2,-282.44C444.19,-287.18 469.44,-292.39 493.05,-297.26"/>
<polygon fill="#63b8ff" stroke="#63b8ff" points="492.15,-300.65 502.65,-299.24 493.56,-293.79 492.15,-300.65"/>
</a>
</g>
</g>
<!-- Node13 -->
<g id="Node000013" class="node">
<title>Node13</title>
<g id="a_Node000013"><a xlink:href="class_py_p_s_a-_g_b_1_1distribution_1_1_distribution.html#a4fa96c774dd28410a494fb8ca6d505ad" target="_top" xlink:title=" ">
<polygon fill="white" stroke="#666666" points="679.88,-282 489.88,-282 489.88,-250 679.88,-250 679.88,-282"/>
<text xml:space="preserve" text-anchor="start" x="497.88" y="-268.5" font-family="Helvetica,sans-Serif" font-size="10.00">PyPSA&#45;GB.distribution.Distribution.read</text>
<text xml:space="preserve" text-anchor="middle" x="584.88" y="-256.5" font-family="Helvetica,sans-Serif" font-size="10.00">_scotland_storage</text>
</a>
</g>
</g>
<!-- Node11&#45;&gt;Node13 -->
<g id="edge12_Node000011_Node000013" class="edge">
<title>Node11&#45;&gt;Node13</title>
<g id="a_edge12_Node000011_Node000013"><a xlink:title=" ">
<path fill="none" stroke="#63b8ff" d="M441.13,-266C453.43,-266 466.03,-266 478.41,-266"/>
<polygon fill="#63b8ff" stroke="#63b8ff" points="478.19,-269.5 488.19,-266 478.19,-262.5 478.19,-269.5"/>
</a>
</g>
</g>
<!-- Node14 -->
<g id="Node000014" class="node">
<title>Node14</title>
<g id="a_Node000014"><a xlink:href="class_py_p_s_a-_g_b_1_1distribution_1_1_distribution.html#aa9fd7c594c41eeac6793c3d512389481" target="_top" xlink:title=" ">
<polygon fill="white" stroke="#666666" points="686.62,-382 483.12,-382 483.12,-350 686.62,-350 686.62,-382"/>
<text xml:space="preserve" text-anchor="start" x="491.12" y="-368.5" font-family="Helvetica,sans-Serif" font-size="10.00">PyPSA&#45;GB.distribution.Distribution.storage</text>
<text xml:space="preserve" text-anchor="middle" x="584.88" y="-356.5" font-family="Helvetica,sans-Serif" font-size="10.00">_capacities_rgb</text>
</a>
</g>
</g>
<!-- Node11&#45;&gt;Node14 -->
<g id="edge13_Node000011_Node000014" class="edge">
<title>Node11&#45;&gt;Node14</title>
<g id="a_edge13_Node000011_Node000014"><a xlink:title=" ">
<path fill="none" stroke="#63b8ff" d="M365.91,-282.27C392.25,-299.16 435.91,-325.26 476.75,-341 481.62,-342.88 486.67,-344.64 491.8,-346.28"/>
<polygon fill="#63b8ff" stroke="#63b8ff" points="490.4,-349.52 500.98,-349.07 492.43,-342.82 490.4,-349.52"/>
</a>
</g>
</g>
<!-- Node15 -->
<g id="Node000015" class="node">
<title>Node15</title>
<g id="a_Node000015"><a xlink:href="class_py_p_s_a-_g_b_1_1distribution_1_1_distribution.html#ac1ac48fd6098403cb3f8cba2df37c2e7" target="_top" xlink:title=" ">
<polygon fill="white" stroke="#666666" points="686.62,-232 483.12,-232 483.12,-200 686.62,-200 686.62,-232"/>
<text xml:space="preserve" text-anchor="start" x="491.12" y="-218.5" font-family="Helvetica,sans-Serif" font-size="10.00">PyPSA&#45;GB.distribution.Distribution.storage</text>
<text xml:space="preserve" text-anchor="middle" x="584.88" y="-206.5" font-family="Helvetica,sans-Serif" font-size="10.00">_capacities_scotland</text>
</a>
</g>
</g>
<!-- Node11&#45;&gt;Node15 -->
<g id="edge15_Node000011_Node000015" class="edge">
<title>Node11&#45;&gt;Node15</title>
<g id="a_edge15_Node000011_Node000015"><a xlink:title=" ">
<path fill="none" stroke="#63b8ff" d="M421.2,-249.56C444.19,-244.82 469.44,-239.61 493.05,-234.74"/>
<polygon fill="#63b8ff" stroke="#63b8ff" points="493.56,-238.21 502.65,-232.76 492.15,-231.35 493.56,-238.21"/>
</a>
</g>
</g>
<!-- Node14&#45;&gt;Node4 -->
<g id="edge14_Node000014_Node000004" class="edge">
<title>Node14&#45;&gt;Node4</title>
<g id="a_edge14_Node000014_Node000004"><a xlink:title=" ">
<path fill="none" stroke="#63b8ff" d="M673.18,-349.59C680.04,-347.11 686.74,-344.27 693,-341 741.55,-315.67 786.49,-269.42 811.48,-240.84"/>
<polygon fill="#63b8ff" stroke="#63b8ff" points="814.03,-243.25 817.89,-233.38 808.72,-238.69 814.03,-243.25"/>
</a>
</g>
</g>
<!-- Node15&#45;&gt;Node7 -->
<g id="edge16_Node000015_Node000007" class="edge">
<title>Node15&#45;&gt;Node7</title>
<g id="a_edge16_Node000015_Node000007"><a xlink:title=" ">
<path fill="none" stroke="#63b8ff" d="M666.81,-199.56C690.15,-194.82 715.79,-189.61 739.77,-184.74"/>
<polygon fill="#63b8ff" stroke="#63b8ff" points="740.43,-188.17 749.54,-182.75 739.04,-181.31 740.43,-188.17"/>
</a>
</g>
</g>
</g>
</svg>
