<?xml version="1.0" encoding="UTF-8" standalone="no"?>
<!DOCTYPE svg PUBLIC "-//W3C//DTD SVG 1.1//EN"
 "http://www.w3.org/Graphics/SVG/1.1/DTD/svg11.dtd">
<!-- Generated by graphviz version 13.1.2 (20250808.2320)
 -->
<!-- Title: PyPSA&#45;GB.distribution.Distribution.update Pages: 1 -->
<svg width="712pt" height="140pt"
 viewBox="0.00 0.00 712.00 140.00" xmlns="http://www.w3.org/2000/svg" xmlns:xlink="http://www.w3.org/1999/xlink">
<g id="graph0" class="graph" transform="scale(1 1) rotate(0) translate(4 136)">
<title>PyPSA&#45;GB.distribution.Distribution.update</title>
<!-- Node1 -->
<g id="Node000001" class="node">
<title>Node1</title>
<g id="a_Node000001"><a xlink:title=" ">
<polygon fill="#999999" stroke="#666666" points="200.5,-76 0,-76 0,-56 200.5,-56 200.5,-76"/>
<text xml:space="preserve" text-anchor="middle" x="100.25" y="-62.5" font-family="Helvetica,sans-Serif" font-size="10.00">PyPSA&#45;GB.distribution.Distribution.update</text>
</a>
</g>
</g>
<!-- Node2 -->
<g id="Node000002" class="node">
<title>Node2</title>
<g id="a_Node000002"><a xlink:href="class_py_p_s_a-_g_b_1_1distribution_1_1_distribution.html#a866db7c27828fb5f2e14906c2963ef78" target="_top" xlink:title=" ">
<polygon fill="white" stroke="#666666" points="423.88,-132 252.62,-132 252.62,-100 423.88,-100 423.88,-132"/>
<text xml:space="preserve" text-anchor="start" x="260.62" y="-118.5" font-family="Helvetica,sans-Serif" font-size="10.00">PyPSA&#45;GB.distribution.Distribution.</text>
<text xml:space="preserve" text-anchor="middle" x="338.25" y="-106.5" font-family="Helvetica,sans-Serif" font-size="10.00">PV_scale</text>
</a>
</g>
</g>
<!-- Node1&#45;&gt;Node2 -->
<g id="edge1_Node000001_Node000002" class="edge">
<title>Node1&#45;&gt;Node2</title>
<g id="a_edge1_Node000001_Node000002"><a xlink:title=" ">
<path fill="none" stroke="#63b8ff" d="M150.72,-76.48C179.02,-82.48 215.36,-90.17 248.43,-97.18"/>
<polygon fill="#63b8ff" stroke="#63b8ff" points="247.52,-100.57 258.03,-99.22 248.97,-93.72 247.52,-100.57"/>
</a>
</g>
</g>
<!-- Node4 -->
<g id="Node000004" class="node">
<title>Node4</title>
<g id="a_Node000004"><a xlink:href="class_py_p_s_a-_g_b_1_1distribution_1_1_distribution.html#ade23b7e9ff108320117d608b0208b856" target="_top" xlink:title=" ">
<polygon fill="white" stroke="#666666" points="440,-82 236.5,-82 236.5,-50 440,-50 440,-82"/>
<text xml:space="preserve" text-anchor="start" x="244.5" y="-68.5" font-family="Helvetica,sans-Serif" font-size="10.00">PyPSA&#45;GB.distribution.Distribution.storage</text>
<text xml:space="preserve" text-anchor="middle" x="338.25" y="-56.5" font-family="Helvetica,sans-Serif" font-size="10.00">_scale</text>
</a>
</g>
</g>
<!-- Node1&#45;&gt;Node4 -->
<g id="edge3_Node000001_Node000004" class="edge">
<title>Node1&#45;&gt;Node4</title>
<g id="a_edge3_Node000001_Node000004"><a xlink:title=" ">
<path fill="none" stroke="#63b8ff" d="M200.99,-66C208.95,-66 217.01,-66 225.04,-66"/>
<polygon fill="#63b8ff" stroke="#63b8ff" points="224.84,-69.5 234.84,-66 224.84,-62.5 224.84,-69.5"/>
</a>
</g>
</g>
<!-- Node6 -->
<g id="Node000006" class="node">
<title>Node6</title>
<g id="a_Node000006"><a xlink:href="class_py_p_s_a-_g_b_1_1distribution_1_1_distribution.html#acf14f5ec2ec0f5610266904524f486e1" target="_top" xlink:title=" ">
<polygon fill="white" stroke="#666666" points="434,-32 242.5,-32 242.5,0 434,0 434,-32"/>
<text xml:space="preserve" text-anchor="start" x="250.5" y="-18.5" font-family="Helvetica,sans-Serif" font-size="10.00">PyPSA&#45;GB.distribution.Distribution.wind</text>
<text xml:space="preserve" text-anchor="middle" x="338.25" y="-6.5" font-family="Helvetica,sans-Serif" font-size="10.00">_onshore_scale</text>
</a>
</g>
</g>
<!-- Node1&#45;&gt;Node6 -->
<g id="edge5_Node000001_Node000006" class="edge">
<title>Node1&#45;&gt;Node6</title>
<g id="a_edge5_Node000001_Node000006"><a xlink:title=" ">
<path fill="none" stroke="#63b8ff" d="M150.72,-55.52C179.02,-49.52 215.36,-41.83 248.43,-34.82"/>
<polygon fill="#63b8ff" stroke="#63b8ff" points="248.97,-38.28 258.03,-32.78 247.52,-31.43 248.97,-38.28"/>
</a>
</g>
</g>
<!-- Node3 -->
<g id="Node000003" class="node">
<title>Node3</title>
<g id="a_Node000003"><a xlink:href="class_py_p_s_a-_g_b_1_1distribution_1_1_distribution.html#a4a67ab88dce2e98267854c662e427b7e" target="_top" xlink:title=" ">
<polygon fill="white" stroke="#666666" points="675.38,-132 504.12,-132 504.12,-100 675.38,-100 675.38,-132"/>
<text xml:space="preserve" text-anchor="start" x="512.12" y="-118.5" font-family="Helvetica,sans-Serif" font-size="10.00">PyPSA&#45;GB.distribution.Distribution.</text>
<text xml:space="preserve" text-anchor="middle" x="589.75" y="-106.5" font-family="Helvetica,sans-Serif" font-size="10.00">PV_data</text>
</a>
</g>
</g>
<!-- Node2&#45;&gt;Node3 -->
<g id="edge2_Node000002_Node000003" class="edge">
<title>Node2&#45;&gt;Node3</title>
<g id="a_edge2_Node000002_Node000003"><a xlink:title=" ">
<path fill="none" stroke="#63b8ff" d="M424.07,-116C446.06,-116 469.91,-116 492.45,-116"/>
<polygon fill="#63b8ff" stroke="#63b8ff" points="492.23,-119.5 502.23,-116 492.23,-112.5 492.23,-119.5"/>
</a>
</g>
</g>
<!-- Node5 -->
<g id="Node000005" class="node">
<title>Node5</title>
<g id="a_Node000005"><a xlink:href="class_py_p_s_a-_g_b_1_1distribution_1_1_distribution.html#a53bc81fece9f04b5005b29b8fd0c13dd" target="_top" xlink:title=" ">
<polygon fill="white" stroke="#666666" points="703.5,-76 476,-76 476,-56 703.5,-56 703.5,-76"/>
<text xml:space="preserve" text-anchor="middle" x="589.75" y="-62.5" font-family="Helvetica,sans-Serif" font-size="10.00">PyPSA&#45;GB.distribution.Distribution.storage_data</text>
</a>
</g>
</g>
<!-- Node4&#45;&gt;Node5 -->
<g id="edge4_Node000004_Node000005" class="edge">
<title>Node4&#45;&gt;Node5</title>
<g id="a_edge4_Node000004_Node000005"><a xlink:title=" ">
<path fill="none" stroke="#63b8ff" d="M440.37,-66C448.27,-66 456.29,-66 464.32,-66"/>
<polygon fill="#63b8ff" stroke="#63b8ff" points="464.14,-69.5 474.14,-66 464.14,-62.5 464.14,-69.5"/>
</a>
</g>
</g>
<!-- Node7 -->
<g id="Node000007" class="node">
<title>Node7</title>
<g id="a_Node000007"><a xlink:href="class_py_p_s_a-_g_b_1_1distribution_1_1_distribution.html#a638f0a58910610065a5d6ca91a3c1c4a" target="_top" xlink:title=" ">
<polygon fill="white" stroke="#666666" points="685.5,-32 494,-32 494,0 685.5,0 685.5,-32"/>
<text xml:space="preserve" text-anchor="start" x="502" y="-18.5" font-family="Helvetica,sans-Serif" font-size="10.00">PyPSA&#45;GB.distribution.Distribution.wind</text>
<text xml:space="preserve" text-anchor="middle" x="589.75" y="-6.5" font-family="Helvetica,sans-Serif" font-size="10.00">_onshore_data</text>
</a>
</g>
</g>
<!-- Node6&#45;&gt;Node7 -->
<g id="edge6_Node000006_Node000007" class="edge">
<title>Node6&#45;&gt;Node7</title>
<g id="a_edge6_Node000006_Node000007"><a xlink:title=" ">
<path fill="none" stroke="#63b8ff" d="M434.29,-16C449.91,-16 466.2,-16 482.08,-16"/>
<polygon fill="#63b8ff" stroke="#63b8ff" points="482.05,-19.5 492.05,-16 482.05,-12.5 482.05,-19.5"/>
</a>
</g>
</g>
</g>
</svg>
