<?xml version="1.0" encoding="UTF-8" standalone="no"?>
<!DOCTYPE svg PUBLIC "-//W3C//DTD SVG 1.1//EN"
 "http://www.w3.org/Graphics/SVG/1.1/DTD/svg11.dtd">
<!-- Generated by graphviz version 13.1.2 (20250808.2320)
 -->
<!-- Title: PyPSA&#45;GB.distribution.Distribution.read_building_block_rgb Pages: 1 -->
<svg width="1164pt" height="140pt"
 viewBox="0.00 0.00 1164.00 140.00" xmlns="http://www.w3.org/2000/svg" xmlns:xlink="http://www.w3.org/1999/xlink">
<g id="graph0" class="graph" transform="scale(1 1) rotate(0) translate(4 136)">
<title>PyPSA&#45;GB.distribution.Distribution.read_building_block_rgb</title>
<!-- Node1 -->
<g id="Node000001" class="node">
<title>Node1</title>
<g id="a_Node000001"><a xlink:title=" ">
<polygon fill="#999999" stroke="#666666" points="1156.25,-82 966.25,-82 966.25,-50 1156.25,-50 1156.25,-82"/>
<text xml:space="preserve" text-anchor="start" x="974.25" y="-68.5" font-family="Helvetica,sans-Serif" font-size="10.00">PyPSA&#45;GB.distribution.Distribution.read</text>
<text xml:space="preserve" text-anchor="middle" x="1061.25" y="-56.5" font-family="Helvetica,sans-Serif" font-size="10.00">_building_block_rgb</text>
</a>
</g>
</g>
<!-- Node2 -->
<g id="Node000002" class="node">
<title>Node2</title>
<g id="a_Node000002"><a xlink:href="class_py_p_s_a-_g_b_1_1distribution_1_1_distribution.html#a2e5b3aced22f9c6dc561f471330f0518" target="_top" xlink:title=" ">
<polygon fill="white" stroke="#666666" points="930.25,-82 745.5,-82 745.5,-50 930.25,-50 930.25,-82"/>
<text xml:space="preserve" text-anchor="start" x="753.5" y="-68.5" font-family="Helvetica,sans-Serif" font-size="10.00">PyPSA&#45;GB.distribution.Distribution.rgb</text>
<text xml:space="preserve" text-anchor="middle" x="837.88" y="-56.5" font-family="Helvetica,sans-Serif" font-size="10.00">_total_tech</text>
</a>
</g>
</g>
<!-- Node1&#45;&gt;Node2 -->
<g id="edge1_Node000001_Node000002" class="edge">
<title>Node1&#45;&gt;Node2</title>
<g id="a_edge1_Node000001_Node000002"><a xlink:title=" ">
<path fill="none" stroke="#63b8ff" d="M954.68,-66C946.61,-66 938.5,-66 930.53,-66"/>
<polygon fill="#63b8ff" stroke="#63b8ff" points="954.53,-69.5 964.53,-66 954.53,-62.5 954.53,-69.5"/>
</a>
</g>
</g>
<!-- Node3 -->
<g id="Node000003" class="node">
<title>Node3</title>
<g id="a_Node000003"><a xlink:href="class_py_p_s_a-_g_b_1_1distribution_1_1_distribution.html#ad4a7232beaca8ab702ae07b7e4f8e1d7" target="_top" xlink:title=" ">
<polygon fill="white" stroke="#666666" points="701.25,-132 485,-132 485,-100 701.25,-100 701.25,-132"/>
<text xml:space="preserve" text-anchor="start" x="493" y="-118.5" font-family="Helvetica,sans-Serif" font-size="10.00">PyPSA&#45;GB.distribution.Distribution.generation</text>
<text xml:space="preserve" text-anchor="middle" x="593.12" y="-106.5" font-family="Helvetica,sans-Serif" font-size="10.00">_capacities_rgb</text>
</a>
</g>
</g>
<!-- Node2&#45;&gt;Node3 -->
<g id="edge2_Node000002_Node000003" class="edge">
<title>Node2&#45;&gt;Node3</title>
<g id="a_edge2_Node000002_Node000003"><a xlink:title=" ">
<path fill="none" stroke="#63b8ff" d="M745.96,-84.73C722.31,-89.6 697.02,-94.81 673.99,-99.55"/>
<polygon fill="#63b8ff" stroke="#63b8ff" points="746.48,-88.19 755.57,-82.75 745.07,-81.34 746.48,-88.19"/>
</a>
</g>
</g>
<!-- Node6 -->
<g id="Node000006" class="node">
<title>Node6</title>
<g id="a_Node000006"><a xlink:href="class_py_p_s_a-_g_b_1_1distribution_1_1_distribution.html#a2f9b84e11f6345de8678e3d290576c0c" target="_top" xlink:title=" ">
<polygon fill="white" stroke="#666666" points="709.5,-82 476.75,-82 476.75,-50 709.5,-50 709.5,-82"/>
<text xml:space="preserve" text-anchor="start" x="484.75" y="-68.5" font-family="Helvetica,sans-Serif" font-size="10.00">PyPSA&#45;GB.distribution.Distribution.interconnector</text>
<text xml:space="preserve" text-anchor="middle" x="593.12" y="-56.5" font-family="Helvetica,sans-Serif" font-size="10.00">_capacities_rgb</text>
</a>
</g>
</g>
<!-- Node2&#45;&gt;Node6 -->
<g id="edge5_Node000002_Node000006" class="edge">
<title>Node2&#45;&gt;Node6</title>
<g id="a_edge5_Node000002_Node000006"><a xlink:title=" ">
<path fill="none" stroke="#63b8ff" d="M733.63,-66C725.74,-66 717.74,-66 709.77,-66"/>
<polygon fill="#63b8ff" stroke="#63b8ff" points="733.59,-69.5 743.59,-66 733.59,-62.5 733.59,-69.5"/>
</a>
</g>
</g>
<!-- Node8 -->
<g id="Node000008" class="node">
<title>Node8</title>
<g id="a_Node000008"><a xlink:href="class_py_p_s_a-_g_b_1_1distribution_1_1_distribution.html#aa9fd7c594c41eeac6793c3d512389481" target="_top" xlink:title=" ">
<polygon fill="white" stroke="#666666" points="694.88,-32 491.38,-32 491.38,0 694.88,0 694.88,-32"/>
<text xml:space="preserve" text-anchor="start" x="499.38" y="-18.5" font-family="Helvetica,sans-Serif" font-size="10.00">PyPSA&#45;GB.distribution.Distribution.storage</text>
<text xml:space="preserve" text-anchor="middle" x="593.12" y="-6.5" font-family="Helvetica,sans-Serif" font-size="10.00">_capacities_rgb</text>
</a>
</g>
</g>
<!-- Node2&#45;&gt;Node8 -->
<g id="edge7_Node000002_Node000008" class="edge">
<title>Node2&#45;&gt;Node8</title>
<g id="a_edge7_Node000002_Node000008"><a xlink:title=" ">
<path fill="none" stroke="#63b8ff" d="M745.96,-47.27C722.31,-42.4 697.02,-37.19 673.99,-32.45"/>
<polygon fill="#63b8ff" stroke="#63b8ff" points="745.07,-50.66 755.57,-49.25 746.48,-43.81 745.07,-50.66"/>
</a>
</g>
</g>
<!-- Node4 -->
<g id="Node000004" class="node">
<title>Node4</title>
<g id="a_Node000004"><a xlink:href="class_py_p_s_a-_g_b_1_1distribution_1_1_distribution.html#adc2bb991dc04c161398b51c6f261f028" target="_top" xlink:title=" ">
<polygon fill="white" stroke="#666666" points="440.75,-132 240.25,-132 240.25,-100 440.75,-100 440.75,-132"/>
<text xml:space="preserve" text-anchor="start" x="248.25" y="-118.5" font-family="Helvetica,sans-Serif" font-size="10.00">PyPSA&#45;GB.distribution.Distribution.modify</text>
<text xml:space="preserve" text-anchor="middle" x="340.5" y="-106.5" font-family="Helvetica,sans-Serif" font-size="10.00">_generators</text>
</a>
</g>
</g>
<!-- Node3&#45;&gt;Node4 -->
<g id="edge3_Node000003_Node000004" class="edge">
<title>Node3&#45;&gt;Node4</title>
<g id="a_edge3_Node000003_Node000004"><a xlink:title=" ">
<path fill="none" stroke="#63b8ff" d="M473.49,-116C462.66,-116 451.76,-116 441.12,-116"/>
<polygon fill="#63b8ff" stroke="#63b8ff" points="473.23,-119.5 483.23,-116 473.23,-112.5 473.23,-119.5"/>
</a>
</g>
</g>
<!-- Node5 -->
<g id="Node000005" class="node">
<title>Node5</title>
<g id="a_Node000005"><a xlink:href="class_py_p_s_a-_g_b_1_1distribution_1_1_distribution.html#a9e55078053cf61ee565db765bd77cbd3" target="_top" xlink:title=" ">
<polygon fill="white" stroke="#666666" points="204.25,-82 0,-82 0,-50 204.25,-50 204.25,-82"/>
<text xml:space="preserve" text-anchor="start" x="8" y="-68.5" font-family="Helvetica,sans-Serif" font-size="10.00">PyPSA&#45;GB.distribution.Distribution.building</text>
<text xml:space="preserve" text-anchor="middle" x="102.12" y="-56.5" font-family="Helvetica,sans-Serif" font-size="10.00">_block_update</text>
</a>
</g>
</g>
<!-- Node4&#45;&gt;Node5 -->
<g id="edge4_Node000004_Node000005" class="edge">
<title>Node4&#45;&gt;Node5</title>
<g id="a_edge4_Node000004_Node000005"><a xlink:title=" ">
<path fill="none" stroke="#63b8ff" d="M250.66,-97.21C227.73,-92.36 203.22,-87.17 180.9,-82.45"/>
<polygon fill="#63b8ff" stroke="#63b8ff" points="249.79,-100.6 260.29,-99.25 251.23,-93.75 249.79,-100.6"/>
</a>
</g>
</g>
<!-- Node7 -->
<g id="Node000007" class="node">
<title>Node7</title>
<g id="a_Node000007"><a xlink:href="class_py_p_s_a-_g_b_1_1distribution_1_1_distribution.html#a7566f27a4f96f96eae6a1a259b7da7ca" target="_top" xlink:title=" ">
<polygon fill="white" stroke="#666666" points="440.75,-82 240.25,-82 240.25,-50 440.75,-50 440.75,-82"/>
<text xml:space="preserve" text-anchor="start" x="248.25" y="-68.5" font-family="Helvetica,sans-Serif" font-size="10.00">PyPSA&#45;GB.distribution.Distribution.modify</text>
<text xml:space="preserve" text-anchor="middle" x="340.5" y="-56.5" font-family="Helvetica,sans-Serif" font-size="10.00">_interconnector</text>
</a>
</g>
</g>
<!-- Node6&#45;&gt;Node7 -->
<g id="edge6_Node000006_Node000007" class="edge">
<title>Node6&#45;&gt;Node7</title>
<g id="a_edge6_Node000006_Node000007"><a xlink:title=" ">
<path fill="none" stroke="#63b8ff" d="M464.99,-66C456.95,-66 448.92,-66 441.03,-66"/>
<polygon fill="#63b8ff" stroke="#63b8ff" points="464.84,-69.5 474.84,-66 464.84,-62.5 464.84,-69.5"/>
</a>
</g>
</g>
<!-- Node9 -->
<g id="Node000009" class="node">
<title>Node9</title>
<g id="a_Node000009"><a xlink:href="class_py_p_s_a-_g_b_1_1distribution_1_1_distribution.html#a25bc59aa0daf71e026ac0470102d2a1c" target="_top" xlink:title=" ">
<polygon fill="white" stroke="#666666" points="440.75,-32 240.25,-32 240.25,0 440.75,0 440.75,-32"/>
<text xml:space="preserve" text-anchor="start" x="248.25" y="-18.5" font-family="Helvetica,sans-Serif" font-size="10.00">PyPSA&#45;GB.distribution.Distribution.modify</text>
<text xml:space="preserve" text-anchor="middle" x="340.5" y="-6.5" font-family="Helvetica,sans-Serif" font-size="10.00">_storage</text>
</a>
</g>
</g>
<!-- Node8&#45;&gt;Node9 -->
<g id="edge8_Node000008_Node000009" class="edge">
<title>Node8&#45;&gt;Node9</title>
<g id="a_edge8_Node000008_Node000009"><a xlink:title=" ">
<path fill="none" stroke="#63b8ff" d="M479.66,-16C466.79,-16 453.74,-16 441.06,-16"/>
<polygon fill="#63b8ff" stroke="#63b8ff" points="479.4,-19.5 489.4,-16 479.4,-12.5 479.4,-19.5"/>
</a>
</g>
</g>
<!-- Node9&#45;&gt;Node5 -->
<g id="edge9_Node000009_Node000005" class="edge">
<title>Node9&#45;&gt;Node5</title>
<g id="a_edge9_Node000009_Node000005"><a xlink:title=" ">
<path fill="none" stroke="#63b8ff" d="M250.66,-34.79C227.73,-39.64 203.22,-44.83 180.9,-49.55"/>
<polygon fill="#63b8ff" stroke="#63b8ff" points="251.23,-38.25 260.29,-32.75 249.79,-31.4 251.23,-38.25"/>
</a>
</g>
</g>
</g>
</svg>
