<?xml version="1.0" encoding="UTF-8" standalone="no"?>
<!DOCTYPE svg PUBLIC "-//W3C//DTD SVG 1.1//EN"
 "http://www.w3.org/Graphics/SVG/1.1/DTD/svg11.dtd">
<!-- Generated by graphviz version 13.1.2 (20250808.2320)
 -->
<!-- Title: PyPSA&#45;GB.distribution.Distribution.storage_capacities_scotland Pages: 1 -->
<svg width="682pt" height="40pt"
 viewBox="0.00 0.00 682.00 40.00" xmlns="http://www.w3.org/2000/svg" xmlns:xlink="http://www.w3.org/1999/xlink">
<g id="graph0" class="graph" transform="scale(1 1) rotate(0) translate(4 36)">
<title>PyPSA&#45;GB.distribution.Distribution.storage_capacities_scotland</title>
<!-- Node1 -->
<g id="Node000001" class="node">
<title>Node1</title>
<g id="a_Node000001"><a xlink:title=" ">
<polygon fill="#999999" stroke="#666666" points="203.5,-32 0,-32 0,0 203.5,0 203.5,-32"/>
<text xml:space="preserve" text-anchor="start" x="8" y="-18.5" font-family="Helvetica,sans-Serif" font-size="10.00">PyPSA&#45;GB.distribution.Distribution.storage</text>
<text xml:space="preserve" text-anchor="middle" x="101.75" y="-6.5" font-family="Helvetica,sans-Serif" font-size="10.00">_capacities_scotland</text>
</a>
</g>
</g>
<!-- Node2 -->
<g id="Node000002" class="node">
<title>Node2</title>
<g id="a_Node000002"><a xlink:href="class_py_p_s_a-_g_b_1_1distribution_1_1_distribution.html#a034d0040f046c1069685119c7127b963" target="_top" xlink:title=" ">
<polygon fill="white" stroke="#666666" points="447.5,-32 239.5,-32 239.5,0 447.5,0 447.5,-32"/>
<text xml:space="preserve" text-anchor="start" x="247.5" y="-18.5" font-family="Helvetica,sans-Serif" font-size="10.00">PyPSA&#45;GB.distribution.Distribution.scotland</text>
<text xml:space="preserve" text-anchor="middle" x="343.5" y="-6.5" font-family="Helvetica,sans-Serif" font-size="10.00">_total_tech</text>
</a>
</g>
</g>
<!-- Node1&#45;&gt;Node2 -->
<g id="edge1_Node000001_Node000002" class="edge">
<title>Node1&#45;&gt;Node2</title>
<g id="a_edge1_Node000001_Node000002"><a xlink:title=" ">
<path fill="none" stroke="#63b8ff" d="M203.73,-16C211.73,-16 219.85,-16 227.94,-16"/>
<polygon fill="#63b8ff" stroke="#63b8ff" points="227.82,-19.5 237.82,-16 227.82,-12.5 227.82,-19.5"/>
</a>
</g>
</g>
<!-- Node3 -->
<g id="Node000003" class="node">
<title>Node3</title>
<g id="a_Node000003"><a xlink:href="class_py_p_s_a-_g_b_1_1distribution_1_1_distribution.html#a92bf89f6aa81ce7e84b5acc2611ddc77" target="_top" xlink:title=" ">
<polygon fill="white" stroke="#666666" points="673.5,-32 483.5,-32 483.5,0 673.5,0 673.5,-32"/>
<text xml:space="preserve" text-anchor="start" x="491.5" y="-18.5" font-family="Helvetica,sans-Serif" font-size="10.00">PyPSA&#45;GB.distribution.Distribution.read</text>
<text xml:space="preserve" text-anchor="middle" x="578.5" y="-6.5" font-family="Helvetica,sans-Serif" font-size="10.00">_building_block_scotland</text>
</a>
</g>
</g>
<!-- Node2&#45;&gt;Node3 -->
<g id="edge2_Node000002_Node000003" class="edge">
<title>Node2&#45;&gt;Node3</title>
<g id="a_edge2_Node000002_Node000003"><a xlink:title=" ">
<path fill="none" stroke="#63b8ff" d="M447.71,-16C455.74,-16 463.85,-16 471.89,-16"/>
<polygon fill="#63b8ff" stroke="#63b8ff" points="471.68,-19.5 481.68,-16 471.68,-12.5 471.68,-19.5"/>
</a>
</g>
</g>
</g>
</svg>
