<?xml version="1.0" encoding="UTF-8" standalone="no"?>
<!DOCTYPE svg PUBLIC "-//W3C//DTD SVG 1.1//EN"
 "http://www.w3.org/Graphics/SVG/1.1/DTD/svg11.dtd">
<!-- Generated by graphviz version 13.1.2 (20250808.2320)
 -->
<!-- Title: PyPSA&#45;GB.distribution.Distribution.modify_storage Pages: 1 -->
<svg width="918pt" height="190pt"
 viewBox="0.00 0.00 918.00 190.00" xmlns="http://www.w3.org/2000/svg" xmlns:xlink="http://www.w3.org/1999/xlink">
<g id="graph0" class="graph" transform="scale(1 1) rotate(0) translate(4 186)">
<title>PyPSA&#45;GB.distribution.Distribution.modify_storage</title>
<!-- Node1 -->
<g id="Node000001" class="node">
<title>Node1</title>
<g id="a_Node000001"><a xlink:title=" ">
<polygon fill="#999999" stroke="#666666" points="200.5,-107 0,-107 0,-75 200.5,-75 200.5,-107"/>
<text xml:space="preserve" text-anchor="start" x="8" y="-93.5" font-family="Helvetica,sans-Serif" font-size="10.00">PyPSA&#45;GB.distribution.Distribution.modify</text>
<text xml:space="preserve" text-anchor="middle" x="100.25" y="-81.5" font-family="Helvetica,sans-Serif" font-size="10.00">_storage</text>
</a>
</g>
</g>
<!-- Node2 -->
<g id="Node000002" class="node">
<title>Node2</title>
<g id="a_Node000002"><a xlink:href="class_py_p_s_a-_g_b_1_1distribution_1_1_distribution.html#a0c1cfda5cfbed79a9a5901b86fcab425" target="_top" xlink:title=" ">
<polygon fill="white" stroke="#666666" points="433.25,-182 243.25,-182 243.25,-150 433.25,-150 433.25,-182"/>
<text xml:space="preserve" text-anchor="start" x="251.25" y="-168.5" font-family="Helvetica,sans-Serif" font-size="10.00">PyPSA&#45;GB.distribution.Distribution.read</text>
<text xml:space="preserve" text-anchor="middle" x="338.25" y="-156.5" font-family="Helvetica,sans-Serif" font-size="10.00">_rgb_storage</text>
</a>
</g>
</g>
<!-- Node1&#45;&gt;Node2 -->
<g id="edge1_Node000001_Node000002" class="edge">
<title>Node1&#45;&gt;Node2</title>
<g id="a_edge1_Node000001_Node000002"><a xlink:title=" ">
<path fill="none" stroke="#63b8ff" d="M141.98,-107.4C168.62,-117.79 204.32,-131.09 236.5,-141 242.68,-142.9 249.1,-144.76 255.59,-146.55"/>
<polygon fill="#63b8ff" stroke="#63b8ff" points="254.49,-149.88 265.05,-149.11 256.31,-143.12 254.49,-149.88"/>
</a>
</g>
</g>
<!-- Node3 -->
<g id="Node000003" class="node">
<title>Node3</title>
<g id="a_Node000003"><a xlink:href="class_py_p_s_a-_g_b_1_1distribution_1_1_distribution.html#a4fa96c774dd28410a494fb8ca6d505ad" target="_top" xlink:title=" ">
<polygon fill="white" stroke="#666666" points="433.25,-132 243.25,-132 243.25,-100 433.25,-100 433.25,-132"/>
<text xml:space="preserve" text-anchor="start" x="251.25" y="-118.5" font-family="Helvetica,sans-Serif" font-size="10.00">PyPSA&#45;GB.distribution.Distribution.read</text>
<text xml:space="preserve" text-anchor="middle" x="338.25" y="-106.5" font-family="Helvetica,sans-Serif" font-size="10.00">_scotland_storage</text>
</a>
</g>
</g>
<!-- Node1&#45;&gt;Node3 -->
<g id="edge2_Node000001_Node000003" class="edge">
<title>Node1&#45;&gt;Node3</title>
<g id="a_edge2_Node000001_Node000003"><a xlink:title=" ">
<path fill="none" stroke="#63b8ff" d="M200.99,-101.57C211.05,-102.63 221.28,-103.72 231.4,-104.79"/>
<polygon fill="#63b8ff" stroke="#63b8ff" points="230.93,-108.26 241.25,-105.83 231.67,-101.3 230.93,-108.26"/>
</a>
</g>
</g>
<!-- Node4 -->
<g id="Node000004" class="node">
<title>Node4</title>
<g id="a_Node000004"><a xlink:href="class_py_p_s_a-_g_b_1_1distribution_1_1_distribution.html#aa9fd7c594c41eeac6793c3d512389481" target="_top" xlink:title=" ">
<polygon fill="white" stroke="#666666" points="440,-82 236.5,-82 236.5,-50 440,-50 440,-82"/>
<text xml:space="preserve" text-anchor="start" x="244.5" y="-68.5" font-family="Helvetica,sans-Serif" font-size="10.00">PyPSA&#45;GB.distribution.Distribution.storage</text>
<text xml:space="preserve" text-anchor="middle" x="338.25" y="-56.5" font-family="Helvetica,sans-Serif" font-size="10.00">_capacities_rgb</text>
</a>
</g>
</g>
<!-- Node1&#45;&gt;Node4 -->
<g id="edge3_Node000001_Node000004" class="edge">
<title>Node1&#45;&gt;Node4</title>
<g id="a_edge3_Node000001_Node000004"><a xlink:title=" ">
<path fill="none" stroke="#63b8ff" d="M200.99,-80.43C208.95,-79.59 217.01,-78.74 225.04,-77.89"/>
<polygon fill="#63b8ff" stroke="#63b8ff" points="225.27,-81.38 234.85,-76.85 224.53,-74.42 225.27,-81.38"/>
</a>
</g>
</g>
<!-- Node7 -->
<g id="Node000007" class="node">
<title>Node7</title>
<g id="a_Node000007"><a xlink:href="class_py_p_s_a-_g_b_1_1distribution_1_1_distribution.html#ac1ac48fd6098403cb3f8cba2df37c2e7" target="_top" xlink:title=" ">
<polygon fill="white" stroke="#666666" points="440,-32 236.5,-32 236.5,0 440,0 440,-32"/>
<text xml:space="preserve" text-anchor="start" x="244.5" y="-18.5" font-family="Helvetica,sans-Serif" font-size="10.00">PyPSA&#45;GB.distribution.Distribution.storage</text>
<text xml:space="preserve" text-anchor="middle" x="338.25" y="-6.5" font-family="Helvetica,sans-Serif" font-size="10.00">_capacities_scotland</text>
</a>
</g>
</g>
<!-- Node1&#45;&gt;Node7 -->
<g id="edge6_Node000001_Node000007" class="edge">
<title>Node1&#45;&gt;Node7</title>
<g id="a_edge6_Node000001_Node000007"><a xlink:title=" ">
<path fill="none" stroke="#63b8ff" d="M141.98,-74.6C168.62,-64.21 204.32,-50.91 236.5,-41 242.68,-39.1 249.1,-37.24 255.59,-35.45"/>
<polygon fill="#63b8ff" stroke="#63b8ff" points="256.31,-38.88 265.05,-32.89 254.49,-32.12 256.31,-38.88"/>
</a>
</g>
</g>
<!-- Node5 -->
<g id="Node000005" class="node">
<title>Node5</title>
<g id="a_Node000005"><a xlink:href="class_py_p_s_a-_g_b_1_1distribution_1_1_distribution.html#a2e5b3aced22f9c6dc561f471330f0518" target="_top" xlink:title=" ">
<polygon fill="white" stroke="#666666" points="672.38,-82 487.62,-82 487.62,-50 672.38,-50 672.38,-82"/>
<text xml:space="preserve" text-anchor="start" x="495.62" y="-68.5" font-family="Helvetica,sans-Serif" font-size="10.00">PyPSA&#45;GB.distribution.Distribution.rgb</text>
<text xml:space="preserve" text-anchor="middle" x="580" y="-56.5" font-family="Helvetica,sans-Serif" font-size="10.00">_total_tech</text>
</a>
</g>
</g>
<!-- Node4&#45;&gt;Node5 -->
<g id="edge4_Node000004_Node000005" class="edge">
<title>Node4&#45;&gt;Node5</title>
<g id="a_edge4_Node000004_Node000005"><a xlink:title=" ">
<path fill="none" stroke="#63b8ff" d="M440.23,-66C452.06,-66 464.15,-66 476,-66"/>
<polygon fill="#63b8ff" stroke="#63b8ff" points="475.78,-69.5 485.78,-66 475.78,-62.5 475.78,-69.5"/>
</a>
</g>
</g>
<!-- Node6 -->
<g id="Node000006" class="node">
<title>Node6</title>
<g id="a_Node000006"><a xlink:href="class_py_p_s_a-_g_b_1_1distribution_1_1_distribution.html#af87c046f2f6e6bfdbb809fc07d550f28" target="_top" xlink:title=" ">
<polygon fill="white" stroke="#666666" points="910,-82 720,-82 720,-50 910,-50 910,-82"/>
<text xml:space="preserve" text-anchor="start" x="728" y="-68.5" font-family="Helvetica,sans-Serif" font-size="10.00">PyPSA&#45;GB.distribution.Distribution.read</text>
<text xml:space="preserve" text-anchor="middle" x="815" y="-56.5" font-family="Helvetica,sans-Serif" font-size="10.00">_building_block_rgb</text>
</a>
</g>
</g>
<!-- Node5&#45;&gt;Node6 -->
<g id="edge5_Node000005_Node000006" class="edge">
<title>Node5&#45;&gt;Node6</title>
<g id="a_edge5_Node000005_Node000006"><a xlink:title=" ">
<path fill="none" stroke="#63b8ff" d="M672.75,-66C684.43,-66 696.46,-66 708.33,-66"/>
<polygon fill="#63b8ff" stroke="#63b8ff" points="708.14,-69.5 718.14,-66 708.14,-62.5 708.14,-69.5"/>
</a>
</g>
</g>
<!-- Node8 -->
<g id="Node000008" class="node">
<title>Node8</title>
<g id="a_Node000008"><a xlink:href="class_py_p_s_a-_g_b_1_1distribution_1_1_distribution.html#a034d0040f046c1069685119c7127b963" target="_top" xlink:title=" ">
<polygon fill="white" stroke="#666666" points="684,-32 476,-32 476,0 684,0 684,-32"/>
<text xml:space="preserve" text-anchor="start" x="484" y="-18.5" font-family="Helvetica,sans-Serif" font-size="10.00">PyPSA&#45;GB.distribution.Distribution.scotland</text>
<text xml:space="preserve" text-anchor="middle" x="580" y="-6.5" font-family="Helvetica,sans-Serif" font-size="10.00">_total_tech</text>
</a>
</g>
</g>
<!-- Node7&#45;&gt;Node8 -->
<g id="edge7_Node000007_Node000008" class="edge">
<title>Node7&#45;&gt;Node8</title>
<g id="a_edge7_Node000007_Node000008"><a xlink:title=" ">
<path fill="none" stroke="#63b8ff" d="M440.23,-16C448.23,-16 456.35,-16 464.44,-16"/>
<polygon fill="#63b8ff" stroke="#63b8ff" points="464.32,-19.5 474.32,-16 464.32,-12.5 464.32,-19.5"/>
</a>
</g>
</g>
<!-- Node9 -->
<g id="Node000009" class="node">
<title>Node9</title>
<g id="a_Node000009"><a xlink:href="class_py_p_s_a-_g_b_1_1distribution_1_1_distribution.html#a92bf89f6aa81ce7e84b5acc2611ddc77" target="_top" xlink:title=" ">
<polygon fill="white" stroke="#666666" points="910,-32 720,-32 720,0 910,0 910,-32"/>
<text xml:space="preserve" text-anchor="start" x="728" y="-18.5" font-family="Helvetica,sans-Serif" font-size="10.00">PyPSA&#45;GB.distribution.Distribution.read</text>
<text xml:space="preserve" text-anchor="middle" x="815" y="-6.5" font-family="Helvetica,sans-Serif" font-size="10.00">_building_block_scotland</text>
</a>
</g>
</g>
<!-- Node8&#45;&gt;Node9 -->
<g id="edge8_Node000008_Node000009" class="edge">
<title>Node8&#45;&gt;Node9</title>
<g id="a_edge8_Node000008_Node000009"><a xlink:title=" ">
<path fill="none" stroke="#63b8ff" d="M684.21,-16C692.24,-16 700.35,-16 708.39,-16"/>
<polygon fill="#63b8ff" stroke="#63b8ff" points="708.18,-19.5 718.18,-16 708.18,-12.5 708.18,-19.5"/>
</a>
</g>
</g>
</g>
</svg>
