<?xml version="1.0" encoding="UTF-8" standalone="no"?>
<!DOCTYPE svg PUBLIC "-//W3C//DTD SVG 1.1//EN"
 "http://www.w3.org/Graphics/SVG/1.1/DTD/svg11.dtd">
<!-- Generated by graphviz version 13.1.2 (20250808.2320)
 -->
<!-- Title: PyPSA&#45;GB.distribution.Distribution.PV_data Pages: 1 -->
<svg width="623pt" height="40pt"
 viewBox="0.00 0.00 623.00 40.00" xmlns="http://www.w3.org/2000/svg" xmlns:xlink="http://www.w3.org/1999/xlink">
<g id="graph0" class="graph" transform="scale(1 1) rotate(0) translate(4 36)">
<title>PyPSA&#45;GB.distribution.Distribution.PV_data</title>
<!-- Node1 -->
<g id="Node000001" class="node">
<title>Node1</title>
<g id="a_Node000001"><a xlink:title=" ">
<polygon fill="#999999" stroke="#666666" points="615,-32 443.75,-32 443.75,0 615,0 615,-32"/>
<text xml:space="preserve" text-anchor="start" x="451.75" y="-18.5" font-family="Helvetica,sans-Serif" font-size="10.00">PyPSA&#45;GB.distribution.Distribution.</text>
<text xml:space="preserve" text-anchor="middle" x="529.38" y="-6.5" font-family="Helvetica,sans-Serif" font-size="10.00">PV_data</text>
</a>
</g>
</g>
<!-- Node2 -->
<g id="Node000002" class="node">
<title>Node2</title>
<g id="a_Node000002"><a xlink:href="class_py_p_s_a-_g_b_1_1distribution_1_1_distribution.html#a866db7c27828fb5f2e14906c2963ef78" target="_top" xlink:title=" ">
<polygon fill="white" stroke="#666666" points="407.75,-32 236.5,-32 236.5,0 407.75,0 407.75,-32"/>
<text xml:space="preserve" text-anchor="start" x="244.5" y="-18.5" font-family="Helvetica,sans-Serif" font-size="10.00">PyPSA&#45;GB.distribution.Distribution.</text>
<text xml:space="preserve" text-anchor="middle" x="322.12" y="-6.5" font-family="Helvetica,sans-Serif" font-size="10.00">PV_scale</text>
</a>
</g>
</g>
<!-- Node1&#45;&gt;Node2 -->
<g id="edge1_Node000001_Node000002" class="edge">
<title>Node1&#45;&gt;Node2</title>
<g id="a_edge1_Node000001_Node000002"><a xlink:title=" ">
<path fill="none" stroke="#63b8ff" d="M432.1,-16C424.06,-16 415.97,-16 408.03,-16"/>
<polygon fill="#63b8ff" stroke="#63b8ff" points="431.9,-19.5 441.9,-16 431.9,-12.5 431.9,-19.5"/>
</a>
</g>
</g>
<!-- Node3 -->
<g id="Node000003" class="node">
<title>Node3</title>
<g id="a_Node000003"><a xlink:href="class_py_p_s_a-_g_b_1_1distribution_1_1_distribution.html#ac04f3142f1b40c88b2d9ee0f4fbbacd5" target="_top" xlink:title=" ">
<polygon fill="white" stroke="#666666" points="200.5,-26 0,-26 0,-6 200.5,-6 200.5,-26"/>
<text xml:space="preserve" text-anchor="middle" x="100.25" y="-12.5" font-family="Helvetica,sans-Serif" font-size="10.00">PyPSA&#45;GB.distribution.Distribution.update</text>
</a>
</g>
</g>
<!-- Node2&#45;&gt;Node3 -->
<g id="edge2_Node000002_Node000003" class="edge">
<title>Node2&#45;&gt;Node3</title>
<g id="a_edge2_Node000002_Node000003"><a xlink:title=" ">
<path fill="none" stroke="#63b8ff" d="M224.87,-16C216.85,-16 208.73,-16 200.69,-16"/>
<polygon fill="#63b8ff" stroke="#63b8ff" points="224.6,-19.5 234.6,-16 224.6,-12.5 224.6,-19.5"/>
</a>
</g>
</g>
</g>
</svg>
