<?xml version="1.0" encoding="UTF-8" standalone="no"?>
<!DOCTYPE svg PUBLIC "-//W3C//DTD SVG 1.1//EN"
 "http://www.w3.org/Graphics/SVG/1.1/DTD/svg11.dtd">
<!-- Generated by graphviz version 13.1.2 (20250808.2320)
 -->
<!-- Title: PyPSA&#45;GB.distribution.Distribution.modify_interconnector Pages: 1 -->
<!--zoomable 190 -->

<svg id="main" version="1.1" xmlns="http://www.w3.org/2000/svg" xmlns:xlink="http://www.w3.org/1999/xlink" xml:space="preserve" onload="init(evt)">

<style type="text/css"><![CDATA[
.node, .edge {opacity: 0.7;}
.node.selected, .edge.selected {opacity: 1;}
.edge:hover path { stroke: red; }
.edge:hover polygon { stroke: red; fill: red; }
]]></style>

<defs>
  <circle id="rim" cx="0" cy="0" r="7"/>
  <circle id="rim2" cx="0" cy="0" r="3.5"/>
  <g id="zoomPlus">
    <use xlink:href="#rim" fill="#404040"><set attributeName="fill" to="#808080" begin="zoomplus.mouseover" end="zoomplus.mouseout"/></use>
    <path d="M-4,0h8M0,-4v8" fill="none" stroke="white" stroke-width="1.5" pointer-events="none"/>
  </g>
  <g id="zoomMin">
    <use xlink:href="#rim" fill="#404040"><set attributeName="fill" to="#808080" begin="zoomminus.mouseover" end="zoomminus.mouseout"/></use>
    <path d="M-4,0h8" fill="none" stroke="white" stroke-width="1.5" pointer-events="none"/>
  </g>
  <g id="arrowUp" transform="translate(30 24)">
    <use xlink:href="#rim"/>
    <path pointer-events="none" fill="none" stroke="white" stroke-width="1.5" d="M0,-3.0v7 M-2.5,-0.5L0,-3.0L2.5,-0.5"/>
  </g>
  <g id="arrowRight" transform="rotate(90) translate(36 -43)">
    <use xlink:href="#rim"/>
    <path pointer-events="none" fill="none" stroke="white" stroke-width="1.5" d="M0,-3.0v7 M-2.5,-0.5L0,-3.0L2.5,-0.5"/>
  </g>
  <g id="arrowDown" transform="rotate(180) translate(-30 -48)">
    <use xlink:href="#rim"/>
    <path pointer-events="none" fill="none" stroke="white" stroke-width="1.5" d="M0,-3.0v7 M-2.5,-0.5L0,-3.0L2.5,-0.5"/>
  </g>
  <g id="arrowLeft" transform="rotate(270) translate(-36 17)">
    <use xlink:href="#rim"/>
    <path pointer-events="none" fill="none" stroke="white" stroke-width="1.5" d="M0,-3.0v7 M-2.5,-0.5L0,-3.0L2.5,-0.5"/>
  </g>
  <g id="resetDef">
    <use xlink:href="#rim2" fill="#404040"><set attributeName="fill" to="#808080" begin="reset.mouseover" end="reset.mouseout"/></use>
  </g>
</defs>
<script type="application/ecmascript">
var viewWidth = 947;
var viewHeight = 190;
var sectionId = 'dynsection-11';
</script>
<script type="application/ecmascript" xlink:href="svg.min.js"/>
<svg id="graph" class="graph">
<g id="viewport">
<title>PyPSA&#45;GB.distribution.Distribution.modify_interconnector</title>
<!-- Node1 -->
<g id="Node000001" class="node">
<title>Node1</title>
<g id="a_Node000001"><a xlink:title=" ">
<polygon fill="#999999" stroke="#666666" points="200.5,-107 0,-107 0,-75 200.5,-75 200.5,-107"/>
<text xml:space="preserve" text-anchor="start" x="8" y="-93.5" font-family="Helvetica,sans-Serif" font-size="10.00">PyPSA&#45;GB.distribution.Distribution.modify</text>
<text xml:space="preserve" text-anchor="middle" x="100.25" y="-81.5" font-family="Helvetica,sans-Serif" font-size="10.00">_interconnector</text>
</a>
</g>
</g>
<!-- Node2 -->
<g id="Node000002" class="node">
<title>Node2</title>
<g id="a_Node000002"><a xlink:href="class_py_p_s_a-_g_b_1_1distribution_1_1_distribution.html#a2f9b84e11f6345de8678e3d290576c0c" target="_top" xlink:title=" ">
<polygon fill="white" stroke="#666666" points="469.25,-182 236.5,-182 236.5,-150 469.25,-150 469.25,-182"/>
<text xml:space="preserve" text-anchor="start" x="244.5" y="-168.5" font-family="Helvetica,sans-Serif" font-size="10.00">PyPSA&#45;GB.distribution.Distribution.interconnector</text>
<text xml:space="preserve" text-anchor="middle" x="352.88" y="-156.5" font-family="Helvetica,sans-Serif" font-size="10.00">_capacities_rgb</text>
</a>
</g>
</g>
<!-- Node1&#45;&gt;Node2 -->
<g id="edge1_Node000001_Node000002" class="edge">
<title>Node1&#45;&gt;Node2</title>
<g id="a_edge1_Node000001_Node000002"><a xlink:title=" ">
<path fill="none" stroke="#63b8ff" d="M141.29,-107.49C167.95,-118.05 203.94,-131.5 236.5,-141 243.42,-143.02 250.63,-144.96 257.9,-146.79"/>
<polygon fill="#63b8ff" stroke="#63b8ff" points="256.94,-150.16 267.49,-149.15 258.61,-143.37 256.94,-150.16"/>
</a>
</g>
</g>
<!-- Node5 -->
<g id="Node000005" class="node">
<title>Node5</title>
<g id="a_Node000005"><a xlink:href="class_py_p_s_a-_g_b_1_1distribution_1_1_distribution.html#a0691d398335de9cae6cb54913491df99" target="_top" xlink:title=" ">
<polygon fill="white" stroke="#666666" points="469.25,-132 236.5,-132 236.5,-100 469.25,-100 469.25,-132"/>
<text xml:space="preserve" text-anchor="start" x="244.5" y="-118.5" font-family="Helvetica,sans-Serif" font-size="10.00">PyPSA&#45;GB.distribution.Distribution.interconnector</text>
<text xml:space="preserve" text-anchor="middle" x="352.88" y="-106.5" font-family="Helvetica,sans-Serif" font-size="10.00">_capacities_scotland</text>
</a>
</g>
</g>
<!-- Node1&#45;&gt;Node5 -->
<g id="edge4_Node000001_Node000005" class="edge">
<title>Node1&#45;&gt;Node5</title>
<g id="a_edge4_Node000001_Node000005"><a xlink:title=" ">
<path fill="none" stroke="#63b8ff" d="M200.66,-100.92C208.56,-101.7 216.6,-102.51 224.65,-103.31"/>
<polygon fill="#63b8ff" stroke="#63b8ff" points="224.22,-106.78 234.52,-104.29 224.91,-99.82 224.22,-106.78"/>
</a>
</g>
</g>
<!-- Node8 -->
<g id="Node000008" class="node">
<title>Node8</title>
<g id="a_Node000008"><a xlink:href="class_py_p_s_a-_g_b_1_1distribution_1_1_distribution.html#a67327af6886f94381d790317e07e6222" target="_top" xlink:title=" ">
<polygon fill="white" stroke="#666666" points="447.88,-82 257.88,-82 257.88,-50 447.88,-50 447.88,-82"/>
<text xml:space="preserve" text-anchor="start" x="265.88" y="-68.5" font-family="Helvetica,sans-Serif" font-size="10.00">PyPSA&#45;GB.distribution.Distribution.read</text>
<text xml:space="preserve" text-anchor="middle" x="352.88" y="-56.5" font-family="Helvetica,sans-Serif" font-size="10.00">_rgb_interconnector</text>
</a>
</g>
</g>
<!-- Node1&#45;&gt;Node8 -->
<g id="edge7_Node000001_Node000008" class="edge">
<title>Node1&#45;&gt;Node8</title>
<g id="a_edge7_Node000001_Node000008"><a xlink:title=" ">
<path fill="none" stroke="#63b8ff" d="M200.66,-81.08C215.58,-79.6 231.02,-78.06 246.06,-76.55"/>
<polygon fill="#63b8ff" stroke="#63b8ff" points="246.37,-80.04 255.97,-75.57 245.68,-73.08 246.37,-80.04"/>
</a>
</g>
</g>
<!-- Node9 -->
<g id="Node000009" class="node">
<title>Node9</title>
<g id="a_Node000009"><a xlink:href="class_py_p_s_a-_g_b_1_1distribution_1_1_distribution.html#a07993f26825ff9ebc158892a53a76946" target="_top" xlink:title=" ">
<polygon fill="white" stroke="#666666" points="447.88,-32 257.88,-32 257.88,0 447.88,0 447.88,-32"/>
<text xml:space="preserve" text-anchor="start" x="265.88" y="-18.5" font-family="Helvetica,sans-Serif" font-size="10.00">PyPSA&#45;GB.distribution.Distribution.read</text>
<text xml:space="preserve" text-anchor="middle" x="352.88" y="-6.5" font-family="Helvetica,sans-Serif" font-size="10.00">_scotland_interconnector</text>
</a>
</g>
</g>
<!-- Node1&#45;&gt;Node9 -->
<g id="edge8_Node000001_Node000009" class="edge">
<title>Node1&#45;&gt;Node9</title>
<g id="a_edge8_Node000001_Node000009"><a xlink:title=" ">
<path fill="none" stroke="#63b8ff" d="M141.29,-74.51C167.95,-63.95 203.94,-50.5 236.5,-41 243.42,-38.98 250.63,-37.04 257.9,-35.21"/>
<polygon fill="#63b8ff" stroke="#63b8ff" points="258.61,-38.63 267.49,-32.85 256.94,-31.84 258.61,-38.63"/>
</a>
</g>
</g>
<!-- Node3 -->
<g id="Node000003" class="node">
<title>Node3</title>
<g id="a_Node000003"><a xlink:href="class_py_p_s_a-_g_b_1_1distribution_1_1_distribution.html#a2e5b3aced22f9c6dc561f471330f0518" target="_top" xlink:title=" ">
<polygon fill="white" stroke="#666666" points="701.62,-182 516.88,-182 516.88,-150 701.62,-150 701.62,-182"/>
<text xml:space="preserve" text-anchor="start" x="524.88" y="-168.5" font-family="Helvetica,sans-Serif" font-size="10.00">PyPSA&#45;GB.distribution.Distribution.rgb</text>
<text xml:space="preserve" text-anchor="middle" x="609.25" y="-156.5" font-family="Helvetica,sans-Serif" font-size="10.00">_total_tech</text>
</a>
</g>
</g>
<!-- Node2&#45;&gt;Node3 -->
<g id="edge2_Node000002_Node000003" class="edge">
<title>Node2&#45;&gt;Node3</title>
<g id="a_edge2_Node000002_Node000003"><a xlink:title=" ">
<path fill="none" stroke="#63b8ff" d="M469.53,-166C481.46,-166 493.53,-166 505.32,-166"/>
<polygon fill="#63b8ff" stroke="#63b8ff" points="505,-169.5 515,-166 505,-162.5 505,-169.5"/>
</a>
</g>
</g>
<!-- Node4 -->
<g id="Node000004" class="node">
<title>Node4</title>
<g id="a_Node000004"><a xlink:href="class_py_p_s_a-_g_b_1_1distribution_1_1_distribution.html#af87c046f2f6e6bfdbb809fc07d550f28" target="_top" xlink:title=" ">
<polygon fill="white" stroke="#666666" points="939.25,-182 749.25,-182 749.25,-150 939.25,-150 939.25,-182"/>
<text xml:space="preserve" text-anchor="start" x="757.25" y="-168.5" font-family="Helvetica,sans-Serif" font-size="10.00">PyPSA&#45;GB.distribution.Distribution.read</text>
<text xml:space="preserve" text-anchor="middle" x="844.25" y="-156.5" font-family="Helvetica,sans-Serif" font-size="10.00">_building_block_rgb</text>
</a>
</g>
</g>
<!-- Node3&#45;&gt;Node4 -->
<g id="edge3_Node000003_Node000004" class="edge">
<title>Node3&#45;&gt;Node4</title>
<g id="a_edge3_Node000003_Node000004"><a xlink:title=" ">
<path fill="none" stroke="#63b8ff" d="M702,-166C713.68,-166 725.71,-166 737.58,-166"/>
<polygon fill="#63b8ff" stroke="#63b8ff" points="737.39,-169.5 747.39,-166 737.39,-162.5 737.39,-169.5"/>
</a>
</g>
</g>
<!-- Node6 -->
<g id="Node000006" class="node">
<title>Node6</title>
<g id="a_Node000006"><a xlink:href="class_py_p_s_a-_g_b_1_1distribution_1_1_distribution.html#a034d0040f046c1069685119c7127b963" target="_top" xlink:title=" ">
<polygon fill="white" stroke="#666666" points="713.25,-132 505.25,-132 505.25,-100 713.25,-100 713.25,-132"/>
<text xml:space="preserve" text-anchor="start" x="513.25" y="-118.5" font-family="Helvetica,sans-Serif" font-size="10.00">PyPSA&#45;GB.distribution.Distribution.scotland</text>
<text xml:space="preserve" text-anchor="middle" x="609.25" y="-106.5" font-family="Helvetica,sans-Serif" font-size="10.00">_total_tech</text>
</a>
</g>
</g>
<!-- Node5&#45;&gt;Node6 -->
<g id="edge5_Node000005_Node000006" class="edge">
<title>Node5&#45;&gt;Node6</title>
<g id="a_edge5_Node000005_Node000006"><a xlink:title=" ">
<path fill="none" stroke="#63b8ff" d="M469.53,-116C477.55,-116 485.64,-116 493.67,-116"/>
<polygon fill="#63b8ff" stroke="#63b8ff" points="493.44,-119.5 503.44,-116 493.44,-112.5 493.44,-119.5"/>
</a>
</g>
</g>
<!-- Node7 -->
<g id="Node000007" class="node">
<title>Node7</title>
<g id="a_Node000007"><a xlink:href="class_py_p_s_a-_g_b_1_1distribution_1_1_distribution.html#a92bf89f6aa81ce7e84b5acc2611ddc77" target="_top" xlink:title=" ">
<polygon fill="white" stroke="#666666" points="939.25,-132 749.25,-132 749.25,-100 939.25,-100 939.25,-132"/>
<text xml:space="preserve" text-anchor="start" x="757.25" y="-118.5" font-family="Helvetica,sans-Serif" font-size="10.00">PyPSA&#45;GB.distribution.Distribution.read</text>
<text xml:space="preserve" text-anchor="middle" x="844.25" y="-106.5" font-family="Helvetica,sans-Serif" font-size="10.00">_building_block_scotland</text>
</a>
</g>
</g>
<!-- Node6&#45;&gt;Node7 -->
<g id="edge6_Node000006_Node000007" class="edge">
<title>Node6&#45;&gt;Node7</title>
<g id="a_edge6_Node000006_Node000007"><a xlink:title=" ">
<path fill="none" stroke="#63b8ff" d="M713.46,-116C721.49,-116 729.6,-116 737.64,-116"/>
<polygon fill="#63b8ff" stroke="#63b8ff" points="737.43,-119.5 747.43,-116 737.43,-112.5 737.43,-119.5"/>
</a>
</g>
</g>
</g>
</svg>

<g id="navigator" transform="translate(0 0)" fill="#404254">
  <rect fill="#f2f5e9" fill-opacity="0.5" stroke="#606060" stroke-width=".5" x="0" y="0" width="60" height="60"/>
  <use id="zoomplus" xlink:href="#zoomPlus" x="17" y="9" onmousedown="handleZoom(evt,'in')"/>
  <use id="zoomminus" xlink:href="#zoomMin" x="42" y="9" onmousedown="handleZoom(evt,'out')"/>
  <use id="reset" xlink:href="#resetDef" x="30" y="36" onmousedown="handleReset()"/>
   <use id="arrowup" xlink:href="#arrowUp" x="0" y="0" onmousedown="handlePan(0,-1)"/>
  <use id="arrowright" xlink:href="#arrowRight" x="0" y="0" onmousedown="handlePan(1,0)"/>
  <use id="arrowdown" xlink:href="#arrowDown" x="0" y="0" onmousedown="handlePan(0,1)"/>
  <use id="arrowleft" xlink:href="#arrowLeft" x="0" y="0" onmousedown="handlePan(-1,0)"/>
</g>
<svg viewBox="0 0 15 15" width="100%" height="30px" preserveAspectRatio="xMaxYMin meet">
 <g id="arrow_out" transform="scale(0.3 0.3)">
  <a xlink:href="class_py_p_s_a-_g_b_1_1distribution_1_1_distribution_a7566f27a4f96f96eae6a1a259b7da7ca_cgraph_org.svg" target="_base">
   <rect id="button" ry="5" rx="5" y="6" x="6" height="38" width="38"
        fill="#f2f5e9" fill-opacity="0.5" stroke="#606060" stroke-width="1.0"/>
   <path id="arrow"
     d="M 11.500037,31.436501 C 11.940474,20.09759 22.043105,11.32322 32.158766,21.979434 L 37.068811,17.246167 C 37.068811,17.246167 37.088388,32 37.088388,32 L 22.160133,31.978069 C 22.160133,31.978069 26.997745,27.140456 26.997745,27.140456 C 18.528582,18.264221 13.291696,25.230495 11.500037,31.436501 z"
     style="fill:#404040;"/>
  </a>
 </g>
</svg>

<style type='text/css'>
<![CDATA[
[data-mouse-over-selected='false'] { opacity: 0.7; }
[data-mouse-over-selected='true']  { opacity: 1.0; }
]]>
</style>
<script type="application/ecmascript"><![CDATA[
document.addEventListener('DOMContentLoaded', (event) => {
  highlightEdges();
  highlightAdjacentNodes();
});
]]></script>
</svg>
