<?xml version="1.0" encoding="UTF-8" standalone="no"?>
<!DOCTYPE svg PUBLIC "-//W3C//DTD SVG 1.1//EN"
 "http://www.w3.org/Graphics/SVG/1.1/DTD/svg11.dtd">
<!-- Generated by graphviz version 13.1.2 (20250808.2320)
 -->
<!-- Title: PyPSA&#45;GB.distribution.Distribution.modify_generators Pages: 1 -->
<svg width="931pt" height="190pt"
 viewBox="0.00 0.00 931.00 190.00" xmlns="http://www.w3.org/2000/svg" xmlns:xlink="http://www.w3.org/1999/xlink">
<g id="graph0" class="graph" transform="scale(1 1) rotate(0) translate(4 186)">
<title>PyPSA&#45;GB.distribution.Distribution.modify_generators</title>
<!-- Node1 -->
<g id="Node000001" class="node">
<title>Node1</title>
<g id="a_Node000001"><a xlink:title=" ">
<polygon fill="#999999" stroke="#666666" points="200.5,-107 0,-107 0,-75 200.5,-75 200.5,-107"/>
<text xml:space="preserve" text-anchor="start" x="8" y="-93.5" font-family="Helvetica,sans-Serif" font-size="10.00">PyPSA&#45;GB.distribution.Distribution.modify</text>
<text xml:space="preserve" text-anchor="middle" x="100.25" y="-81.5" font-family="Helvetica,sans-Serif" font-size="10.00">_generators</text>
</a>
</g>
</g>
<!-- Node2 -->
<g id="Node000002" class="node">
<title>Node2</title>
<g id="a_Node000002"><a xlink:href="class_py_p_s_a-_g_b_1_1distribution_1_1_distribution.html#ad4a7232beaca8ab702ae07b7e4f8e1d7" target="_top" xlink:title=" ">
<polygon fill="white" stroke="#666666" points="452.75,-182 236.5,-182 236.5,-150 452.75,-150 452.75,-182"/>
<text xml:space="preserve" text-anchor="start" x="244.5" y="-168.5" font-family="Helvetica,sans-Serif" font-size="10.00">PyPSA&#45;GB.distribution.Distribution.generation</text>
<text xml:space="preserve" text-anchor="middle" x="344.62" y="-156.5" font-family="Helvetica,sans-Serif" font-size="10.00">_capacities_rgb</text>
</a>
</g>
</g>
<!-- Node1&#45;&gt;Node2 -->
<g id="edge1_Node000001_Node000002" class="edge">
<title>Node1&#45;&gt;Node2</title>
<g id="a_edge1_Node000001_Node000002"><a xlink:title=" ">
<path fill="none" stroke="#63b8ff" d="M141.64,-107.44C168.29,-117.91 204.13,-131.28 236.5,-141 243.1,-142.98 249.97,-144.9 256.9,-146.74"/>
<polygon fill="#63b8ff" stroke="#63b8ff" points="255.79,-150.07 266.35,-149.17 257.54,-143.29 255.79,-150.07"/>
</a>
</g>
</g>
<!-- Node5 -->
<g id="Node000005" class="node">
<title>Node5</title>
<g id="a_Node000005"><a xlink:href="class_py_p_s_a-_g_b_1_1distribution_1_1_distribution.html#a52d82b3645f6a9fd0c35181b0c89e315" target="_top" xlink:title=" ">
<polygon fill="white" stroke="#666666" points="452.75,-132 236.5,-132 236.5,-100 452.75,-100 452.75,-132"/>
<text xml:space="preserve" text-anchor="start" x="244.5" y="-118.5" font-family="Helvetica,sans-Serif" font-size="10.00">PyPSA&#45;GB.distribution.Distribution.generation</text>
<text xml:space="preserve" text-anchor="middle" x="344.62" y="-106.5" font-family="Helvetica,sans-Serif" font-size="10.00">_capacities_scotland</text>
</a>
</g>
</g>
<!-- Node1&#45;&gt;Node5 -->
<g id="edge4_Node000001_Node000005" class="edge">
<title>Node1&#45;&gt;Node5</title>
<g id="a_edge4_Node000001_Node000005"><a xlink:title=" ">
<path fill="none" stroke="#63b8ff" d="M200.88,-101.28C208.78,-102.09 216.81,-102.92 224.82,-103.75"/>
<polygon fill="#63b8ff" stroke="#63b8ff" points="224.31,-107.21 234.61,-104.76 225.02,-100.25 224.31,-107.21"/>
</a>
</g>
</g>
<!-- Node8 -->
<g id="Node000008" class="node">
<title>Node8</title>
<g id="a_Node000008"><a xlink:href="class_py_p_s_a-_g_b_1_1distribution_1_1_distribution.html#a8f6f20650f4bacaaf45c135f9cfb9941" target="_top" xlink:title=" ">
<polygon fill="white" stroke="#666666" points="439.62,-82 249.62,-82 249.62,-50 439.62,-50 439.62,-82"/>
<text xml:space="preserve" text-anchor="start" x="257.62" y="-68.5" font-family="Helvetica,sans-Serif" font-size="10.00">PyPSA&#45;GB.distribution.Distribution.read</text>
<text xml:space="preserve" text-anchor="middle" x="344.62" y="-56.5" font-family="Helvetica,sans-Serif" font-size="10.00">_rgb_generators</text>
</a>
</g>
</g>
<!-- Node1&#45;&gt;Node8 -->
<g id="edge7_Node000001_Node000008" class="edge">
<title>Node1&#45;&gt;Node8</title>
<g id="a_edge7_Node000001_Node000008"><a xlink:title=" ">
<path fill="none" stroke="#63b8ff" d="M200.88,-80.72C213.18,-79.46 225.78,-78.16 238.16,-76.88"/>
<polygon fill="#63b8ff" stroke="#63b8ff" points="238.36,-80.38 247.94,-75.87 237.64,-73.41 238.36,-80.38"/>
</a>
</g>
</g>
<!-- Node9 -->
<g id="Node000009" class="node">
<title>Node9</title>
<g id="a_Node000009"><a xlink:href="class_py_p_s_a-_g_b_1_1distribution_1_1_distribution.html#adfede53162aa16186b9b6c2ed9b08166" target="_top" xlink:title=" ">
<polygon fill="white" stroke="#666666" points="439.62,-32 249.62,-32 249.62,0 439.62,0 439.62,-32"/>
<text xml:space="preserve" text-anchor="start" x="257.62" y="-18.5" font-family="Helvetica,sans-Serif" font-size="10.00">PyPSA&#45;GB.distribution.Distribution.read</text>
<text xml:space="preserve" text-anchor="middle" x="344.62" y="-6.5" font-family="Helvetica,sans-Serif" font-size="10.00">_scotland_generators</text>
</a>
</g>
</g>
<!-- Node1&#45;&gt;Node9 -->
<g id="edge8_Node000001_Node000009" class="edge">
<title>Node1&#45;&gt;Node9</title>
<g id="a_edge8_Node000001_Node000009"><a xlink:title=" ">
<path fill="none" stroke="#63b8ff" d="M141.64,-74.56C168.29,-64.09 204.13,-50.72 236.5,-41 243.1,-39.02 249.97,-37.1 256.9,-35.26"/>
<polygon fill="#63b8ff" stroke="#63b8ff" points="257.54,-38.71 266.35,-32.83 255.79,-31.93 257.54,-38.71"/>
</a>
</g>
</g>
<!-- Node3 -->
<g id="Node000003" class="node">
<title>Node3</title>
<g id="a_Node000003"><a xlink:href="class_py_p_s_a-_g_b_1_1distribution_1_1_distribution.html#a2e5b3aced22f9c6dc561f471330f0518" target="_top" xlink:title=" ">
<polygon fill="white" stroke="#666666" points="685.12,-182 500.38,-182 500.38,-150 685.12,-150 685.12,-182"/>
<text xml:space="preserve" text-anchor="start" x="508.38" y="-168.5" font-family="Helvetica,sans-Serif" font-size="10.00">PyPSA&#45;GB.distribution.Distribution.rgb</text>
<text xml:space="preserve" text-anchor="middle" x="592.75" y="-156.5" font-family="Helvetica,sans-Serif" font-size="10.00">_total_tech</text>
</a>
</g>
</g>
<!-- Node2&#45;&gt;Node3 -->
<g id="edge2_Node000002_Node000003" class="edge">
<title>Node2&#45;&gt;Node3</title>
<g id="a_edge2_Node000002_Node000003"><a xlink:title=" ">
<path fill="none" stroke="#63b8ff" d="M453.22,-166C465.08,-166 477.14,-166 488.94,-166"/>
<polygon fill="#63b8ff" stroke="#63b8ff" points="488.65,-169.5 498.65,-166 488.65,-162.5 488.65,-169.5"/>
</a>
</g>
</g>
<!-- Node4 -->
<g id="Node000004" class="node">
<title>Node4</title>
<g id="a_Node000004"><a xlink:href="class_py_p_s_a-_g_b_1_1distribution_1_1_distribution.html#af87c046f2f6e6bfdbb809fc07d550f28" target="_top" xlink:title=" ">
<polygon fill="white" stroke="#666666" points="922.75,-182 732.75,-182 732.75,-150 922.75,-150 922.75,-182"/>
<text xml:space="preserve" text-anchor="start" x="740.75" y="-168.5" font-family="Helvetica,sans-Serif" font-size="10.00">PyPSA&#45;GB.distribution.Distribution.read</text>
<text xml:space="preserve" text-anchor="middle" x="827.75" y="-156.5" font-family="Helvetica,sans-Serif" font-size="10.00">_building_block_rgb</text>
</a>
</g>
</g>
<!-- Node3&#45;&gt;Node4 -->
<g id="edge3_Node000003_Node000004" class="edge">
<title>Node3&#45;&gt;Node4</title>
<g id="a_edge3_Node000003_Node000004"><a xlink:title=" ">
<path fill="none" stroke="#63b8ff" d="M685.5,-166C697.18,-166 709.21,-166 721.08,-166"/>
<polygon fill="#63b8ff" stroke="#63b8ff" points="720.89,-169.5 730.89,-166 720.89,-162.5 720.89,-169.5"/>
</a>
</g>
</g>
<!-- Node6 -->
<g id="Node000006" class="node">
<title>Node6</title>
<g id="a_Node000006"><a xlink:href="class_py_p_s_a-_g_b_1_1distribution_1_1_distribution.html#a034d0040f046c1069685119c7127b963" target="_top" xlink:title=" ">
<polygon fill="white" stroke="#666666" points="696.75,-132 488.75,-132 488.75,-100 696.75,-100 696.75,-132"/>
<text xml:space="preserve" text-anchor="start" x="496.75" y="-118.5" font-family="Helvetica,sans-Serif" font-size="10.00">PyPSA&#45;GB.distribution.Distribution.scotland</text>
<text xml:space="preserve" text-anchor="middle" x="592.75" y="-106.5" font-family="Helvetica,sans-Serif" font-size="10.00">_total_tech</text>
</a>
</g>
</g>
<!-- Node5&#45;&gt;Node6 -->
<g id="edge5_Node000005_Node000006" class="edge">
<title>Node5&#45;&gt;Node6</title>
<g id="a_edge5_Node000005_Node000006"><a xlink:title=" ">
<path fill="none" stroke="#63b8ff" d="M453.22,-116C461.04,-116 468.95,-116 476.81,-116"/>
<polygon fill="#63b8ff" stroke="#63b8ff" points="476.77,-119.5 486.77,-116 476.77,-112.5 476.77,-119.5"/>
</a>
</g>
</g>
<!-- Node7 -->
<g id="Node000007" class="node">
<title>Node7</title>
<g id="a_Node000007"><a xlink:href="class_py_p_s_a-_g_b_1_1distribution_1_1_distribution.html#a92bf89f6aa81ce7e84b5acc2611ddc77" target="_top" xlink:title=" ">
<polygon fill="white" stroke="#666666" points="922.75,-132 732.75,-132 732.75,-100 922.75,-100 922.75,-132"/>
<text xml:space="preserve" text-anchor="start" x="740.75" y="-118.5" font-family="Helvetica,sans-Serif" font-size="10.00">PyPSA&#45;GB.distribution.Distribution.read</text>
<text xml:space="preserve" text-anchor="middle" x="827.75" y="-106.5" font-family="Helvetica,sans-Serif" font-size="10.00">_building_block_scotland</text>
</a>
</g>
</g>
<!-- Node6&#45;&gt;Node7 -->
<g id="edge6_Node000006_Node000007" class="edge">
<title>Node6&#45;&gt;Node7</title>
<g id="a_edge6_Node000006_Node000007"><a xlink:title=" ">
<path fill="none" stroke="#63b8ff" d="M696.96,-116C704.99,-116 713.1,-116 721.14,-116"/>
<polygon fill="#63b8ff" stroke="#63b8ff" points="720.93,-119.5 730.93,-116 720.93,-112.5 720.93,-119.5"/>
</a>
</g>
</g>
</g>
</svg>
