<?xml version="1.0" encoding="UTF-8" standalone="no"?>
<!DOCTYPE svg PUBLIC "-//W3C//DTD SVG 1.1//EN"
 "http://www.w3.org/Graphics/SVG/1.1/DTD/svg11.dtd">
<!-- Generated by graphviz version 13.1.2 (20250808.2320)
 -->
<!-- Title: PyPSA&#45;GB.distribution.Distribution.modify_interconnector Pages: 1 -->
<svg width="947pt" height="190pt"
 viewBox="0.00 0.00 947.00 190.00" xmlns="http://www.w3.org/2000/svg" xmlns:xlink="http://www.w3.org/1999/xlink">
<g id="graph0" class="graph" transform="scale(1 1) rotate(0) translate(4 186)">
<title>PyPSA&#45;GB.distribution.Distribution.modify_interconnector</title>
<!-- Node1 -->
<g id="Node000001" class="node">
<title>Node1</title>
<g id="a_Node000001"><a xlink:title=" ">
<polygon fill="#999999" stroke="#666666" points="200.5,-107 0,-107 0,-75 200.5,-75 200.5,-107"/>
<text xml:space="preserve" text-anchor="start" x="8" y="-93.5" font-family="Helvetica,sans-Serif" font-size="10.00">PyPSA&#45;GB.distribution.Distribution.modify</text>
<text xml:space="preserve" text-anchor="middle" x="100.25" y="-81.5" font-family="Helvetica,sans-Serif" font-size="10.00">_interconnector</text>
</a>
</g>
</g>
<!-- Node2 -->
<g id="Node000002" class="node">
<title>Node2</title>
<g id="a_Node000002"><a xlink:href="class_py_p_s_a-_g_b_1_1distribution_1_1_distribution.html#a2f9b84e11f6345de8678e3d290576c0c" target="_top" xlink:title=" ">
<polygon fill="white" stroke="#666666" points="469.25,-182 236.5,-182 236.5,-150 469.25,-150 469.25,-182"/>
<text xml:space="preserve" text-anchor="start" x="244.5" y="-168.5" font-family="Helvetica,sans-Serif" font-size="10.00">PyPSA&#45;GB.distribution.Distribution.interconnector</text>
<text xml:space="preserve" text-anchor="middle" x="352.88" y="-156.5" font-family="Helvetica,sans-Serif" font-size="10.00">_capacities_rgb</text>
</a>
</g>
</g>
<!-- Node1&#45;&gt;Node2 -->
<g id="edge1_Node000001_Node000002" class="edge">
<title>Node1&#45;&gt;Node2</title>
<g id="a_edge1_Node000001_Node000002"><a xlink:title=" ">
<path fill="none" stroke="#63b8ff" d="M141.29,-107.49C167.95,-118.05 203.94,-131.5 236.5,-141 243.42,-143.02 250.63,-144.96 257.9,-146.79"/>
<polygon fill="#63b8ff" stroke="#63b8ff" points="256.94,-150.16 267.49,-149.15 258.61,-143.37 256.94,-150.16"/>
</a>
</g>
</g>
<!-- Node5 -->
<g id="Node000005" class="node">
<title>Node5</title>
<g id="a_Node000005"><a xlink:href="class_py_p_s_a-_g_b_1_1distribution_1_1_distribution.html#a0691d398335de9cae6cb54913491df99" target="_top" xlink:title=" ">
<polygon fill="white" stroke="#666666" points="469.25,-132 236.5,-132 236.5,-100 469.25,-100 469.25,-132"/>
<text xml:space="preserve" text-anchor="start" x="244.5" y="-118.5" font-family="Helvetica,sans-Serif" font-size="10.00">PyPSA&#45;GB.distribution.Distribution.interconnector</text>
<text xml:space="preserve" text-anchor="middle" x="352.88" y="-106.5" font-family="Helvetica,sans-Serif" font-size="10.00">_capacities_scotland</text>
</a>
</g>
</g>
<!-- Node1&#45;&gt;Node5 -->
<g id="edge4_Node000001_Node000005" class="edge">
<title>Node1&#45;&gt;Node5</title>
<g id="a_edge4_Node000001_Node000005"><a xlink:title=" ">
<path fill="none" stroke="#63b8ff" d="M200.66,-100.92C208.56,-101.7 216.6,-102.51 224.65,-103.31"/>
<polygon fill="#63b8ff" stroke="#63b8ff" points="224.22,-106.78 234.52,-104.29 224.91,-99.82 224.22,-106.78"/>
</a>
</g>
</g>
<!-- Node8 -->
<g id="Node000008" class="node">
<title>Node8</title>
<g id="a_Node000008"><a xlink:href="class_py_p_s_a-_g_b_1_1distribution_1_1_distribution.html#a67327af6886f94381d790317e07e6222" target="_top" xlink:title=" ">
<polygon fill="white" stroke="#666666" points="447.88,-82 257.88,-82 257.88,-50 447.88,-50 447.88,-82"/>
<text xml:space="preserve" text-anchor="start" x="265.88" y="-68.5" font-family="Helvetica,sans-Serif" font-size="10.00">PyPSA&#45;GB.distribution.Distribution.read</text>
<text xml:space="preserve" text-anchor="middle" x="352.88" y="-56.5" font-family="Helvetica,sans-Serif" font-size="10.00">_rgb_interconnector</text>
</a>
</g>
</g>
<!-- Node1&#45;&gt;Node8 -->
<g id="edge7_Node000001_Node000008" class="edge">
<title>Node1&#45;&gt;Node8</title>
<g id="a_edge7_Node000001_Node000008"><a xlink:title=" ">
<path fill="none" stroke="#63b8ff" d="M200.66,-81.08C215.58,-79.6 231.02,-78.06 246.06,-76.55"/>
<polygon fill="#63b8ff" stroke="#63b8ff" points="246.37,-80.04 255.97,-75.57 245.68,-73.08 246.37,-80.04"/>
</a>
</g>
</g>
<!-- Node9 -->
<g id="Node000009" class="node">
<title>Node9</title>
<g id="a_Node000009"><a xlink:href="class_py_p_s_a-_g_b_1_1distribution_1_1_distribution.html#a07993f26825ff9ebc158892a53a76946" target="_top" xlink:title=" ">
<polygon fill="white" stroke="#666666" points="447.88,-32 257.88,-32 257.88,0 447.88,0 447.88,-32"/>
<text xml:space="preserve" text-anchor="start" x="265.88" y="-18.5" font-family="Helvetica,sans-Serif" font-size="10.00">PyPSA&#45;GB.distribution.Distribution.read</text>
<text xml:space="preserve" text-anchor="middle" x="352.88" y="-6.5" font-family="Helvetica,sans-Serif" font-size="10.00">_scotland_interconnector</text>
</a>
</g>
</g>
<!-- Node1&#45;&gt;Node9 -->
<g id="edge8_Node000001_Node000009" class="edge">
<title>Node1&#45;&gt;Node9</title>
<g id="a_edge8_Node000001_Node000009"><a xlink:title=" ">
<path fill="none" stroke="#63b8ff" d="M141.29,-74.51C167.95,-63.95 203.94,-50.5 236.5,-41 243.42,-38.98 250.63,-37.04 257.9,-35.21"/>
<polygon fill="#63b8ff" stroke="#63b8ff" points="258.61,-38.63 267.49,-32.85 256.94,-31.84 258.61,-38.63"/>
</a>
</g>
</g>
<!-- Node3 -->
<g id="Node000003" class="node">
<title>Node3</title>
<g id="a_Node000003"><a xlink:href="class_py_p_s_a-_g_b_1_1distribution_1_1_distribution.html#a2e5b3aced22f9c6dc561f471330f0518" target="_top" xlink:title=" ">
<polygon fill="white" stroke="#666666" points="701.62,-182 516.88,-182 516.88,-150 701.62,-150 701.62,-182"/>
<text xml:space="preserve" text-anchor="start" x="524.88" y="-168.5" font-family="Helvetica,sans-Serif" font-size="10.00">PyPSA&#45;GB.distribution.Distribution.rgb</text>
<text xml:space="preserve" text-anchor="middle" x="609.25" y="-156.5" font-family="Helvetica,sans-Serif" font-size="10.00">_total_tech</text>
</a>
</g>
</g>
<!-- Node2&#45;&gt;Node3 -->
<g id="edge2_Node000002_Node000003" class="edge">
<title>Node2&#45;&gt;Node3</title>
<g id="a_edge2_Node000002_Node000003"><a xlink:title=" ">
<path fill="none" stroke="#63b8ff" d="M469.53,-166C481.46,-166 493.53,-166 505.32,-166"/>
<polygon fill="#63b8ff" stroke="#63b8ff" points="505,-169.5 515,-166 505,-162.5 505,-169.5"/>
</a>
</g>
</g>
<!-- Node4 -->
<g id="Node000004" class="node">
<title>Node4</title>
<g id="a_Node000004"><a xlink:href="class_py_p_s_a-_g_b_1_1distribution_1_1_distribution.html#af87c046f2f6e6bfdbb809fc07d550f28" target="_top" xlink:title=" ">
<polygon fill="white" stroke="#666666" points="939.25,-182 749.25,-182 749.25,-150 939.25,-150 939.25,-182"/>
<text xml:space="preserve" text-anchor="start" x="757.25" y="-168.5" font-family="Helvetica,sans-Serif" font-size="10.00">PyPSA&#45;GB.distribution.Distribution.read</text>
<text xml:space="preserve" text-anchor="middle" x="844.25" y="-156.5" font-family="Helvetica,sans-Serif" font-size="10.00">_building_block_rgb</text>
</a>
</g>
</g>
<!-- Node3&#45;&gt;Node4 -->
<g id="edge3_Node000003_Node000004" class="edge">
<title>Node3&#45;&gt;Node4</title>
<g id="a_edge3_Node000003_Node000004"><a xlink:title=" ">
<path fill="none" stroke="#63b8ff" d="M702,-166C713.68,-166 725.71,-166 737.58,-166"/>
<polygon fill="#63b8ff" stroke="#63b8ff" points="737.39,-169.5 747.39,-166 737.39,-162.5 737.39,-169.5"/>
</a>
</g>
</g>
<!-- Node6 -->
<g id="Node000006" class="node">
<title>Node6</title>
<g id="a_Node000006"><a xlink:href="class_py_p_s_a-_g_b_1_1distribution_1_1_distribution.html#a034d0040f046c1069685119c7127b963" target="_top" xlink:title=" ">
<polygon fill="white" stroke="#666666" points="713.25,-132 505.25,-132 505.25,-100 713.25,-100 713.25,-132"/>
<text xml:space="preserve" text-anchor="start" x="513.25" y="-118.5" font-family="Helvetica,sans-Serif" font-size="10.00">PyPSA&#45;GB.distribution.Distribution.scotland</text>
<text xml:space="preserve" text-anchor="middle" x="609.25" y="-106.5" font-family="Helvetica,sans-Serif" font-size="10.00">_total_tech</text>
</a>
</g>
</g>
<!-- Node5&#45;&gt;Node6 -->
<g id="edge5_Node000005_Node000006" class="edge">
<title>Node5&#45;&gt;Node6</title>
<g id="a_edge5_Node000005_Node000006"><a xlink:title=" ">
<path fill="none" stroke="#63b8ff" d="M469.53,-116C477.55,-116 485.64,-116 493.67,-116"/>
<polygon fill="#63b8ff" stroke="#63b8ff" points="493.44,-119.5 503.44,-116 493.44,-112.5 493.44,-119.5"/>
</a>
</g>
</g>
<!-- Node7 -->
<g id="Node000007" class="node">
<title>Node7</title>
<g id="a_Node000007"><a xlink:href="class_py_p_s_a-_g_b_1_1distribution_1_1_distribution.html#a92bf89f6aa81ce7e84b5acc2611ddc77" target="_top" xlink:title=" ">
<polygon fill="white" stroke="#666666" points="939.25,-132 749.25,-132 749.25,-100 939.25,-100 939.25,-132"/>
<text xml:space="preserve" text-anchor="start" x="757.25" y="-118.5" font-family="Helvetica,sans-Serif" font-size="10.00">PyPSA&#45;GB.distribution.Distribution.read</text>
<text xml:space="preserve" text-anchor="middle" x="844.25" y="-106.5" font-family="Helvetica,sans-Serif" font-size="10.00">_building_block_scotland</text>
</a>
</g>
</g>
<!-- Node6&#45;&gt;Node7 -->
<g id="edge6_Node000006_Node000007" class="edge">
<title>Node6&#45;&gt;Node7</title>
<g id="a_edge6_Node000006_Node000007"><a xlink:title=" ">
<path fill="none" stroke="#63b8ff" d="M713.46,-116C721.49,-116 729.6,-116 737.64,-116"/>
<polygon fill="#63b8ff" stroke="#63b8ff" points="737.43,-119.5 747.43,-116 737.43,-112.5 737.43,-119.5"/>
</a>
</g>
</g>
</g>
</svg>
