<?xml version="1.0" encoding="UTF-8" standalone="no"?>
<!DOCTYPE svg PUBLIC "-//W3C//DTD SVG 1.1//EN"
 "http://www.w3.org/Graphics/SVG/1.1/DTD/svg11.dtd">
<!-- Generated by graphviz version 13.1.2 (20250808.2320)
 -->
<!-- Title: PyPSA&#45;GB.distribution.Distribution.scotland_total_tech Pages: 1 -->
<!--zoomable 140 -->

<svg id="main" version="1.1" xmlns="http://www.w3.org/2000/svg" xmlns:xlink="http://www.w3.org/1999/xlink" xml:space="preserve" onload="init(evt)">

<style type="text/css"><![CDATA[
.node, .edge {opacity: 0.7;}
.node.selected, .edge.selected {opacity: 1;}
.edge:hover path { stroke: red; }
.edge:hover polygon { stroke: red; fill: red; }
]]></style>

<defs>
  <circle id="rim" cx="0" cy="0" r="7"/>
  <circle id="rim2" cx="0" cy="0" r="3.5"/>
  <g id="zoomPlus">
    <use xlink:href="#rim" fill="#404040"><set attributeName="fill" to="#808080" begin="zoomplus.mouseover" end="zoomplus.mouseout"/></use>
    <path d="M-4,0h8M0,-4v8" fill="none" stroke="white" stroke-width="1.5" pointer-events="none"/>
  </g>
  <g id="zoomMin">
    <use xlink:href="#rim" fill="#404040"><set attributeName="fill" to="#808080" begin="zoomminus.mouseover" end="zoomminus.mouseout"/></use>
    <path d="M-4,0h8" fill="none" stroke="white" stroke-width="1.5" pointer-events="none"/>
  </g>
  <g id="arrowUp" transform="translate(30 24)">
    <use xlink:href="#rim"/>
    <path pointer-events="none" fill="none" stroke="white" stroke-width="1.5" d="M0,-3.0v7 M-2.5,-0.5L0,-3.0L2.5,-0.5"/>
  </g>
  <g id="arrowRight" transform="rotate(90) translate(36 -43)">
    <use xlink:href="#rim"/>
    <path pointer-events="none" fill="none" stroke="white" stroke-width="1.5" d="M0,-3.0v7 M-2.5,-0.5L0,-3.0L2.5,-0.5"/>
  </g>
  <g id="arrowDown" transform="rotate(180) translate(-30 -48)">
    <use xlink:href="#rim"/>
    <path pointer-events="none" fill="none" stroke="white" stroke-width="1.5" d="M0,-3.0v7 M-2.5,-0.5L0,-3.0L2.5,-0.5"/>
  </g>
  <g id="arrowLeft" transform="rotate(270) translate(-36 17)">
    <use xlink:href="#rim"/>
    <path pointer-events="none" fill="none" stroke="white" stroke-width="1.5" d="M0,-3.0v7 M-2.5,-0.5L0,-3.0L2.5,-0.5"/>
  </g>
  <g id="resetDef">
    <use xlink:href="#rim2" fill="#404040"><set attributeName="fill" to="#808080" begin="reset.mouseover" end="reset.mouseout"/></use>
  </g>
</defs>
<script type="application/ecmascript">
var viewWidth = 962;
var viewHeight = 140;
var sectionId = 'dynsection-28';
</script>
<script type="application/ecmascript" xlink:href="svg.min.js"/>
<svg id="graph" class="graph">
<g id="viewport">
<title>PyPSA&#45;GB.distribution.Distribution.scotland_total_tech</title>
<!-- Node1 -->
<g id="Node000001" class="node">
<title>Node1</title>
<g id="a_Node000001"><a xlink:title=" ">
<polygon fill="#999999" stroke="#666666" points="953.5,-82 745.5,-82 745.5,-50 953.5,-50 953.5,-82"/>
<text xml:space="preserve" text-anchor="start" x="753.5" y="-68.5" font-family="Helvetica,sans-Serif" font-size="10.00">PyPSA&#45;GB.distribution.Distribution.scotland</text>
<text xml:space="preserve" text-anchor="middle" x="849.5" y="-56.5" font-family="Helvetica,sans-Serif" font-size="10.00">_total_tech</text>
</a>
</g>
</g>
<!-- Node2 -->
<g id="Node000002" class="node">
<title>Node2</title>
<g id="a_Node000002"><a xlink:href="class_py_p_s_a-_g_b_1_1distribution_1_1_distribution.html#a52d82b3645f6a9fd0c35181b0c89e315" target="_top" xlink:title=" ">
<polygon fill="white" stroke="#666666" points="701.25,-132 485,-132 485,-100 701.25,-100 701.25,-132"/>
<text xml:space="preserve" text-anchor="start" x="493" y="-118.5" font-family="Helvetica,sans-Serif" font-size="10.00">PyPSA&#45;GB.distribution.Distribution.generation</text>
<text xml:space="preserve" text-anchor="middle" x="593.12" y="-106.5" font-family="Helvetica,sans-Serif" font-size="10.00">_capacities_scotland</text>
</a>
</g>
</g>
<!-- Node1&#45;&gt;Node2 -->
<g id="edge1_Node000001_Node000002" class="edge">
<title>Node1&#45;&gt;Node2</title>
<g id="a_edge1_Node000001_Node000002"><a xlink:title=" ">
<path fill="none" stroke="#63b8ff" d="M753.57,-84.66C728.69,-89.55 702.06,-94.78 677.82,-99.55"/>
<polygon fill="#63b8ff" stroke="#63b8ff" points="754.23,-88.1 763.37,-82.73 752.88,-81.23 754.23,-88.1"/>
</a>
</g>
</g>
<!-- Node5 -->
<g id="Node000005" class="node">
<title>Node5</title>
<g id="a_Node000005"><a xlink:href="class_py_p_s_a-_g_b_1_1distribution_1_1_distribution.html#a0691d398335de9cae6cb54913491df99" target="_top" xlink:title=" ">
<polygon fill="white" stroke="#666666" points="709.5,-82 476.75,-82 476.75,-50 709.5,-50 709.5,-82"/>
<text xml:space="preserve" text-anchor="start" x="484.75" y="-68.5" font-family="Helvetica,sans-Serif" font-size="10.00">PyPSA&#45;GB.distribution.Distribution.interconnector</text>
<text xml:space="preserve" text-anchor="middle" x="593.12" y="-56.5" font-family="Helvetica,sans-Serif" font-size="10.00">_capacities_scotland</text>
</a>
</g>
</g>
<!-- Node1&#45;&gt;Node5 -->
<g id="edge4_Node000001_Node000005" class="edge">
<title>Node1&#45;&gt;Node5</title>
<g id="a_edge4_Node000001_Node000005"><a xlink:title=" ">
<path fill="none" stroke="#63b8ff" d="M733.59,-66C725.74,-66 717.82,-66 709.96,-66"/>
<polygon fill="#63b8ff" stroke="#63b8ff" points="733.52,-69.5 743.52,-66 733.52,-62.5 733.52,-69.5"/>
</a>
</g>
</g>
<!-- Node7 -->
<g id="Node000007" class="node">
<title>Node7</title>
<g id="a_Node000007"><a xlink:href="class_py_p_s_a-_g_b_1_1distribution_1_1_distribution.html#ac1ac48fd6098403cb3f8cba2df37c2e7" target="_top" xlink:title=" ">
<polygon fill="white" stroke="#666666" points="694.88,-32 491.38,-32 491.38,0 694.88,0 694.88,-32"/>
<text xml:space="preserve" text-anchor="start" x="499.38" y="-18.5" font-family="Helvetica,sans-Serif" font-size="10.00">PyPSA&#45;GB.distribution.Distribution.storage</text>
<text xml:space="preserve" text-anchor="middle" x="593.12" y="-6.5" font-family="Helvetica,sans-Serif" font-size="10.00">_capacities_scotland</text>
</a>
</g>
</g>
<!-- Node1&#45;&gt;Node7 -->
<g id="edge6_Node000001_Node000007" class="edge">
<title>Node1&#45;&gt;Node7</title>
<g id="a_edge6_Node000001_Node000007"><a xlink:title=" ">
<path fill="none" stroke="#63b8ff" d="M753.57,-47.34C728.69,-42.45 702.06,-37.22 677.82,-32.45"/>
<polygon fill="#63b8ff" stroke="#63b8ff" points="752.88,-50.77 763.37,-49.27 754.23,-43.9 752.88,-50.77"/>
</a>
</g>
</g>
<!-- Node3 -->
<g id="Node000003" class="node">
<title>Node3</title>
<g id="a_Node000003"><a xlink:href="class_py_p_s_a-_g_b_1_1distribution_1_1_distribution.html#adc2bb991dc04c161398b51c6f261f028" target="_top" xlink:title=" ">
<polygon fill="white" stroke="#666666" points="440.75,-132 240.25,-132 240.25,-100 440.75,-100 440.75,-132"/>
<text xml:space="preserve" text-anchor="start" x="248.25" y="-118.5" font-family="Helvetica,sans-Serif" font-size="10.00">PyPSA&#45;GB.distribution.Distribution.modify</text>
<text xml:space="preserve" text-anchor="middle" x="340.5" y="-106.5" font-family="Helvetica,sans-Serif" font-size="10.00">_generators</text>
</a>
</g>
</g>
<!-- Node2&#45;&gt;Node3 -->
<g id="edge2_Node000002_Node000003" class="edge">
<title>Node2&#45;&gt;Node3</title>
<g id="a_edge2_Node000002_Node000003"><a xlink:title=" ">
<path fill="none" stroke="#63b8ff" d="M473.49,-116C462.66,-116 451.76,-116 441.12,-116"/>
<polygon fill="#63b8ff" stroke="#63b8ff" points="473.23,-119.5 483.23,-116 473.23,-112.5 473.23,-119.5"/>
</a>
</g>
</g>
<!-- Node4 -->
<g id="Node000004" class="node">
<title>Node4</title>
<g id="a_Node000004"><a xlink:href="class_py_p_s_a-_g_b_1_1distribution_1_1_distribution.html#a9e55078053cf61ee565db765bd77cbd3" target="_top" xlink:title=" ">
<polygon fill="white" stroke="#666666" points="204.25,-82 0,-82 0,-50 204.25,-50 204.25,-82"/>
<text xml:space="preserve" text-anchor="start" x="8" y="-68.5" font-family="Helvetica,sans-Serif" font-size="10.00">PyPSA&#45;GB.distribution.Distribution.building</text>
<text xml:space="preserve" text-anchor="middle" x="102.12" y="-56.5" font-family="Helvetica,sans-Serif" font-size="10.00">_block_update</text>
</a>
</g>
</g>
<!-- Node3&#45;&gt;Node4 -->
<g id="edge3_Node000003_Node000004" class="edge">
<title>Node3&#45;&gt;Node4</title>
<g id="a_edge3_Node000003_Node000004"><a xlink:title=" ">
<path fill="none" stroke="#63b8ff" d="M250.66,-97.21C227.73,-92.36 203.22,-87.17 180.9,-82.45"/>
<polygon fill="#63b8ff" stroke="#63b8ff" points="249.79,-100.6 260.29,-99.25 251.23,-93.75 249.79,-100.6"/>
</a>
</g>
</g>
<!-- Node6 -->
<g id="Node000006" class="node">
<title>Node6</title>
<g id="a_Node000006"><a xlink:href="class_py_p_s_a-_g_b_1_1distribution_1_1_distribution.html#a7566f27a4f96f96eae6a1a259b7da7ca" target="_top" xlink:title=" ">
<polygon fill="white" stroke="#666666" points="440.75,-82 240.25,-82 240.25,-50 440.75,-50 440.75,-82"/>
<text xml:space="preserve" text-anchor="start" x="248.25" y="-68.5" font-family="Helvetica,sans-Serif" font-size="10.00">PyPSA&#45;GB.distribution.Distribution.modify</text>
<text xml:space="preserve" text-anchor="middle" x="340.5" y="-56.5" font-family="Helvetica,sans-Serif" font-size="10.00">_interconnector</text>
</a>
</g>
</g>
<!-- Node5&#45;&gt;Node6 -->
<g id="edge5_Node000005_Node000006" class="edge">
<title>Node5&#45;&gt;Node6</title>
<g id="a_edge5_Node000005_Node000006"><a xlink:title=" ">
<path fill="none" stroke="#63b8ff" d="M464.99,-66C456.95,-66 448.92,-66 441.03,-66"/>
<polygon fill="#63b8ff" stroke="#63b8ff" points="464.84,-69.5 474.84,-66 464.84,-62.5 464.84,-69.5"/>
</a>
</g>
</g>
<!-- Node8 -->
<g id="Node000008" class="node">
<title>Node8</title>
<g id="a_Node000008"><a xlink:href="class_py_p_s_a-_g_b_1_1distribution_1_1_distribution.html#a25bc59aa0daf71e026ac0470102d2a1c" target="_top" xlink:title=" ">
<polygon fill="white" stroke="#666666" points="440.75,-32 240.25,-32 240.25,0 440.75,0 440.75,-32"/>
<text xml:space="preserve" text-anchor="start" x="248.25" y="-18.5" font-family="Helvetica,sans-Serif" font-size="10.00">PyPSA&#45;GB.distribution.Distribution.modify</text>
<text xml:space="preserve" text-anchor="middle" x="340.5" y="-6.5" font-family="Helvetica,sans-Serif" font-size="10.00">_storage</text>
</a>
</g>
</g>
<!-- Node7&#45;&gt;Node8 -->
<g id="edge7_Node000007_Node000008" class="edge">
<title>Node7&#45;&gt;Node8</title>
<g id="a_edge7_Node000007_Node000008"><a xlink:title=" ">
<path fill="none" stroke="#63b8ff" d="M479.66,-16C466.79,-16 453.74,-16 441.06,-16"/>
<polygon fill="#63b8ff" stroke="#63b8ff" points="479.4,-19.5 489.4,-16 479.4,-12.5 479.4,-19.5"/>
</a>
</g>
</g>
<!-- Node8&#45;&gt;Node4 -->
<g id="edge8_Node000008_Node000004" class="edge">
<title>Node8&#45;&gt;Node4</title>
<g id="a_edge8_Node000008_Node000004"><a xlink:title=" ">
<path fill="none" stroke="#63b8ff" d="M250.66,-34.79C227.73,-39.64 203.22,-44.83 180.9,-49.55"/>
<polygon fill="#63b8ff" stroke="#63b8ff" points="251.23,-38.25 260.29,-32.75 249.79,-31.4 251.23,-38.25"/>
</a>
</g>
</g>
</g>
</svg>

<g id="navigator" transform="translate(0 0)" fill="#404254">
  <rect fill="#f2f5e9" fill-opacity="0.5" stroke="#606060" stroke-width=".5" x="0" y="0" width="60" height="60"/>
  <use id="zoomplus" xlink:href="#zoomPlus" x="17" y="9" onmousedown="handleZoom(evt,'in')"/>
  <use id="zoomminus" xlink:href="#zoomMin" x="42" y="9" onmousedown="handleZoom(evt,'out')"/>
  <use id="reset" xlink:href="#resetDef" x="30" y="36" onmousedown="handleReset()"/>
   <use id="arrowup" xlink:href="#arrowUp" x="0" y="0" onmousedown="handlePan(0,-1)"/>
  <use id="arrowright" xlink:href="#arrowRight" x="0" y="0" onmousedown="handlePan(1,0)"/>
  <use id="arrowdown" xlink:href="#arrowDown" x="0" y="0" onmousedown="handlePan(0,1)"/>
  <use id="arrowleft" xlink:href="#arrowLeft" x="0" y="0" onmousedown="handlePan(-1,0)"/>
</g>
<svg viewBox="0 0 15 15" width="100%" height="30px" preserveAspectRatio="xMaxYMin meet">
 <g id="arrow_out" transform="scale(0.3 0.3)">
  <a xlink:href="class_py_p_s_a-_g_b_1_1distribution_1_1_distribution_a034d0040f046c1069685119c7127b963_icgraph_org.svg" target="_base">
   <rect id="button" ry="5" rx="5" y="6" x="6" height="38" width="38"
        fill="#f2f5e9" fill-opacity="0.5" stroke="#606060" stroke-width="1.0"/>
   <path id="arrow"
     d="M 11.500037,31.436501 C 11.940474,20.09759 22.043105,11.32322 32.158766,21.979434 L 37.068811,17.246167 C 37.068811,17.246167 37.088388,32 37.088388,32 L 22.160133,31.978069 C 22.160133,31.978069 26.997745,27.140456 26.997745,27.140456 C 18.528582,18.264221 13.291696,25.230495 11.500037,31.436501 z"
     style="fill:#404040;"/>
  </a>
 </g>
</svg>

<style type='text/css'>
<![CDATA[
[data-mouse-over-selected='false'] { opacity: 0.7; }
[data-mouse-over-selected='true']  { opacity: 1.0; }
]]>
</style>
<script type="application/ecmascript"><![CDATA[
document.addEventListener('DOMContentLoaded', (event) => {
  highlightEdges();
  highlightAdjacentNodes();
});
]]></script>
</svg>
