<?xml version="1.0" encoding="UTF-8" standalone="no"?>
<!DOCTYPE svg PUBLIC "-//W3C//DTD SVG 1.1//EN"
 "http://www.w3.org/Graphics/SVG/1.1/DTD/svg11.dtd">
<!-- Generated by graphviz version 13.1.2 (20250808.2320)
 -->
<!-- Title: PyPSA&#45;GB.distribution.Distribution.read_scotland_generators Pages: 1 -->
<svg width="675pt" height="40pt"
 viewBox="0.00 0.00 675.00 40.00" xmlns="http://www.w3.org/2000/svg" xmlns:xlink="http://www.w3.org/1999/xlink">
<g id="graph0" class="graph" transform="scale(1 1) rotate(0) translate(4 36)">
<title>PyPSA&#45;GB.distribution.Distribution.read_scotland_generators</title>
<!-- Node1 -->
<g id="Node000001" class="node">
<title>Node1</title>
<g id="a_Node000001"><a xlink:title=" ">
<polygon fill="#999999" stroke="#666666" points="666.75,-32 476.75,-32 476.75,0 666.75,0 666.75,-32"/>
<text xml:space="preserve" text-anchor="start" x="484.75" y="-18.5" font-family="Helvetica,sans-Serif" font-size="10.00">PyPSA&#45;GB.distribution.Distribution.read</text>
<text xml:space="preserve" text-anchor="middle" x="571.75" y="-6.5" font-family="Helvetica,sans-Serif" font-size="10.00">_scotland_generators</text>
</a>
</g>
</g>
<!-- Node2 -->
<g id="Node000002" class="node">
<title>Node2</title>
<g id="a_Node000002"><a xlink:href="class_py_p_s_a-_g_b_1_1distribution_1_1_distribution.html#adc2bb991dc04c161398b51c6f261f028" target="_top" xlink:title=" ">
<polygon fill="white" stroke="#666666" points="440.75,-32 240.25,-32 240.25,0 440.75,0 440.75,-32"/>
<text xml:space="preserve" text-anchor="start" x="248.25" y="-18.5" font-family="Helvetica,sans-Serif" font-size="10.00">PyPSA&#45;GB.distribution.Distribution.modify</text>
<text xml:space="preserve" text-anchor="middle" x="340.5" y="-6.5" font-family="Helvetica,sans-Serif" font-size="10.00">_generators</text>
</a>
</g>
</g>
<!-- Node1&#45;&gt;Node2 -->
<g id="edge1_Node000001_Node000002" class="edge">
<title>Node1&#45;&gt;Node2</title>
<g id="a_edge1_Node000001_Node000002"><a xlink:title=" ">
<path fill="none" stroke="#63b8ff" d="M465.17,-16C457.1,-16 448.97,-16 440.95,-16"/>
<polygon fill="#63b8ff" stroke="#63b8ff" points="465,-19.5 475,-16 465,-12.5 465,-19.5"/>
</a>
</g>
</g>
<!-- Node3 -->
<g id="Node000003" class="node">
<title>Node3</title>
<g id="a_Node000003"><a xlink:href="class_py_p_s_a-_g_b_1_1distribution_1_1_distribution.html#a9e55078053cf61ee565db765bd77cbd3" target="_top" xlink:title=" ">
<polygon fill="white" stroke="#666666" points="204.25,-32 0,-32 0,0 204.25,0 204.25,-32"/>
<text xml:space="preserve" text-anchor="start" x="8" y="-18.5" font-family="Helvetica,sans-Serif" font-size="10.00">PyPSA&#45;GB.distribution.Distribution.building</text>
<text xml:space="preserve" text-anchor="middle" x="102.12" y="-6.5" font-family="Helvetica,sans-Serif" font-size="10.00">_block_update</text>
</a>
</g>
</g>
<!-- Node2&#45;&gt;Node3 -->
<g id="edge2_Node000002_Node000003" class="edge">
<title>Node2&#45;&gt;Node3</title>
<g id="a_edge2_Node000002_Node000003"><a xlink:title=" ">
<path fill="none" stroke="#63b8ff" d="M228.6,-16C220.55,-16 212.46,-16 204.46,-16"/>
<polygon fill="#63b8ff" stroke="#63b8ff" points="228.43,-19.5 238.43,-16 228.43,-12.5 228.43,-19.5"/>
</a>
</g>
</g>
</g>
</svg>
