<?xml version="1.0" encoding="UTF-8" standalone="no"?>
<!DOCTYPE svg PUBLIC "-//W3C//DTD SVG 1.1//EN"
 "http://www.w3.org/Graphics/SVG/1.1/DTD/svg11.dtd">
<!-- Generated by graphviz version 13.1.2 (20250808.2320)
 -->
<!-- Title: PyPSA&#45;GB.distribution.Distribution.storage_capacities_rgb Pages: 1 -->
<svg width="658pt" height="40pt"
 viewBox="0.00 0.00 658.00 40.00" xmlns="http://www.w3.org/2000/svg" xmlns:xlink="http://www.w3.org/1999/xlink">
<g id="graph0" class="graph" transform="scale(1 1) rotate(0) translate(4 36)">
<title>PyPSA&#45;GB.distribution.Distribution.storage_capacities_rgb</title>
<!-- Node1 -->
<g id="Node000001" class="node">
<title>Node1</title>
<g id="a_Node000001"><a xlink:title=" ">
<polygon fill="#999999" stroke="#666666" points="203.5,-32 0,-32 0,0 203.5,0 203.5,-32"/>
<text xml:space="preserve" text-anchor="start" x="8" y="-18.5" font-family="Helvetica,sans-Serif" font-size="10.00">PyPSA&#45;GB.distribution.Distribution.storage</text>
<text xml:space="preserve" text-anchor="middle" x="101.75" y="-6.5" font-family="Helvetica,sans-Serif" font-size="10.00">_capacities_rgb</text>
</a>
</g>
</g>
<!-- Node2 -->
<g id="Node000002" class="node">
<title>Node2</title>
<g id="a_Node000002"><a xlink:href="class_py_p_s_a-_g_b_1_1distribution_1_1_distribution.html#a2e5b3aced22f9c6dc561f471330f0518" target="_top" xlink:title=" ">
<polygon fill="white" stroke="#666666" points="424.25,-32 239.5,-32 239.5,0 424.25,0 424.25,-32"/>
<text xml:space="preserve" text-anchor="start" x="247.5" y="-18.5" font-family="Helvetica,sans-Serif" font-size="10.00">PyPSA&#45;GB.distribution.Distribution.rgb</text>
<text xml:space="preserve" text-anchor="middle" x="331.88" y="-6.5" font-family="Helvetica,sans-Serif" font-size="10.00">_total_tech</text>
</a>
</g>
</g>
<!-- Node1&#45;&gt;Node2 -->
<g id="edge1_Node000001_Node000002" class="edge">
<title>Node1&#45;&gt;Node2</title>
<g id="a_edge1_Node000001_Node000002"><a xlink:title=" ">
<path fill="none" stroke="#63b8ff" d="M203.81,-16C211.82,-16 219.93,-16 227.96,-16"/>
<polygon fill="#63b8ff" stroke="#63b8ff" points="227.74,-19.5 237.74,-16 227.74,-12.5 227.74,-19.5"/>
</a>
</g>
</g>
<!-- Node3 -->
<g id="Node000003" class="node">
<title>Node3</title>
<g id="a_Node000003"><a xlink:href="class_py_p_s_a-_g_b_1_1distribution_1_1_distribution.html#af87c046f2f6e6bfdbb809fc07d550f28" target="_top" xlink:title=" ">
<polygon fill="white" stroke="#666666" points="650.25,-32 460.25,-32 460.25,0 650.25,0 650.25,-32"/>
<text xml:space="preserve" text-anchor="start" x="468.25" y="-18.5" font-family="Helvetica,sans-Serif" font-size="10.00">PyPSA&#45;GB.distribution.Distribution.read</text>
<text xml:space="preserve" text-anchor="middle" x="555.25" y="-6.5" font-family="Helvetica,sans-Serif" font-size="10.00">_building_block_rgb</text>
</a>
</g>
</g>
<!-- Node2&#45;&gt;Node3 -->
<g id="edge2_Node000002_Node000003" class="edge">
<title>Node2&#45;&gt;Node3</title>
<g id="a_edge2_Node000002_Node000003"><a xlink:title=" ">
<path fill="none" stroke="#63b8ff" d="M424.51,-16C432.44,-16 440.5,-16 448.52,-16"/>
<polygon fill="#63b8ff" stroke="#63b8ff" points="448.31,-19.5 458.31,-16 448.31,-12.5 448.31,-19.5"/>
</a>
</g>
</g>
</g>
</svg>
