<?xml version="1.0" encoding="UTF-8" standalone="no"?>
<!DOCTYPE svg PUBLIC "-//W3C//DTD SVG 1.1//EN"
 "http://www.w3.org/Graphics/SVG/1.1/DTD/svg11.dtd">
<!-- Generated by graphviz version 13.1.2 (20250808.2320)
 -->
<!-- Title: PyPSA&#45;GB.distribution.Distribution.modify_generators Pages: 1 -->
<!--zoomable 190 -->

<svg id="main" version="1.1" xmlns="http://www.w3.org/2000/svg" xmlns:xlink="http://www.w3.org/1999/xlink" xml:space="preserve" onload="init(evt)">

<style type="text/css"><![CDATA[
.node, .edge {opacity: 0.7;}
.node.selected, .edge.selected {opacity: 1;}
.edge:hover path { stroke: red; }
.edge:hover polygon { stroke: red; fill: red; }
]]></style>

<defs>
  <circle id="rim" cx="0" cy="0" r="7"/>
  <circle id="rim2" cx="0" cy="0" r="3.5"/>
  <g id="zoomPlus">
    <use xlink:href="#rim" fill="#404040"><set attributeName="fill" to="#808080" begin="zoomplus.mouseover" end="zoomplus.mouseout"/></use>
    <path d="M-4,0h8M0,-4v8" fill="none" stroke="white" stroke-width="1.5" pointer-events="none"/>
  </g>
  <g id="zoomMin">
    <use xlink:href="#rim" fill="#404040"><set attributeName="fill" to="#808080" begin="zoomminus.mouseover" end="zoomminus.mouseout"/></use>
    <path d="M-4,0h8" fill="none" stroke="white" stroke-width="1.5" pointer-events="none"/>
  </g>
  <g id="arrowUp" transform="translate(30 24)">
    <use xlink:href="#rim"/>
    <path pointer-events="none" fill="none" stroke="white" stroke-width="1.5" d="M0,-3.0v7 M-2.5,-0.5L0,-3.0L2.5,-0.5"/>
  </g>
  <g id="arrowRight" transform="rotate(90) translate(36 -43)">
    <use xlink:href="#rim"/>
    <path pointer-events="none" fill="none" stroke="white" stroke-width="1.5" d="M0,-3.0v7 M-2.5,-0.5L0,-3.0L2.5,-0.5"/>
  </g>
  <g id="arrowDown" transform="rotate(180) translate(-30 -48)">
    <use xlink:href="#rim"/>
    <path pointer-events="none" fill="none" stroke="white" stroke-width="1.5" d="M0,-3.0v7 M-2.5,-0.5L0,-3.0L2.5,-0.5"/>
  </g>
  <g id="arrowLeft" transform="rotate(270) translate(-36 17)">
    <use xlink:href="#rim"/>
    <path pointer-events="none" fill="none" stroke="white" stroke-width="1.5" d="M0,-3.0v7 M-2.5,-0.5L0,-3.0L2.5,-0.5"/>
  </g>
  <g id="resetDef">
    <use xlink:href="#rim2" fill="#404040"><set attributeName="fill" to="#808080" begin="reset.mouseover" end="reset.mouseout"/></use>
  </g>
</defs>
<script type="application/ecmascript">
var viewWidth = 931;
var viewHeight = 190;
var sectionId = 'dynsection-9';
</script>
<script type="application/ecmascript" xlink:href="svg.min.js"/>
<svg id="graph" class="graph">
<g id="viewport">
<title>PyPSA&#45;GB.distribution.Distribution.modify_generators</title>
<!-- Node1 -->
<g id="Node000001" class="node">
<title>Node1</title>
<g id="a_Node000001"><a xlink:title=" ">
<polygon fill="#999999" stroke="#666666" points="200.5,-107 0,-107 0,-75 200.5,-75 200.5,-107"/>
<text xml:space="preserve" text-anchor="start" x="8" y="-93.5" font-family="Helvetica,sans-Serif" font-size="10.00">PyPSA&#45;GB.distribution.Distribution.modify</text>
<text xml:space="preserve" text-anchor="middle" x="100.25" y="-81.5" font-family="Helvetica,sans-Serif" font-size="10.00">_generators</text>
</a>
</g>
</g>
<!-- Node2 -->
<g id="Node000002" class="node">
<title>Node2</title>
<g id="a_Node000002"><a xlink:href="class_py_p_s_a-_g_b_1_1distribution_1_1_distribution.html#ad4a7232beaca8ab702ae07b7e4f8e1d7" target="_top" xlink:title=" ">
<polygon fill="white" stroke="#666666" points="452.75,-182 236.5,-182 236.5,-150 452.75,-150 452.75,-182"/>
<text xml:space="preserve" text-anchor="start" x="244.5" y="-168.5" font-family="Helvetica,sans-Serif" font-size="10.00">PyPSA&#45;GB.distribution.Distribution.generation</text>
<text xml:space="preserve" text-anchor="middle" x="344.62" y="-156.5" font-family="Helvetica,sans-Serif" font-size="10.00">_capacities_rgb</text>
</a>
</g>
</g>
<!-- Node1&#45;&gt;Node2 -->
<g id="edge1_Node000001_Node000002" class="edge">
<title>Node1&#45;&gt;Node2</title>
<g id="a_edge1_Node000001_Node000002"><a xlink:title=" ">
<path fill="none" stroke="#63b8ff" d="M141.64,-107.44C168.29,-117.91 204.13,-131.28 236.5,-141 243.1,-142.98 249.97,-144.9 256.9,-146.74"/>
<polygon fill="#63b8ff" stroke="#63b8ff" points="255.79,-150.07 266.35,-149.17 257.54,-143.29 255.79,-150.07"/>
</a>
</g>
</g>
<!-- Node5 -->
<g id="Node000005" class="node">
<title>Node5</title>
<g id="a_Node000005"><a xlink:href="class_py_p_s_a-_g_b_1_1distribution_1_1_distribution.html#a52d82b3645f6a9fd0c35181b0c89e315" target="_top" xlink:title=" ">
<polygon fill="white" stroke="#666666" points="452.75,-132 236.5,-132 236.5,-100 452.75,-100 452.75,-132"/>
<text xml:space="preserve" text-anchor="start" x="244.5" y="-118.5" font-family="Helvetica,sans-Serif" font-size="10.00">PyPSA&#45;GB.distribution.Distribution.generation</text>
<text xml:space="preserve" text-anchor="middle" x="344.62" y="-106.5" font-family="Helvetica,sans-Serif" font-size="10.00">_capacities_scotland</text>
</a>
</g>
</g>
<!-- Node1&#45;&gt;Node5 -->
<g id="edge4_Node000001_Node000005" class="edge">
<title>Node1&#45;&gt;Node5</title>
<g id="a_edge4_Node000001_Node000005"><a xlink:title=" ">
<path fill="none" stroke="#63b8ff" d="M200.88,-101.28C208.78,-102.09 216.81,-102.92 224.82,-103.75"/>
<polygon fill="#63b8ff" stroke="#63b8ff" points="224.31,-107.21 234.61,-104.76 225.02,-100.25 224.31,-107.21"/>
</a>
</g>
</g>
<!-- Node8 -->
<g id="Node000008" class="node">
<title>Node8</title>
<g id="a_Node000008"><a xlink:href="class_py_p_s_a-_g_b_1_1distribution_1_1_distribution.html#a8f6f20650f4bacaaf45c135f9cfb9941" target="_top" xlink:title=" ">
<polygon fill="white" stroke="#666666" points="439.62,-82 249.62,-82 249.62,-50 439.62,-50 439.62,-82"/>
<text xml:space="preserve" text-anchor="start" x="257.62" y="-68.5" font-family="Helvetica,sans-Serif" font-size="10.00">PyPSA&#45;GB.distribution.Distribution.read</text>
<text xml:space="preserve" text-anchor="middle" x="344.62" y="-56.5" font-family="Helvetica,sans-Serif" font-size="10.00">_rgb_generators</text>
</a>
</g>
</g>
<!-- Node1&#45;&gt;Node8 -->
<g id="edge7_Node000001_Node000008" class="edge">
<title>Node1&#45;&gt;Node8</title>
<g id="a_edge7_Node000001_Node000008"><a xlink:title=" ">
<path fill="none" stroke="#63b8ff" d="M200.88,-80.72C213.18,-79.46 225.78,-78.16 238.16,-76.88"/>
<polygon fill="#63b8ff" stroke="#63b8ff" points="238.36,-80.38 247.94,-75.87 237.64,-73.41 238.36,-80.38"/>
</a>
</g>
</g>
<!-- Node9 -->
<g id="Node000009" class="node">
<title>Node9</title>
<g id="a_Node000009"><a xlink:href="class_py_p_s_a-_g_b_1_1distribution_1_1_distribution.html#adfede53162aa16186b9b6c2ed9b08166" target="_top" xlink:title=" ">
<polygon fill="white" stroke="#666666" points="439.62,-32 249.62,-32 249.62,0 439.62,0 439.62,-32"/>
<text xml:space="preserve" text-anchor="start" x="257.62" y="-18.5" font-family="Helvetica,sans-Serif" font-size="10.00">PyPSA&#45;GB.distribution.Distribution.read</text>
<text xml:space="preserve" text-anchor="middle" x="344.62" y="-6.5" font-family="Helvetica,sans-Serif" font-size="10.00">_scotland_generators</text>
</a>
</g>
</g>
<!-- Node1&#45;&gt;Node9 -->
<g id="edge8_Node000001_Node000009" class="edge">
<title>Node1&#45;&gt;Node9</title>
<g id="a_edge8_Node000001_Node000009"><a xlink:title=" ">
<path fill="none" stroke="#63b8ff" d="M141.64,-74.56C168.29,-64.09 204.13,-50.72 236.5,-41 243.1,-39.02 249.97,-37.1 256.9,-35.26"/>
<polygon fill="#63b8ff" stroke="#63b8ff" points="257.54,-38.71 266.35,-32.83 255.79,-31.93 257.54,-38.71"/>
</a>
</g>
</g>
<!-- Node3 -->
<g id="Node000003" class="node">
<title>Node3</title>
<g id="a_Node000003"><a xlink:href="class_py_p_s_a-_g_b_1_1distribution_1_1_distribution.html#a2e5b3aced22f9c6dc561f471330f0518" target="_top" xlink:title=" ">
<polygon fill="white" stroke="#666666" points="685.12,-182 500.38,-182 500.38,-150 685.12,-150 685.12,-182"/>
<text xml:space="preserve" text-anchor="start" x="508.38" y="-168.5" font-family="Helvetica,sans-Serif" font-size="10.00">PyPSA&#45;GB.distribution.Distribution.rgb</text>
<text xml:space="preserve" text-anchor="middle" x="592.75" y="-156.5" font-family="Helvetica,sans-Serif" font-size="10.00">_total_tech</text>
</a>
</g>
</g>
<!-- Node2&#45;&gt;Node3 -->
<g id="edge2_Node000002_Node000003" class="edge">
<title>Node2&#45;&gt;Node3</title>
<g id="a_edge2_Node000002_Node000003"><a xlink:title=" ">
<path fill="none" stroke="#63b8ff" d="M453.22,-166C465.08,-166 477.14,-166 488.94,-166"/>
<polygon fill="#63b8ff" stroke="#63b8ff" points="488.65,-169.5 498.65,-166 488.65,-162.5 488.65,-169.5"/>
</a>
</g>
</g>
<!-- Node4 -->
<g id="Node000004" class="node">
<title>Node4</title>
<g id="a_Node000004"><a xlink:href="class_py_p_s_a-_g_b_1_1distribution_1_1_distribution.html#af87c046f2f6e6bfdbb809fc07d550f28" target="_top" xlink:title=" ">
<polygon fill="white" stroke="#666666" points="922.75,-182 732.75,-182 732.75,-150 922.75,-150 922.75,-182"/>
<text xml:space="preserve" text-anchor="start" x="740.75" y="-168.5" font-family="Helvetica,sans-Serif" font-size="10.00">PyPSA&#45;GB.distribution.Distribution.read</text>
<text xml:space="preserve" text-anchor="middle" x="827.75" y="-156.5" font-family="Helvetica,sans-Serif" font-size="10.00">_building_block_rgb</text>
</a>
</g>
</g>
<!-- Node3&#45;&gt;Node4 -->
<g id="edge3_Node000003_Node000004" class="edge">
<title>Node3&#45;&gt;Node4</title>
<g id="a_edge3_Node000003_Node000004"><a xlink:title=" ">
<path fill="none" stroke="#63b8ff" d="M685.5,-166C697.18,-166 709.21,-166 721.08,-166"/>
<polygon fill="#63b8ff" stroke="#63b8ff" points="720.89,-169.5 730.89,-166 720.89,-162.5 720.89,-169.5"/>
</a>
</g>
</g>
<!-- Node6 -->
<g id="Node000006" class="node">
<title>Node6</title>
<g id="a_Node000006"><a xlink:href="class_py_p_s_a-_g_b_1_1distribution_1_1_distribution.html#a034d0040f046c1069685119c7127b963" target="_top" xlink:title=" ">
<polygon fill="white" stroke="#666666" points="696.75,-132 488.75,-132 488.75,-100 696.75,-100 696.75,-132"/>
<text xml:space="preserve" text-anchor="start" x="496.75" y="-118.5" font-family="Helvetica,sans-Serif" font-size="10.00">PyPSA&#45;GB.distribution.Distribution.scotland</text>
<text xml:space="preserve" text-anchor="middle" x="592.75" y="-106.5" font-family="Helvetica,sans-Serif" font-size="10.00">_total_tech</text>
</a>
</g>
</g>
<!-- Node5&#45;&gt;Node6 -->
<g id="edge5_Node000005_Node000006" class="edge">
<title>Node5&#45;&gt;Node6</title>
<g id="a_edge5_Node000005_Node000006"><a xlink:title=" ">
<path fill="none" stroke="#63b8ff" d="M453.22,-116C461.04,-116 468.95,-116 476.81,-116"/>
<polygon fill="#63b8ff" stroke="#63b8ff" points="476.77,-119.5 486.77,-116 476.77,-112.5 476.77,-119.5"/>
</a>
</g>
</g>
<!-- Node7 -->
<g id="Node000007" class="node">
<title>Node7</title>
<g id="a_Node000007"><a xlink:href="class_py_p_s_a-_g_b_1_1distribution_1_1_distribution.html#a92bf89f6aa81ce7e84b5acc2611ddc77" target="_top" xlink:title=" ">
<polygon fill="white" stroke="#666666" points="922.75,-132 732.75,-132 732.75,-100 922.75,-100 922.75,-132"/>
<text xml:space="preserve" text-anchor="start" x="740.75" y="-118.5" font-family="Helvetica,sans-Serif" font-size="10.00">PyPSA&#45;GB.distribution.Distribution.read</text>
<text xml:space="preserve" text-anchor="middle" x="827.75" y="-106.5" font-family="Helvetica,sans-Serif" font-size="10.00">_building_block_scotland</text>
</a>
</g>
</g>
<!-- Node6&#45;&gt;Node7 -->
<g id="edge6_Node000006_Node000007" class="edge">
<title>Node6&#45;&gt;Node7</title>
<g id="a_edge6_Node000006_Node000007"><a xlink:title=" ">
<path fill="none" stroke="#63b8ff" d="M696.96,-116C704.99,-116 713.1,-116 721.14,-116"/>
<polygon fill="#63b8ff" stroke="#63b8ff" points="720.93,-119.5 730.93,-116 720.93,-112.5 720.93,-119.5"/>
</a>
</g>
</g>
</g>
</svg>

<g id="navigator" transform="translate(0 0)" fill="#404254">
  <rect fill="#f2f5e9" fill-opacity="0.5" stroke="#606060" stroke-width=".5" x="0" y="0" width="60" height="60"/>
  <use id="zoomplus" xlink:href="#zoomPlus" x="17" y="9" onmousedown="handleZoom(evt,'in')"/>
  <use id="zoomminus" xlink:href="#zoomMin" x="42" y="9" onmousedown="handleZoom(evt,'out')"/>
  <use id="reset" xlink:href="#resetDef" x="30" y="36" onmousedown="handleReset()"/>
   <use id="arrowup" xlink:href="#arrowUp" x="0" y="0" onmousedown="handlePan(0,-1)"/>
  <use id="arrowright" xlink:href="#arrowRight" x="0" y="0" onmousedown="handlePan(1,0)"/>
  <use id="arrowdown" xlink:href="#arrowDown" x="0" y="0" onmousedown="handlePan(0,1)"/>
  <use id="arrowleft" xlink:href="#arrowLeft" x="0" y="0" onmousedown="handlePan(-1,0)"/>
</g>
<svg viewBox="0 0 15 15" width="100%" height="30px" preserveAspectRatio="xMaxYMin meet">
 <g id="arrow_out" transform="scale(0.3 0.3)">
  <a xlink:href="class_py_p_s_a-_g_b_1_1distribution_1_1_distribution_adc2bb991dc04c161398b51c6f261f028_cgraph_org.svg" target="_base">
   <rect id="button" ry="5" rx="5" y="6" x="6" height="38" width="38"
        fill="#f2f5e9" fill-opacity="0.5" stroke="#606060" stroke-width="1.0"/>
   <path id="arrow"
     d="M 11.500037,31.436501 C 11.940474,20.09759 22.043105,11.32322 32.158766,21.979434 L 37.068811,17.246167 C 37.068811,17.246167 37.088388,32 37.088388,32 L 22.160133,31.978069 C 22.160133,31.978069 26.997745,27.140456 26.997745,27.140456 C 18.528582,18.264221 13.291696,25.230495 11.500037,31.436501 z"
     style="fill:#404040;"/>
  </a>
 </g>
</svg>

<style type='text/css'>
<![CDATA[
[data-mouse-over-selected='false'] { opacity: 0.7; }
[data-mouse-over-selected='true']  { opacity: 1.0; }
]]>
</style>
<script type="application/ecmascript"><![CDATA[
document.addEventListener('DOMContentLoaded', (event) => {
  highlightEdges();
  highlightAdjacentNodes();
});
]]></script>
</svg>
