<?xml version="1.0" encoding="UTF-8" standalone="no"?>
<!DOCTYPE svg PUBLIC "-//W3C//DTD SVG 1.1//EN"
 "http://www.w3.org/Graphics/SVG/1.1/DTD/svg11.dtd">
<!-- Generated by graphviz version 13.1.2 (20250808.2320)
 -->
<!-- Title: PyPSA&#45;GB.scotland_LOLP.rate_table Pages: 1 -->
<svg width="355pt" height="78pt"
 viewBox="0.00 0.00 355.00 78.00" xmlns="http://www.w3.org/2000/svg" xmlns:xlink="http://www.w3.org/1999/xlink">
<g id="graph0" class="graph" transform="scale(1 1) rotate(0) translate(4 74)">
<title>PyPSA&#45;GB.scotland_LOLP.rate_table</title>
<!-- Node1 -->
<g id="Node000001" class="node">
<title>Node1</title>
<g id="a_Node000001"><a xlink:title=" ">
<polygon fill="#999999" stroke="#666666" points="347,-54 193.75,-54 193.75,-22 347,-22 347,-54"/>
<text xml:space="preserve" text-anchor="start" x="201.75" y="-40.5" font-family="Helvetica,sans-Serif" font-size="10.00">PyPSA&#45;GB.scotland_LOLP.rate</text>
<text xml:space="preserve" text-anchor="middle" x="270.38" y="-28.5" font-family="Helvetica,sans-Serif" font-size="10.00">_table</text>
</a>
</g>
</g>
<!-- Node2 -->
<g id="Node000002" class="node">
<title>Node2</title>
<g id="a_Node000002"><a xlink:href="namespace_py_p_s_a-_g_b_1_1scotland___l_o_l_p.html#a36d627c03bea31c0876bb8768747b1f0" target="_top" xlink:title=" ">
<polygon fill="white" stroke="#666666" points="157.75,-70 0,-70 0,-50 157.75,-50 157.75,-70"/>
<text xml:space="preserve" text-anchor="middle" x="78.88" y="-56.5" font-family="Helvetica,sans-Serif" font-size="10.00">PyPSA&#45;GB.scotland_LOLP.main</text>
</a>
</g>
</g>
<!-- Node1&#45;&gt;Node2 -->
<g id="edge1_Node000001_Node000002" class="edge">
<title>Node1&#45;&gt;Node2</title>
<g id="a_edge1_Node000001_Node000002"><a xlink:title=" ">
<path fill="none" stroke="#63b8ff" d="M182.11,-48.13C174.08,-49.06 165.98,-50 158.04,-50.92"/>
<polygon fill="#63b8ff" stroke="#63b8ff" points="182.36,-51.63 191.89,-47 181.55,-44.67 182.36,-51.63"/>
</a>
</g>
</g>
<!-- Node3 -->
<g id="Node000003" class="node">
<title>Node3</title>
<g id="a_Node000003"><a xlink:href="namespace_py_p_s_a-_g_b_1_1scotland___l_o_l_p.html#ae163d2cef909eda9cc346eea0c79c07e" target="_top" xlink:title=" ">
<polygon fill="white" stroke="#666666" points="155.12,-32 2.62,-32 2.62,0 155.12,0 155.12,-32"/>
<text xml:space="preserve" text-anchor="start" x="10.62" y="-18.5" font-family="Helvetica,sans-Serif" font-size="10.00">PyPSA&#45;GB.scotland_LOLP.self</text>
<text xml:space="preserve" text-anchor="middle" x="78.88" y="-6.5" font-family="Helvetica,sans-Serif" font-size="10.00">_sufficient_plot</text>
</a>
</g>
</g>
<!-- Node1&#45;&gt;Node3 -->
<g id="edge2_Node000001_Node000003" class="edge">
<title>Node1&#45;&gt;Node3</title>
<g id="a_edge2_Node000001_Node000003"><a xlink:title=" ">
<path fill="none" stroke="#63b8ff" d="M182.2,-27.88C173.31,-26.85 164.32,-25.8 155.57,-24.79"/>
<polygon fill="#63b8ff" stroke="#63b8ff" points="181.55,-31.33 191.89,-29 182.36,-24.37 181.55,-31.33"/>
</a>
</g>
</g>
</g>
</svg>
