<?xml version="1.0" encoding="UTF-8" standalone="no"?>
<!DOCTYPE svg PUBLIC "-//W3C//DTD SVG 1.1//EN"
 "http://www.w3.org/Graphics/SVG/1.1/DTD/svg11.dtd">
<!-- Generated by graphviz version 13.1.2 (20250808.2320)
 -->
<!-- Title: PyPSA&#45;GB.renewables.read_REPD Pages: 1 -->
<!--zoomable 369 -->

<svg id="main" version="1.1" xmlns="http://www.w3.org/2000/svg" xmlns:xlink="http://www.w3.org/1999/xlink" xml:space="preserve" onload="init(evt)">

<style type="text/css"><![CDATA[
.node, .edge {opacity: 0.7;}
.node.selected, .edge.selected {opacity: 1;}
.edge:hover path { stroke: red; }
.edge:hover polygon { stroke: red; fill: red; }
]]></style>

<defs>
  <circle id="rim" cx="0" cy="0" r="7"/>
  <circle id="rim2" cx="0" cy="0" r="3.5"/>
  <g id="zoomPlus">
    <use xlink:href="#rim" fill="#404040"><set attributeName="fill" to="#808080" begin="zoomplus.mouseover" end="zoomplus.mouseout"/></use>
    <path d="M-4,0h8M0,-4v8" fill="none" stroke="white" stroke-width="1.5" pointer-events="none"/>
  </g>
  <g id="zoomMin">
    <use xlink:href="#rim" fill="#404040"><set attributeName="fill" to="#808080" begin="zoomminus.mouseover" end="zoomminus.mouseout"/></use>
    <path d="M-4,0h8" fill="none" stroke="white" stroke-width="1.5" pointer-events="none"/>
  </g>
  <g id="arrowUp" transform="translate(30 24)">
    <use xlink:href="#rim"/>
    <path pointer-events="none" fill="none" stroke="white" stroke-width="1.5" d="M0,-3.0v7 M-2.5,-0.5L0,-3.0L2.5,-0.5"/>
  </g>
  <g id="arrowRight" transform="rotate(90) translate(36 -43)">
    <use xlink:href="#rim"/>
    <path pointer-events="none" fill="none" stroke="white" stroke-width="1.5" d="M0,-3.0v7 M-2.5,-0.5L0,-3.0L2.5,-0.5"/>
  </g>
  <g id="arrowDown" transform="rotate(180) translate(-30 -48)">
    <use xlink:href="#rim"/>
    <path pointer-events="none" fill="none" stroke="white" stroke-width="1.5" d="M0,-3.0v7 M-2.5,-0.5L0,-3.0L2.5,-0.5"/>
  </g>
  <g id="arrowLeft" transform="rotate(270) translate(-36 17)">
    <use xlink:href="#rim"/>
    <path pointer-events="none" fill="none" stroke="white" stroke-width="1.5" d="M0,-3.0v7 M-2.5,-0.5L0,-3.0L2.5,-0.5"/>
  </g>
  <g id="resetDef">
    <use xlink:href="#rim2" fill="#404040"><set attributeName="fill" to="#808080" begin="reset.mouseover" end="reset.mouseout"/></use>
  </g>
</defs>
<script type="application/ecmascript">
var viewWidth = 930;
var viewHeight = 369;
var sectionId = 'dynsection-19';
</script>
<script type="application/ecmascript" xlink:href="svg.min.js"/>
<svg id="graph" class="graph">
<g id="viewport">
<title>PyPSA&#45;GB.renewables.read_REPD</title>
<!-- Node1 -->
<g id="Node000001" class="node">
<title>Node1</title>
<g id="a_Node000001"><a xlink:title="reads the REDP (renewable energy planning database) and converts to dataframe">
<polygon fill="#999999" stroke="#666666" points="922.25,-170 748.75,-170 748.75,-150 922.25,-150 922.25,-170"/>
<text xml:space="preserve" text-anchor="middle" x="835.5" y="-156.5" font-family="Helvetica,sans-Serif" font-size="10.00">PyPSA&#45;GB.renewables.read_REPD</text>
</a>
</g>
</g>
<!-- Node2 -->
<g id="Node000002" class="node">
<title>Node2</title>
<g id="a_Node000002"><a xlink:href="namespace_py_p_s_a-_g_b_1_1renewables.html#a721b09963fd339351825ed23035b35c2" target="_top" xlink:title="corrects the REDP (renewable energy planning database) according to year of simulation">
<polygon fill="white" stroke="#666666" points="712.75,-176 563.25,-176 563.25,-144 712.75,-144 712.75,-176"/>
<text xml:space="preserve" text-anchor="start" x="571.25" y="-162.5" font-family="Helvetica,sans-Serif" font-size="10.00">PyPSA&#45;GB.renewables.REPD</text>
<text xml:space="preserve" text-anchor="middle" x="638" y="-150.5" font-family="Helvetica,sans-Serif" font-size="10.00">_date_corrected</text>
</a>
</g>
</g>
<!-- Node1&#45;&gt;Node2 -->
<g id="edge1_Node000001_Node000002" class="edge">
<title>Node1&#45;&gt;Node2</title>
<g id="a_edge1_Node000001_Node000002"><a xlink:title=" ">
<path fill="none" stroke="#63b8ff" d="M737.1,-160C729.04,-160 720.98,-160 713.13,-160"/>
<polygon fill="#63b8ff" stroke="#63b8ff" points="736.95,-163.5 746.95,-160 736.95,-156.5 736.95,-163.5"/>
</a>
</g>
</g>
<!-- Node3 -->
<g id="Node000003" class="node">
<title>Node3</title>
<g id="a_Node000003"><a xlink:href="namespace_py_p_s_a-_g_b_1_1renewables.html#ab477631ae6df1c1e2f5cf89bd1cec969" target="_top" xlink:title="fixes the timeseries of renewable profiles according to year">
<polygon fill="white" stroke="#666666" points="518.25,-311 386.75,-311 386.75,-279 518.25,-279 518.25,-311"/>
<text xml:space="preserve" text-anchor="start" x="394.75" y="-297.5" font-family="Helvetica,sans-Serif" font-size="10.00">PyPSA&#45;GB.renewables.fix</text>
<text xml:space="preserve" text-anchor="middle" x="452.5" y="-285.5" font-family="Helvetica,sans-Serif" font-size="10.00">_timeseries_res_for_year</text>
</a>
</g>
</g>
<!-- Node2&#45;&gt;Node3 -->
<g id="edge2_Node000002_Node000003" class="edge">
<title>Node2&#45;&gt;Node3</title>
<g id="a_edge2_Node000002_Node000003"><a xlink:title=" ">
<path fill="none" stroke="#63b8ff" d="M615.08,-184.55C594.17,-206.89 560.95,-239.69 527.25,-262 517.78,-268.27 506.91,-273.88 496.49,-278.61"/>
<polygon fill="#63b8ff" stroke="#63b8ff" points="617.5,-187.09 621.7,-177.37 612.35,-182.35 617.5,-187.09"/>
</a>
</g>
</g>
<!-- Node7 -->
<g id="Node000007" class="node">
<title>Node7</title>
<g id="a_Node000007"><a xlink:href="namespace_py_p_s_a-_g_b_1_1renewables.html#aea44fe3cbfa597a01a30cf5137660d22" target="_top" xlink:title=" ">
<polygon fill="white" stroke="#666666" points="334.62,-261 188.88,-261 188.88,-229 334.62,-229 334.62,-261"/>
<text xml:space="preserve" text-anchor="start" x="196.88" y="-247.5" font-family="Helvetica,sans-Serif" font-size="10.00">PyPSA&#45;GB.renewables.future</text>
<text xml:space="preserve" text-anchor="middle" x="261.75" y="-235.5" font-family="Helvetica,sans-Serif" font-size="10.00">_offshore_capacity</text>
</a>
</g>
</g>
<!-- Node2&#45;&gt;Node7 -->
<g id="edge6_Node000002_Node000007" class="edge">
<title>Node2&#45;&gt;Node7</title>
<g id="a_edge6_Node000002_Node000007"><a xlink:title=" ">
<path fill="none" stroke="#63b8ff" d="M608.9,-183.27C587.84,-199.25 557.54,-219.27 527.25,-229 464.51,-249.16 389.16,-251.76 334.97,-250.15"/>
<polygon fill="#63b8ff" stroke="#63b8ff" points="610.97,-186.1 616.71,-177.19 606.67,-180.57 610.97,-186.1"/>
</a>
</g>
</g>
<!-- Node8 -->
<g id="Node000008" class="node">
<title>Node8</title>
<g id="a_Node000008"><a xlink:href="namespace_py_p_s_a-_g_b_1_1renewables.html#a828bff8c3a0df0c60df8b16c750c1856" target="_top" xlink:title=" ">
<polygon fill="white" stroke="#666666" points="525.38,-220 379.62,-220 379.62,-188 525.38,-188 525.38,-220"/>
<text xml:space="preserve" text-anchor="start" x="387.62" y="-206.5" font-family="Helvetica,sans-Serif" font-size="10.00">PyPSA&#45;GB.renewables.future</text>
<text xml:space="preserve" text-anchor="middle" x="452.5" y="-194.5" font-family="Helvetica,sans-Serif" font-size="10.00">_offshore_sites</text>
</a>
</g>
</g>
<!-- Node2&#45;&gt;Node8 -->
<g id="edge8_Node000002_Node000008" class="edge">
<title>Node2&#45;&gt;Node8</title>
<g id="a_edge8_Node000002_Node000008"><a xlink:title=" ">
<path fill="none" stroke="#63b8ff" d="M557.33,-179.1C545.67,-181.9 533.74,-184.76 522.31,-187.5"/>
<polygon fill="#63b8ff" stroke="#63b8ff" points="558.03,-182.53 566.94,-176.8 556.4,-175.73 558.03,-182.53"/>
</a>
</g>
</g>
<!-- Node9 -->
<g id="Node000009" class="node">
<title>Node9</title>
<g id="a_Node000009"><a xlink:href="namespace_py_p_s_a-_g_b_1_1renewables.html#a2c63c9849737caba3540f2db1450b5bf" target="_top" xlink:title=" ">
<polygon fill="white" stroke="#666666" points="334.62,-132 188.88,-132 188.88,-100 334.62,-100 334.62,-132"/>
<text xml:space="preserve" text-anchor="start" x="196.88" y="-118.5" font-family="Helvetica,sans-Serif" font-size="10.00">PyPSA&#45;GB.renewables.future</text>
<text xml:space="preserve" text-anchor="middle" x="261.75" y="-106.5" font-family="Helvetica,sans-Serif" font-size="10.00">_RES_capacity</text>
</a>
</g>
</g>
<!-- Node2&#45;&gt;Node9 -->
<g id="edge9_Node000002_Node000009" class="edge">
<title>Node2&#45;&gt;Node9</title>
<g id="a_edge9_Node000002_Node000009"><a xlink:title=" ">
<path fill="none" stroke="#63b8ff" d="M551.7,-156.78C500.98,-154.11 435.47,-149.35 377.75,-141 362.48,-138.79 346.22,-135.71 330.87,-132.47"/>
<polygon fill="#63b8ff" stroke="#63b8ff" points="551.27,-160.26 561.44,-157.27 551.63,-153.27 551.27,-160.26"/>
</a>
</g>
</g>
<!-- Node12 -->
<g id="Node000012" class="node">
<title>Node12</title>
<g id="a_Node000012"><a xlink:href="namespace_py_p_s_a-_g_b_1_1renewables.html#a668d4fb16ae5163575a36abcab6074db" target="_top" xlink:title="reads the biomass generators from REPD and converts to dataframe">
<polygon fill="white" stroke="#666666" points="522.38,-132 382.62,-132 382.62,-100 522.38,-100 522.38,-132"/>
<text xml:space="preserve" text-anchor="start" x="390.62" y="-118.5" font-family="Helvetica,sans-Serif" font-size="10.00">PyPSA&#45;GB.renewables.read</text>
<text xml:space="preserve" text-anchor="middle" x="452.5" y="-106.5" font-family="Helvetica,sans-Serif" font-size="10.00">_biomass</text>
</a>
</g>
</g>
<!-- Node2&#45;&gt;Node12 -->
<g id="edge12_Node000002_Node000012" class="edge">
<title>Node2&#45;&gt;Node12</title>
<g id="a_edge12_Node000002_Node000012"><a xlink:title=" ">
<path fill="none" stroke="#63b8ff" d="M557.33,-140.9C545.67,-138.1 533.74,-135.24 522.31,-132.5"/>
<polygon fill="#63b8ff" stroke="#63b8ff" points="556.4,-144.27 566.94,-143.2 558.03,-137.47 556.4,-144.27"/>
</a>
</g>
</g>
<!-- Node13 -->
<g id="Node000013" class="node">
<title>Node13</title>
<g id="a_Node000013"><a xlink:href="namespace_py_p_s_a-_g_b_1_1renewables.html#accc64b4fdfc806fe6448933fb8596eb3" target="_top" xlink:title="reads hydro data from REDP">
<polygon fill="white" stroke="#666666" points="522.38,-82 382.62,-82 382.62,-50 522.38,-50 522.38,-82"/>
<text xml:space="preserve" text-anchor="start" x="390.62" y="-68.5" font-family="Helvetica,sans-Serif" font-size="10.00">PyPSA&#45;GB.renewables.read</text>
<text xml:space="preserve" text-anchor="middle" x="452.5" y="-56.5" font-family="Helvetica,sans-Serif" font-size="10.00">_hydro</text>
</a>
</g>
</g>
<!-- Node2&#45;&gt;Node13 -->
<g id="edge14_Node000002_Node000013" class="edge">
<title>Node2&#45;&gt;Node13</title>
<g id="a_edge14_Node000002_Node000013"><a xlink:title=" ">
<path fill="none" stroke="#63b8ff" d="M605.14,-137.17C583.83,-122.6 554.74,-104.08 527.25,-91 520.78,-87.92 513.83,-85.05 506.87,-82.42"/>
<polygon fill="#63b8ff" stroke="#63b8ff" points="602.9,-139.87 613.11,-142.68 606.88,-134.11 602.9,-139.87"/>
</a>
</g>
</g>
<!-- Node15 -->
<g id="Node000015" class="node">
<title>Node15</title>
<g id="a_Node000015"><a xlink:href="namespace_py_p_s_a-_g_b_1_1renewables.html#a0d6595250883370f9611cbb1f8f0b381" target="_top" xlink:title="reads the continuous renewable generators from REPD and converts to dataframe">
<polygon fill="white" stroke="#666666" points="527.25,-32 377.75,-32 377.75,0 527.25,0 527.25,-32"/>
<text xml:space="preserve" text-anchor="start" x="385.75" y="-18.5" font-family="Helvetica,sans-Serif" font-size="10.00">PyPSA&#45;GB.renewables.read</text>
<text xml:space="preserve" text-anchor="middle" x="452.5" y="-6.5" font-family="Helvetica,sans-Serif" font-size="10.00">_non_dispatchable_continuous</text>
</a>
</g>
</g>
<!-- Node2&#45;&gt;Node15 -->
<g id="edge17_Node000002_Node000015" class="edge">
<title>Node2&#45;&gt;Node15</title>
<g id="a_edge17_Node000002_Node000015"><a xlink:title=" ">
<path fill="none" stroke="#63b8ff" d="M619.59,-134.61C600.02,-107.83 565.87,-66.1 527.25,-41 522.26,-37.76 516.81,-34.89 511.2,-32.37"/>
<polygon fill="#63b8ff" stroke="#63b8ff" points="616.58,-136.42 625.25,-142.51 622.28,-132.34 616.58,-136.42"/>
</a>
</g>
</g>
<!-- Node4 -->
<g id="Node000004" class="node">
<title>Node4</title>
<g id="a_Node000004"><a xlink:href="namespace_py_p_s_a-_g_b_1_1renewables.html#a4b19fbcea0ad3bf7665422779b827419" target="_top" xlink:title=" ">
<polygon fill="white" stroke="#666666" points="341.75,-361 181.75,-361 181.75,-329 341.75,-329 341.75,-361"/>
<text xml:space="preserve" text-anchor="start" x="189.75" y="-347.5" font-family="Helvetica,sans-Serif" font-size="10.00">PyPSA&#45;GB.renewables.historical</text>
<text xml:space="preserve" text-anchor="middle" x="261.75" y="-335.5" font-family="Helvetica,sans-Serif" font-size="10.00">_RES_timeseries</text>
</a>
</g>
</g>
<!-- Node3&#45;&gt;Node4 -->
<g id="edge3_Node000003_Node000004" class="edge">
<title>Node3&#45;&gt;Node4</title>
<g id="a_edge3_Node000003_Node000004"><a xlink:title=" ">
<path fill="none" stroke="#63b8ff" d="M378.31,-314.39C360.65,-319.07 341.95,-324.02 324.85,-328.55"/>
<polygon fill="#63b8ff" stroke="#63b8ff" points="379.2,-317.77 387.97,-311.83 377.41,-311.01 379.2,-317.77"/>
</a>
</g>
</g>
<!-- Node6 -->
<g id="Node000006" class="node">
<title>Node6</title>
<g id="a_Node000006"><a xlink:href="namespace_py_p_s_a-_g_b_1_1renewables.html#a33cae951aca83aaa421e08e09cca8258" target="_top" xlink:title="correction factor to match annual model and actual output for RES generation">
<polygon fill="white" stroke="#666666" points="332.75,-311 190.75,-311 190.75,-279 332.75,-279 332.75,-311"/>
<text xml:space="preserve" text-anchor="start" x="198.75" y="-297.5" font-family="Helvetica,sans-Serif" font-size="10.00">PyPSA&#45;GB.renewables.RES</text>
<text xml:space="preserve" text-anchor="middle" x="261.75" y="-285.5" font-family="Helvetica,sans-Serif" font-size="10.00">_correction_factors</text>
</a>
</g>
</g>
<!-- Node3&#45;&gt;Node6 -->
<g id="edge5_Node000003_Node000006" class="edge">
<title>Node3&#45;&gt;Node6</title>
<g id="a_edge5_Node000003_Node000006"><a xlink:title=" ">
<path fill="none" stroke="#63b8ff" d="M374.84,-295C361.05,-295 346.73,-295 333.13,-295"/>
<polygon fill="#63b8ff" stroke="#63b8ff" points="374.77,-298.5 384.77,-295 374.77,-291.5 374.77,-298.5"/>
</a>
</g>
</g>
<!-- Node5 -->
<g id="Node000005" class="node">
<title>Node5</title>
<g id="a_Node000005"><a xlink:href="namespace_py_p_s_a-_g_b_1_1renewables.html#af10ee77cc852d37f7d245ab65d8fe4ec" target="_top" xlink:title=" ">
<polygon fill="white" stroke="#666666" points="145.75,-311 0,-311 0,-279 145.75,-279 145.75,-311"/>
<text xml:space="preserve" text-anchor="start" x="8" y="-297.5" font-family="Helvetica,sans-Serif" font-size="10.00">PyPSA&#45;GB.renewables.future</text>
<text xml:space="preserve" text-anchor="middle" x="72.88" y="-285.5" font-family="Helvetica,sans-Serif" font-size="10.00">_offshore_timeseries</text>
</a>
</g>
</g>
<!-- Node4&#45;&gt;Node5 -->
<g id="edge4_Node000004_Node000005" class="edge">
<title>Node4&#45;&gt;Node5</title>
<g id="a_edge4_Node000004_Node000005"><a xlink:title=" ">
<path fill="none" stroke="#63b8ff" d="M188.53,-325.68C170.98,-320.98 152.37,-316 135.36,-311.45"/>
<polygon fill="#63b8ff" stroke="#63b8ff" points="187.27,-328.96 197.84,-328.17 189.08,-322.2 187.27,-328.96"/>
</a>
</g>
</g>
<!-- Node7&#45;&gt;Node5 -->
<g id="edge7_Node000007_Node000005" class="edge">
<title>Node7&#45;&gt;Node5</title>
<g id="a_edge7_Node000007_Node000005"><a xlink:title=" ">
<path fill="none" stroke="#63b8ff" d="M188.53,-264.32C170.98,-269.02 152.37,-274 135.36,-278.55"/>
<polygon fill="#63b8ff" stroke="#63b8ff" points="189.08,-267.8 197.84,-261.83 187.27,-261.04 189.08,-267.8"/>
</a>
</g>
</g>
<!-- Node10 -->
<g id="Node000010" class="node">
<title>Node10</title>
<g id="a_Node000010"><a xlink:href="namespace_py_p_s_a-_g_b_1_1renewables.html#ab167f84d9c45d0e247017c16eff68a5b" target="_top" xlink:title=" ">
<polygon fill="white" stroke="#666666" points="145.75,-157 0,-157 0,-125 145.75,-125 145.75,-157"/>
<text xml:space="preserve" text-anchor="start" x="8" y="-143.5" font-family="Helvetica,sans-Serif" font-size="10.00">PyPSA&#45;GB.renewables.future</text>
<text xml:space="preserve" text-anchor="middle" x="72.88" y="-131.5" font-family="Helvetica,sans-Serif" font-size="10.00">_RES_scale_p_nom</text>
</a>
</g>
</g>
<!-- Node9&#45;&gt;Node10 -->
<g id="edge10_Node000009_Node000010" class="edge">
<title>Node9&#45;&gt;Node10</title>
<g id="a_edge10_Node000009_Node000010"><a xlink:title=" ">
<path fill="none" stroke="#63b8ff" d="M177.34,-127.16C166.96,-128.55 156.43,-129.96 146.24,-131.32"/>
<polygon fill="#63b8ff" stroke="#63b8ff" points="177.55,-130.66 187,-125.87 176.62,-123.72 177.55,-130.66"/>
</a>
</g>
</g>
<!-- Node11 -->
<g id="Node000011" class="node">
<title>Node11</title>
<g id="a_Node000011"><a xlink:href="namespace_py_p_s_a-_g_b_1_1renewables.html#acbb0430f9573a9f14482bfe79b3cb699" target="_top" xlink:title=" ">
<polygon fill="white" stroke="#666666" points="145,-107 0.75,-107 0.75,-75 145,-75 145,-107"/>
<text xml:space="preserve" text-anchor="start" x="8.75" y="-93.5" font-family="Helvetica,sans-Serif" font-size="10.00">PyPSA&#45;GB.renewables.scale</text>
<text xml:space="preserve" text-anchor="middle" x="72.88" y="-81.5" font-family="Helvetica,sans-Serif" font-size="10.00">_biomass_p_nom</text>
</a>
</g>
</g>
<!-- Node9&#45;&gt;Node11 -->
<g id="edge11_Node000009_Node000011" class="edge">
<title>Node9&#45;&gt;Node11</title>
<g id="a_edge11_Node000009_Node000011"><a xlink:title=" ">
<path fill="none" stroke="#63b8ff" d="M177.42,-104.85C166.71,-103.42 155.82,-101.96 145.32,-100.56"/>
<polygon fill="#63b8ff" stroke="#63b8ff" points="176.62,-108.28 187,-106.13 177.55,-101.34 176.62,-108.28"/>
</a>
</g>
</g>
<!-- Node12&#45;&gt;Node9 -->
<g id="edge13_Node000012_Node000009" class="edge">
<title>Node12&#45;&gt;Node9</title>
<g id="a_edge13_Node000012_Node000009"><a xlink:title=" ">
<path fill="none" stroke="#63b8ff" d="M370.98,-116C359.07,-116 346.86,-116 335.12,-116"/>
<polygon fill="#63b8ff" stroke="#63b8ff" points="370.77,-119.5 380.77,-116 370.77,-112.5 370.77,-119.5"/>
</a>
</g>
</g>
<!-- Node13&#45;&gt;Node9 -->
<g id="edge15_Node000013_Node000009" class="edge">
<title>Node13&#45;&gt;Node9</title>
<g id="a_edge15_Node000013_Node000009"><a xlink:title=" ">
<path fill="none" stroke="#63b8ff" d="M378.31,-85.39C360.65,-90.07 341.95,-95.02 324.85,-99.55"/>
<polygon fill="#63b8ff" stroke="#63b8ff" points="379.2,-88.77 387.97,-82.83 377.41,-82.01 379.2,-88.77"/>
</a>
</g>
</g>
<!-- Node14 -->
<g id="Node000014" class="node">
<title>Node14</title>
<g id="a_Node000014"><a xlink:href="namespace_py_p_s_a-_g_b_1_1renewables.html#afb88970b5835775e31229448af06c407" target="_top" xlink:title="reads hydro timeseries as saved in relevant folder">
<polygon fill="white" stroke="#666666" points="331.62,-82 191.88,-82 191.88,-50 331.62,-50 331.62,-82"/>
<text xml:space="preserve" text-anchor="start" x="199.88" y="-68.5" font-family="Helvetica,sans-Serif" font-size="10.00">PyPSA&#45;GB.renewables.read</text>
<text xml:space="preserve" text-anchor="middle" x="261.75" y="-56.5" font-family="Helvetica,sans-Serif" font-size="10.00">_hydro_time_series</text>
</a>
</g>
</g>
<!-- Node13&#45;&gt;Node14 -->
<g id="edge16_Node000013_Node000014" class="edge">
<title>Node13&#45;&gt;Node14</title>
<g id="a_edge16_Node000013_Node000014"><a xlink:title=" ">
<path fill="none" stroke="#63b8ff" d="M370.99,-66C358,-66 344.65,-66 331.95,-66"/>
<polygon fill="#63b8ff" stroke="#63b8ff" points="370.77,-69.5 380.77,-66 370.77,-62.5 370.77,-69.5"/>
</a>
</g>
</g>
</g>
</svg>

<g id="navigator" transform="translate(0 0)" fill="#404254">
  <rect fill="#f2f5e9" fill-opacity="0.5" stroke="#606060" stroke-width=".5" x="0" y="0" width="60" height="60"/>
  <use id="zoomplus" xlink:href="#zoomPlus" x="17" y="9" onmousedown="handleZoom(evt,'in')"/>
  <use id="zoomminus" xlink:href="#zoomMin" x="42" y="9" onmousedown="handleZoom(evt,'out')"/>
  <use id="reset" xlink:href="#resetDef" x="30" y="36" onmousedown="handleReset()"/>
   <use id="arrowup" xlink:href="#arrowUp" x="0" y="0" onmousedown="handlePan(0,-1)"/>
  <use id="arrowright" xlink:href="#arrowRight" x="0" y="0" onmousedown="handlePan(1,0)"/>
  <use id="arrowdown" xlink:href="#arrowDown" x="0" y="0" onmousedown="handlePan(0,1)"/>
  <use id="arrowleft" xlink:href="#arrowLeft" x="0" y="0" onmousedown="handlePan(-1,0)"/>
</g>
<svg viewBox="0 0 15 15" width="100%" height="30px" preserveAspectRatio="xMaxYMin meet">
 <g id="arrow_out" transform="scale(0.3 0.3)">
  <a xlink:href="namespace_py_p_s_a-_g_b_1_1renewables_ab85ba8dcaf38f80f959156e0c7295a14_icgraph_org.svg" target="_base">
   <rect id="button" ry="5" rx="5" y="6" x="6" height="38" width="38"
        fill="#f2f5e9" fill-opacity="0.5" stroke="#606060" stroke-width="1.0"/>
   <path id="arrow"
     d="M 11.500037,31.436501 C 11.940474,20.09759 22.043105,11.32322 32.158766,21.979434 L 37.068811,17.246167 C 37.068811,17.246167 37.088388,32 37.088388,32 L 22.160133,31.978069 C 22.160133,31.978069 26.997745,27.140456 26.997745,27.140456 C 18.528582,18.264221 13.291696,25.230495 11.500037,31.436501 z"
     style="fill:#404040;"/>
  </a>
 </g>
</svg>

<style type='text/css'>
<![CDATA[
[data-mouse-over-selected='false'] { opacity: 0.7; }
[data-mouse-over-selected='true']  { opacity: 1.0; }
]]>
</style>
<script type="application/ecmascript"><![CDATA[
document.addEventListener('DOMContentLoaded', (event) => {
  highlightEdges();
  highlightAdjacentNodes();
});
]]></script>
</svg>
