<?xml version="1.0" encoding="UTF-8" standalone="no"?>
<!DOCTYPE svg PUBLIC "-//W3C//DTD SVG 1.1//EN"
 "http://www.w3.org/Graphics/SVG/1.1/DTD/svg11.dtd">
<!-- Generated by graphviz version 13.1.2 (20250808.2320)
 -->
<!-- Title: PyPSA&#45;GB.renewables_atlite.multiple_years_PV Pages: 1 -->
<svg width="443pt" height="40pt"
 viewBox="0.00 0.00 443.00 40.00" xmlns="http://www.w3.org/2000/svg" xmlns:xlink="http://www.w3.org/1999/xlink">
<g id="graph0" class="graph" transform="scale(1 1) rotate(0) translate(4 36)">
<title>PyPSA&#45;GB.renewables_atlite.multiple_years_PV</title>
<!-- Node1 -->
<g id="Node000001" class="node">
<title>Node1</title>
<g id="a_Node000001"><a xlink:title=" ">
<polygon fill="#999999" stroke="#666666" points="127,-32 0,-32 0,0 127,0 127,-32"/>
<text xml:space="preserve" text-anchor="start" x="8" y="-18.5" font-family="Helvetica,sans-Serif" font-size="10.00">PyPSA&#45;GB.renewables</text>
<text xml:space="preserve" text-anchor="middle" x="63.5" y="-6.5" font-family="Helvetica,sans-Serif" font-size="10.00">_atlite.multiple_years_PV</text>
</a>
</g>
</g>
<!-- Node2 -->
<g id="Node000002" class="node">
<title>Node2</title>
<g id="a_Node000002"><a xlink:href="namespace_py_p_s_a-_g_b_1_1renewables__atlite.html#a614807aea93d9faca4d66b173445a115" target="_top" xlink:title=" ">
<polygon fill="white" stroke="#666666" points="281,-32 163,-32 163,0 281,0 281,-32"/>
<text xml:space="preserve" text-anchor="start" x="171" y="-18.5" font-family="Helvetica,sans-Serif" font-size="10.00">PyPSA&#45;GB.renewables</text>
<text xml:space="preserve" text-anchor="middle" x="222" y="-6.5" font-family="Helvetica,sans-Serif" font-size="10.00">_atlite.multiple_PV</text>
</a>
</g>
</g>
<!-- Node1&#45;&gt;Node2 -->
<g id="edge1_Node000001_Node000002" class="edge">
<title>Node1&#45;&gt;Node2</title>
<g id="a_edge1_Node000001_Node000002"><a xlink:title=" ">
<path fill="none" stroke="#63b8ff" d="M127.25,-16C135.08,-16 143.12,-16 151.05,-16"/>
<polygon fill="#63b8ff" stroke="#63b8ff" points="151.03,-19.5 161.03,-16 151.03,-12.5 151.03,-19.5"/>
</a>
</g>
</g>
<!-- Node3 -->
<g id="Node000003" class="node">
<title>Node3</title>
<g id="a_Node000003"><a xlink:href="namespace_py_p_s_a-_g_b_1_1renewables__atlite.html#a0c3181c602b938cfa709245a055d4fed" target="_top" xlink:title=" ">
<polygon fill="white" stroke="#666666" points="435,-32 317,-32 317,0 435,0 435,-32"/>
<text xml:space="preserve" text-anchor="start" x="325" y="-18.5" font-family="Helvetica,sans-Serif" font-size="10.00">PyPSA&#45;GB.renewables</text>
<text xml:space="preserve" text-anchor="middle" x="376" y="-6.5" font-family="Helvetica,sans-Serif" font-size="10.00">_atlite.PV_timeseries</text>
</a>
</g>
</g>
<!-- Node2&#45;&gt;Node3 -->
<g id="edge2_Node000002_Node000003" class="edge">
<title>Node2&#45;&gt;Node3</title>
<g id="a_edge2_Node000002_Node000003"><a xlink:title=" ">
<path fill="none" stroke="#63b8ff" d="M281.33,-16C289.19,-16 297.3,-16 305.33,-16"/>
<polygon fill="#63b8ff" stroke="#63b8ff" points="305.06,-19.5 315.06,-16 305.06,-12.5 305.06,-19.5"/>
</a>
</g>
</g>
</g>
</svg>
