<?xml version="1.0" encoding="UTF-8" standalone="no"?>
<!DOCTYPE svg PUBLIC "-//W3C//DTD SVG 1.1//EN"
 "http://www.w3.org/Graphics/SVG/1.1/DTD/svg11.dtd">
<!-- Generated by graphviz version 13.1.2 (20250808.2320)
 -->
<!-- Title: PyPSA&#45;GB.generators.future_p_nom Pages: 1 -->
<!--zoomable 440 -->

<svg id="main" version="1.1" xmlns="http://www.w3.org/2000/svg" xmlns:xlink="http://www.w3.org/1999/xlink" xml:space="preserve" onload="init(evt)">

<style type="text/css"><![CDATA[
.node, .edge {opacity: 0.7;}
.node.selected, .edge.selected {opacity: 1;}
.edge:hover path { stroke: red; }
.edge:hover polygon { stroke: red; fill: red; }
]]></style>

<defs>
  <circle id="rim" cx="0" cy="0" r="7"/>
  <circle id="rim2" cx="0" cy="0" r="3.5"/>
  <g id="zoomPlus">
    <use xlink:href="#rim" fill="#404040"><set attributeName="fill" to="#808080" begin="zoomplus.mouseover" end="zoomplus.mouseout"/></use>
    <path d="M-4,0h8M0,-4v8" fill="none" stroke="white" stroke-width="1.5" pointer-events="none"/>
  </g>
  <g id="zoomMin">
    <use xlink:href="#rim" fill="#404040"><set attributeName="fill" to="#808080" begin="zoomminus.mouseover" end="zoomminus.mouseout"/></use>
    <path d="M-4,0h8" fill="none" stroke="white" stroke-width="1.5" pointer-events="none"/>
  </g>
  <g id="arrowUp" transform="translate(30 24)">
    <use xlink:href="#rim"/>
    <path pointer-events="none" fill="none" stroke="white" stroke-width="1.5" d="M0,-3.0v7 M-2.5,-0.5L0,-3.0L2.5,-0.5"/>
  </g>
  <g id="arrowRight" transform="rotate(90) translate(36 -43)">
    <use xlink:href="#rim"/>
    <path pointer-events="none" fill="none" stroke="white" stroke-width="1.5" d="M0,-3.0v7 M-2.5,-0.5L0,-3.0L2.5,-0.5"/>
  </g>
  <g id="arrowDown" transform="rotate(180) translate(-30 -48)">
    <use xlink:href="#rim"/>
    <path pointer-events="none" fill="none" stroke="white" stroke-width="1.5" d="M0,-3.0v7 M-2.5,-0.5L0,-3.0L2.5,-0.5"/>
  </g>
  <g id="arrowLeft" transform="rotate(270) translate(-36 17)">
    <use xlink:href="#rim"/>
    <path pointer-events="none" fill="none" stroke="white" stroke-width="1.5" d="M0,-3.0v7 M-2.5,-0.5L0,-3.0L2.5,-0.5"/>
  </g>
  <g id="resetDef">
    <use xlink:href="#rim2" fill="#404040"><set attributeName="fill" to="#808080" begin="reset.mouseover" end="reset.mouseout"/></use>
  </g>
</defs>
<script type="application/ecmascript">
var viewWidth = 694;
var viewHeight = 440;
var sectionId = 'dynsection-15';
</script>
<script type="application/ecmascript" xlink:href="svg.min.js"/>
<svg id="graph" class="graph">
<g id="viewport">
<title>PyPSA&#45;GB.generators.future_p_nom</title>
<!-- Node1 -->
<g id="Node000001" class="node">
<title>Node1</title>
<g id="a_Node000001"><a xlink:title=" ">
<polygon fill="#999999" stroke="#666666" points="142,-232 0,-232 0,-200 142,-200 142,-232"/>
<text xml:space="preserve" text-anchor="start" x="8" y="-218.5" font-family="Helvetica,sans-Serif" font-size="10.00">PyPSA&#45;GB.generators.future</text>
<text xml:space="preserve" text-anchor="middle" x="71" y="-206.5" font-family="Helvetica,sans-Serif" font-size="10.00">_p_nom</text>
</a>
</g>
</g>
<!-- Node2 -->
<g id="Node000002" class="node">
<title>Node2</title>
<g id="a_Node000002"><a xlink:href="namespace_py_p_s_a-_g_b_1_1generators.html#a64bb0f4476344b3277d45195bf2872ef" target="_top" xlink:title=" ">
<polygon fill="white" stroke="#666666" points="327.88,-432 185.88,-432 185.88,-400 327.88,-400 327.88,-432"/>
<text xml:space="preserve" text-anchor="start" x="193.88" y="-418.5" font-family="Helvetica,sans-Serif" font-size="10.00">PyPSA&#45;GB.generators.future</text>
<text xml:space="preserve" text-anchor="middle" x="256.88" y="-406.5" font-family="Helvetica,sans-Serif" font-size="10.00">_biomass_CCS</text>
</a>
</g>
</g>
<!-- Node1&#45;&gt;Node2 -->
<g id="edge1_Node000001_Node000002" class="edge">
<title>Node1&#45;&gt;Node2</title>
<g id="a_edge1_Node000001_Node000002"><a xlink:title=" ">
<path fill="none" stroke="#63b8ff" d="M77.45,-232.43C89.75,-266.97 122.94,-347.52 178,-391 179.29,-392.02 180.62,-392.99 181.99,-393.93"/>
<polygon fill="#63b8ff" stroke="#63b8ff" points="179.78,-396.69 190.16,-398.79 183.35,-390.67 179.78,-396.69"/>
</a>
</g>
</g>
<!-- Node5 -->
<g id="Node000005" class="node">
<title>Node5</title>
<g id="a_Node000005"><a xlink:href="namespace_py_p_s_a-_g_b_1_1generators.html#aadb0d67a785bbf47f35ff817e00b433c" target="_top" xlink:title=" ">
<polygon fill="white" stroke="#666666" points="327.88,-382 185.88,-382 185.88,-350 327.88,-350 327.88,-382"/>
<text xml:space="preserve" text-anchor="start" x="193.88" y="-368.5" font-family="Helvetica,sans-Serif" font-size="10.00">PyPSA&#45;GB.generators.future</text>
<text xml:space="preserve" text-anchor="middle" x="256.88" y="-356.5" font-family="Helvetica,sans-Serif" font-size="10.00">_coal_p_nom</text>
</a>
</g>
</g>
<!-- Node1&#45;&gt;Node5 -->
<g id="edge4_Node000001_Node000005" class="edge">
<title>Node1&#45;&gt;Node5</title>
<g id="a_edge4_Node000001_Node000005"><a xlink:title=" ">
<path fill="none" stroke="#63b8ff" d="M81.57,-232.33C97.98,-258.93 134,-311.6 178,-341 179.82,-342.21 181.69,-343.37 183.62,-344.47"/>
<polygon fill="#63b8ff" stroke="#63b8ff" points="181.75,-347.45 192.25,-348.87 184.93,-341.21 181.75,-347.45"/>
</a>
</g>
</g>
<!-- Node6 -->
<g id="Node000006" class="node">
<title>Node6</title>
<g id="a_Node000006"><a xlink:href="namespace_py_p_s_a-_g_b_1_1generators.html#a865afea22a32e19a35bdeab54eb7d6eb" target="_top" xlink:title=" ">
<polygon fill="white" stroke="#666666" points="327.88,-332 185.88,-332 185.88,-300 327.88,-300 327.88,-332"/>
<text xml:space="preserve" text-anchor="start" x="193.88" y="-318.5" font-family="Helvetica,sans-Serif" font-size="10.00">PyPSA&#45;GB.generators.future</text>
<text xml:space="preserve" text-anchor="middle" x="256.88" y="-306.5" font-family="Helvetica,sans-Serif" font-size="10.00">_gas_CCS</text>
</a>
</g>
</g>
<!-- Node1&#45;&gt;Node6 -->
<g id="edge5_Node000001_Node000006" class="edge">
<title>Node1&#45;&gt;Node6</title>
<g id="a_edge5_Node000001_Node000006"><a xlink:title=" ">
<path fill="none" stroke="#63b8ff" d="M91.16,-232.31C111.56,-248.98 145.33,-274.68 178,-291 181.08,-292.54 184.27,-294.01 187.53,-295.41"/>
<polygon fill="#63b8ff" stroke="#63b8ff" points="186.1,-298.61 196.69,-299.09 188.71,-292.11 186.1,-298.61"/>
</a>
</g>
</g>
<!-- Node7 -->
<g id="Node000007" class="node">
<title>Node7</title>
<g id="a_Node000007"><a xlink:href="namespace_py_p_s_a-_g_b_1_1generators.html#af4407c1fe4a8417aa0fa310d07924ce4" target="_top" xlink:title=" ">
<polygon fill="white" stroke="#666666" points="327.88,-282 185.88,-282 185.88,-250 327.88,-250 327.88,-282"/>
<text xml:space="preserve" text-anchor="start" x="193.88" y="-268.5" font-family="Helvetica,sans-Serif" font-size="10.00">PyPSA&#45;GB.generators.future</text>
<text xml:space="preserve" text-anchor="middle" x="256.88" y="-256.5" font-family="Helvetica,sans-Serif" font-size="10.00">_gas_p_nom</text>
</a>
</g>
</g>
<!-- Node1&#45;&gt;Node7 -->
<g id="edge7_Node000001_Node000007" class="edge">
<title>Node1&#45;&gt;Node7</title>
<g id="a_edge7_Node000001_Node000007"><a xlink:title=" ">
<path fill="none" stroke="#63b8ff" d="M132.46,-232.44C149.03,-236.95 167.16,-241.88 184.29,-246.53"/>
<polygon fill="#63b8ff" stroke="#63b8ff" points="183.35,-249.91 193.92,-249.15 185.18,-243.15 183.35,-249.91"/>
</a>
</g>
</g>
<!-- Node8 -->
<g id="Node000008" class="node">
<title>Node8</title>
<g id="a_Node000008"><a xlink:href="namespace_py_p_s_a-_g_b_1_1generators.html#a93b683b6fba745f4a0467f87a130350a" target="_top" xlink:title=" ">
<polygon fill="white" stroke="#666666" points="327.88,-232 185.88,-232 185.88,-200 327.88,-200 327.88,-232"/>
<text xml:space="preserve" text-anchor="start" x="193.88" y="-218.5" font-family="Helvetica,sans-Serif" font-size="10.00">PyPSA&#45;GB.generators.future</text>
<text xml:space="preserve" text-anchor="middle" x="256.88" y="-206.5" font-family="Helvetica,sans-Serif" font-size="10.00">_hydrogen</text>
</a>
</g>
</g>
<!-- Node1&#45;&gt;Node8 -->
<g id="edge9_Node000001_Node000008" class="edge">
<title>Node1&#45;&gt;Node8</title>
<g id="a_edge9_Node000001_Node000008"><a xlink:title=" ">
<path fill="none" stroke="#63b8ff" d="M142.3,-216C152.73,-216 163.54,-216 174.17,-216"/>
<polygon fill="#63b8ff" stroke="#63b8ff" points="174.1,-219.5 184.1,-216 174.1,-212.5 174.1,-219.5"/>
</a>
</g>
</g>
<!-- Node9 -->
<g id="Node000009" class="node">
<title>Node9</title>
<g id="a_Node000009"><a xlink:href="namespace_py_p_s_a-_g_b_1_1generators.html#a63d7b81380136b07ed39ff2dac358084" target="_top" xlink:title=" ">
<polygon fill="white" stroke="#666666" points="327.88,-182 185.88,-182 185.88,-150 327.88,-150 327.88,-182"/>
<text xml:space="preserve" text-anchor="start" x="193.88" y="-168.5" font-family="Helvetica,sans-Serif" font-size="10.00">PyPSA&#45;GB.generators.future</text>
<text xml:space="preserve" text-anchor="middle" x="256.88" y="-156.5" font-family="Helvetica,sans-Serif" font-size="10.00">_nuclear_p_nom</text>
</a>
</g>
</g>
<!-- Node1&#45;&gt;Node9 -->
<g id="edge11_Node000001_Node000009" class="edge">
<title>Node1&#45;&gt;Node9</title>
<g id="a_edge11_Node000001_Node000009"><a xlink:title=" ">
<path fill="none" stroke="#63b8ff" d="M132.46,-199.56C149.03,-195.05 167.16,-190.12 184.29,-185.47"/>
<polygon fill="#63b8ff" stroke="#63b8ff" points="185.18,-188.85 193.92,-182.85 183.35,-182.09 185.18,-188.85"/>
</a>
</g>
</g>
<!-- Node10 -->
<g id="Node000010" class="node">
<title>Node10</title>
<g id="a_Node000010"><a xlink:href="namespace_py_p_s_a-_g_b_1_1generators.html#a4254c89c6061ce8719d29adb04fbccb1" target="_top" xlink:title=" ">
<polygon fill="white" stroke="#666666" points="327.88,-132 185.88,-132 185.88,-100 327.88,-100 327.88,-132"/>
<text xml:space="preserve" text-anchor="start" x="193.88" y="-118.5" font-family="Helvetica,sans-Serif" font-size="10.00">PyPSA&#45;GB.generators.future</text>
<text xml:space="preserve" text-anchor="middle" x="256.88" y="-106.5" font-family="Helvetica,sans-Serif" font-size="10.00">_oil_p_nom</text>
</a>
</g>
</g>
<!-- Node1&#45;&gt;Node10 -->
<g id="edge13_Node000001_Node000010" class="edge">
<title>Node1&#45;&gt;Node10</title>
<g id="a_edge13_Node000001_Node000010"><a xlink:title=" ">
<path fill="none" stroke="#63b8ff" d="M91.16,-199.69C111.56,-183.02 145.33,-157.32 178,-141 181.08,-139.46 184.27,-137.99 187.53,-136.59"/>
<polygon fill="#63b8ff" stroke="#63b8ff" points="188.71,-139.89 196.69,-132.91 186.1,-133.39 188.71,-139.89"/>
</a>
</g>
</g>
<!-- Node11 -->
<g id="Node000011" class="node">
<title>Node11</title>
<g id="a_Node000011"><a xlink:href="namespace_py_p_s_a-_g_b_1_1generators.html#a825bc62921ef5e55e70fe9a77682c82a" target="_top" xlink:title=" ">
<polygon fill="white" stroke="#666666" points="327.88,-82 185.88,-82 185.88,-50 327.88,-50 327.88,-82"/>
<text xml:space="preserve" text-anchor="start" x="193.88" y="-68.5" font-family="Helvetica,sans-Serif" font-size="10.00">PyPSA&#45;GB.generators.future</text>
<text xml:space="preserve" text-anchor="middle" x="256.88" y="-56.5" font-family="Helvetica,sans-Serif" font-size="10.00">_waste_p_nom</text>
</a>
</g>
</g>
<!-- Node1&#45;&gt;Node11 -->
<g id="edge15_Node000001_Node000011" class="edge">
<title>Node1&#45;&gt;Node11</title>
<g id="a_edge15_Node000001_Node000011"><a xlink:title=" ">
<path fill="none" stroke="#63b8ff" d="M81.57,-199.67C97.98,-173.07 134,-120.4 178,-91 179.82,-89.79 181.69,-88.63 183.62,-87.53"/>
<polygon fill="#63b8ff" stroke="#63b8ff" points="184.93,-90.79 192.25,-83.13 181.75,-84.55 184.93,-90.79"/>
</a>
</g>
</g>
<!-- Node12 -->
<g id="Node000012" class="node">
<title>Node12</title>
<g id="a_Node000012"><a xlink:href="namespace_py_p_s_a-_g_b_1_1generators.html#adba44d0b821016f840097f4154144829" target="_top" xlink:title="adds data to the generators csv file">
<polygon fill="white" stroke="#666666" points="335.75,-32 178,-32 178,0 335.75,0 335.75,-32"/>
<text xml:space="preserve" text-anchor="start" x="186" y="-18.5" font-family="Helvetica,sans-Serif" font-size="10.00">PyPSA&#45;GB.generators.generator</text>
<text xml:space="preserve" text-anchor="middle" x="256.88" y="-6.5" font-family="Helvetica,sans-Serif" font-size="10.00">_additional_data</text>
</a>
</g>
</g>
<!-- Node1&#45;&gt;Node12 -->
<g id="edge17_Node000001_Node000012" class="edge">
<title>Node1&#45;&gt;Node12</title>
<g id="a_edge17_Node000001_Node000012"><a xlink:title=" ">
<path fill="none" stroke="#63b8ff" d="M77.45,-199.57C89.75,-165.03 122.94,-84.48 178,-41 179.29,-39.98 180.62,-39.01 181.99,-38.07"/>
<polygon fill="#63b8ff" stroke="#63b8ff" points="183.35,-41.33 190.16,-33.21 179.78,-35.31 183.35,-41.33"/>
</a>
</g>
</g>
<!-- Node3 -->
<g id="Node000003" class="node">
<title>Node3</title>
<g id="a_Node000003"><a xlink:href="namespace_py_p_s_a-_g_b_1_1generators.html#a6b12c0ee1406972b271db0b986b4cdd7" target="_top" xlink:title=" ">
<polygon fill="white" stroke="#666666" points="513.75,-232 371.75,-232 371.75,-200 513.75,-200 513.75,-232"/>
<text xml:space="preserve" text-anchor="start" x="379.75" y="-218.5" font-family="Helvetica,sans-Serif" font-size="10.00">PyPSA&#45;GB.generators.future</text>
<text xml:space="preserve" text-anchor="middle" x="442.75" y="-206.5" font-family="Helvetica,sans-Serif" font-size="10.00">_capacity</text>
</a>
</g>
</g>
<!-- Node2&#45;&gt;Node3 -->
<g id="edge2_Node000002_Node000003" class="edge">
<title>Node2&#45;&gt;Node3</title>
<g id="a_edge2_Node000002_Node000003"><a xlink:title=" ">
<path fill="none" stroke="#63b8ff" d="M322.29,-399.56C327.07,-397.09 331.63,-394.26 335.75,-391 385.86,-351.43 417.86,-281.15 432.48,-242.79"/>
<polygon fill="#63b8ff" stroke="#63b8ff" points="435.6,-244.44 435.78,-233.85 429.03,-242.02 435.6,-244.44"/>
</a>
</g>
</g>
<!-- Node4 -->
<g id="Node000004" class="node">
<title>Node4</title>
<g id="a_Node000004"><a xlink:href="namespace_py_p_s_a-_g_b_1_1generators.html#a8e907adcd84656f927810fe7800bcdca" target="_top" xlink:title="reads the power station data from prepared csv file">
<polygon fill="white" stroke="#666666" points="685.75,-232 549.75,-232 549.75,-200 685.75,-200 685.75,-232"/>
<text xml:space="preserve" text-anchor="start" x="557.75" y="-218.5" font-family="Helvetica,sans-Serif" font-size="10.00">PyPSA&#45;GB.generators.read</text>
<text xml:space="preserve" text-anchor="middle" x="617.75" y="-206.5" font-family="Helvetica,sans-Serif" font-size="10.00">_power_stations_data</text>
</a>
</g>
</g>
<!-- Node3&#45;&gt;Node4 -->
<g id="edge3_Node000003_Node000004" class="edge">
<title>Node3&#45;&gt;Node4</title>
<g id="a_edge3_Node000003_Node000004"><a xlink:title=" ">
<path fill="none" stroke="#63b8ff" d="M514.12,-216C522.06,-216 530.2,-216 538.24,-216"/>
<polygon fill="#63b8ff" stroke="#63b8ff" points="538.01,-219.5 548.01,-216 538.01,-212.5 538.01,-219.5"/>
</a>
</g>
</g>
<!-- Node6&#45;&gt;Node3 -->
<g id="edge6_Node000006_Node000003" class="edge">
<title>Node6&#45;&gt;Node3</title>
<g id="a_edge6_Node000006_Node000003"><a xlink:title=" ">
<path fill="none" stroke="#63b8ff" d="M315.66,-299.65C322.56,-297.06 329.4,-294.17 335.75,-291 364.08,-276.85 393.24,-255.64 413.79,-239.39"/>
<polygon fill="#63b8ff" stroke="#63b8ff" points="415.81,-242.25 421.41,-233.26 411.42,-236.8 415.81,-242.25"/>
</a>
</g>
</g>
<!-- Node7&#45;&gt;Node3 -->
<g id="edge8_Node000007_Node000003" class="edge">
<title>Node7&#45;&gt;Node3</title>
<g id="a_edge8_Node000007_Node000003"><a xlink:title=" ">
<path fill="none" stroke="#63b8ff" d="M318.34,-249.56C334.91,-245.05 353.03,-240.12 370.16,-235.47"/>
<polygon fill="#63b8ff" stroke="#63b8ff" points="371.06,-238.85 379.79,-232.85 369.22,-232.09 371.06,-238.85"/>
</a>
</g>
</g>
<!-- Node8&#45;&gt;Node3 -->
<g id="edge10_Node000008_Node000003" class="edge">
<title>Node8&#45;&gt;Node3</title>
<g id="a_edge10_Node000008_Node000003"><a xlink:title=" ">
<path fill="none" stroke="#63b8ff" d="M328.18,-216C338.6,-216 349.42,-216 360.05,-216"/>
<polygon fill="#63b8ff" stroke="#63b8ff" points="359.97,-219.5 369.97,-216 359.97,-212.5 359.97,-219.5"/>
</a>
</g>
</g>
<!-- Node9&#45;&gt;Node3 -->
<g id="edge12_Node000009_Node000003" class="edge">
<title>Node9&#45;&gt;Node3</title>
<g id="a_edge12_Node000009_Node000003"><a xlink:title=" ">
<path fill="none" stroke="#63b8ff" d="M318.34,-182.44C334.91,-186.95 353.03,-191.88 370.16,-196.53"/>
<polygon fill="#63b8ff" stroke="#63b8ff" points="369.22,-199.91 379.79,-199.15 371.06,-193.15 369.22,-199.91"/>
</a>
</g>
</g>
<!-- Node10&#45;&gt;Node3 -->
<g id="edge14_Node000010_Node000003" class="edge">
<title>Node10&#45;&gt;Node3</title>
<g id="a_edge14_Node000010_Node000003"><a xlink:title=" ">
<path fill="none" stroke="#63b8ff" d="M315.66,-132.35C322.56,-134.94 329.4,-137.83 335.75,-141 364.08,-155.15 393.24,-176.36 413.79,-192.61"/>
<polygon fill="#63b8ff" stroke="#63b8ff" points="411.42,-195.2 421.41,-198.74 415.81,-189.75 411.42,-195.2"/>
</a>
</g>
</g>
<!-- Node11&#45;&gt;Node3 -->
<g id="edge16_Node000011_Node000003" class="edge">
<title>Node11&#45;&gt;Node3</title>
<g id="a_edge16_Node000011_Node000003"><a xlink:title=" ">
<path fill="none" stroke="#63b8ff" d="M320.15,-82.44C325.62,-84.93 330.91,-87.77 335.75,-91 374.94,-117.19 407.8,-161.82 426.11,-190.07"/>
<polygon fill="#63b8ff" stroke="#63b8ff" points="423.07,-191.81 431.37,-198.39 428.98,-188.07 423.07,-191.81"/>
</a>
</g>
</g>
<!-- Node13 -->
<g id="Node000013" class="node">
<title>Node13</title>
<g id="a_Node000013"><a xlink:href="namespace_py_p_s_a-_g_b_1_1generators.html#a6b10a71fcdd732ef28f5240bb458e4f0" target="_top" xlink:title="reads the generator data by fuel from prepared csv file">
<polygon fill="white" stroke="#666666" points="510.75,-32 374.75,-32 374.75,0 510.75,0 510.75,-32"/>
<text xml:space="preserve" text-anchor="start" x="382.75" y="-18.5" font-family="Helvetica,sans-Serif" font-size="10.00">PyPSA&#45;GB.generators.read</text>
<text xml:space="preserve" text-anchor="middle" x="442.75" y="-6.5" font-family="Helvetica,sans-Serif" font-size="10.00">_generator_data_by_fuel</text>
</a>
</g>
</g>
<!-- Node12&#45;&gt;Node13 -->
<g id="edge18_Node000012_Node000013" class="edge">
<title>Node12&#45;&gt;Node13</title>
<g id="a_edge18_Node000012_Node000013"><a xlink:title=" ">
<path fill="none" stroke="#63b8ff" d="M336.12,-16C344.96,-16 353.96,-16 362.81,-16"/>
<polygon fill="#63b8ff" stroke="#63b8ff" points="362.8,-19.5 372.8,-16 362.8,-12.5 362.8,-19.5"/>
</a>
</g>
</g>
</g>
</svg>

<g id="navigator" transform="translate(0 0)" fill="#404254">
  <rect fill="#f2f5e9" fill-opacity="0.5" stroke="#606060" stroke-width=".5" x="0" y="0" width="60" height="60"/>
  <use id="zoomplus" xlink:href="#zoomPlus" x="17" y="9" onmousedown="handleZoom(evt,'in')"/>
  <use id="zoomminus" xlink:href="#zoomMin" x="42" y="9" onmousedown="handleZoom(evt,'out')"/>
  <use id="reset" xlink:href="#resetDef" x="30" y="36" onmousedown="handleReset()"/>
   <use id="arrowup" xlink:href="#arrowUp" x="0" y="0" onmousedown="handlePan(0,-1)"/>
  <use id="arrowright" xlink:href="#arrowRight" x="0" y="0" onmousedown="handlePan(1,0)"/>
  <use id="arrowdown" xlink:href="#arrowDown" x="0" y="0" onmousedown="handlePan(0,1)"/>
  <use id="arrowleft" xlink:href="#arrowLeft" x="0" y="0" onmousedown="handlePan(-1,0)"/>
</g>
<svg viewBox="0 0 15 15" width="100%" height="30px" preserveAspectRatio="xMaxYMin meet">
 <g id="arrow_out" transform="scale(0.3 0.3)">
  <a xlink:href="namespace_py_p_s_a-_g_b_1_1generators_a252d1cb487a2a3c4b225075fe6832a6d_cgraph_org.svg" target="_base">
   <rect id="button" ry="5" rx="5" y="6" x="6" height="38" width="38"
        fill="#f2f5e9" fill-opacity="0.5" stroke="#606060" stroke-width="1.0"/>
   <path id="arrow"
     d="M 11.500037,31.436501 C 11.940474,20.09759 22.043105,11.32322 32.158766,21.979434 L 37.068811,17.246167 C 37.068811,17.246167 37.088388,32 37.088388,32 L 22.160133,31.978069 C 22.160133,31.978069 26.997745,27.140456 26.997745,27.140456 C 18.528582,18.264221 13.291696,25.230495 11.500037,31.436501 z"
     style="fill:#404040;"/>
  </a>
 </g>
</svg>

<style type='text/css'>
<![CDATA[
[data-mouse-over-selected='false'] { opacity: 0.7; }
[data-mouse-over-selected='true']  { opacity: 1.0; }
]]>
</style>
<script type="application/ecmascript"><![CDATA[
document.addEventListener('DOMContentLoaded', (event) => {
  highlightEdges();
  highlightAdjacentNodes();
});
]]></script>
</svg>
