<?xml version="1.0" encoding="UTF-8" standalone="no"?>
<!DOCTYPE svg PUBLIC "-//W3C//DTD SVG 1.1//EN"
 "http://www.w3.org/Graphics/SVG/1.1/DTD/svg11.dtd">
<!-- Generated by graphviz version 13.1.2 (20250808.2320)
 -->
<!-- Title: PyPSA&#45;GB.renewables.read_hydro Pages: 1 -->
<svg width="511pt" height="115pt"
 viewBox="0.00 0.00 511.00 115.00" xmlns="http://www.w3.org/2000/svg" xmlns:xlink="http://www.w3.org/1999/xlink">
<g id="graph0" class="graph" transform="scale(1 1) rotate(0) translate(4 111)">
<title>PyPSA&#45;GB.renewables.read_hydro</title>
<!-- Node1 -->
<g id="Node000001" class="node">
<title>Node1</title>
<g id="a_Node000001"><a xlink:title="reads hydro data from REDP">
<polygon fill="#999999" stroke="#666666" points="503.25,-57 363.5,-57 363.5,-25 503.25,-25 503.25,-57"/>
<text xml:space="preserve" text-anchor="start" x="371.5" y="-43.5" font-family="Helvetica,sans-Serif" font-size="10.00">PyPSA&#45;GB.renewables.read</text>
<text xml:space="preserve" text-anchor="middle" x="433.38" y="-31.5" font-family="Helvetica,sans-Serif" font-size="10.00">_hydro</text>
</a>
</g>
</g>
<!-- Node2 -->
<g id="Node000002" class="node">
<title>Node2</title>
<g id="a_Node000002"><a xlink:href="namespace_py_p_s_a-_g_b_1_1renewables.html#a2c63c9849737caba3540f2db1450b5bf" target="_top" xlink:title=" ">
<polygon fill="white" stroke="#666666" points="327.5,-82 181.75,-82 181.75,-50 327.5,-50 327.5,-82"/>
<text xml:space="preserve" text-anchor="start" x="189.75" y="-68.5" font-family="Helvetica,sans-Serif" font-size="10.00">PyPSA&#45;GB.renewables.future</text>
<text xml:space="preserve" text-anchor="middle" x="254.62" y="-56.5" font-family="Helvetica,sans-Serif" font-size="10.00">_RES_capacity</text>
</a>
</g>
</g>
<!-- Node1&#45;&gt;Node2 -->
<g id="edge1_Node000001_Node000002" class="edge">
<title>Node1&#45;&gt;Node2</title>
<g id="a_edge1_Node000001_Node000002"><a xlink:title=" ">
<path fill="none" stroke="#63b8ff" d="M351.85,-52.39C343.89,-53.52 335.85,-54.65 327.98,-55.77"/>
<polygon fill="#63b8ff" stroke="#63b8ff" points="352.12,-55.89 361.53,-51.02 351.14,-48.96 352.12,-55.89"/>
</a>
</g>
</g>
<!-- Node5 -->
<g id="Node000005" class="node">
<title>Node5</title>
<g id="a_Node000005"><a xlink:href="namespace_py_p_s_a-_g_b_1_1renewables.html#afb88970b5835775e31229448af06c407" target="_top" xlink:title="reads hydro timeseries as saved in relevant folder">
<polygon fill="white" stroke="#666666" points="324.5,-32 184.75,-32 184.75,0 324.5,0 324.5,-32"/>
<text xml:space="preserve" text-anchor="start" x="192.75" y="-18.5" font-family="Helvetica,sans-Serif" font-size="10.00">PyPSA&#45;GB.renewables.read</text>
<text xml:space="preserve" text-anchor="middle" x="254.62" y="-6.5" font-family="Helvetica,sans-Serif" font-size="10.00">_hydro_time_series</text>
</a>
</g>
</g>
<!-- Node1&#45;&gt;Node5 -->
<g id="edge4_Node000001_Node000005" class="edge">
<title>Node1&#45;&gt;Node5</title>
<g id="a_edge4_Node000001_Node000005"><a xlink:title=" ">
<path fill="none" stroke="#63b8ff" d="M351.71,-29.59C342.72,-28.32 333.61,-27.03 324.77,-25.78"/>
<polygon fill="#63b8ff" stroke="#63b8ff" points="351.14,-33.04 361.53,-30.98 352.12,-26.11 351.14,-33.04"/>
</a>
</g>
</g>
<!-- Node3 -->
<g id="Node000003" class="node">
<title>Node3</title>
<g id="a_Node000003"><a xlink:href="namespace_py_p_s_a-_g_b_1_1renewables.html#ab167f84d9c45d0e247017c16eff68a5b" target="_top" xlink:title=" ">
<polygon fill="white" stroke="#666666" points="145.75,-107 0,-107 0,-75 145.75,-75 145.75,-107"/>
<text xml:space="preserve" text-anchor="start" x="8" y="-93.5" font-family="Helvetica,sans-Serif" font-size="10.00">PyPSA&#45;GB.renewables.future</text>
<text xml:space="preserve" text-anchor="middle" x="72.88" y="-81.5" font-family="Helvetica,sans-Serif" font-size="10.00">_RES_scale_p_nom</text>
</a>
</g>
</g>
<!-- Node2&#45;&gt;Node3 -->
<g id="edge2_Node000002_Node000003" class="edge">
<title>Node2&#45;&gt;Node3</title>
<g id="a_edge2_Node000002_Node000003"><a xlink:title=" ">
<path fill="none" stroke="#63b8ff" d="M170.04,-77.63C162.03,-78.74 153.95,-79.86 146.06,-80.96"/>
<polygon fill="#63b8ff" stroke="#63b8ff" points="170.37,-81.11 179.79,-76.27 169.4,-74.18 170.37,-81.11"/>
</a>
</g>
</g>
<!-- Node4 -->
<g id="Node000004" class="node">
<title>Node4</title>
<g id="a_Node000004"><a xlink:href="namespace_py_p_s_a-_g_b_1_1renewables.html#acbb0430f9573a9f14482bfe79b3cb699" target="_top" xlink:title=" ">
<polygon fill="white" stroke="#666666" points="145,-57 0.75,-57 0.75,-25 145,-25 145,-57"/>
<text xml:space="preserve" text-anchor="start" x="8.75" y="-43.5" font-family="Helvetica,sans-Serif" font-size="10.00">PyPSA&#45;GB.renewables.scale</text>
<text xml:space="preserve" text-anchor="middle" x="72.88" y="-31.5" font-family="Helvetica,sans-Serif" font-size="10.00">_biomass_p_nom</text>
</a>
</g>
</g>
<!-- Node2&#45;&gt;Node4 -->
<g id="edge3_Node000002_Node000004" class="edge">
<title>Node2&#45;&gt;Node4</title>
<g id="a_edge3_Node000002_Node000004"><a xlink:title=" ">
<path fill="none" stroke="#63b8ff" d="M170.13,-54.39C161.89,-53.24 153.58,-52.09 145.48,-50.96"/>
<polygon fill="#63b8ff" stroke="#63b8ff" points="169.4,-57.82 179.79,-55.73 170.37,-50.89 169.4,-57.82"/>
</a>
</g>
</g>
</g>
</svg>
