<?xml version="1.0" encoding="UTF-8" standalone="no"?>
<!DOCTYPE svg PUBLIC "-//W3C//DTD SVG 1.1//EN"
 "http://www.w3.org/Graphics/SVG/1.1/DTD/svg11.dtd">
<!-- Generated by graphviz version 13.1.2 (20250808.2320)
 -->
<!-- Title: PyPSA&#45;GB.zone_data_processing.zone_interconnectors Pages: 1 -->
<svg width="364pt" height="90pt"
 viewBox="0.00 0.00 364.00 90.00" xmlns="http://www.w3.org/2000/svg" xmlns:xlink="http://www.w3.org/1999/xlink">
<g id="graph0" class="graph" transform="scale(1 1) rotate(0) translate(4 86)">
<title>PyPSA&#45;GB.zone_data_processing.zone_interconnectors</title>
<!-- Node1 -->
<g id="Node000001" class="node">
<title>Node1</title>
<g id="a_Node000001"><a xlink:title=" ">
<polygon fill="#999999" stroke="#666666" points="164.5,-57 0,-57 0,-25 164.5,-25 164.5,-57"/>
<text xml:space="preserve" text-anchor="start" x="8" y="-43.5" font-family="Helvetica,sans-Serif" font-size="10.00">PyPSA&#45;GB.zone_data</text>
<text xml:space="preserve" text-anchor="middle" x="82.25" y="-31.5" font-family="Helvetica,sans-Serif" font-size="10.00">_processing.zone_interconnectors</text>
</a>
</g>
</g>
<!-- Node2 -->
<g id="Node000002" class="node">
<title>Node2</title>
<g id="a_Node000002"><a xlink:href="namespace_py_p_s_a-_g_b_1_1zone__data__processing.html#ad7dd92b7c907c32bc2cfc6cdb24f5ce2" target="_top" xlink:title=" ">
<polygon fill="white" stroke="#666666" points="356,-82 200.5,-82 200.5,-50 356,-50 356,-82"/>
<text xml:space="preserve" text-anchor="start" x="208.5" y="-68.5" font-family="Helvetica,sans-Serif" font-size="10.00">PyPSA&#45;GB.zone_data</text>
<text xml:space="preserve" text-anchor="middle" x="278.25" y="-56.5" font-family="Helvetica,sans-Serif" font-size="10.00">_processing.copy_buses_based</text>
</a>
</g>
</g>
<!-- Node1&#45;&gt;Node2 -->
<g id="edge1_Node000001_Node000002" class="edge">
<title>Node1&#45;&gt;Node2</title>
<g id="a_edge1_Node000001_Node000002"><a xlink:title=" ">
<path fill="none" stroke="#63b8ff" d="M164.96,-51.53C172.91,-52.55 181.01,-53.6 189.02,-54.63"/>
<polygon fill="#63b8ff" stroke="#63b8ff" points="188.41,-58.08 198.77,-55.89 189.3,-51.14 188.41,-58.08"/>
</a>
</g>
</g>
<!-- Node3 -->
<g id="Node000003" class="node">
<title>Node3</title>
<g id="a_Node000003"><a xlink:href="namespace_py_p_s_a-_g_b_1_1zone__data__processing.html#a089f51774114af8ee38cb81d74ce614d" target="_top" xlink:title=" ">
<polygon fill="white" stroke="#666666" points="339.5,-32 217,-32 217,0 339.5,0 339.5,-32"/>
<text xml:space="preserve" text-anchor="start" x="225" y="-18.5" font-family="Helvetica,sans-Serif" font-size="10.00">PyPSA&#45;GB.zone_data</text>
<text xml:space="preserve" text-anchor="middle" x="278.25" y="-6.5" font-family="Helvetica,sans-Serif" font-size="10.00">_processing.create_path</text>
</a>
</g>
</g>
<!-- Node1&#45;&gt;Node3 -->
<g id="edge2_Node000001_Node000003" class="edge">
<title>Node1&#45;&gt;Node3</title>
<g id="a_edge2_Node000001_Node000003"><a xlink:title=" ">
<path fill="none" stroke="#63b8ff" d="M164.96,-30.47C178.34,-28.75 192.11,-26.97 205.23,-25.28"/>
<polygon fill="#63b8ff" stroke="#63b8ff" points="205.59,-28.76 215.06,-24.01 204.7,-21.82 205.59,-28.76"/>
</a>
</g>
</g>
</g>
</svg>
