<?xml version="1.0" encoding="UTF-8" standalone="no"?>
<!DOCTYPE svg PUBLIC "-//W3C//DTD SVG 1.1//EN"
 "http://www.w3.org/Graphics/SVG/1.1/DTD/svg11.dtd">
<!-- Generated by graphviz version 13.1.2 (20250808.2320)
 -->
<!-- Title: PyPSA&#45;GB.zone_data_processing.copy_buses_based Pages: 1 -->
<svg width="364pt" height="90pt"
 viewBox="0.00 0.00 364.00 90.00" xmlns="http://www.w3.org/2000/svg" xmlns:xlink="http://www.w3.org/1999/xlink">
<g id="graph0" class="graph" transform="scale(1 1) rotate(0) translate(4 86)">
<title>PyPSA&#45;GB.zone_data_processing.copy_buses_based</title>
<!-- Node1 -->
<g id="Node000001" class="node">
<title>Node1</title>
<g id="a_Node000001"><a xlink:title=" ">
<polygon fill="#999999" stroke="#666666" points="356,-57 200.5,-57 200.5,-25 356,-25 356,-57"/>
<text xml:space="preserve" text-anchor="start" x="208.5" y="-43.5" font-family="Helvetica,sans-Serif" font-size="10.00">PyPSA&#45;GB.zone_data</text>
<text xml:space="preserve" text-anchor="middle" x="278.25" y="-31.5" font-family="Helvetica,sans-Serif" font-size="10.00">_processing.copy_buses_based</text>
</a>
</g>
</g>
<!-- Node2 -->
<g id="Node000002" class="node">
<title>Node2</title>
<g id="a_Node000002"><a xlink:href="namespace_py_p_s_a-_g_b_1_1zone__data__processing.html#a955800e624ccb58f6e5ebb435cc522cb" target="_top" xlink:title=" ">
<polygon fill="white" stroke="#666666" points="164.5,-82 0,-82 0,-50 164.5,-50 164.5,-82"/>
<text xml:space="preserve" text-anchor="start" x="8" y="-68.5" font-family="Helvetica,sans-Serif" font-size="10.00">PyPSA&#45;GB.zone_data</text>
<text xml:space="preserve" text-anchor="middle" x="82.25" y="-56.5" font-family="Helvetica,sans-Serif" font-size="10.00">_processing.zone_interconnectors</text>
</a>
</g>
</g>
<!-- Node1&#45;&gt;Node2 -->
<g id="edge1_Node000001_Node000002" class="edge">
<title>Node1&#45;&gt;Node2</title>
<g id="a_edge1_Node000001_Node000002"><a xlink:title=" ">
<path fill="none" stroke="#63b8ff" d="M188.85,-52.39C180.9,-53.42 172.88,-54.45 164.99,-55.47"/>
<polygon fill="#63b8ff" stroke="#63b8ff" points="189.05,-55.9 198.52,-51.15 188.15,-48.95 189.05,-55.9"/>
</a>
</g>
</g>
<!-- Node3 -->
<g id="Node000003" class="node">
<title>Node3</title>
<g id="a_Node000003"><a xlink:href="namespace_py_p_s_a-_g_b_1_1zone__data__processing.html#ae4d3ce7e1415754462e4d0521e106ca0" target="_top" xlink:title=" ">
<polygon fill="white" stroke="#666666" points="141.25,-32 23.25,-32 23.25,0 141.25,0 141.25,-32"/>
<text xml:space="preserve" text-anchor="start" x="31.25" y="-18.5" font-family="Helvetica,sans-Serif" font-size="10.00">PyPSA&#45;GB.zone_data</text>
<text xml:space="preserve" text-anchor="middle" x="82.25" y="-6.5" font-family="Helvetica,sans-Serif" font-size="10.00">_processing.zone_links</text>
</a>
</g>
</g>
<!-- Node1&#45;&gt;Node3 -->
<g id="edge2_Node000001_Node000003" class="edge">
<title>Node1&#45;&gt;Node3</title>
<g id="a_edge2_Node000001_Node000003"><a xlink:title=" ">
<path fill="none" stroke="#63b8ff" d="M188.99,-29.63C172.95,-27.56 156.59,-25.45 141.68,-23.53"/>
<polygon fill="#63b8ff" stroke="#63b8ff" points="188.15,-33.05 198.52,-30.85 189.05,-26.1 188.15,-33.05"/>
</a>
</g>
</g>
</g>
</svg>
