<?xml version="1.0" encoding="UTF-8" standalone="no"?>
<!DOCTYPE svg PUBLIC "-//W3C//DTD SVG 1.1//EN"
 "http://www.w3.org/Graphics/SVG/1.1/DTD/svg11.dtd">
<!-- Generated by graphviz version 13.1.2 (20250808.2320)
 -->
<!-- Title: PyPSA&#45;GB.marginal_costs.marginal_price_dataframe Pages: 1 -->
<svg width="398pt" height="290pt"
 viewBox="0.00 0.00 398.00 290.00" xmlns="http://www.w3.org/2000/svg" xmlns:xlink="http://www.w3.org/1999/xlink">
<g id="graph0" class="graph" transform="scale(1 1) rotate(0) translate(4 286)">
<title>PyPSA&#45;GB.marginal_costs.marginal_price_dataframe</title>
<!-- Node1 -->
<g id="Node000001" class="node">
<title>Node1</title>
<g id="a_Node000001"><a xlink:title=" ">
<polygon fill="#999999" stroke="#666666" points="174.25,-157 0,-157 0,-125 174.25,-125 174.25,-157"/>
<text xml:space="preserve" text-anchor="start" x="8" y="-143.5" font-family="Helvetica,sans-Serif" font-size="10.00">PyPSA&#45;GB.marginal_costs.marginal</text>
<text xml:space="preserve" text-anchor="middle" x="87.12" y="-131.5" font-family="Helvetica,sans-Serif" font-size="10.00">_price_dataframe</text>
</a>
</g>
</g>
<!-- Node2 -->
<g id="Node000002" class="node">
<title>Node2</title>
<g id="a_Node000002"><a xlink:href="namespace_py_p_s_a-_g_b_1_1marginal__costs.html#a739e12d814d17d94dab84c3630e7ace4" target="_top" xlink:title=" ">
<polygon fill="white" stroke="#666666" points="383.38,-282 216.62,-282 216.62,-250 383.38,-250 383.38,-282"/>
<text xml:space="preserve" text-anchor="start" x="224.62" y="-268.5" font-family="Helvetica,sans-Serif" font-size="10.00">PyPSA&#45;GB.marginal_costs.carbon</text>
<text xml:space="preserve" text-anchor="middle" x="300" y="-256.5" font-family="Helvetica,sans-Serif" font-size="10.00">_support_price_df</text>
</a>
</g>
</g>
<!-- Node1&#45;&gt;Node2 -->
<g id="edge1_Node000001_Node000002" class="edge">
<title>Node1&#45;&gt;Node2</title>
<g id="a_edge1_Node000001_Node000002"><a xlink:title=" ">
<path fill="none" stroke="#63b8ff" d="M103.55,-157.29C125.32,-179.36 167.24,-218.59 210.25,-241 213.28,-242.58 216.41,-244.06 219.62,-245.47"/>
<polygon fill="#63b8ff" stroke="#63b8ff" points="218.08,-248.62 228.66,-249.09 220.68,-242.12 218.08,-248.62"/>
</a>
</g>
</g>
<!-- Node3 -->
<g id="Node000003" class="node">
<title>Node3</title>
<g id="a_Node000003"><a xlink:href="namespace_py_p_s_a-_g_b_1_1marginal__costs.html#ac93554550a1c021c713fe1049a45a2e8" target="_top" xlink:title=" ">
<polygon fill="white" stroke="#666666" points="368.75,-232 231.25,-232 231.25,-200 368.75,-200 368.75,-232"/>
<text xml:space="preserve" text-anchor="start" x="239.25" y="-218.5" font-family="Helvetica,sans-Serif" font-size="10.00">PyPSA&#45;GB.marginal_costs.</text>
<text xml:space="preserve" text-anchor="middle" x="300" y="-206.5" font-family="Helvetica,sans-Serif" font-size="10.00">EU_ETS_df</text>
</a>
</g>
</g>
<!-- Node1&#45;&gt;Node3 -->
<g id="edge2_Node000001_Node000003" class="edge">
<title>Node1&#45;&gt;Node3</title>
<g id="a_edge2_Node000001_Node000003"><a xlink:title=" ">
<path fill="none" stroke="#63b8ff" d="M125.12,-157.43C149.12,-167.77 181.22,-181.01 210.25,-191 215.51,-192.81 220.97,-194.59 226.49,-196.31"/>
<polygon fill="#63b8ff" stroke="#63b8ff" points="225.1,-199.55 235.68,-199.11 227.13,-192.85 225.1,-199.55"/>
</a>
</g>
</g>
<!-- Node4 -->
<g id="Node000004" class="node">
<title>Node4</title>
<g id="a_Node000004"><a xlink:href="namespace_py_p_s_a-_g_b_1_1marginal__costs.html#a344b315faeb530ea5bfc06ee6fb105d2" target="_top" xlink:title=" ">
<polygon fill="white" stroke="#666666" points="389.75,-182 210.25,-182 210.25,-150 389.75,-150 389.75,-182"/>
<text xml:space="preserve" text-anchor="start" x="218.25" y="-168.5" font-family="Helvetica,sans-Serif" font-size="10.00">PyPSA&#45;GB.marginal_costs.exchange</text>
<text xml:space="preserve" text-anchor="middle" x="300" y="-156.5" font-family="Helvetica,sans-Serif" font-size="10.00">_year_average</text>
</a>
</g>
</g>
<!-- Node1&#45;&gt;Node4 -->
<g id="edge3_Node000001_Node000004" class="edge">
<title>Node1&#45;&gt;Node4</title>
<g id="a_edge3_Node000001_Node000004"><a xlink:title=" ">
<path fill="none" stroke="#63b8ff" d="M174.5,-151.24C182.47,-152.18 190.58,-153.15 198.65,-154.1"/>
<polygon fill="#63b8ff" stroke="#63b8ff" points="198.17,-157.57 208.52,-155.27 199,-150.62 198.17,-157.57"/>
</a>
</g>
</g>
<!-- Node5 -->
<g id="Node000005" class="node">
<title>Node5</title>
<g id="a_Node000005"><a xlink:href="namespace_py_p_s_a-_g_b_1_1marginal__costs.html#a6cd63a2c11a89450d7bda667ba6787b6" target="_top" xlink:title=" ">
<polygon fill="white" stroke="#666666" points="376.62,-132 223.38,-132 223.38,-100 376.62,-100 376.62,-132"/>
<text xml:space="preserve" text-anchor="start" x="231.38" y="-118.5" font-family="Helvetica,sans-Serif" font-size="10.00">PyPSA&#45;GB.marginal_costs.fuel</text>
<text xml:space="preserve" text-anchor="middle" x="300" y="-106.5" font-family="Helvetica,sans-Serif" font-size="10.00">_prices_df</text>
</a>
</g>
</g>
<!-- Node1&#45;&gt;Node5 -->
<g id="edge4_Node000001_Node000005" class="edge">
<title>Node1&#45;&gt;Node5</title>
<g id="a_edge4_Node000001_Node000005"><a xlink:title=" ">
<path fill="none" stroke="#63b8ff" d="M174.5,-130.76C186.78,-129.3 199.42,-127.81 211.71,-126.35"/>
<polygon fill="#63b8ff" stroke="#63b8ff" points="211.87,-129.85 221.39,-125.2 211.05,-122.9 211.87,-129.85"/>
</a>
</g>
</g>
<!-- Node6 -->
<g id="Node000006" class="node">
<title>Node6</title>
<g id="a_Node000006"><a xlink:href="namespace_py_p_s_a-_g_b_1_1marginal__costs.html#abc793224d7b9274417b2bc0190c0c651" target="_top" xlink:title=" ">
<polygon fill="white" stroke="#666666" points="381.12,-82 218.88,-82 218.88,-50 381.12,-50 381.12,-82"/>
<text xml:space="preserve" text-anchor="start" x="226.88" y="-68.5" font-family="Helvetica,sans-Serif" font-size="10.00">PyPSA&#45;GB.marginal_costs.future</text>
<text xml:space="preserve" text-anchor="middle" x="300" y="-56.5" font-family="Helvetica,sans-Serif" font-size="10.00">_carbon_prices_df</text>
</a>
</g>
</g>
<!-- Node1&#45;&gt;Node6 -->
<g id="edge5_Node000001_Node000006" class="edge">
<title>Node1&#45;&gt;Node6</title>
<g id="a_edge5_Node000001_Node000006"><a xlink:title=" ">
<path fill="none" stroke="#63b8ff" d="M125.12,-124.57C149.12,-114.23 181.22,-100.99 210.25,-91 215.51,-89.19 220.97,-87.41 226.49,-85.69"/>
<polygon fill="#63b8ff" stroke="#63b8ff" points="227.13,-89.15 235.68,-82.89 225.1,-82.45 227.13,-89.15"/>
</a>
</g>
</g>
<!-- Node7 -->
<g id="Node000007" class="node">
<title>Node7</title>
<g id="a_Node000007"><a xlink:href="namespace_py_p_s_a-_g_b_1_1marginal__costs.html#abc40598d9804bdbab365f9595fb48cb3" target="_top" xlink:title=" ">
<polygon fill="white" stroke="#666666" points="381.12,-32 218.88,-32 218.88,0 381.12,0 381.12,-32"/>
<text xml:space="preserve" text-anchor="start" x="226.88" y="-18.5" font-family="Helvetica,sans-Serif" font-size="10.00">PyPSA&#45;GB.marginal_costs.future</text>
<text xml:space="preserve" text-anchor="middle" x="300" y="-6.5" font-family="Helvetica,sans-Serif" font-size="10.00">_fuel_prices_df</text>
</a>
</g>
</g>
<!-- Node1&#45;&gt;Node7 -->
<g id="edge6_Node000001_Node000007" class="edge">
<title>Node1&#45;&gt;Node7</title>
<g id="a_edge6_Node000001_Node000007"><a xlink:title=" ">
<path fill="none" stroke="#63b8ff" d="M103.55,-124.71C125.32,-102.64 167.24,-63.41 210.25,-41 213.28,-39.42 216.41,-37.94 219.62,-36.53"/>
<polygon fill="#63b8ff" stroke="#63b8ff" points="220.68,-39.88 228.66,-32.91 218.08,-33.38 220.68,-39.88"/>
</a>
</g>
</g>
</g>
</svg>
