<?xml version="1.0" encoding="UTF-8" standalone="no"?>
<!DOCTYPE svg PUBLIC "-//W3C//DTD SVG 1.1//EN"
 "http://www.w3.org/Graphics/SVG/1.1/DTD/svg11.dtd">
<!-- Generated by graphviz version 13.1.2 (20250808.2320)
 -->
<!-- Title: PyPSA&#45;GB.marginal_costs.write_marginal_costs_series Pages: 1 -->
<!--zoomable 290 -->

<svg id="main" version="1.1" xmlns="http://www.w3.org/2000/svg" xmlns:xlink="http://www.w3.org/1999/xlink" xml:space="preserve" onload="init(evt)">

<style type="text/css"><![CDATA[
.node, .edge {opacity: 0.7;}
.node.selected, .edge.selected {opacity: 1;}
.edge:hover path { stroke: red; }
.edge:hover polygon { stroke: red; fill: red; }
]]></style>

<defs>
  <circle id="rim" cx="0" cy="0" r="7"/>
  <circle id="rim2" cx="0" cy="0" r="3.5"/>
  <g id="zoomPlus">
    <use xlink:href="#rim" fill="#404040"><set attributeName="fill" to="#808080" begin="zoomplus.mouseover" end="zoomplus.mouseout"/></use>
    <path d="M-4,0h8M0,-4v8" fill="none" stroke="white" stroke-width="1.5" pointer-events="none"/>
  </g>
  <g id="zoomMin">
    <use xlink:href="#rim" fill="#404040"><set attributeName="fill" to="#808080" begin="zoomminus.mouseover" end="zoomminus.mouseout"/></use>
    <path d="M-4,0h8" fill="none" stroke="white" stroke-width="1.5" pointer-events="none"/>
  </g>
  <g id="arrowUp" transform="translate(30 24)">
    <use xlink:href="#rim"/>
    <path pointer-events="none" fill="none" stroke="white" stroke-width="1.5" d="M0,-3.0v7 M-2.5,-0.5L0,-3.0L2.5,-0.5"/>
  </g>
  <g id="arrowRight" transform="rotate(90) translate(36 -43)">
    <use xlink:href="#rim"/>
    <path pointer-events="none" fill="none" stroke="white" stroke-width="1.5" d="M0,-3.0v7 M-2.5,-0.5L0,-3.0L2.5,-0.5"/>
  </g>
  <g id="arrowDown" transform="rotate(180) translate(-30 -48)">
    <use xlink:href="#rim"/>
    <path pointer-events="none" fill="none" stroke="white" stroke-width="1.5" d="M0,-3.0v7 M-2.5,-0.5L0,-3.0L2.5,-0.5"/>
  </g>
  <g id="arrowLeft" transform="rotate(270) translate(-36 17)">
    <use xlink:href="#rim"/>
    <path pointer-events="none" fill="none" stroke="white" stroke-width="1.5" d="M0,-3.0v7 M-2.5,-0.5L0,-3.0L2.5,-0.5"/>
  </g>
  <g id="resetDef">
    <use xlink:href="#rim2" fill="#404040"><set attributeName="fill" to="#808080" begin="reset.mouseover" end="reset.mouseout"/></use>
  </g>
</defs>
<script type="application/ecmascript">
var viewWidth = 592;
var viewHeight = 290;
var sectionId = 'dynsection-8';
</script>
<script type="application/ecmascript" xlink:href="svg.min.js"/>
<svg id="graph" class="graph">
<g id="viewport">
<title>PyPSA&#45;GB.marginal_costs.write_marginal_costs_series</title>
<!-- Node1 -->
<g id="Node000001" class="node">
<title>Node1</title>
<g id="a_Node000001"><a xlink:title=" ">
<polygon fill="#999999" stroke="#666666" points="158.5,-157 0,-157 0,-125 158.5,-125 158.5,-157"/>
<text xml:space="preserve" text-anchor="start" x="8" y="-143.5" font-family="Helvetica,sans-Serif" font-size="10.00">PyPSA&#45;GB.marginal_costs.write</text>
<text xml:space="preserve" text-anchor="middle" x="79.25" y="-131.5" font-family="Helvetica,sans-Serif" font-size="10.00">_marginal_costs_series</text>
</a>
</g>
</g>
<!-- Node2 -->
<g id="Node000002" class="node">
<title>Node2</title>
<g id="a_Node000002"><a xlink:href="namespace_py_p_s_a-_g_b_1_1marginal__costs.html#aaf490209e76d2141dac9d24645c3a74a" target="_top" xlink:title=" ">
<polygon fill="white" stroke="#666666" points="368.75,-157 194.5,-157 194.5,-125 368.75,-125 368.75,-157"/>
<text xml:space="preserve" text-anchor="start" x="202.5" y="-143.5" font-family="Helvetica,sans-Serif" font-size="10.00">PyPSA&#45;GB.marginal_costs.marginal</text>
<text xml:space="preserve" text-anchor="middle" x="281.62" y="-131.5" font-family="Helvetica,sans-Serif" font-size="10.00">_price_dataframe</text>
</a>
</g>
</g>
<!-- Node1&#45;&gt;Node2 -->
<g id="edge1_Node000001_Node000002" class="edge">
<title>Node1&#45;&gt;Node2</title>
<g id="a_edge1_Node000001_Node000002"><a xlink:title=" ">
<path fill="none" stroke="#63b8ff" d="M158.87,-141C166.77,-141 174.85,-141 182.92,-141"/>
<polygon fill="#63b8ff" stroke="#63b8ff" points="182.77,-144.5 192.77,-141 182.77,-137.5 182.77,-144.5"/>
</a>
</g>
</g>
<!-- Node3 -->
<g id="Node000003" class="node">
<title>Node3</title>
<g id="a_Node000003"><a xlink:href="namespace_py_p_s_a-_g_b_1_1marginal__costs.html#a739e12d814d17d94dab84c3630e7ace4" target="_top" xlink:title=" ">
<polygon fill="white" stroke="#666666" points="577.88,-282 411.12,-282 411.12,-250 577.88,-250 577.88,-282"/>
<text xml:space="preserve" text-anchor="start" x="419.12" y="-268.5" font-family="Helvetica,sans-Serif" font-size="10.00">PyPSA&#45;GB.marginal_costs.carbon</text>
<text xml:space="preserve" text-anchor="middle" x="494.5" y="-256.5" font-family="Helvetica,sans-Serif" font-size="10.00">_support_price_df</text>
</a>
</g>
</g>
<!-- Node2&#45;&gt;Node3 -->
<g id="edge2_Node000002_Node000003" class="edge">
<title>Node2&#45;&gt;Node3</title>
<g id="a_edge2_Node000002_Node000003"><a xlink:title=" ">
<path fill="none" stroke="#63b8ff" d="M298.05,-157.29C319.82,-179.36 361.74,-218.59 404.75,-241 407.78,-242.58 410.91,-244.06 414.12,-245.47"/>
<polygon fill="#63b8ff" stroke="#63b8ff" points="412.58,-248.62 423.16,-249.09 415.18,-242.12 412.58,-248.62"/>
</a>
</g>
</g>
<!-- Node4 -->
<g id="Node000004" class="node">
<title>Node4</title>
<g id="a_Node000004"><a xlink:href="namespace_py_p_s_a-_g_b_1_1marginal__costs.html#ac93554550a1c021c713fe1049a45a2e8" target="_top" xlink:title=" ">
<polygon fill="white" stroke="#666666" points="563.25,-232 425.75,-232 425.75,-200 563.25,-200 563.25,-232"/>
<text xml:space="preserve" text-anchor="start" x="433.75" y="-218.5" font-family="Helvetica,sans-Serif" font-size="10.00">PyPSA&#45;GB.marginal_costs.</text>
<text xml:space="preserve" text-anchor="middle" x="494.5" y="-206.5" font-family="Helvetica,sans-Serif" font-size="10.00">EU_ETS_df</text>
</a>
</g>
</g>
<!-- Node2&#45;&gt;Node4 -->
<g id="edge3_Node000002_Node000004" class="edge">
<title>Node2&#45;&gt;Node4</title>
<g id="a_edge3_Node000002_Node000004"><a xlink:title=" ">
<path fill="none" stroke="#63b8ff" d="M319.62,-157.43C343.62,-167.77 375.72,-181.01 404.75,-191 410.01,-192.81 415.47,-194.59 420.99,-196.31"/>
<polygon fill="#63b8ff" stroke="#63b8ff" points="419.6,-199.55 430.18,-199.11 421.63,-192.85 419.6,-199.55"/>
</a>
</g>
</g>
<!-- Node5 -->
<g id="Node000005" class="node">
<title>Node5</title>
<g id="a_Node000005"><a xlink:href="namespace_py_p_s_a-_g_b_1_1marginal__costs.html#a344b315faeb530ea5bfc06ee6fb105d2" target="_top" xlink:title=" ">
<polygon fill="white" stroke="#666666" points="584.25,-182 404.75,-182 404.75,-150 584.25,-150 584.25,-182"/>
<text xml:space="preserve" text-anchor="start" x="412.75" y="-168.5" font-family="Helvetica,sans-Serif" font-size="10.00">PyPSA&#45;GB.marginal_costs.exchange</text>
<text xml:space="preserve" text-anchor="middle" x="494.5" y="-156.5" font-family="Helvetica,sans-Serif" font-size="10.00">_year_average</text>
</a>
</g>
</g>
<!-- Node2&#45;&gt;Node5 -->
<g id="edge4_Node000002_Node000005" class="edge">
<title>Node2&#45;&gt;Node5</title>
<g id="a_edge4_Node000002_Node000005"><a xlink:title=" ">
<path fill="none" stroke="#63b8ff" d="M369,-151.24C376.97,-152.18 385.08,-153.15 393.15,-154.1"/>
<polygon fill="#63b8ff" stroke="#63b8ff" points="392.67,-157.57 403.02,-155.27 393.5,-150.62 392.67,-157.57"/>
</a>
</g>
</g>
<!-- Node6 -->
<g id="Node000006" class="node">
<title>Node6</title>
<g id="a_Node000006"><a xlink:href="namespace_py_p_s_a-_g_b_1_1marginal__costs.html#a6cd63a2c11a89450d7bda667ba6787b6" target="_top" xlink:title=" ">
<polygon fill="white" stroke="#666666" points="571.12,-132 417.88,-132 417.88,-100 571.12,-100 571.12,-132"/>
<text xml:space="preserve" text-anchor="start" x="425.88" y="-118.5" font-family="Helvetica,sans-Serif" font-size="10.00">PyPSA&#45;GB.marginal_costs.fuel</text>
<text xml:space="preserve" text-anchor="middle" x="494.5" y="-106.5" font-family="Helvetica,sans-Serif" font-size="10.00">_prices_df</text>
</a>
</g>
</g>
<!-- Node2&#45;&gt;Node6 -->
<g id="edge5_Node000002_Node000006" class="edge">
<title>Node2&#45;&gt;Node6</title>
<g id="a_edge5_Node000002_Node000006"><a xlink:title=" ">
<path fill="none" stroke="#63b8ff" d="M369,-130.76C381.28,-129.3 393.92,-127.81 406.21,-126.35"/>
<polygon fill="#63b8ff" stroke="#63b8ff" points="406.37,-129.85 415.89,-125.2 405.55,-122.9 406.37,-129.85"/>
</a>
</g>
</g>
<!-- Node7 -->
<g id="Node000007" class="node">
<title>Node7</title>
<g id="a_Node000007"><a xlink:href="namespace_py_p_s_a-_g_b_1_1marginal__costs.html#abc793224d7b9274417b2bc0190c0c651" target="_top" xlink:title=" ">
<polygon fill="white" stroke="#666666" points="575.62,-82 413.38,-82 413.38,-50 575.62,-50 575.62,-82"/>
<text xml:space="preserve" text-anchor="start" x="421.38" y="-68.5" font-family="Helvetica,sans-Serif" font-size="10.00">PyPSA&#45;GB.marginal_costs.future</text>
<text xml:space="preserve" text-anchor="middle" x="494.5" y="-56.5" font-family="Helvetica,sans-Serif" font-size="10.00">_carbon_prices_df</text>
</a>
</g>
</g>
<!-- Node2&#45;&gt;Node7 -->
<g id="edge6_Node000002_Node000007" class="edge">
<title>Node2&#45;&gt;Node7</title>
<g id="a_edge6_Node000002_Node000007"><a xlink:title=" ">
<path fill="none" stroke="#63b8ff" d="M319.62,-124.57C343.62,-114.23 375.72,-100.99 404.75,-91 410.01,-89.19 415.47,-87.41 420.99,-85.69"/>
<polygon fill="#63b8ff" stroke="#63b8ff" points="421.63,-89.15 430.18,-82.89 419.6,-82.45 421.63,-89.15"/>
</a>
</g>
</g>
<!-- Node8 -->
<g id="Node000008" class="node">
<title>Node8</title>
<g id="a_Node000008"><a xlink:href="namespace_py_p_s_a-_g_b_1_1marginal__costs.html#abc40598d9804bdbab365f9595fb48cb3" target="_top" xlink:title=" ">
<polygon fill="white" stroke="#666666" points="575.62,-32 413.38,-32 413.38,0 575.62,0 575.62,-32"/>
<text xml:space="preserve" text-anchor="start" x="421.38" y="-18.5" font-family="Helvetica,sans-Serif" font-size="10.00">PyPSA&#45;GB.marginal_costs.future</text>
<text xml:space="preserve" text-anchor="middle" x="494.5" y="-6.5" font-family="Helvetica,sans-Serif" font-size="10.00">_fuel_prices_df</text>
</a>
</g>
</g>
<!-- Node2&#45;&gt;Node8 -->
<g id="edge7_Node000002_Node000008" class="edge">
<title>Node2&#45;&gt;Node8</title>
<g id="a_edge7_Node000002_Node000008"><a xlink:title=" ">
<path fill="none" stroke="#63b8ff" d="M298.05,-124.71C319.82,-102.64 361.74,-63.41 404.75,-41 407.78,-39.42 410.91,-37.94 414.12,-36.53"/>
<polygon fill="#63b8ff" stroke="#63b8ff" points="415.18,-39.88 423.16,-32.91 412.58,-33.38 415.18,-39.88"/>
</a>
</g>
</g>
</g>
</svg>

<g id="navigator" transform="translate(0 0)" fill="#404254">
  <rect fill="#f2f5e9" fill-opacity="0.5" stroke="#606060" stroke-width=".5" x="0" y="0" width="60" height="60"/>
  <use id="zoomplus" xlink:href="#zoomPlus" x="17" y="9" onmousedown="handleZoom(evt,'in')"/>
  <use id="zoomminus" xlink:href="#zoomMin" x="42" y="9" onmousedown="handleZoom(evt,'out')"/>
  <use id="reset" xlink:href="#resetDef" x="30" y="36" onmousedown="handleReset()"/>
   <use id="arrowup" xlink:href="#arrowUp" x="0" y="0" onmousedown="handlePan(0,-1)"/>
  <use id="arrowright" xlink:href="#arrowRight" x="0" y="0" onmousedown="handlePan(1,0)"/>
  <use id="arrowdown" xlink:href="#arrowDown" x="0" y="0" onmousedown="handlePan(0,1)"/>
  <use id="arrowleft" xlink:href="#arrowLeft" x="0" y="0" onmousedown="handlePan(-1,0)"/>
</g>
<svg viewBox="0 0 15 15" width="100%" height="30px" preserveAspectRatio="xMaxYMin meet">
 <g id="arrow_out" transform="scale(0.3 0.3)">
  <a xlink:href="namespace_py_p_s_a-_g_b_1_1marginal__costs_a3532d231b790e77fbd93d5b2a8cd984d_cgraph_org.svg" target="_base">
   <rect id="button" ry="5" rx="5" y="6" x="6" height="38" width="38"
        fill="#f2f5e9" fill-opacity="0.5" stroke="#606060" stroke-width="1.0"/>
   <path id="arrow"
     d="M 11.500037,31.436501 C 11.940474,20.09759 22.043105,11.32322 32.158766,21.979434 L 37.068811,17.246167 C 37.068811,17.246167 37.088388,32 37.088388,32 L 22.160133,31.978069 C 22.160133,31.978069 26.997745,27.140456 26.997745,27.140456 C 18.528582,18.264221 13.291696,25.230495 11.500037,31.436501 z"
     style="fill:#404040;"/>
  </a>
 </g>
</svg>

<style type='text/css'>
<![CDATA[
[data-mouse-over-selected='false'] { opacity: 0.7; }
[data-mouse-over-selected='true']  { opacity: 1.0; }
]]>
</style>
<script type="application/ecmascript"><![CDATA[
document.addEventListener('DOMContentLoaded', (event) => {
  highlightEdges();
  highlightAdjacentNodes();
});
]]></script>
</svg>
