<?xml version="1.0" encoding="UTF-8" standalone="no"?>
<!DOCTYPE svg PUBLIC "-//W3C//DTD SVG 1.1//EN"
 "http://www.w3.org/Graphics/SVG/1.1/DTD/svg11.dtd">
<!-- Generated by graphviz version 13.1.2 (20250808.2320)
 -->
<!-- Title: PyPSA&#45;GB.scotland_LOLP.dict_add Pages: 1 -->
<svg width="592pt" height="40pt"
 viewBox="0.00 0.00 592.00 40.00" xmlns="http://www.w3.org/2000/svg" xmlns:xlink="http://www.w3.org/1999/xlink">
<g id="graph0" class="graph" transform="scale(1 1) rotate(0) translate(4 36)">
<title>PyPSA&#45;GB.scotland_LOLP.dict_add</title>
<!-- Node1 -->
<g id="Node000001" class="node">
<title>Node1</title>
<g id="a_Node000001"><a xlink:title=" ">
<polygon fill="#999999" stroke="#666666" points="584.25,-26 410.75,-26 410.75,-6 584.25,-6 584.25,-26"/>
<text xml:space="preserve" text-anchor="middle" x="497.5" y="-12.5" font-family="Helvetica,sans-Serif" font-size="10.00">PyPSA&#45;GB.scotland_LOLP.dict_add</text>
</a>
</g>
</g>
<!-- Node2 -->
<g id="Node000002" class="node">
<title>Node2</title>
<g id="a_Node000002"><a xlink:href="namespace_py_p_s_a-_g_b_1_1scotland___l_o_l_p.html#a490efc8bcc92eb16baac2ca4923eaf9b" target="_top" xlink:title=" ">
<polygon fill="white" stroke="#666666" points="374.75,-32 193.75,-32 193.75,0 374.75,0 374.75,-32"/>
<text xml:space="preserve" text-anchor="start" x="201.75" y="-18.5" font-family="Helvetica,sans-Serif" font-size="10.00">PyPSA&#45;GB.scotland_LOLP.probability</text>
<text xml:space="preserve" text-anchor="middle" x="284.25" y="-6.5" font-family="Helvetica,sans-Serif" font-size="10.00">_function</text>
</a>
</g>
</g>
<!-- Node1&#45;&gt;Node2 -->
<g id="edge1_Node000001_Node000002" class="edge">
<title>Node1&#45;&gt;Node2</title>
<g id="a_edge1_Node000001_Node000002"><a xlink:title=" ">
<path fill="none" stroke="#63b8ff" d="M399.01,-16C391,-16 382.93,-16 374.98,-16"/>
<polygon fill="#63b8ff" stroke="#63b8ff" points="398.76,-19.5 408.76,-16 398.76,-12.5 398.76,-19.5"/>
</a>
</g>
</g>
<!-- Node3 -->
<g id="Node000003" class="node">
<title>Node3</title>
<g id="a_Node000003"><a xlink:href="namespace_py_p_s_a-_g_b_1_1scotland___l_o_l_p.html#a36d627c03bea31c0876bb8768747b1f0" target="_top" xlink:title=" ">
<polygon fill="white" stroke="#666666" points="157.75,-26 0,-26 0,-6 157.75,-6 157.75,-26"/>
<text xml:space="preserve" text-anchor="middle" x="78.88" y="-12.5" font-family="Helvetica,sans-Serif" font-size="10.00">PyPSA&#45;GB.scotland_LOLP.main</text>
</a>
</g>
</g>
<!-- Node2&#45;&gt;Node3 -->
<g id="edge2_Node000002_Node000003" class="edge">
<title>Node2&#45;&gt;Node3</title>
<g id="a_edge2_Node000002_Node000003"><a xlink:title=" ">
<path fill="none" stroke="#63b8ff" d="M182.06,-16C173.98,-16 165.9,-16 158.02,-16"/>
<polygon fill="#63b8ff" stroke="#63b8ff" points="181.94,-19.5 191.94,-16 181.94,-12.5 181.94,-19.5"/>
</a>
</g>
</g>
</g>
</svg>
