<?xml version="1.0" encoding="UTF-8" standalone="no"?>
<!DOCTYPE svg PUBLIC "-//W3C//DTD SVG 1.1//EN"
 "http://www.w3.org/Graphics/SVG/1.1/DTD/svg11.dtd">
<!-- Generated by graphviz version 13.1.2 (20250808.2320)
 -->
<!-- Title: PyPSA&#45;GB.renewables.future_offshore_capacity Pages: 1 -->
<svg width="549pt" height="40pt"
 viewBox="0.00 0.00 549.00 40.00" xmlns="http://www.w3.org/2000/svg" xmlns:xlink="http://www.w3.org/1999/xlink">
<g id="graph0" class="graph" transform="scale(1 1) rotate(0) translate(4 36)">
<title>PyPSA&#45;GB.renewables.future_offshore_capacity</title>
<!-- Node1 -->
<g id="Node000001" class="node">
<title>Node1</title>
<g id="a_Node000001"><a xlink:title=" ">
<polygon fill="#999999" stroke="#666666" points="145.75,-32 0,-32 0,0 145.75,0 145.75,-32"/>
<text xml:space="preserve" text-anchor="start" x="8" y="-18.5" font-family="Helvetica,sans-Serif" font-size="10.00">PyPSA&#45;GB.renewables.future</text>
<text xml:space="preserve" text-anchor="middle" x="72.88" y="-6.5" font-family="Helvetica,sans-Serif" font-size="10.00">_offshore_capacity</text>
</a>
</g>
</g>
<!-- Node2 -->
<g id="Node000002" class="node">
<title>Node2</title>
<g id="a_Node000002"><a xlink:href="namespace_py_p_s_a-_g_b_1_1renewables.html#a721b09963fd339351825ed23035b35c2" target="_top" xlink:title="corrects the REDP (renewable energy planning database) according to year of simulation">
<polygon fill="white" stroke="#666666" points="331.25,-32 181.75,-32 181.75,0 331.25,0 331.25,-32"/>
<text xml:space="preserve" text-anchor="start" x="189.75" y="-18.5" font-family="Helvetica,sans-Serif" font-size="10.00">PyPSA&#45;GB.renewables.REPD</text>
<text xml:space="preserve" text-anchor="middle" x="256.5" y="-6.5" font-family="Helvetica,sans-Serif" font-size="10.00">_date_corrected</text>
</a>
</g>
</g>
<!-- Node1&#45;&gt;Node2 -->
<g id="edge1_Node000001_Node000002" class="edge">
<title>Node1&#45;&gt;Node2</title>
<g id="a_edge1_Node000001_Node000002"><a xlink:title=" ">
<path fill="none" stroke="#63b8ff" d="M146.18,-16C154.05,-16 162.11,-16 170.11,-16"/>
<polygon fill="#63b8ff" stroke="#63b8ff" points="169.85,-19.5 179.85,-16 169.85,-12.5 169.85,-19.5"/>
</a>
</g>
</g>
<!-- Node3 -->
<g id="Node000003" class="node">
<title>Node3</title>
<g id="a_Node000003"><a xlink:href="namespace_py_p_s_a-_g_b_1_1renewables.html#ab85ba8dcaf38f80f959156e0c7295a14" target="_top" xlink:title="reads the REDP (renewable energy planning database) and converts to dataframe">
<polygon fill="white" stroke="#666666" points="540.75,-26 367.25,-26 367.25,-6 540.75,-6 540.75,-26"/>
<text xml:space="preserve" text-anchor="middle" x="454" y="-12.5" font-family="Helvetica,sans-Serif" font-size="10.00">PyPSA&#45;GB.renewables.read_REPD</text>
</a>
</g>
</g>
<!-- Node2&#45;&gt;Node3 -->
<g id="edge2_Node000002_Node000003" class="edge">
<title>Node2&#45;&gt;Node3</title>
<g id="a_edge2_Node000002_Node000003"><a xlink:title=" ">
<path fill="none" stroke="#63b8ff" d="M331.69,-16C339.54,-16 347.62,-16 355.68,-16"/>
<polygon fill="#63b8ff" stroke="#63b8ff" points="355.55,-19.5 365.55,-16 355.55,-12.5 355.55,-19.5"/>
</a>
</g>
</g>
</g>
</svg>
