<?xml version="1.0" encoding="UTF-8" standalone="no"?>
<!DOCTYPE svg PUBLIC "-//W3C//DTD SVG 1.1//EN"
 "http://www.w3.org/Graphics/SVG/1.1/DTD/svg11.dtd">
<!-- Generated by graphviz version 13.1.2 (20250808.2320)
 -->
<!-- Title: PyPSA&#45;GB.scotland_network.interconnector Pages: 1 -->
<svg width="438pt" height="46pt"
 viewBox="0.00 0.00 438.00 46.00" xmlns="http://www.w3.org/2000/svg" xmlns:xlink="http://www.w3.org/1999/xlink">
<g id="graph0" class="graph" transform="scale(1 1) rotate(0) translate(4 42)">
<title>PyPSA&#45;GB.scotland_network.interconnector</title>
<!-- Node1 -->
<g id="Node000001" class="node">
<title>Node1</title>
<g id="a_Node000001"><a xlink:title=" ">
<polygon fill="#999999" stroke="#666666" points="209.5,-20 0,-20 0,0 209.5,0 209.5,-20"/>
<text xml:space="preserve" text-anchor="middle" x="104.75" y="-6.5" font-family="Helvetica,sans-Serif" font-size="10.00">PyPSA&#45;GB.scotland_network.interconnector</text>
</a>
</g>
</g>
<!-- Node1&#45;&gt;Node1 -->
<g id="edge1_Node000001_Node000001" class="edge">
<title>Node1&#45;&gt;Node1</title>
<g id="a_edge1_Node000001_Node000001"><a xlink:title=" ">
<path fill="none" stroke="#63b8ff" d="M67.44,-20.48C52.02,-29.08 64.45,-38 104.75,-38 127.42,-38 141.27,-35.18 146.3,-31.18"/>
<polygon fill="#63b8ff" stroke="#63b8ff" points="149.56,-29.89 142.61,-21.89 143.05,-32.48 149.56,-29.89"/>
</a>
</g>
</g>
<!-- Node2 -->
<g id="Node000002" class="node">
<title>Node2</title>
<g id="a_Node000002"><a xlink:href="namespace_py_p_s_a-_g_b_1_1scotland__network.html#aa0c407a36a61af872252ed4a1bc12120" target="_top" xlink:title=" ">
<polygon fill="white" stroke="#666666" points="430.25,-20 245.5,-20 245.5,0 430.25,0 430.25,-20"/>
<text xml:space="preserve" text-anchor="middle" x="337.88" y="-6.5" font-family="Helvetica,sans-Serif" font-size="10.00">PyPSA&#45;GB.scotland_network.scotland</text>
</a>
</g>
</g>
<!-- Node1&#45;&gt;Node2 -->
<g id="edge2_Node000001_Node000002" class="edge">
<title>Node1&#45;&gt;Node2</title>
<g id="a_edge2_Node000001_Node000002"><a xlink:title=" ">
<path fill="none" stroke="#63b8ff" d="M209.82,-10C217.71,-10 225.67,-10 233.55,-10"/>
<polygon fill="#63b8ff" stroke="#63b8ff" points="233.52,-13.5 243.52,-10 233.52,-6.5 233.52,-13.5"/>
</a>
</g>
</g>
</g>
</svg>
