<?xml version="1.0" encoding="UTF-8" standalone="no"?>
<!DOCTYPE svg PUBLIC "-//W3C//DTD SVG 1.1//EN"
 "http://www.w3.org/Graphics/SVG/1.1/DTD/svg11.dtd">
<!-- Generated by graphviz version 13.1.2 (20250808.2320)
 -->
<!-- Title: PyPSA&#45;GB.generators.write_generators Pages: 1 -->
<svg width="512pt" height="90pt"
 viewBox="0.00 0.00 512.00 90.00" xmlns="http://www.w3.org/2000/svg" xmlns:xlink="http://www.w3.org/1999/xlink">
<g id="graph0" class="graph" transform="scale(1 1) rotate(0) translate(4 86)">
<title>PyPSA&#45;GB.generators.write_generators</title>
<!-- Node1 -->
<g id="Node000001" class="node">
<title>Node1</title>
<g id="a_Node000001"><a xlink:title=" ">
<polygon fill="#999999" stroke="#666666" points="138.25,-57 0,-57 0,-25 138.25,-25 138.25,-57"/>
<text xml:space="preserve" text-anchor="start" x="8" y="-43.5" font-family="Helvetica,sans-Serif" font-size="10.00">PyPSA&#45;GB.generators.write</text>
<text xml:space="preserve" text-anchor="middle" x="69.12" y="-31.5" font-family="Helvetica,sans-Serif" font-size="10.00">_generators</text>
</a>
</g>
</g>
<!-- Node2 -->
<g id="Node000002" class="node">
<title>Node2</title>
<g id="a_Node000002"><a xlink:href="namespace_py_p_s_a-_g_b_1_1generators.html#adba44d0b821016f840097f4154144829" target="_top" xlink:title="adds data to the generators csv file">
<polygon fill="white" stroke="#666666" points="332,-82 174.25,-82 174.25,-50 332,-50 332,-82"/>
<text xml:space="preserve" text-anchor="start" x="182.25" y="-68.5" font-family="Helvetica,sans-Serif" font-size="10.00">PyPSA&#45;GB.generators.generator</text>
<text xml:space="preserve" text-anchor="middle" x="253.12" y="-56.5" font-family="Helvetica,sans-Serif" font-size="10.00">_additional_data</text>
</a>
</g>
</g>
<!-- Node1&#45;&gt;Node2 -->
<g id="edge1_Node000001_Node000002" class="edge">
<title>Node1&#45;&gt;Node2</title>
<g id="a_edge1_Node000001_Node000002"><a xlink:title=" ">
<path fill="none" stroke="#63b8ff" d="M138.67,-50.42C146.48,-51.49 154.52,-52.59 162.55,-53.7"/>
<polygon fill="#63b8ff" stroke="#63b8ff" points="161.98,-57.15 172.37,-55.04 162.93,-50.22 161.98,-57.15"/>
</a>
</g>
</g>
<!-- Node4 -->
<g id="Node000004" class="node">
<title>Node4</title>
<g id="a_Node000004"><a xlink:href="namespace_py_p_s_a-_g_b_1_1generators.html#a8e907adcd84656f927810fe7800bcdca" target="_top" xlink:title="reads the power station data from prepared csv file">
<polygon fill="white" stroke="#666666" points="321.12,-32 185.12,-32 185.12,0 321.12,0 321.12,-32"/>
<text xml:space="preserve" text-anchor="start" x="193.12" y="-18.5" font-family="Helvetica,sans-Serif" font-size="10.00">PyPSA&#45;GB.generators.read</text>
<text xml:space="preserve" text-anchor="middle" x="253.12" y="-6.5" font-family="Helvetica,sans-Serif" font-size="10.00">_power_stations_data</text>
</a>
</g>
</g>
<!-- Node1&#45;&gt;Node4 -->
<g id="edge3_Node000001_Node000004" class="edge">
<title>Node1&#45;&gt;Node4</title>
<g id="a_edge3_Node000001_Node000004"><a xlink:title=" ">
<path fill="none" stroke="#63b8ff" d="M138.67,-31.58C150.13,-30.01 162.09,-28.37 173.76,-26.76"/>
<polygon fill="#63b8ff" stroke="#63b8ff" points="173.92,-30.28 183.35,-25.45 172.96,-23.34 173.92,-30.28"/>
</a>
</g>
</g>
<!-- Node3 -->
<g id="Node000003" class="node">
<title>Node3</title>
<g id="a_Node000003"><a xlink:href="namespace_py_p_s_a-_g_b_1_1generators.html#a6b10a71fcdd732ef28f5240bb458e4f0" target="_top" xlink:title="reads the generator data by fuel from prepared csv file">
<polygon fill="white" stroke="#666666" points="504,-82 368,-82 368,-50 504,-50 504,-82"/>
<text xml:space="preserve" text-anchor="start" x="376" y="-68.5" font-family="Helvetica,sans-Serif" font-size="10.00">PyPSA&#45;GB.generators.read</text>
<text xml:space="preserve" text-anchor="middle" x="436" y="-56.5" font-family="Helvetica,sans-Serif" font-size="10.00">_generator_data_by_fuel</text>
</a>
</g>
</g>
<!-- Node2&#45;&gt;Node3 -->
<g id="edge2_Node000002_Node000003" class="edge">
<title>Node2&#45;&gt;Node3</title>
<g id="a_edge2_Node000002_Node000003"><a xlink:title=" ">
<path fill="none" stroke="#63b8ff" d="M332.41,-66C340.3,-66 348.31,-66 356.21,-66"/>
<polygon fill="#63b8ff" stroke="#63b8ff" points="356.15,-69.5 366.15,-66 356.15,-62.5 356.15,-69.5"/>
</a>
</g>
</g>
</g>
</svg>
