<?xml version="1.0" encoding="UTF-8" standalone="no"?>
<!DOCTYPE svg PUBLIC "-//W3C//DTD SVG 1.1//EN"
 "http://www.w3.org/Graphics/SVG/1.1/DTD/svg11.dtd">
<!-- Generated by graphviz version 13.1.2 (20250808.2320)
 -->
<!-- Title: PyPSA&#45;GB.renewables_atlite.offshore_wind_farm_timeseries Pages: 1 -->
<svg width="460pt" height="232pt"
 viewBox="0.00 0.00 460.00 232.00" xmlns="http://www.w3.org/2000/svg" xmlns:xlink="http://www.w3.org/1999/xlink">
<g id="graph0" class="graph" transform="scale(1 1) rotate(0) translate(4 228)">
<title>PyPSA&#45;GB.renewables_atlite.offshore_wind_farm_timeseries</title>
<!-- Node1 -->
<g id="Node000001" class="node">
<title>Node1</title>
<g id="a_Node000001"><a xlink:title=" ">
<polygon fill="#999999" stroke="#666666" points="452.25,-137 334.25,-137 334.25,-93 452.25,-93 452.25,-137"/>
<text xml:space="preserve" text-anchor="start" x="342.25" y="-123.5" font-family="Helvetica,sans-Serif" font-size="10.00">PyPSA&#45;GB.renewables</text>
<text xml:space="preserve" text-anchor="start" x="342.25" y="-111.5" font-family="Helvetica,sans-Serif" font-size="10.00">_atlite.offshore_wind</text>
<text xml:space="preserve" text-anchor="middle" x="393.25" y="-99.5" font-family="Helvetica,sans-Serif" font-size="10.00">_farm_timeseries</text>
</a>
</g>
</g>
<!-- Node2 -->
<g id="Node000002" class="node">
<title>Node2</title>
<g id="a_Node000002"><a xlink:href="namespace_py_p_s_a-_g_b_1_1renewables__atlite.html#a38c1cce3d8e01adbb933ef85d7317ae1" target="_top" xlink:title=" ">
<polygon fill="white" stroke="#666666" points="298.25,-218 154,-218 154,-186 298.25,-186 298.25,-218"/>
<text xml:space="preserve" text-anchor="start" x="162" y="-204.5" font-family="Helvetica,sans-Serif" font-size="10.00">PyPSA&#45;GB.renewables</text>
<text xml:space="preserve" text-anchor="middle" x="226.12" y="-192.5" font-family="Helvetica,sans-Serif" font-size="10.00">_atlite.multiple_offshore_wind</text>
</a>
</g>
</g>
<!-- Node1&#45;&gt;Node2 -->
<g id="edge1_Node000001_Node000002" class="edge">
<title>Node1&#45;&gt;Node2</title>
<g id="a_edge1_Node000001_Node000002"><a xlink:title=" ">
<path fill="none" stroke="#63b8ff" d="M353.21,-143.85C336.79,-155.15 317.14,-167.63 298.25,-177 292.04,-180.08 285.35,-182.96 278.64,-185.59"/>
<polygon fill="#63b8ff" stroke="#63b8ff" points="355.06,-146.83 361.24,-138.23 351.04,-141.1 355.06,-146.83"/>
</a>
</g>
</g>
<!-- Node4 -->
<g id="Node000004" class="node">
<title>Node4</title>
<g id="a_Node000004"><a xlink:href="namespace_py_p_s_a-_g_b_1_1renewables__atlite.html#a8b7e25351084372df3fe735c5f9115b5" target="_top" xlink:title=" ">
<polygon fill="white" stroke="#666666" points="285.12,-168 167.12,-168 167.12,-124 285.12,-124 285.12,-168"/>
<text xml:space="preserve" text-anchor="start" x="175.12" y="-154.5" font-family="Helvetica,sans-Serif" font-size="10.00">PyPSA&#45;GB.renewables</text>
<text xml:space="preserve" text-anchor="start" x="175.12" y="-142.5" font-family="Helvetica,sans-Serif" font-size="10.00">_atlite.offshore_wind</text>
<text xml:space="preserve" text-anchor="middle" x="226.12" y="-130.5" font-family="Helvetica,sans-Serif" font-size="10.00">_floating_timeseries</text>
</a>
</g>
</g>
<!-- Node1&#45;&gt;Node4 -->
<g id="edge3_Node000001_Node000004" class="edge">
<title>Node1&#45;&gt;Node4</title>
<g id="a_edge3_Node000001_Node000004"><a xlink:title=" ">
<path fill="none" stroke="#63b8ff" d="M322.75,-128.05C310.31,-130.38 297.46,-132.8 285.37,-135.06"/>
<polygon fill="#63b8ff" stroke="#63b8ff" points="323.36,-131.49 332.55,-126.21 322.07,-124.61 323.36,-131.49"/>
</a>
</g>
</g>
<!-- Node5 -->
<g id="Node000005" class="node">
<title>Node5</title>
<g id="a_Node000005"><a xlink:href="namespace_py_p_s_a-_g_b_1_1renewables__atlite.html#a6e5a158a8f604eee9b408037972bbc53" target="_top" xlink:title=" ">
<polygon fill="white" stroke="#666666" points="285.12,-106 167.12,-106 167.12,-62 285.12,-62 285.12,-106"/>
<text xml:space="preserve" text-anchor="start" x="175.12" y="-92.5" font-family="Helvetica,sans-Serif" font-size="10.00">PyPSA&#45;GB.renewables</text>
<text xml:space="preserve" text-anchor="start" x="175.12" y="-80.5" font-family="Helvetica,sans-Serif" font-size="10.00">_atlite.offshore_wind</text>
<text xml:space="preserve" text-anchor="middle" x="226.12" y="-68.5" font-family="Helvetica,sans-Serif" font-size="10.00">_future_timeseries</text>
</a>
</g>
</g>
<!-- Node1&#45;&gt;Node5 -->
<g id="edge4_Node000001_Node000005" class="edge">
<title>Node1&#45;&gt;Node5</title>
<g id="a_edge4_Node000001_Node000005"><a xlink:title=" ">
<path fill="none" stroke="#63b8ff" d="M322.75,-101.95C310.31,-99.62 297.46,-97.2 285.37,-94.94"/>
<polygon fill="#63b8ff" stroke="#63b8ff" points="322.07,-105.39 332.55,-103.79 323.36,-98.51 322.07,-105.39"/>
</a>
</g>
</g>
<!-- Node6 -->
<g id="Node000006" class="node">
<title>Node6</title>
<g id="a_Node000006"><a xlink:href="namespace_py_p_s_a-_g_b_1_1renewables__atlite.html#aaecc1262ac8d361cd646c7e8e6c793da" target="_top" xlink:title=" ">
<polygon fill="white" stroke="#666666" points="285.12,-44 167.12,-44 167.12,0 285.12,0 285.12,-44"/>
<text xml:space="preserve" text-anchor="start" x="175.12" y="-30.5" font-family="Helvetica,sans-Serif" font-size="10.00">PyPSA&#45;GB.renewables</text>
<text xml:space="preserve" text-anchor="start" x="175.12" y="-18.5" font-family="Helvetica,sans-Serif" font-size="10.00">_atlite.offshore_wind</text>
<text xml:space="preserve" text-anchor="middle" x="226.12" y="-6.5" font-family="Helvetica,sans-Serif" font-size="10.00">_pipeline_timeseries</text>
</a>
</g>
</g>
<!-- Node1&#45;&gt;Node6 -->
<g id="edge5_Node000001_Node000006" class="edge">
<title>Node1&#45;&gt;Node6</title>
<g id="a_edge5_Node000001_Node000006"><a xlink:title=" ">
<path fill="none" stroke="#63b8ff" d="M352.09,-86.32C335.77,-75.25 316.49,-62.9 298.25,-53 292.8,-50.05 287.02,-47.15 281.19,-44.39"/>
<polygon fill="#63b8ff" stroke="#63b8ff" points="349.85,-89.02 360.08,-91.8 353.81,-83.25 349.85,-89.02"/>
</a>
</g>
</g>
<!-- Node3 -->
<g id="Node000003" class="node">
<title>Node3</title>
<g id="a_Node000003"><a xlink:href="namespace_py_p_s_a-_g_b_1_1renewables__atlite.html#a20a6f55cf3decf3336f8ee481f95b7f7" target="_top" xlink:title=" ">
<polygon fill="white" stroke="#666666" points="118,-224 0,-224 0,-180 118,-180 118,-224"/>
<text xml:space="preserve" text-anchor="start" x="8" y="-210.5" font-family="Helvetica,sans-Serif" font-size="10.00">PyPSA&#45;GB.renewables</text>
<text xml:space="preserve" text-anchor="start" x="8" y="-198.5" font-family="Helvetica,sans-Serif" font-size="10.00">_atlite.multiple_years</text>
<text xml:space="preserve" text-anchor="middle" x="59" y="-186.5" font-family="Helvetica,sans-Serif" font-size="10.00">_offshore_wind</text>
</a>
</g>
</g>
<!-- Node2&#45;&gt;Node3 -->
<g id="edge2_Node000002_Node000003" class="edge">
<title>Node2&#45;&gt;Node3</title>
<g id="a_edge2_Node000002_Node000003"><a xlink:title=" ">
<path fill="none" stroke="#63b8ff" d="M142.29,-202C134.23,-202 126.17,-202 118.42,-202"/>
<polygon fill="#63b8ff" stroke="#63b8ff" points="142.15,-205.5 152.15,-202 142.15,-198.5 142.15,-205.5"/>
</a>
</g>
</g>
</g>
</svg>
