<?xml version="1.0" encoding="UTF-8" standalone="no"?>
<!DOCTYPE svg PUBLIC "-//W3C//DTD SVG 1.1//EN"
 "http://www.w3.org/Graphics/SVG/1.1/DTD/svg11.dtd">
<!-- Generated by graphviz version 13.1.2 (20250808.2320)
 -->
<!-- Title: cleaning.unify_index Pages: 1 -->
<svg width="270pt" height="66pt"
 viewBox="0.00 0.00 270.00 66.00" xmlns="http://www.w3.org/2000/svg" xmlns:xlink="http://www.w3.org/1999/xlink">
<g id="graph0" class="graph" transform="scale(1 1) rotate(0) translate(4 62)">
<title>cleaning.unify_index</title>
<!-- Node1 -->
<g id="Node000001" class="node">
<title>Node1</title>
<g id="a_Node000001"><a xlink:title="Method to unify the indices of all dataframes in dfs.">
<polygon fill="#999999" stroke="#666666" points="104.5,-39 0,-39 0,-19 104.5,-19 104.5,-39"/>
<text xml:space="preserve" text-anchor="middle" x="52.25" y="-25.5" font-family="Helvetica,sans-Serif" font-size="10.00">cleaning.unify_index</text>
</a>
</g>
</g>
<!-- Node2 -->
<g id="Node000002" class="node">
<title>Node2</title>
<g id="a_Node000002"><a xlink:href="namespacecleaning.html#ab9099aa63c5420896734f446ab64a1d3" target="_top" xlink:title="Some data might not be available for the full range of snapshots, so snapshots has the largest set of...">
<polygon fill="white" stroke="#666666" points="258.88,-58 143.12,-58 143.12,-38 258.88,-38 258.88,-58"/>
<text xml:space="preserve" text-anchor="middle" x="201" y="-44.5" font-family="Helvetica,sans-Serif" font-size="10.00">cleaning.fix_snapshots</text>
</a>
</g>
</g>
<!-- Node1&#45;&gt;Node2 -->
<g id="edge1_Node000001_Node000002" class="edge">
<title>Node1&#45;&gt;Node2</title>
<g id="a_edge1_Node000001_Node000002"><a xlink:title=" ">
<path fill="none" stroke="#63b8ff" d="M104.99,-35.7C113.58,-36.81 122.6,-37.98 131.52,-39.13"/>
<polygon fill="#63b8ff" stroke="#63b8ff" points="130.87,-42.58 141.23,-40.39 131.77,-35.64 130.87,-42.58"/>
</a>
</g>
</g>
<!-- Node3 -->
<g id="Node000003" class="node">
<title>Node3</title>
<g id="a_Node000003"><a xlink:href="namespacecleaning.html#a5a0f958b4cba953a92b2858a3896377e" target="_top" xlink:title="If the last two rows have the same value, the last row will be removed The fixed dataframe will be re...">
<polygon fill="white" stroke="#666666" points="261.5,-20 140.5,-20 140.5,0 261.5,0 261.5,-20"/>
<text xml:space="preserve" text-anchor="middle" x="201" y="-6.5" font-family="Helvetica,sans-Serif" font-size="10.00">cleaning.remove_double</text>
</a>
</g>
</g>
<!-- Node1&#45;&gt;Node3 -->
<g id="edge2_Node000001_Node000003" class="edge">
<title>Node1&#45;&gt;Node3</title>
<g id="a_edge2_Node000001_Node000003"><a xlink:title=" ">
<path fill="none" stroke="#63b8ff" d="M104.99,-22.3C112.73,-21.3 120.82,-20.25 128.88,-19.21"/>
<polygon fill="#63b8ff" stroke="#63b8ff" points="129.23,-22.69 138.7,-17.94 128.34,-15.75 129.23,-22.69"/>
</a>
</g>
</g>
</g>
</svg>
