<?xml version="1.0" encoding="UTF-8" standalone="no"?>
<!DOCTYPE svg PUBLIC "-//W3C//DTD SVG 1.1//EN"
 "http://www.w3.org/Graphics/SVG/1.1/DTD/svg11.dtd">
<!-- Generated by graphviz version 13.1.2 (20250808.2320)
 -->
<!-- Title: PyPSA&#45;GB.marine_scenarios.read_floating_wind Pages: 1 -->
<svg width="598pt" height="40pt"
 viewBox="0.00 0.00 598.00 40.00" xmlns="http://www.w3.org/2000/svg" xmlns:xlink="http://www.w3.org/1999/xlink">
<g id="graph0" class="graph" transform="scale(1 1) rotate(0) translate(4 36)">
<title>PyPSA&#45;GB.marine_scenarios.read_floating_wind</title>
<!-- Node1 -->
<g id="Node000001" class="node">
<title>Node1</title>
<g id="a_Node000001"><a xlink:title=" ">
<polygon fill="#999999" stroke="#666666" points="590.25,-32 423.5,-32 423.5,0 590.25,0 590.25,-32"/>
<text xml:space="preserve" text-anchor="start" x="431.5" y="-18.5" font-family="Helvetica,sans-Serif" font-size="10.00">PyPSA&#45;GB.marine_scenarios.read</text>
<text xml:space="preserve" text-anchor="middle" x="506.88" y="-6.5" font-family="Helvetica,sans-Serif" font-size="10.00">_floating_wind</text>
</a>
</g>
</g>
<!-- Node2 -->
<g id="Node000002" class="node">
<title>Node2</title>
<g id="a_Node000002"><a xlink:href="namespace_py_p_s_a-_g_b_1_1marine__scenarios.html#af2d788679bec120df819a5b078b6f172" target="_top" xlink:title=" ">
<polygon fill="white" stroke="#666666" points="387.5,-32 210.25,-32 210.25,0 387.5,0 387.5,-32"/>
<text xml:space="preserve" text-anchor="start" x="218.25" y="-18.5" font-family="Helvetica,sans-Serif" font-size="10.00">PyPSA&#45;GB.marine_scenarios.rewrite</text>
<text xml:space="preserve" text-anchor="middle" x="298.88" y="-6.5" font-family="Helvetica,sans-Serif" font-size="10.00">_generators_for_marine</text>
</a>
</g>
</g>
<!-- Node1&#45;&gt;Node2 -->
<g id="edge1_Node000001_Node000002" class="edge">
<title>Node1&#45;&gt;Node2</title>
<g id="a_edge1_Node000001_Node000002"><a xlink:title=" ">
<path fill="none" stroke="#63b8ff" d="M412,-16C403.97,-16 395.87,-16 387.89,-16"/>
<polygon fill="#63b8ff" stroke="#63b8ff" points="411.76,-19.5 421.76,-16 411.76,-12.5 411.76,-19.5"/>
</a>
</g>
</g>
<!-- Node3 -->
<g id="Node000003" class="node">
<title>Node3</title>
<g id="a_Node000003"><a xlink:href="namespace_py_p_s_a-_g_b_1_1marine__scenarios.html#aee731efcba3880e6e2c1ce0fdcb1d121" target="_top" xlink:title=" ">
<polygon fill="white" stroke="#666666" points="174.25,-32 0,-32 0,0 174.25,0 174.25,-32"/>
<text xml:space="preserve" text-anchor="start" x="8" y="-18.5" font-family="Helvetica,sans-Serif" font-size="10.00">PyPSA&#45;GB.marine_scenarios.check</text>
<text xml:space="preserve" text-anchor="middle" x="87.12" y="-6.5" font-family="Helvetica,sans-Serif" font-size="10.00">_consistency_with_p_max_pu</text>
</a>
</g>
</g>
<!-- Node2&#45;&gt;Node3 -->
<g id="edge2_Node000002_Node000003" class="edge">
<title>Node2&#45;&gt;Node3</title>
<g id="a_edge2_Node000002_Node000003"><a xlink:title=" ">
<path fill="none" stroke="#63b8ff" d="M198.56,-16C190.55,-16 182.5,-16 174.6,-16"/>
<polygon fill="#63b8ff" stroke="#63b8ff" points="198.32,-19.5 208.32,-16 198.32,-12.5 198.32,-19.5"/>
</a>
</g>
</g>
</g>
</svg>
