<?xml version="1.0" encoding="UTF-8" standalone="no"?>
<!DOCTYPE svg PUBLIC "-//W3C//DTD SVG 1.1//EN"
 "http://www.w3.org/Graphics/SVG/1.1/DTD/svg11.dtd">
<!-- Generated by graphviz version 13.1.2 (20250808.2320)
 -->
<!-- Title: PyPSA&#45;GB.marginal_costs.fuel_prices_df Pages: 1 -->
<svg width="566pt" height="40pt"
 viewBox="0.00 0.00 566.00 40.00" xmlns="http://www.w3.org/2000/svg" xmlns:xlink="http://www.w3.org/1999/xlink">
<g id="graph0" class="graph" transform="scale(1 1) rotate(0) translate(4 36)">
<title>PyPSA&#45;GB.marginal_costs.fuel_prices_df</title>
<!-- Node1 -->
<g id="Node000001" class="node">
<title>Node1</title>
<g id="a_Node000001"><a xlink:title=" ">
<polygon fill="#999999" stroke="#666666" points="558,-32 404.75,-32 404.75,0 558,0 558,-32"/>
<text xml:space="preserve" text-anchor="start" x="412.75" y="-18.5" font-family="Helvetica,sans-Serif" font-size="10.00">PyPSA&#45;GB.marginal_costs.fuel</text>
<text xml:space="preserve" text-anchor="middle" x="481.38" y="-6.5" font-family="Helvetica,sans-Serif" font-size="10.00">_prices_df</text>
</a>
</g>
</g>
<!-- Node2 -->
<g id="Node000002" class="node">
<title>Node2</title>
<g id="a_Node000002"><a xlink:href="namespace_py_p_s_a-_g_b_1_1marginal__costs.html#aaf490209e76d2141dac9d24645c3a74a" target="_top" xlink:title=" ">
<polygon fill="white" stroke="#666666" points="368.75,-32 194.5,-32 194.5,0 368.75,0 368.75,-32"/>
<text xml:space="preserve" text-anchor="start" x="202.5" y="-18.5" font-family="Helvetica,sans-Serif" font-size="10.00">PyPSA&#45;GB.marginal_costs.marginal</text>
<text xml:space="preserve" text-anchor="middle" x="281.62" y="-6.5" font-family="Helvetica,sans-Serif" font-size="10.00">_price_dataframe</text>
</a>
</g>
</g>
<!-- Node1&#45;&gt;Node2 -->
<g id="edge1_Node000001_Node000002" class="edge">
<title>Node1&#45;&gt;Node2</title>
<g id="a_edge1_Node000001_Node000002"><a xlink:title=" ">
<path fill="none" stroke="#63b8ff" d="M393,-16C385.1,-16 377.1,-16 369.2,-16"/>
<polygon fill="#63b8ff" stroke="#63b8ff" points="392.97,-19.5 402.97,-16 392.97,-12.5 392.97,-19.5"/>
</a>
</g>
</g>
<!-- Node3 -->
<g id="Node000003" class="node">
<title>Node3</title>
<g id="a_Node000003"><a xlink:href="namespace_py_p_s_a-_g_b_1_1marginal__costs.html#a3532d231b790e77fbd93d5b2a8cd984d" target="_top" xlink:title=" ">
<polygon fill="white" stroke="#666666" points="158.5,-32 0,-32 0,0 158.5,0 158.5,-32"/>
<text xml:space="preserve" text-anchor="start" x="8" y="-18.5" font-family="Helvetica,sans-Serif" font-size="10.00">PyPSA&#45;GB.marginal_costs.write</text>
<text xml:space="preserve" text-anchor="middle" x="79.25" y="-6.5" font-family="Helvetica,sans-Serif" font-size="10.00">_marginal_costs_series</text>
</a>
</g>
</g>
<!-- Node2&#45;&gt;Node3 -->
<g id="edge2_Node000002_Node000003" class="edge">
<title>Node2&#45;&gt;Node3</title>
<g id="a_edge2_Node000002_Node000003"><a xlink:title=" ">
<path fill="none" stroke="#63b8ff" d="M182.84,-16C174.78,-16 166.7,-16 158.81,-16"/>
<polygon fill="#63b8ff" stroke="#63b8ff" points="182.68,-19.5 192.68,-16 182.68,-12.5 182.68,-19.5"/>
</a>
</g>
</g>
</g>
</svg>
