<?xml version="1.0" encoding="UTF-8" standalone="no"?>
<!DOCTYPE svg PUBLIC "-//W3C//DTD SVG 1.1//EN"
 "http://www.w3.org/Graphics/SVG/1.1/DTD/svg11.dtd">
<!-- Generated by graphviz version 13.1.2 (20250808.2320)
 -->
<!-- Title: PyPSA&#45;GB.renewables_atlite.multiple_years_onshore_wind Pages: 1 -->
<svg width="466pt" height="96pt"
 viewBox="0.00 0.00 466.00 96.00" xmlns="http://www.w3.org/2000/svg" xmlns:xlink="http://www.w3.org/1999/xlink">
<g id="graph0" class="graph" transform="scale(1 1) rotate(0) translate(4 92)">
<title>PyPSA&#45;GB.renewables_atlite.multiple_years_onshore_wind</title>
<!-- Node1 -->
<g id="Node000001" class="node">
<title>Node1</title>
<g id="a_Node000001"><a xlink:title=" ">
<polygon fill="#999999" stroke="#666666" points="118,-63 0,-63 0,-19 118,-19 118,-63"/>
<text xml:space="preserve" text-anchor="start" x="8" y="-49.5" font-family="Helvetica,sans-Serif" font-size="10.00">PyPSA&#45;GB.renewables</text>
<text xml:space="preserve" text-anchor="start" x="8" y="-37.5" font-family="Helvetica,sans-Serif" font-size="10.00">_atlite.multiple_years</text>
<text xml:space="preserve" text-anchor="middle" x="59" y="-25.5" font-family="Helvetica,sans-Serif" font-size="10.00">_onshore_wind</text>
</a>
</g>
</g>
<!-- Node2 -->
<g id="Node000002" class="node">
<title>Node2</title>
<g id="a_Node000002"><a xlink:href="namespace_py_p_s_a-_g_b_1_1renewables__atlite.html#a644e8b45eadea89331b2b97988769811" target="_top" xlink:title=" ">
<polygon fill="white" stroke="#666666" points="301.25,-82 157,-82 157,-50 301.25,-50 301.25,-82"/>
<text xml:space="preserve" text-anchor="start" x="165" y="-68.5" font-family="Helvetica,sans-Serif" font-size="10.00">PyPSA&#45;GB.renewables</text>
<text xml:space="preserve" text-anchor="middle" x="229.12" y="-56.5" font-family="Helvetica,sans-Serif" font-size="10.00">_atlite.multiple_onshore_wind</text>
</a>
</g>
</g>
<!-- Node1&#45;&gt;Node2 -->
<g id="edge1_Node000001_Node000002" class="edge">
<title>Node1&#45;&gt;Node2</title>
<g id="a_edge1_Node000001_Node000002"><a xlink:title=" ">
<path fill="none" stroke="#63b8ff" d="M118.33,-49.67C127.1,-50.98 136.27,-52.34 145.43,-53.7"/>
<polygon fill="#63b8ff" stroke="#63b8ff" points="144.66,-57.13 155.06,-55.14 145.69,-50.2 144.66,-57.13"/>
</a>
</g>
</g>
<!-- Node4 -->
<g id="Node000004" class="node">
<title>Node4</title>
<g id="a_Node000004"><a xlink:href="namespace_py_p_s_a-_g_b_1_1renewables__atlite.html#a195d9e209a9317b0bab123c9567e8bb0" target="_top" xlink:title=" ">
<polygon fill="white" stroke="#666666" points="304.25,-32 154,-32 154,0 304.25,0 304.25,-32"/>
<text xml:space="preserve" text-anchor="start" x="162" y="-18.5" font-family="Helvetica,sans-Serif" font-size="10.00">PyPSA&#45;GB.renewables</text>
<text xml:space="preserve" text-anchor="middle" x="229.12" y="-6.5" font-family="Helvetica,sans-Serif" font-size="10.00">_atlite.onshore_historical_sites</text>
</a>
</g>
</g>
<!-- Node1&#45;&gt;Node4 -->
<g id="edge3_Node000001_Node000004" class="edge">
<title>Node1&#45;&gt;Node4</title>
<g id="a_edge3_Node000001_Node000004"><a xlink:title=" ">
<path fill="none" stroke="#63b8ff" d="M118.33,-32.33C126.15,-31.16 134.31,-29.95 142.48,-28.74"/>
<polygon fill="#63b8ff" stroke="#63b8ff" points="142.74,-32.24 152.11,-27.3 141.71,-25.31 142.74,-32.24"/>
</a>
</g>
</g>
<!-- Node3 -->
<g id="Node000003" class="node">
<title>Node3</title>
<g id="a_Node000003"><a xlink:href="namespace_py_p_s_a-_g_b_1_1renewables__atlite.html#acc7a733e1139d31db8df3468c95a4573" target="_top" xlink:title=" ">
<polygon fill="white" stroke="#666666" points="458.25,-88 340.25,-88 340.25,-44 458.25,-44 458.25,-88"/>
<text xml:space="preserve" text-anchor="start" x="348.25" y="-74.5" font-family="Helvetica,sans-Serif" font-size="10.00">PyPSA&#45;GB.renewables</text>
<text xml:space="preserve" text-anchor="start" x="348.25" y="-62.5" font-family="Helvetica,sans-Serif" font-size="10.00">_atlite.onshore_wind</text>
<text xml:space="preserve" text-anchor="middle" x="399.25" y="-50.5" font-family="Helvetica,sans-Serif" font-size="10.00">_farm_timeseries</text>
</a>
</g>
</g>
<!-- Node2&#45;&gt;Node3 -->
<g id="edge2_Node000002_Node000003" class="edge">
<title>Node2&#45;&gt;Node3</title>
<g id="a_edge2_Node000002_Node000003"><a xlink:title=" ">
<path fill="none" stroke="#63b8ff" d="M301.43,-66C310.32,-66 319.42,-66 328.3,-66"/>
<polygon fill="#63b8ff" stroke="#63b8ff" points="328.29,-69.5 338.29,-66 328.29,-62.5 328.29,-69.5"/>
</a>
</g>
</g>
</g>
</svg>
