<?xml version="1.0" encoding="UTF-8" standalone="no"?>
<!DOCTYPE svg PUBLIC "-//W3C//DTD SVG 1.1//EN"
 "http://www.w3.org/Graphics/SVG/1.1/DTD/svg11.dtd">
<!-- Generated by graphviz version 13.1.2 (20250808.2320)
 -->
<!-- Title: PyPSA&#45;GB.scotland_LOLP.get_rate Pages: 1 -->
<svg width="576pt" height="66pt"
 viewBox="0.00 0.00 576.00 66.00" xmlns="http://www.w3.org/2000/svg" xmlns:xlink="http://www.w3.org/1999/xlink">
<g id="graph0" class="graph" transform="scale(1 1) rotate(0) translate(4 62)">
<title>PyPSA&#45;GB.scotland_LOLP.get_rate</title>
<!-- Node1 -->
<g id="Node000001" class="node">
<title>Node1</title>
<g id="a_Node000001"><a xlink:title=" ">
<polygon fill="#999999" stroke="#666666" points="567.75,-39 395.75,-39 395.75,-19 567.75,-19 567.75,-39"/>
<text xml:space="preserve" text-anchor="middle" x="481.75" y="-25.5" font-family="Helvetica,sans-Serif" font-size="10.00">PyPSA&#45;GB.scotland_LOLP.get_rate</text>
</a>
</g>
</g>
<!-- Node2 -->
<g id="Node000002" class="node">
<title>Node2</title>
<g id="a_Node000002"><a xlink:href="namespace_py_p_s_a-_g_b_1_1scotland___l_o_l_p.html#a9aba835fb14f446d6841a5aead2bdb93" target="_top" xlink:title=" ">
<polygon fill="white" stroke="#666666" points="357.5,-58 196,-58 196,-38 357.5,-38 357.5,-58"/>
<text xml:space="preserve" text-anchor="middle" x="276.75" y="-44.5" font-family="Helvetica,sans-Serif" font-size="10.00">PyPSA&#45;GB.scotland_LOLP.LOLP</text>
</a>
</g>
</g>
<!-- Node1&#45;&gt;Node2 -->
<g id="edge1_Node000001_Node000002" class="edge">
<title>Node1&#45;&gt;Node2</title>
<g id="a_edge1_Node000001_Node000002"><a xlink:title=" ">
<path fill="none" stroke="#63b8ff" d="M384.36,-38.02C375.49,-38.85 366.58,-39.69 357.88,-40.5"/>
<polygon fill="#63b8ff" stroke="#63b8ff" points="384.4,-41.53 394.04,-37.12 383.75,-34.56 384.4,-41.53"/>
</a>
</g>
</g>
<!-- Node4 -->
<g id="Node000004" class="node">
<title>Node4</title>
<g id="a_Node000004"><a xlink:href="namespace_py_p_s_a-_g_b_1_1scotland___l_o_l_p.html#a7b5ade3fd63cacaec5c45e9d79738cb2" target="_top" xlink:title=" ">
<polygon fill="white" stroke="#666666" points="359.75,-20 193.75,-20 193.75,0 359.75,0 359.75,-20"/>
<text xml:space="preserve" text-anchor="middle" x="276.75" y="-6.5" font-family="Helvetica,sans-Serif" font-size="10.00">PyPSA&#45;GB.scotland_LOLP.Margin</text>
</a>
</g>
</g>
<!-- Node1&#45;&gt;Node4 -->
<g id="edge3_Node000001_Node000004" class="edge">
<title>Node1&#45;&gt;Node4</title>
<g id="a_edge3_Node000001_Node000004"><a xlink:title=" ">
<path fill="none" stroke="#63b8ff" d="M384.21,-19.96C376.16,-19.21 368.07,-18.45 360.14,-17.71"/>
<polygon fill="#63b8ff" stroke="#63b8ff" points="383.75,-23.44 394.04,-20.88 384.4,-16.47 383.75,-23.44"/>
</a>
</g>
</g>
<!-- Node3 -->
<g id="Node000003" class="node">
<title>Node3</title>
<g id="a_Node000003"><a xlink:href="namespace_py_p_s_a-_g_b_1_1scotland___l_o_l_p.html#a36d627c03bea31c0876bb8768747b1f0" target="_top" xlink:title=" ">
<polygon fill="white" stroke="#666666" points="157.75,-39 0,-39 0,-19 157.75,-19 157.75,-39"/>
<text xml:space="preserve" text-anchor="middle" x="78.88" y="-25.5" font-family="Helvetica,sans-Serif" font-size="10.00">PyPSA&#45;GB.scotland_LOLP.main</text>
</a>
</g>
</g>
<!-- Node2&#45;&gt;Node3 -->
<g id="edge2_Node000002_Node000003" class="edge">
<title>Node2&#45;&gt;Node3</title>
<g id="a_edge2_Node000002_Node000003"><a xlink:title=" ">
<path fill="none" stroke="#63b8ff" d="M184.13,-39.11C175.42,-38.27 166.65,-37.42 158.09,-36.59"/>
<polygon fill="#63b8ff" stroke="#63b8ff" points="183.72,-42.59 194.01,-40.07 184.39,-35.62 183.72,-42.59"/>
</a>
</g>
</g>
<!-- Node4&#45;&gt;Node3 -->
<g id="edge4_Node000004_Node000003" class="edge">
<title>Node4&#45;&gt;Node3</title>
<g id="a_edge4_Node000004_Node000003"><a xlink:title=" ">
<path fill="none" stroke="#63b8ff" d="M182.19,-19.08C174.14,-19.86 166.04,-20.64 158.13,-21.41"/>
<polygon fill="#63b8ff" stroke="#63b8ff" points="182.41,-22.57 192.03,-18.12 181.74,-15.6 182.41,-22.57"/>
</a>
</g>
</g>
</g>
</svg>
