<?xml version="1.0" encoding="UTF-8" standalone="no"?>
<!DOCTYPE svg PUBLIC "-//W3C//DTD SVG 1.1//EN"
 "http://www.w3.org/Graphics/SVG/1.1/DTD/svg11.dtd">
<!-- Generated by graphviz version 13.1.2 (20250808.2320)
 -->
<!-- Title: PyPSA&#45;GB.distance_calculator.map_to_bus Pages: 1 -->
<svg width="634pt" height="40pt"
 viewBox="0.00 0.00 634.00 40.00" xmlns="http://www.w3.org/2000/svg" xmlns:xlink="http://www.w3.org/1999/xlink">
<g id="graph0" class="graph" transform="scale(1 1) rotate(0) translate(4 36)">
<title>PyPSA&#45;GB.distance_calculator.map_to_bus</title>
<!-- Node1 -->
<g id="Node000001" class="node">
<title>Node1</title>
<g id="a_Node000001"><a xlink:title=" ">
<polygon fill="#999999" stroke="#666666" points="174.25,-32 0,-32 0,0 174.25,0 174.25,-32"/>
<text xml:space="preserve" text-anchor="start" x="8" y="-18.5" font-family="Helvetica,sans-Serif" font-size="10.00">PyPSA&#45;GB.distance_calculator.map</text>
<text xml:space="preserve" text-anchor="middle" x="87.12" y="-6.5" font-family="Helvetica,sans-Serif" font-size="10.00">_to_bus</text>
</a>
</g>
</g>
<!-- Node2 -->
<g id="Node000002" class="node">
<title>Node2</title>
<g id="a_Node000002"><a xlink:href="namespace_py_p_s_a-_g_b_1_1distance__calculator.html#ac0a83859c6770a6ea1d2d48edf26d1e2" target="_top" xlink:title=" ">
<polygon fill="white" stroke="#666666" points="397.25,-26 210.25,-26 210.25,-6 397.25,-6 397.25,-26"/>
<text xml:space="preserve" text-anchor="middle" x="303.75" y="-12.5" font-family="Helvetica,sans-Serif" font-size="10.00">PyPSA&#45;GB.distance_calculator.closest</text>
</a>
</g>
</g>
<!-- Node1&#45;&gt;Node2 -->
<g id="edge1_Node000001_Node000002" class="edge">
<title>Node1&#45;&gt;Node2</title>
<g id="a_edge1_Node000001_Node000002"><a xlink:title=" ">
<path fill="none" stroke="#63b8ff" d="M174.49,-16C182.41,-16 190.49,-16 198.54,-16"/>
<polygon fill="#63b8ff" stroke="#63b8ff" points="198.37,-19.5 208.37,-16 198.37,-12.5 198.37,-19.5"/>
</a>
</g>
</g>
<!-- Node3 -->
<g id="Node000003" class="node">
<title>Node3</title>
<g id="a_Node000003"><a xlink:href="namespace_py_p_s_a-_g_b_1_1distance__calculator.html#add793f3cf27cfd42980429b4a77eb932" target="_top" xlink:title=" ">
<polygon fill="white" stroke="#666666" points="625.5,-26 433.25,-26 433.25,-6 625.5,-6 625.5,-26"/>
<text xml:space="preserve" text-anchor="middle" x="529.38" y="-12.5" font-family="Helvetica,sans-Serif" font-size="10.00">PyPSA&#45;GB.distance_calculator.distance</text>
</a>
</g>
</g>
<!-- Node2&#45;&gt;Node3 -->
<g id="edge2_Node000002_Node000003" class="edge">
<title>Node2&#45;&gt;Node3</title>
<g id="a_edge2_Node000002_Node000003"><a xlink:title=" ">
<path fill="none" stroke="#63b8ff" d="M397.64,-16C405.56,-16 413.6,-16 421.61,-16"/>
<polygon fill="#63b8ff" stroke="#63b8ff" points="421.37,-19.5 431.37,-16 421.37,-12.5 421.37,-19.5"/>
</a>
</g>
</g>
</g>
</svg>
