<?xml version="1.0" encoding="UTF-8" standalone="no"?>
<!DOCTYPE svg PUBLIC "-//W3C//DTD SVG 1.1//EN"
 "http://www.w3.org/Graphics/SVG/1.1/DTD/svg11.dtd">
<!-- Generated by graphviz version 13.1.2 (20250808.2320)
 -->
<!-- Title: PyPSA&#45;GB.marine_scenarios.check_consistency_with_p_max_pu Pages: 1 -->
<svg width="598pt" height="140pt"
 viewBox="0.00 0.00 598.00 140.00" xmlns="http://www.w3.org/2000/svg" xmlns:xlink="http://www.w3.org/1999/xlink">
<g id="graph0" class="graph" transform="scale(1 1) rotate(0) translate(4 136)">
<title>PyPSA&#45;GB.marine_scenarios.check_consistency_with_p_max_pu</title>
<!-- Node1 -->
<g id="Node000001" class="node">
<title>Node1</title>
<g id="a_Node000001"><a xlink:title=" ">
<polygon fill="#999999" stroke="#666666" points="174.25,-82 0,-82 0,-50 174.25,-50 174.25,-82"/>
<text xml:space="preserve" text-anchor="start" x="8" y="-68.5" font-family="Helvetica,sans-Serif" font-size="10.00">PyPSA&#45;GB.marine_scenarios.check</text>
<text xml:space="preserve" text-anchor="middle" x="87.12" y="-56.5" font-family="Helvetica,sans-Serif" font-size="10.00">_consistency_with_p_max_pu</text>
</a>
</g>
</g>
<!-- Node2 -->
<g id="Node000002" class="node">
<title>Node2</title>
<g id="a_Node000002"><a xlink:href="namespace_py_p_s_a-_g_b_1_1marine__scenarios.html#af2d788679bec120df819a5b078b6f172" target="_top" xlink:title=" ">
<polygon fill="white" stroke="#666666" points="387.5,-82 210.25,-82 210.25,-50 387.5,-50 387.5,-82"/>
<text xml:space="preserve" text-anchor="start" x="218.25" y="-68.5" font-family="Helvetica,sans-Serif" font-size="10.00">PyPSA&#45;GB.marine_scenarios.rewrite</text>
<text xml:space="preserve" text-anchor="middle" x="298.88" y="-56.5" font-family="Helvetica,sans-Serif" font-size="10.00">_generators_for_marine</text>
</a>
</g>
</g>
<!-- Node1&#45;&gt;Node2 -->
<g id="edge1_Node000001_Node000002" class="edge">
<title>Node1&#45;&gt;Node2</title>
<g id="a_edge1_Node000001_Node000002"><a xlink:title=" ">
<path fill="none" stroke="#63b8ff" d="M174.65,-66C182.55,-66 190.59,-66 198.59,-66"/>
<polygon fill="#63b8ff" stroke="#63b8ff" points="198.34,-69.5 208.34,-66 198.34,-62.5 198.34,-69.5"/>
</a>
</g>
</g>
<!-- Node3 -->
<g id="Node000003" class="node">
<title>Node3</title>
<g id="a_Node000003"><a xlink:href="namespace_py_p_s_a-_g_b_1_1marine__scenarios.html#a0166fdaf70d0a40712971e516e639470" target="_top" xlink:title=" ">
<polygon fill="white" stroke="#666666" points="590.25,-132 423.5,-132 423.5,-100 590.25,-100 590.25,-132"/>
<text xml:space="preserve" text-anchor="start" x="431.5" y="-118.5" font-family="Helvetica,sans-Serif" font-size="10.00">PyPSA&#45;GB.marine_scenarios.read</text>
<text xml:space="preserve" text-anchor="middle" x="506.88" y="-106.5" font-family="Helvetica,sans-Serif" font-size="10.00">_floating_wind</text>
</a>
</g>
</g>
<!-- Node2&#45;&gt;Node3 -->
<g id="edge2_Node000002_Node000003" class="edge">
<title>Node2&#45;&gt;Node3</title>
<g id="a_edge2_Node000002_Node000003"><a xlink:title=" ">
<path fill="none" stroke="#63b8ff" d="M367.61,-82.44C386.62,-87.05 407.45,-92.11 427.04,-96.87"/>
<polygon fill="#63b8ff" stroke="#63b8ff" points="426.08,-100.23 436.63,-99.19 427.73,-93.43 426.08,-100.23"/>
</a>
</g>
</g>
<!-- Node4 -->
<g id="Node000004" class="node">
<title>Node4</title>
<g id="a_Node000004"><a xlink:href="namespace_py_p_s_a-_g_b_1_1marine__scenarios.html#a4b6df9b2570a88ba7c01ac6d377da7d7" target="_top" xlink:title=" ">
<polygon fill="white" stroke="#666666" points="590.25,-82 423.5,-82 423.5,-50 590.25,-50 590.25,-82"/>
<text xml:space="preserve" text-anchor="start" x="431.5" y="-68.5" font-family="Helvetica,sans-Serif" font-size="10.00">PyPSA&#45;GB.marine_scenarios.read</text>
<text xml:space="preserve" text-anchor="middle" x="506.88" y="-56.5" font-family="Helvetica,sans-Serif" font-size="10.00">_tidal_stream</text>
</a>
</g>
</g>
<!-- Node2&#45;&gt;Node4 -->
<g id="edge3_Node000002_Node000004" class="edge">
<title>Node2&#45;&gt;Node4</title>
<g id="a_edge3_Node000002_Node000004"><a xlink:title=" ">
<path fill="none" stroke="#63b8ff" d="M387.84,-66C395.79,-66 403.86,-66 411.87,-66"/>
<polygon fill="#63b8ff" stroke="#63b8ff" points="411.6,-69.5 421.6,-66 411.6,-62.5 411.6,-69.5"/>
</a>
</g>
</g>
<!-- Node5 -->
<g id="Node000005" class="node">
<title>Node5</title>
<g id="a_Node000005"><a xlink:href="namespace_py_p_s_a-_g_b_1_1marine__scenarios.html#a51d44fb5b81f89fd3ecb0e433c82cc88" target="_top" xlink:title=" ">
<polygon fill="white" stroke="#666666" points="590.25,-32 423.5,-32 423.5,0 590.25,0 590.25,-32"/>
<text xml:space="preserve" text-anchor="start" x="431.5" y="-18.5" font-family="Helvetica,sans-Serif" font-size="10.00">PyPSA&#45;GB.marine_scenarios.read</text>
<text xml:space="preserve" text-anchor="middle" x="506.88" y="-6.5" font-family="Helvetica,sans-Serif" font-size="10.00">_wave_power</text>
</a>
</g>
</g>
<!-- Node2&#45;&gt;Node5 -->
<g id="edge4_Node000002_Node000005" class="edge">
<title>Node2&#45;&gt;Node5</title>
<g id="a_edge4_Node000002_Node000005"><a xlink:title=" ">
<path fill="none" stroke="#63b8ff" d="M367.61,-49.56C386.62,-44.95 407.45,-39.89 427.04,-35.13"/>
<polygon fill="#63b8ff" stroke="#63b8ff" points="427.73,-38.57 436.63,-32.81 426.08,-31.77 427.73,-38.57"/>
</a>
</g>
</g>
</g>
</svg>
