<?xml version="1.0" encoding="UTF-8" standalone="no"?>
<!DOCTYPE svg PUBLIC "-//W3C//DTD SVG 1.1//EN"
 "http://www.w3.org/Graphics/SVG/1.1/DTD/svg11.dtd">
<!-- Generated by graphviz version 13.1.2 (20250808.2320)
 -->
<!-- Title: PyPSA&#45;GB.renewables.future_RES_capacity Pages: 1 -->
<svg width="336pt" height="90pt"
 viewBox="0.00 0.00 336.00 90.00" xmlns="http://www.w3.org/2000/svg" xmlns:xlink="http://www.w3.org/1999/xlink">
<g id="graph0" class="graph" transform="scale(1 1) rotate(0) translate(4 86)">
<title>PyPSA&#45;GB.renewables.future_RES_capacity</title>
<!-- Node1 -->
<g id="Node000001" class="node">
<title>Node1</title>
<g id="a_Node000001"><a xlink:title=" ">
<polygon fill="#999999" stroke="#666666" points="327.5,-57 181.75,-57 181.75,-25 327.5,-25 327.5,-57"/>
<text xml:space="preserve" text-anchor="start" x="189.75" y="-43.5" font-family="Helvetica,sans-Serif" font-size="10.00">PyPSA&#45;GB.renewables.future</text>
<text xml:space="preserve" text-anchor="middle" x="254.62" y="-31.5" font-family="Helvetica,sans-Serif" font-size="10.00">_RES_capacity</text>
</a>
</g>
</g>
<!-- Node2 -->
<g id="Node000002" class="node">
<title>Node2</title>
<g id="a_Node000002"><a xlink:href="namespace_py_p_s_a-_g_b_1_1renewables.html#ab167f84d9c45d0e247017c16eff68a5b" target="_top" xlink:title=" ">
<polygon fill="white" stroke="#666666" points="145.75,-82 0,-82 0,-50 145.75,-50 145.75,-82"/>
<text xml:space="preserve" text-anchor="start" x="8" y="-68.5" font-family="Helvetica,sans-Serif" font-size="10.00">PyPSA&#45;GB.renewables.future</text>
<text xml:space="preserve" text-anchor="middle" x="72.88" y="-56.5" font-family="Helvetica,sans-Serif" font-size="10.00">_RES_scale_p_nom</text>
</a>
</g>
</g>
<!-- Node1&#45;&gt;Node2 -->
<g id="edge1_Node000001_Node000002" class="edge">
<title>Node1&#45;&gt;Node2</title>
<g id="a_edge1_Node000001_Node000002"><a xlink:title=" ">
<path fill="none" stroke="#63b8ff" d="M170.04,-52.63C162.03,-53.74 153.95,-54.86 146.06,-55.96"/>
<polygon fill="#63b8ff" stroke="#63b8ff" points="170.37,-56.11 179.79,-51.27 169.4,-49.18 170.37,-56.11"/>
</a>
</g>
</g>
<!-- Node3 -->
<g id="Node000003" class="node">
<title>Node3</title>
<g id="a_Node000003"><a xlink:href="namespace_py_p_s_a-_g_b_1_1renewables.html#acbb0430f9573a9f14482bfe79b3cb699" target="_top" xlink:title=" ">
<polygon fill="white" stroke="#666666" points="145,-32 0.75,-32 0.75,0 145,0 145,-32"/>
<text xml:space="preserve" text-anchor="start" x="8.75" y="-18.5" font-family="Helvetica,sans-Serif" font-size="10.00">PyPSA&#45;GB.renewables.scale</text>
<text xml:space="preserve" text-anchor="middle" x="72.88" y="-6.5" font-family="Helvetica,sans-Serif" font-size="10.00">_biomass_p_nom</text>
</a>
</g>
</g>
<!-- Node1&#45;&gt;Node3 -->
<g id="edge2_Node000001_Node000003" class="edge">
<title>Node1&#45;&gt;Node3</title>
<g id="a_edge2_Node000001_Node000003"><a xlink:title=" ">
<path fill="none" stroke="#63b8ff" d="M170.13,-29.39C161.89,-28.24 153.58,-27.09 145.48,-25.96"/>
<polygon fill="#63b8ff" stroke="#63b8ff" points="169.4,-32.82 179.79,-30.73 170.37,-25.89 169.4,-32.82"/>
</a>
</g>
</g>
</g>
</svg>
