<?xml version="1.0" encoding="UTF-8" standalone="no"?>
<!DOCTYPE svg PUBLIC "-//W3C//DTD SVG 1.1//EN"
 "http://www.w3.org/Graphics/SVG/1.1/DTD/svg11.dtd">
<!-- Generated by graphviz version 13.1.2 (20250808.2320)
 -->
<!-- Title: PyPSA&#45;GB.scotland_LOLP.main Pages: 1 -->
<!--zoomable 316 -->

<svg id="main" version="1.1" xmlns="http://www.w3.org/2000/svg" xmlns:xlink="http://www.w3.org/1999/xlink" xml:space="preserve" onload="init(evt)">

<style type="text/css"><![CDATA[
.node, .edge {opacity: 0.7;}
.node.selected, .edge.selected {opacity: 1;}
.edge:hover path { stroke: red; }
.edge:hover polygon { stroke: red; fill: red; }
]]></style>

<defs>
  <circle id="rim" cx="0" cy="0" r="7"/>
  <circle id="rim2" cx="0" cy="0" r="3.5"/>
  <g id="zoomPlus">
    <use xlink:href="#rim" fill="#404040"><set attributeName="fill" to="#808080" begin="zoomplus.mouseover" end="zoomplus.mouseout"/></use>
    <path d="M-4,0h8M0,-4v8" fill="none" stroke="white" stroke-width="1.5" pointer-events="none"/>
  </g>
  <g id="zoomMin">
    <use xlink:href="#rim" fill="#404040"><set attributeName="fill" to="#808080" begin="zoomminus.mouseover" end="zoomminus.mouseout"/></use>
    <path d="M-4,0h8" fill="none" stroke="white" stroke-width="1.5" pointer-events="none"/>
  </g>
  <g id="arrowUp" transform="translate(30 24)">
    <use xlink:href="#rim"/>
    <path pointer-events="none" fill="none" stroke="white" stroke-width="1.5" d="M0,-3.0v7 M-2.5,-0.5L0,-3.0L2.5,-0.5"/>
  </g>
  <g id="arrowRight" transform="rotate(90) translate(36 -43)">
    <use xlink:href="#rim"/>
    <path pointer-events="none" fill="none" stroke="white" stroke-width="1.5" d="M0,-3.0v7 M-2.5,-0.5L0,-3.0L2.5,-0.5"/>
  </g>
  <g id="arrowDown" transform="rotate(180) translate(-30 -48)">
    <use xlink:href="#rim"/>
    <path pointer-events="none" fill="none" stroke="white" stroke-width="1.5" d="M0,-3.0v7 M-2.5,-0.5L0,-3.0L2.5,-0.5"/>
  </g>
  <g id="arrowLeft" transform="rotate(270) translate(-36 17)">
    <use xlink:href="#rim"/>
    <path pointer-events="none" fill="none" stroke="white" stroke-width="1.5" d="M0,-3.0v7 M-2.5,-0.5L0,-3.0L2.5,-0.5"/>
  </g>
  <g id="resetDef">
    <use xlink:href="#rim2" fill="#404040"><set attributeName="fill" to="#808080" begin="reset.mouseover" end="reset.mouseout"/></use>
  </g>
</defs>
<script type="application/ecmascript">
var viewWidth = 821;
var viewHeight = 316;
var sectionId = 'dynsection-8';
</script>
<script type="application/ecmascript" xlink:href="svg.min.js"/>
<svg id="graph" class="graph">
<g id="viewport">
<title>PyPSA&#45;GB.scotland_LOLP.main</title>
<!-- Node1 -->
<g id="Node000001" class="node">
<title>Node1</title>
<g id="a_Node000001"><a xlink:title=" ">
<polygon fill="#999999" stroke="#666666" points="157.75,-170 0,-170 0,-150 157.75,-150 157.75,-170"/>
<text xml:space="preserve" text-anchor="middle" x="78.88" y="-156.5" font-family="Helvetica,sans-Serif" font-size="10.00">PyPSA&#45;GB.scotland_LOLP.main</text>
</a>
</g>
</g>
<!-- Node2 -->
<g id="Node000002" class="node">
<title>Node2</title>
<g id="a_Node000002"><a xlink:href="namespace_py_p_s_a-_g_b_1_1scotland___l_o_l_p.html#a8126aee3781c674e9c5d449ed6eb25b8" target="_top" xlink:title=" ">
<polygon fill="white" stroke="#666666" points="358.62,-308 209.88,-308 209.88,-276 358.62,-276 358.62,-308"/>
<text xml:space="preserve" text-anchor="start" x="217.88" y="-294.5" font-family="Helvetica,sans-Serif" font-size="10.00">PyPSA&#45;GB.scotland_LOLP.B6</text>
<text xml:space="preserve" text-anchor="middle" x="284.25" y="-282.5" font-family="Helvetica,sans-Serif" font-size="10.00">_scaling</text>
</a>
</g>
</g>
<!-- Node1&#45;&gt;Node2 -->
<g id="edge1_Node000001_Node000002" class="edge">
<title>Node1&#45;&gt;Node2</title>
<g id="a_edge1_Node000001_Node000002"><a xlink:title=" ">
<path fill="none" stroke="#63b8ff" d="M87.81,-170.25C104.86,-191.54 147.2,-240.76 193.75,-267 196.27,-268.42 198.88,-269.77 201.55,-271.04"/>
<polygon fill="#63b8ff" stroke="#63b8ff" points="200.14,-274.24 210.7,-274.99 202.91,-267.81 200.14,-274.24"/>
</a>
</g>
</g>
<!-- Node3 -->
<g id="Node000003" class="node">
<title>Node3</title>
<g id="a_Node000003"><a xlink:href="namespace_py_p_s_a-_g_b_1_1scotland___l_o_l_p.html#a604a390a92920560d7b6e2d921b566a5" target="_top" xlink:title=" ">
<polygon fill="white" stroke="#666666" points="364.25,-258 204.25,-258 204.25,-226 364.25,-226 364.25,-258"/>
<text xml:space="preserve" text-anchor="start" x="212.25" y="-244.5" font-family="Helvetica,sans-Serif" font-size="10.00">PyPSA&#45;GB.scotland_LOLP.loads</text>
<text xml:space="preserve" text-anchor="middle" x="284.25" y="-232.5" font-family="Helvetica,sans-Serif" font-size="10.00">_leap_year</text>
</a>
</g>
</g>
<!-- Node1&#45;&gt;Node3 -->
<g id="edge2_Node000001_Node000003" class="edge">
<title>Node1&#45;&gt;Node3</title>
<g id="a_edge2_Node000001_Node000003"><a xlink:title=" ">
<path fill="none" stroke="#63b8ff" d="M97.92,-170.4C119.97,-182.77 158.69,-203.47 193.75,-217 198.36,-218.78 203.15,-220.49 208.01,-222.13"/>
<polygon fill="#63b8ff" stroke="#63b8ff" points="206.69,-225.38 217.28,-225.11 208.83,-218.71 206.69,-225.38"/>
</a>
</g>
</g>
<!-- Node4 -->
<g id="Node000004" class="node">
<title>Node4</title>
<g id="a_Node000004"><a xlink:href="namespace_py_p_s_a-_g_b_1_1scotland___l_o_l_p.html#a9aba835fb14f446d6841a5aead2bdb93" target="_top" xlink:title=" ">
<polygon fill="white" stroke="#666666" points="365,-208 203.5,-208 203.5,-188 365,-188 365,-208"/>
<text xml:space="preserve" text-anchor="middle" x="284.25" y="-194.5" font-family="Helvetica,sans-Serif" font-size="10.00">PyPSA&#45;GB.scotland_LOLP.LOLP</text>
</a>
</g>
</g>
<!-- Node1&#45;&gt;Node4 -->
<g id="edge3_Node000001_Node000004" class="edge">
<title>Node1&#45;&gt;Node4</title>
<g id="a_edge3_Node000001_Node000004"><a xlink:title=" ">
<path fill="none" stroke="#63b8ff" d="M135.99,-170.48C160.77,-175.12 190.11,-180.6 216.05,-185.44"/>
<polygon fill="#63b8ff" stroke="#63b8ff" points="215.36,-188.88 225.83,-187.27 216.65,-181.99 215.36,-188.88"/>
</a>
</g>
</g>
<!-- Node7 -->
<g id="Node000007" class="node">
<title>Node7</title>
<g id="a_Node000007"><a xlink:href="namespace_py_p_s_a-_g_b_1_1scotland___l_o_l_p.html#a7b5ade3fd63cacaec5c45e9d79738cb2" target="_top" xlink:title=" ">
<polygon fill="white" stroke="#666666" points="367.25,-170 201.25,-170 201.25,-150 367.25,-150 367.25,-170"/>
<text xml:space="preserve" text-anchor="middle" x="284.25" y="-156.5" font-family="Helvetica,sans-Serif" font-size="10.00">PyPSA&#45;GB.scotland_LOLP.Margin</text>
</a>
</g>
</g>
<!-- Node1&#45;&gt;Node7 -->
<g id="edge6_Node000001_Node000007" class="edge">
<title>Node1&#45;&gt;Node7</title>
<g id="a_edge6_Node000001_Node000007"><a xlink:title=" ">
<path fill="none" stroke="#63b8ff" d="M158.21,-160C168.49,-160 179.09,-160 189.59,-160"/>
<polygon fill="#63b8ff" stroke="#63b8ff" points="189.39,-163.5 199.39,-160 189.39,-156.5 189.39,-163.5"/>
</a>
</g>
</g>
<!-- Node8 -->
<g id="Node000008" class="node">
<title>Node8</title>
<g id="a_Node000008"><a xlink:href="namespace_py_p_s_a-_g_b_1_1scotland___l_o_l_p.html#a490efc8bcc92eb16baac2ca4923eaf9b" target="_top" xlink:title=" ">
<polygon fill="white" stroke="#666666" points="374.75,-132 193.75,-132 193.75,-100 374.75,-100 374.75,-132"/>
<text xml:space="preserve" text-anchor="start" x="201.75" y="-118.5" font-family="Helvetica,sans-Serif" font-size="10.00">PyPSA&#45;GB.scotland_LOLP.probability</text>
<text xml:space="preserve" text-anchor="middle" x="284.25" y="-106.5" font-family="Helvetica,sans-Serif" font-size="10.00">_function</text>
</a>
</g>
</g>
<!-- Node1&#45;&gt;Node8 -->
<g id="edge8_Node000001_Node000008" class="edge">
<title>Node1&#45;&gt;Node8</title>
<g id="a_edge8_Node000001_Node000008"><a xlink:title=" ">
<path fill="none" stroke="#63b8ff" d="M128.33,-149.52C148.72,-145.11 173.08,-139.84 196.38,-134.79"/>
<polygon fill="#63b8ff" stroke="#63b8ff" points="196.84,-138.28 205.87,-132.74 195.36,-131.43 196.84,-138.28"/>
</a>
</g>
</g>
<!-- Node10 -->
<g id="Node000010" class="node">
<title>Node10</title>
<g id="a_Node000010"><a xlink:href="namespace_py_p_s_a-_g_b_1_1scotland___l_o_l_p.html#a3a7ef01766150b3ba1e87a2e7cd1aad7" target="_top" xlink:title=" ">
<polygon fill="white" stroke="#666666" points="360.88,-82 207.62,-82 207.62,-50 360.88,-50 360.88,-82"/>
<text xml:space="preserve" text-anchor="start" x="215.62" y="-68.5" font-family="Helvetica,sans-Serif" font-size="10.00">PyPSA&#45;GB.scotland_LOLP.rate</text>
<text xml:space="preserve" text-anchor="middle" x="284.25" y="-56.5" font-family="Helvetica,sans-Serif" font-size="10.00">_table</text>
</a>
</g>
</g>
<!-- Node1&#45;&gt;Node10 -->
<g id="edge10_Node000001_Node000010" class="edge">
<title>Node1&#45;&gt;Node10</title>
<g id="a_edge10_Node000001_Node000010"><a xlink:title=" ">
<path fill="none" stroke="#63b8ff" d="M93.93,-149.74C114.78,-134.93 155.57,-107.53 193.75,-91 197.72,-89.28 201.83,-87.65 206.03,-86.11"/>
<polygon fill="#63b8ff" stroke="#63b8ff" points="206.84,-89.53 215.13,-82.94 204.54,-82.92 206.84,-89.53"/>
</a>
</g>
</g>
<!-- Node11 -->
<g id="Node000011" class="node">
<title>Node11</title>
<g id="a_Node000011"><a xlink:href="namespace_py_p_s_a-_g_b_1_1scotland___l_o_l_p.html#a77c20b6a54e5e9a3cf332fc65e158338" target="_top" xlink:title=" ">
<polygon fill="white" stroke="#666666" points="361.62,-32 206.88,-32 206.88,0 361.62,0 361.62,-32"/>
<text xml:space="preserve" text-anchor="start" x="214.88" y="-18.5" font-family="Helvetica,sans-Serif" font-size="10.00">PyPSA&#45;GB.scotland_LOLP.split</text>
<text xml:space="preserve" text-anchor="middle" x="284.25" y="-6.5" font-family="Helvetica,sans-Serif" font-size="10.00">_generators</text>
</a>
</g>
</g>
<!-- Node1&#45;&gt;Node11 -->
<g id="edge11_Node000001_Node000011" class="edge">
<title>Node1&#45;&gt;Node11</title>
<g id="a_edge11_Node000001_Node000011"><a xlink:title=" ">
<path fill="none" stroke="#63b8ff" d="M86.8,-149.63C102.78,-126.49 144.69,-70.4 193.75,-41 195.94,-39.69 198.21,-38.44 200.52,-37.26"/>
<polygon fill="#63b8ff" stroke="#63b8ff" points="201.97,-40.44 209.61,-33.09 199.06,-34.08 201.97,-40.44"/>
</a>
</g>
</g>
<!-- Node5 -->
<g id="Node000005" class="node">
<title>Node5</title>
<g id="a_Node000005"><a xlink:href="namespace_py_p_s_a-_g_b_1_1scotland___l_o_l_p.html#af2245c2cb1d0a7faeb79d745da4287ef" target="_top" xlink:title=" ">
<polygon fill="white" stroke="#666666" points="583.5,-189 411.5,-189 411.5,-169 583.5,-169 583.5,-189"/>
<text xml:space="preserve" text-anchor="middle" x="497.5" y="-175.5" font-family="Helvetica,sans-Serif" font-size="10.00">PyPSA&#45;GB.scotland_LOLP.get_rate</text>
</a>
</g>
</g>
<!-- Node4&#45;&gt;Node5 -->
<g id="edge4_Node000004_Node000005" class="edge">
<title>Node4&#45;&gt;Node5</title>
<g id="a_edge4_Node000004_Node000005"><a xlink:title=" ">
<path fill="none" stroke="#63b8ff" d="M365.42,-190.79C376.62,-189.78 388.23,-188.74 399.7,-187.71"/>
<polygon fill="#63b8ff" stroke="#63b8ff" points="399.96,-191.2 409.6,-186.82 399.33,-184.23 399.96,-191.2"/>
</a>
</g>
</g>
<!-- Node6 -->
<g id="Node000006" class="node">
<title>Node6</title>
<g id="a_Node000006"><a xlink:href="namespace_py_p_s_a-_g_b_1_1scotland___l_o_l_p.html#a2f9d247207b3213f75f150aca3e003c2" target="_top" xlink:title=" ">
<polygon fill="white" stroke="#666666" points="813.25,-189 620.25,-189 620.25,-169 813.25,-169 813.25,-189"/>
<text xml:space="preserve" text-anchor="middle" x="716.75" y="-175.5" font-family="Helvetica,sans-Serif" font-size="10.00">PyPSA&#45;GB.scotland_LOLP.convert_type</text>
</a>
</g>
</g>
<!-- Node5&#45;&gt;Node6 -->
<g id="edge5_Node000005_Node000006" class="edge">
<title>Node5&#45;&gt;Node6</title>
<g id="a_edge5_Node000005_Node000006"><a xlink:title=" ">
<path fill="none" stroke="#63b8ff" d="M583.74,-179C591.91,-179 600.27,-179 608.62,-179"/>
<polygon fill="#63b8ff" stroke="#63b8ff" points="608.46,-182.5 618.46,-179 608.46,-175.5 608.46,-182.5"/>
</a>
</g>
</g>
<!-- Node7&#45;&gt;Node5 -->
<g id="edge7_Node000007_Node000005" class="edge">
<title>Node7&#45;&gt;Node5</title>
<g id="a_edge7_Node000007_Node000005"><a xlink:title=" ">
<path fill="none" stroke="#63b8ff" d="M367.53,-167.4C378.19,-168.36 389.19,-169.35 400.05,-170.33"/>
<polygon fill="#63b8ff" stroke="#63b8ff" points="399.53,-173.79 409.8,-171.2 400.16,-166.82 399.53,-173.79"/>
</a>
</g>
</g>
<!-- Node9 -->
<g id="Node000009" class="node">
<title>Node9</title>
<g id="a_Node000009"><a xlink:href="namespace_py_p_s_a-_g_b_1_1scotland___l_o_l_p.html#a0dfb78c8b87bdc6bc87f46f15814fad2" target="_top" xlink:title=" ">
<polygon fill="white" stroke="#666666" points="584.25,-126 410.75,-126 410.75,-106 584.25,-106 584.25,-126"/>
<text xml:space="preserve" text-anchor="middle" x="497.5" y="-112.5" font-family="Helvetica,sans-Serif" font-size="10.00">PyPSA&#45;GB.scotland_LOLP.dict_add</text>
</a>
</g>
</g>
<!-- Node8&#45;&gt;Node9 -->
<g id="edge9_Node000008_Node000009" class="edge">
<title>Node8&#45;&gt;Node9</title>
<g id="a_edge9_Node000008_Node000009"><a xlink:title=" ">
<path fill="none" stroke="#63b8ff" d="M375.15,-116C383.08,-116 391.14,-116 399.14,-116"/>
<polygon fill="#63b8ff" stroke="#63b8ff" points="398.87,-119.5 408.87,-116 398.87,-112.5 398.87,-119.5"/>
</a>
</g>
</g>
</g>
</svg>

<g id="navigator" transform="translate(0 0)" fill="#404254">
  <rect fill="#f2f5e9" fill-opacity="0.5" stroke="#606060" stroke-width=".5" x="0" y="0" width="60" height="60"/>
  <use id="zoomplus" xlink:href="#zoomPlus" x="17" y="9" onmousedown="handleZoom(evt,'in')"/>
  <use id="zoomminus" xlink:href="#zoomMin" x="42" y="9" onmousedown="handleZoom(evt,'out')"/>
  <use id="reset" xlink:href="#resetDef" x="30" y="36" onmousedown="handleReset()"/>
   <use id="arrowup" xlink:href="#arrowUp" x="0" y="0" onmousedown="handlePan(0,-1)"/>
  <use id="arrowright" xlink:href="#arrowRight" x="0" y="0" onmousedown="handlePan(1,0)"/>
  <use id="arrowdown" xlink:href="#arrowDown" x="0" y="0" onmousedown="handlePan(0,1)"/>
  <use id="arrowleft" xlink:href="#arrowLeft" x="0" y="0" onmousedown="handlePan(-1,0)"/>
</g>
<svg viewBox="0 0 15 15" width="100%" height="30px" preserveAspectRatio="xMaxYMin meet">
 <g id="arrow_out" transform="scale(0.3 0.3)">
  <a xlink:href="namespace_py_p_s_a-_g_b_1_1scotland___l_o_l_p_a36d627c03bea31c0876bb8768747b1f0_cgraph_org.svg" target="_base">
   <rect id="button" ry="5" rx="5" y="6" x="6" height="38" width="38"
        fill="#f2f5e9" fill-opacity="0.5" stroke="#606060" stroke-width="1.0"/>
   <path id="arrow"
     d="M 11.500037,31.436501 C 11.940474,20.09759 22.043105,11.32322 32.158766,21.979434 L 37.068811,17.246167 C 37.068811,17.246167 37.088388,32 37.088388,32 L 22.160133,31.978069 C 22.160133,31.978069 26.997745,27.140456 26.997745,27.140456 C 18.528582,18.264221 13.291696,25.230495 11.500037,31.436501 z"
     style="fill:#404040;"/>
  </a>
 </g>
</svg>

<style type='text/css'>
<![CDATA[
[data-mouse-over-selected='false'] { opacity: 0.7; }
[data-mouse-over-selected='true']  { opacity: 1.0; }
]]>
</style>
<script type="application/ecmascript"><![CDATA[
document.addEventListener('DOMContentLoaded', (event) => {
  highlightEdges();
  highlightAdjacentNodes();
});
]]></script>
</svg>
