<?xml version="1.0" encoding="UTF-8" standalone="no"?>
<!DOCTYPE svg PUBLIC "-//W3C//DTD SVG 1.1//EN"
 "http://www.w3.org/Graphics/SVG/1.1/DTD/svg11.dtd">
<!-- Generated by graphviz version 13.1.2 (20250808.2320)
 -->
<!-- Title: PyPSA&#45;GB.renewables.future_RES_scale_p_nom Pages: 1 -->
<!--zoomable 128 -->

<svg id="main" version="1.1" xmlns="http://www.w3.org/2000/svg" xmlns:xlink="http://www.w3.org/1999/xlink" xml:space="preserve" onload="init(evt)">

<style type="text/css"><![CDATA[
.node, .edge {opacity: 0.7;}
.node.selected, .edge.selected {opacity: 1;}
.edge:hover path { stroke: red; }
.edge:hover polygon { stroke: red; fill: red; }
]]></style>

<defs>
  <circle id="rim" cx="0" cy="0" r="7"/>
  <circle id="rim2" cx="0" cy="0" r="3.5"/>
  <g id="zoomPlus">
    <use xlink:href="#rim" fill="#404040"><set attributeName="fill" to="#808080" begin="zoomplus.mouseover" end="zoomplus.mouseout"/></use>
    <path d="M-4,0h8M0,-4v8" fill="none" stroke="white" stroke-width="1.5" pointer-events="none"/>
  </g>
  <g id="zoomMin">
    <use xlink:href="#rim" fill="#404040"><set attributeName="fill" to="#808080" begin="zoomminus.mouseover" end="zoomminus.mouseout"/></use>
    <path d="M-4,0h8" fill="none" stroke="white" stroke-width="1.5" pointer-events="none"/>
  </g>
  <g id="arrowUp" transform="translate(30 24)">
    <use xlink:href="#rim"/>
    <path pointer-events="none" fill="none" stroke="white" stroke-width="1.5" d="M0,-3.0v7 M-2.5,-0.5L0,-3.0L2.5,-0.5"/>
  </g>
  <g id="arrowRight" transform="rotate(90) translate(36 -43)">
    <use xlink:href="#rim"/>
    <path pointer-events="none" fill="none" stroke="white" stroke-width="1.5" d="M0,-3.0v7 M-2.5,-0.5L0,-3.0L2.5,-0.5"/>
  </g>
  <g id="arrowDown" transform="rotate(180) translate(-30 -48)">
    <use xlink:href="#rim"/>
    <path pointer-events="none" fill="none" stroke="white" stroke-width="1.5" d="M0,-3.0v7 M-2.5,-0.5L0,-3.0L2.5,-0.5"/>
  </g>
  <g id="arrowLeft" transform="rotate(270) translate(-36 17)">
    <use xlink:href="#rim"/>
    <path pointer-events="none" fill="none" stroke="white" stroke-width="1.5" d="M0,-3.0v7 M-2.5,-0.5L0,-3.0L2.5,-0.5"/>
  </g>
  <g id="resetDef">
    <use xlink:href="#rim2" fill="#404040"><set attributeName="fill" to="#808080" begin="reset.mouseover" end="reset.mouseout"/></use>
  </g>
</defs>
<script type="application/ecmascript">
var viewWidth = 906;
var viewHeight = 128;
var sectionId = 'dynsection-8';
</script>
<script type="application/ecmascript" xlink:href="svg.min.js"/>
<svg id="graph" class="graph">
<g id="viewport">
<title>PyPSA&#45;GB.renewables.future_RES_scale_p_nom</title>
<!-- Node1 -->
<g id="Node000001" class="node">
<title>Node1</title>
<g id="a_Node000001"><a xlink:title=" ">
<polygon fill="#999999" stroke="#666666" points="145.75,-76 0,-76 0,-44 145.75,-44 145.75,-76"/>
<text xml:space="preserve" text-anchor="start" x="8" y="-62.5" font-family="Helvetica,sans-Serif" font-size="10.00">PyPSA&#45;GB.renewables.future</text>
<text xml:space="preserve" text-anchor="middle" x="72.88" y="-50.5" font-family="Helvetica,sans-Serif" font-size="10.00">_RES_scale_p_nom</text>
</a>
</g>
</g>
<!-- Node2 -->
<g id="Node000002" class="node">
<title>Node2</title>
<g id="a_Node000002"><a xlink:href="namespace_py_p_s_a-_g_b_1_1renewables.html#a2c63c9849737caba3540f2db1450b5bf" target="_top" xlink:title=" ">
<polygon fill="white" stroke="#666666" points="327.5,-76 181.75,-76 181.75,-44 327.5,-44 327.5,-76"/>
<text xml:space="preserve" text-anchor="start" x="189.75" y="-62.5" font-family="Helvetica,sans-Serif" font-size="10.00">PyPSA&#45;GB.renewables.future</text>
<text xml:space="preserve" text-anchor="middle" x="254.62" y="-50.5" font-family="Helvetica,sans-Serif" font-size="10.00">_RES_capacity</text>
</a>
</g>
</g>
<!-- Node1&#45;&gt;Node2 -->
<g id="edge1_Node000001_Node000002" class="edge">
<title>Node1&#45;&gt;Node2</title>
<g id="a_edge1_Node000001_Node000002"><a xlink:title=" ">
<path fill="none" stroke="#63b8ff" d="M146.21,-60C154.1,-60 162.18,-60 170.19,-60"/>
<polygon fill="#63b8ff" stroke="#63b8ff" points="169.93,-63.5 179.93,-60 169.93,-56.5 169.93,-63.5"/>
</a>
</g>
</g>
<!-- Node3 -->
<g id="Node000003" class="node">
<title>Node3</title>
<g id="a_Node000003"><a xlink:href="namespace_py_p_s_a-_g_b_1_1renewables.html#a668d4fb16ae5163575a36abcab6074db" target="_top" xlink:title="reads the biomass generators from REPD and converts to dataframe">
<polygon fill="white" stroke="#666666" points="503.25,-120 363.5,-120 363.5,-88 503.25,-88 503.25,-120"/>
<text xml:space="preserve" text-anchor="start" x="371.5" y="-106.5" font-family="Helvetica,sans-Serif" font-size="10.00">PyPSA&#45;GB.renewables.read</text>
<text xml:space="preserve" text-anchor="middle" x="433.38" y="-94.5" font-family="Helvetica,sans-Serif" font-size="10.00">_biomass</text>
</a>
</g>
</g>
<!-- Node2&#45;&gt;Node3 -->
<g id="edge2_Node000002_Node000003" class="edge">
<title>Node2&#45;&gt;Node3</title>
<g id="a_edge2_Node000002_Node000003"><a xlink:title=" ">
<path fill="none" stroke="#63b8ff" d="M321.69,-76.45C332.58,-79.16 343.94,-81.99 355.07,-84.76"/>
<polygon fill="#63b8ff" stroke="#63b8ff" points="354.08,-88.12 364.63,-87.13 355.77,-81.32 354.08,-88.12"/>
</a>
</g>
</g>
<!-- Node4 -->
<g id="Node000004" class="node">
<title>Node4</title>
<g id="a_Node000004"><a xlink:href="namespace_py_p_s_a-_g_b_1_1renewables.html#a721b09963fd339351825ed23035b35c2" target="_top" xlink:title="corrects the REDP (renewable energy planning database) according to year of simulation">
<polygon fill="white" stroke="#666666" points="688.75,-76 539.25,-76 539.25,-44 688.75,-44 688.75,-76"/>
<text xml:space="preserve" text-anchor="start" x="547.25" y="-62.5" font-family="Helvetica,sans-Serif" font-size="10.00">PyPSA&#45;GB.renewables.REPD</text>
<text xml:space="preserve" text-anchor="middle" x="614" y="-50.5" font-family="Helvetica,sans-Serif" font-size="10.00">_date_corrected</text>
</a>
</g>
</g>
<!-- Node2&#45;&gt;Node4 -->
<g id="edge7_Node000002_Node000004" class="edge">
<title>Node2&#45;&gt;Node4</title>
<g id="a_edge7_Node000002_Node000004"><a xlink:title=" ">
<path fill="none" stroke="#63b8ff" d="M327.95,-60C385.62,-60 466.54,-60 527.43,-60"/>
<polygon fill="#63b8ff" stroke="#63b8ff" points="527.43,-63.5 537.43,-60 527.43,-56.5 527.43,-63.5"/>
</a>
</g>
</g>
<!-- Node6 -->
<g id="Node000006" class="node">
<title>Node6</title>
<g id="a_Node000006"><a xlink:href="namespace_py_p_s_a-_g_b_1_1renewables.html#accc64b4fdfc806fe6448933fb8596eb3" target="_top" xlink:title="reads hydro data from REDP">
<polygon fill="white" stroke="#666666" points="503.25,-32 363.5,-32 363.5,0 503.25,0 503.25,-32"/>
<text xml:space="preserve" text-anchor="start" x="371.5" y="-18.5" font-family="Helvetica,sans-Serif" font-size="10.00">PyPSA&#45;GB.renewables.read</text>
<text xml:space="preserve" text-anchor="middle" x="433.38" y="-6.5" font-family="Helvetica,sans-Serif" font-size="10.00">_hydro</text>
</a>
</g>
</g>
<!-- Node2&#45;&gt;Node6 -->
<g id="edge5_Node000002_Node000006" class="edge">
<title>Node2&#45;&gt;Node6</title>
<g id="a_edge5_Node000002_Node000006"><a xlink:title=" ">
<path fill="none" stroke="#63b8ff" d="M321.69,-43.55C332.58,-40.84 343.94,-38.01 355.07,-35.24"/>
<polygon fill="#63b8ff" stroke="#63b8ff" points="355.77,-38.68 364.63,-32.87 354.08,-31.88 355.77,-38.68"/>
</a>
</g>
</g>
<!-- Node3&#45;&gt;Node4 -->
<g id="edge3_Node000003_Node000004" class="edge">
<title>Node3&#45;&gt;Node4</title>
<g id="a_edge3_Node000003_Node000004"><a xlink:title=" ">
<path fill="none" stroke="#63b8ff" d="M501.14,-87.55C512.14,-84.84 523.63,-82.01 534.88,-79.24"/>
<polygon fill="#63b8ff" stroke="#63b8ff" points="535.67,-82.65 544.55,-76.86 534,-75.86 535.67,-82.65"/>
</a>
</g>
</g>
<!-- Node5 -->
<g id="Node000005" class="node">
<title>Node5</title>
<g id="a_Node000005"><a xlink:href="namespace_py_p_s_a-_g_b_1_1renewables.html#ab85ba8dcaf38f80f959156e0c7295a14" target="_top" xlink:title="reads the REDP (renewable energy planning database) and converts to dataframe">
<polygon fill="white" stroke="#666666" points="898.25,-70 724.75,-70 724.75,-50 898.25,-50 898.25,-70"/>
<text xml:space="preserve" text-anchor="middle" x="811.5" y="-56.5" font-family="Helvetica,sans-Serif" font-size="10.00">PyPSA&#45;GB.renewables.read_REPD</text>
</a>
</g>
</g>
<!-- Node4&#45;&gt;Node5 -->
<g id="edge4_Node000004_Node000005" class="edge">
<title>Node4&#45;&gt;Node5</title>
<g id="a_edge4_Node000004_Node000005"><a xlink:title=" ">
<path fill="none" stroke="#63b8ff" d="M689.19,-60C697.04,-60 705.12,-60 713.18,-60"/>
<polygon fill="#63b8ff" stroke="#63b8ff" points="713.05,-63.5 723.05,-60 713.05,-56.5 713.05,-63.5"/>
</a>
</g>
</g>
<!-- Node6&#45;&gt;Node4 -->
<g id="edge6_Node000006_Node000004" class="edge">
<title>Node6&#45;&gt;Node4</title>
<g id="a_edge6_Node000006_Node000004"><a xlink:title=" ">
<path fill="none" stroke="#63b8ff" d="M501.14,-32.45C512.14,-35.16 523.63,-37.99 534.88,-40.76"/>
<polygon fill="#63b8ff" stroke="#63b8ff" points="534,-44.14 544.55,-43.14 535.67,-37.35 534,-44.14"/>
</a>
</g>
</g>
</g>
</svg>

<g id="navigator" transform="translate(0 0)" fill="#404254">
  <rect fill="#f2f5e9" fill-opacity="0.5" stroke="#606060" stroke-width=".5" x="0" y="0" width="60" height="60"/>
  <use id="zoomplus" xlink:href="#zoomPlus" x="17" y="9" onmousedown="handleZoom(evt,'in')"/>
  <use id="zoomminus" xlink:href="#zoomMin" x="42" y="9" onmousedown="handleZoom(evt,'out')"/>
  <use id="reset" xlink:href="#resetDef" x="30" y="36" onmousedown="handleReset()"/>
   <use id="arrowup" xlink:href="#arrowUp" x="0" y="0" onmousedown="handlePan(0,-1)"/>
  <use id="arrowright" xlink:href="#arrowRight" x="0" y="0" onmousedown="handlePan(1,0)"/>
  <use id="arrowdown" xlink:href="#arrowDown" x="0" y="0" onmousedown="handlePan(0,1)"/>
  <use id="arrowleft" xlink:href="#arrowLeft" x="0" y="0" onmousedown="handlePan(-1,0)"/>
</g>
<svg viewBox="0 0 15 15" width="100%" height="30px" preserveAspectRatio="xMaxYMin meet">
 <g id="arrow_out" transform="scale(0.3 0.3)">
  <a xlink:href="namespace_py_p_s_a-_g_b_1_1renewables_ab167f84d9c45d0e247017c16eff68a5b_cgraph_org.svg" target="_base">
   <rect id="button" ry="5" rx="5" y="6" x="6" height="38" width="38"
        fill="#f2f5e9" fill-opacity="0.5" stroke="#606060" stroke-width="1.0"/>
   <path id="arrow"
     d="M 11.500037,31.436501 C 11.940474,20.09759 22.043105,11.32322 32.158766,21.979434 L 37.068811,17.246167 C 37.068811,17.246167 37.088388,32 37.088388,32 L 22.160133,31.978069 C 22.160133,31.978069 26.997745,27.140456 26.997745,27.140456 C 18.528582,18.264221 13.291696,25.230495 11.500037,31.436501 z"
     style="fill:#404040;"/>
  </a>
 </g>
</svg>

<style type='text/css'>
<![CDATA[
[data-mouse-over-selected='false'] { opacity: 0.7; }
[data-mouse-over-selected='true']  { opacity: 1.0; }
]]>
</style>
<script type="application/ecmascript"><![CDATA[
document.addEventListener('DOMContentLoaded', (event) => {
  highlightEdges();
  highlightAdjacentNodes();
});
]]></script>
</svg>
