<?xml version="1.0" encoding="UTF-8" standalone="no"?>
<!DOCTYPE svg PUBLIC "-//W3C//DTD SVG 1.1//EN"
 "http://www.w3.org/Graphics/SVG/1.1/DTD/svg11.dtd">
<!-- Generated by graphviz version 13.1.2 (20250808.2320)
 -->
<!-- Title: PyPSA&#45;GB.renewables.fix_timeseries_res_for_year Pages: 1 -->
<svg width="517pt" height="90pt"
 viewBox="0.00 0.00 517.00 90.00" xmlns="http://www.w3.org/2000/svg" xmlns:xlink="http://www.w3.org/1999/xlink">
<g id="graph0" class="graph" transform="scale(1 1) rotate(0) translate(4 86)">
<title>PyPSA&#45;GB.renewables.fix_timeseries_res_for_year</title>
<!-- Node1 -->
<g id="Node000001" class="node">
<title>Node1</title>
<g id="a_Node000001"><a xlink:title="fixes the timeseries of renewable profiles according to year">
<polygon fill="#999999" stroke="#666666" points="509.25,-57 377.75,-57 377.75,-25 509.25,-25 509.25,-57"/>
<text xml:space="preserve" text-anchor="start" x="385.75" y="-43.5" font-family="Helvetica,sans-Serif" font-size="10.00">PyPSA&#45;GB.renewables.fix</text>
<text xml:space="preserve" text-anchor="middle" x="443.5" y="-31.5" font-family="Helvetica,sans-Serif" font-size="10.00">_timeseries_res_for_year</text>
</a>
</g>
</g>
<!-- Node2 -->
<g id="Node000002" class="node">
<title>Node2</title>
<g id="a_Node000002"><a xlink:href="namespace_py_p_s_a-_g_b_1_1renewables.html#a4b19fbcea0ad3bf7665422779b827419" target="_top" xlink:title=" ">
<polygon fill="white" stroke="#666666" points="341.75,-82 181.75,-82 181.75,-50 341.75,-50 341.75,-82"/>
<text xml:space="preserve" text-anchor="start" x="189.75" y="-68.5" font-family="Helvetica,sans-Serif" font-size="10.00">PyPSA&#45;GB.renewables.historical</text>
<text xml:space="preserve" text-anchor="middle" x="261.75" y="-56.5" font-family="Helvetica,sans-Serif" font-size="10.00">_RES_timeseries</text>
</a>
</g>
</g>
<!-- Node1&#45;&gt;Node2 -->
<g id="edge1_Node000001_Node000002" class="edge">
<title>Node1&#45;&gt;Node2</title>
<g id="a_edge1_Node000001_Node000002"><a xlink:title=" ">
<path fill="none" stroke="#63b8ff" d="M366.19,-51.61C358.21,-52.72 350.09,-53.85 342.07,-54.97"/>
<polygon fill="#63b8ff" stroke="#63b8ff" points="366.43,-55.11 375.85,-50.27 365.47,-48.18 366.43,-55.11"/>
</a>
</g>
</g>
<!-- Node4 -->
<g id="Node000004" class="node">
<title>Node4</title>
<g id="a_Node000004"><a xlink:href="namespace_py_p_s_a-_g_b_1_1renewables.html#a33cae951aca83aaa421e08e09cca8258" target="_top" xlink:title="correction factor to match annual model and actual output for RES generation">
<polygon fill="white" stroke="#666666" points="332.75,-32 190.75,-32 190.75,0 332.75,0 332.75,-32"/>
<text xml:space="preserve" text-anchor="start" x="198.75" y="-18.5" font-family="Helvetica,sans-Serif" font-size="10.00">PyPSA&#45;GB.renewables.RES</text>
<text xml:space="preserve" text-anchor="middle" x="261.75" y="-6.5" font-family="Helvetica,sans-Serif" font-size="10.00">_correction_factors</text>
</a>
</g>
</g>
<!-- Node1&#45;&gt;Node4 -->
<g id="edge3_Node000001_Node000004" class="edge">
<title>Node1&#45;&gt;Node4</title>
<g id="a_edge3_Node000001_Node000004"><a xlink:title=" ">
<path fill="none" stroke="#63b8ff" d="M366.09,-30.37C355.15,-28.85 343.95,-27.29 333.14,-25.79"/>
<polygon fill="#63b8ff" stroke="#63b8ff" points="365.47,-33.82 375.85,-31.73 366.43,-26.89 365.47,-33.82"/>
</a>
</g>
</g>
<!-- Node3 -->
<g id="Node000003" class="node">
<title>Node3</title>
<g id="a_Node000003"><a xlink:href="namespace_py_p_s_a-_g_b_1_1renewables.html#af10ee77cc852d37f7d245ab65d8fe4ec" target="_top" xlink:title=" ">
<polygon fill="white" stroke="#666666" points="145.75,-82 0,-82 0,-50 145.75,-50 145.75,-82"/>
<text xml:space="preserve" text-anchor="start" x="8" y="-68.5" font-family="Helvetica,sans-Serif" font-size="10.00">PyPSA&#45;GB.renewables.future</text>
<text xml:space="preserve" text-anchor="middle" x="72.88" y="-56.5" font-family="Helvetica,sans-Serif" font-size="10.00">_offshore_timeseries</text>
</a>
</g>
</g>
<!-- Node2&#45;&gt;Node3 -->
<g id="edge2_Node000002_Node000003" class="edge">
<title>Node2&#45;&gt;Node3</title>
<g id="a_edge2_Node000002_Node000003"><a xlink:title=" ">
<path fill="none" stroke="#63b8ff" d="M170.15,-66C162.09,-66 154,-66 146.13,-66"/>
<polygon fill="#63b8ff" stroke="#63b8ff" points="169.98,-69.5 179.98,-66 169.98,-62.5 169.98,-69.5"/>
</a>
</g>
</g>
</g>
</svg>
