<?xml version="1.0" encoding="UTF-8" standalone="no"?>
<!DOCTYPE svg PUBLIC "-//W3C//DTD SVG 1.1//EN"
 "http://www.w3.org/Graphics/SVG/1.1/DTD/svg11.dtd">
<!-- Generated by graphviz version 13.1.2 (20250808.2320)
 -->
<!-- Title: PyPSA&#45;GB.generators.read_power_stations_data Pages: 1 -->
<svg width="678pt" height="340pt"
 viewBox="0.00 0.00 678.00 340.00" xmlns="http://www.w3.org/2000/svg" xmlns:xlink="http://www.w3.org/1999/xlink">
<g id="graph0" class="graph" transform="scale(1 1) rotate(0) translate(4 336)">
<title>PyPSA&#45;GB.generators.read_power_stations_data</title>
<!-- Node1 -->
<g id="Node000001" class="node">
<title>Node1</title>
<g id="a_Node000001"><a xlink:title="reads the power station data from prepared csv file">
<polygon fill="#999999" stroke="#666666" points="670,-157 534,-157 534,-125 670,-125 670,-157"/>
<text xml:space="preserve" text-anchor="start" x="542" y="-143.5" font-family="Helvetica,sans-Serif" font-size="10.00">PyPSA&#45;GB.generators.read</text>
<text xml:space="preserve" text-anchor="middle" x="602" y="-131.5" font-family="Helvetica,sans-Serif" font-size="10.00">_power_stations_data</text>
</a>
</g>
</g>
<!-- Node2 -->
<g id="Node000002" class="node">
<title>Node2</title>
<g id="a_Node000002"><a xlink:href="namespace_py_p_s_a-_g_b_1_1generators.html#a6b12c0ee1406972b271db0b986b4cdd7" target="_top" xlink:title=" ">
<polygon fill="white" stroke="#666666" points="498,-182 356,-182 356,-150 498,-150 498,-182"/>
<text xml:space="preserve" text-anchor="start" x="364" y="-168.5" font-family="Helvetica,sans-Serif" font-size="10.00">PyPSA&#45;GB.generators.future</text>
<text xml:space="preserve" text-anchor="middle" x="427" y="-156.5" font-family="Helvetica,sans-Serif" font-size="10.00">_capacity</text>
</a>
</g>
</g>
<!-- Node1&#45;&gt;Node2 -->
<g id="edge1_Node000001_Node000002" class="edge">
<title>Node1&#45;&gt;Node2</title>
<g id="a_edge1_Node000001_Node000002"><a xlink:title=" ">
<path fill="none" stroke="#63b8ff" d="M522.38,-152.36C514.36,-153.52 506.26,-154.69 498.34,-155.84"/>
<polygon fill="#63b8ff" stroke="#63b8ff" points="522.72,-155.85 532.12,-150.95 521.72,-148.92 522.72,-155.85"/>
</a>
</g>
</g>
<!-- Node11 -->
<g id="Node000011" class="node">
<title>Node11</title>
<g id="a_Node000011"><a xlink:href="namespace_py_p_s_a-_g_b_1_1generators.html#a50752663352aef88e94fea7bcddf6f91" target="_top" xlink:title=" ">
<polygon fill="white" stroke="#666666" points="496.12,-132 357.88,-132 357.88,-100 496.12,-100 496.12,-132"/>
<text xml:space="preserve" text-anchor="start" x="365.88" y="-118.5" font-family="Helvetica,sans-Serif" font-size="10.00">PyPSA&#45;GB.generators.write</text>
<text xml:space="preserve" text-anchor="middle" x="427" y="-106.5" font-family="Helvetica,sans-Serif" font-size="10.00">_generators</text>
</a>
</g>
</g>
<!-- Node1&#45;&gt;Node11 -->
<g id="edge16_Node000001_Node000011" class="edge">
<title>Node1&#45;&gt;Node11</title>
<g id="a_edge16_Node000001_Node000011"><a xlink:title=" ">
<path fill="none" stroke="#63b8ff" d="M522.4,-129.64C513.8,-128.4 505.09,-127.14 496.62,-125.92"/>
<polygon fill="#63b8ff" stroke="#63b8ff" points="521.72,-133.08 532.12,-131.05 522.72,-126.15 521.72,-133.08"/>
</a>
</g>
</g>
<!-- Node3 -->
<g id="Node000003" class="node">
<title>Node3</title>
<g id="a_Node000003"><a xlink:href="namespace_py_p_s_a-_g_b_1_1generators.html#a64bb0f4476344b3277d45195bf2872ef" target="_top" xlink:title=" ">
<polygon fill="white" stroke="#666666" points="320,-332 178,-332 178,-300 320,-300 320,-332"/>
<text xml:space="preserve" text-anchor="start" x="186" y="-318.5" font-family="Helvetica,sans-Serif" font-size="10.00">PyPSA&#45;GB.generators.future</text>
<text xml:space="preserve" text-anchor="middle" x="249" y="-306.5" font-family="Helvetica,sans-Serif" font-size="10.00">_biomass_CCS</text>
</a>
</g>
</g>
<!-- Node2&#45;&gt;Node3 -->
<g id="edge2_Node000002_Node000003" class="edge">
<title>Node2&#45;&gt;Node3</title>
<g id="a_edge2_Node000002_Node000003"><a xlink:title=" ">
<path fill="none" stroke="#63b8ff" d="M410.2,-191.7C391.74,-219.73 358.76,-264.18 320,-291 315.33,-294.23 310.2,-297.09 304.9,-299.61"/>
<polygon fill="#63b8ff" stroke="#63b8ff" points="413.04,-193.75 415.5,-183.45 407.15,-189.96 413.04,-193.75"/>
</a>
</g>
</g>
<!-- Node5 -->
<g id="Node000005" class="node">
<title>Node5</title>
<g id="a_Node000005"><a xlink:href="namespace_py_p_s_a-_g_b_1_1generators.html#a865afea22a32e19a35bdeab54eb7d6eb" target="_top" xlink:title=" ">
<polygon fill="white" stroke="#666666" points="320,-282 178,-282 178,-250 320,-250 320,-282"/>
<text xml:space="preserve" text-anchor="start" x="186" y="-268.5" font-family="Helvetica,sans-Serif" font-size="10.00">PyPSA&#45;GB.generators.future</text>
<text xml:space="preserve" text-anchor="middle" x="249" y="-256.5" font-family="Helvetica,sans-Serif" font-size="10.00">_gas_CCS</text>
</a>
</g>
</g>
<!-- Node2&#45;&gt;Node5 -->
<g id="edge4_Node000002_Node000005" class="edge">
<title>Node2&#45;&gt;Node5</title>
<g id="a_edge4_Node000002_Node000005"><a xlink:title=" ">
<path fill="none" stroke="#63b8ff" d="M397.51,-189.41C376.92,-205.49 347.93,-226.48 320,-241 314.05,-244.1 307.62,-246.96 301.17,-249.57"/>
<polygon fill="#63b8ff" stroke="#63b8ff" points="399.5,-192.3 405.16,-183.34 395.15,-186.81 399.5,-192.3"/>
</a>
</g>
</g>
<!-- Node6 -->
<g id="Node000006" class="node">
<title>Node6</title>
<g id="a_Node000006"><a xlink:href="namespace_py_p_s_a-_g_b_1_1generators.html#af4407c1fe4a8417aa0fa310d07924ce4" target="_top" xlink:title=" ">
<polygon fill="white" stroke="#666666" points="320,-232 178,-232 178,-200 320,-200 320,-232"/>
<text xml:space="preserve" text-anchor="start" x="186" y="-218.5" font-family="Helvetica,sans-Serif" font-size="10.00">PyPSA&#45;GB.generators.future</text>
<text xml:space="preserve" text-anchor="middle" x="249" y="-206.5" font-family="Helvetica,sans-Serif" font-size="10.00">_gas_p_nom</text>
</a>
</g>
</g>
<!-- Node2&#45;&gt;Node6 -->
<g id="edge6_Node000002_Node000006" class="edge">
<title>Node2&#45;&gt;Node6</title>
<g id="a_edge6_Node000002_Node000006"><a xlink:title=" ">
<path fill="none" stroke="#63b8ff" d="M357.75,-185.39C341.34,-190.05 323.96,-194.99 308.06,-199.51"/>
<polygon fill="#63b8ff" stroke="#63b8ff" points="358.25,-188.89 366.92,-182.79 356.34,-182.15 358.25,-188.89"/>
</a>
</g>
</g>
<!-- Node7 -->
<g id="Node000007" class="node">
<title>Node7</title>
<g id="a_Node000007"><a xlink:href="namespace_py_p_s_a-_g_b_1_1generators.html#a93b683b6fba745f4a0467f87a130350a" target="_top" xlink:title=" ">
<polygon fill="white" stroke="#666666" points="320,-182 178,-182 178,-150 320,-150 320,-182"/>
<text xml:space="preserve" text-anchor="start" x="186" y="-168.5" font-family="Helvetica,sans-Serif" font-size="10.00">PyPSA&#45;GB.generators.future</text>
<text xml:space="preserve" text-anchor="middle" x="249" y="-156.5" font-family="Helvetica,sans-Serif" font-size="10.00">_hydrogen</text>
</a>
</g>
</g>
<!-- Node2&#45;&gt;Node7 -->
<g id="edge8_Node000002_Node000007" class="edge">
<title>Node2&#45;&gt;Node7</title>
<g id="a_edge8_Node000002_Node000007"><a xlink:title=" ">
<path fill="none" stroke="#63b8ff" d="M344.17,-166C336.26,-166 328.28,-166 320.49,-166"/>
<polygon fill="#63b8ff" stroke="#63b8ff" points="344.17,-169.5 354.17,-166 344.17,-162.5 344.17,-169.5"/>
</a>
</g>
</g>
<!-- Node8 -->
<g id="Node000008" class="node">
<title>Node8</title>
<g id="a_Node000008"><a xlink:href="namespace_py_p_s_a-_g_b_1_1generators.html#a63d7b81380136b07ed39ff2dac358084" target="_top" xlink:title=" ">
<polygon fill="white" stroke="#666666" points="320,-132 178,-132 178,-100 320,-100 320,-132"/>
<text xml:space="preserve" text-anchor="start" x="186" y="-118.5" font-family="Helvetica,sans-Serif" font-size="10.00">PyPSA&#45;GB.generators.future</text>
<text xml:space="preserve" text-anchor="middle" x="249" y="-106.5" font-family="Helvetica,sans-Serif" font-size="10.00">_nuclear_p_nom</text>
</a>
</g>
</g>
<!-- Node2&#45;&gt;Node8 -->
<g id="edge10_Node000002_Node000008" class="edge">
<title>Node2&#45;&gt;Node8</title>
<g id="a_edge10_Node000002_Node000008"><a xlink:title=" ">
<path fill="none" stroke="#63b8ff" d="M357.75,-146.61C341.34,-141.95 323.96,-137.01 308.06,-132.49"/>
<polygon fill="#63b8ff" stroke="#63b8ff" points="356.34,-149.85 366.92,-149.21 358.25,-143.11 356.34,-149.85"/>
</a>
</g>
</g>
<!-- Node9 -->
<g id="Node000009" class="node">
<title>Node9</title>
<g id="a_Node000009"><a xlink:href="namespace_py_p_s_a-_g_b_1_1generators.html#a4254c89c6061ce8719d29adb04fbccb1" target="_top" xlink:title=" ">
<polygon fill="white" stroke="#666666" points="320,-82 178,-82 178,-50 320,-50 320,-82"/>
<text xml:space="preserve" text-anchor="start" x="186" y="-68.5" font-family="Helvetica,sans-Serif" font-size="10.00">PyPSA&#45;GB.generators.future</text>
<text xml:space="preserve" text-anchor="middle" x="249" y="-56.5" font-family="Helvetica,sans-Serif" font-size="10.00">_oil_p_nom</text>
</a>
</g>
</g>
<!-- Node2&#45;&gt;Node9 -->
<g id="edge12_Node000002_Node000009" class="edge">
<title>Node2&#45;&gt;Node9</title>
<g id="a_edge12_Node000002_Node000009"><a xlink:title=" ">
<path fill="none" stroke="#63b8ff" d="M360.19,-143.94C358.75,-143 357.35,-142.02 356,-141 334.12,-124.54 341.88,-107.46 320,-91 315.67,-87.74 310.87,-84.88 305.89,-82.37"/>
<polygon fill="#63b8ff" stroke="#63b8ff" points="358.38,-146.94 368.8,-148.88 361.87,-140.87 358.38,-146.94"/>
</a>
</g>
</g>
<!-- Node10 -->
<g id="Node000010" class="node">
<title>Node10</title>
<g id="a_Node000010"><a xlink:href="namespace_py_p_s_a-_g_b_1_1generators.html#a825bc62921ef5e55e70fe9a77682c82a" target="_top" xlink:title=" ">
<polygon fill="white" stroke="#666666" points="320,-32 178,-32 178,0 320,0 320,-32"/>
<text xml:space="preserve" text-anchor="start" x="186" y="-18.5" font-family="Helvetica,sans-Serif" font-size="10.00">PyPSA&#45;GB.generators.future</text>
<text xml:space="preserve" text-anchor="middle" x="249" y="-6.5" font-family="Helvetica,sans-Serif" font-size="10.00">_waste_p_nom</text>
</a>
</g>
</g>
<!-- Node2&#45;&gt;Node10 -->
<g id="edge14_Node000002_Node000010" class="edge">
<title>Node2&#45;&gt;Node10</title>
<g id="a_edge14_Node000002_Node000010"><a xlink:title=" ">
<path fill="none" stroke="#63b8ff" d="M357.9,-142.8C357.25,-142.22 356.62,-141.62 356,-141 322.56,-107.64 353.44,-74.36 320,-41 316.71,-37.72 312.96,-34.87 308.95,-32.39"/>
<polygon fill="#63b8ff" stroke="#63b8ff" points="355.72,-145.55 365.84,-148.71 359.9,-139.93 355.72,-145.55"/>
</a>
</g>
</g>
<!-- Node4 -->
<g id="Node000004" class="node">
<title>Node4</title>
<g id="a_Node000004"><a xlink:href="namespace_py_p_s_a-_g_b_1_1generators.html#a252d1cb487a2a3c4b225075fe6832a6d" target="_top" xlink:title=" ">
<polygon fill="white" stroke="#666666" points="142,-182 0,-182 0,-150 142,-150 142,-182"/>
<text xml:space="preserve" text-anchor="start" x="8" y="-168.5" font-family="Helvetica,sans-Serif" font-size="10.00">PyPSA&#45;GB.generators.future</text>
<text xml:space="preserve" text-anchor="middle" x="71" y="-156.5" font-family="Helvetica,sans-Serif" font-size="10.00">_p_nom</text>
</a>
</g>
</g>
<!-- Node3&#45;&gt;Node4 -->
<g id="edge3_Node000003_Node000004" class="edge">
<title>Node3&#45;&gt;Node4</title>
<g id="a_edge3_Node000003_Node000004"><a xlink:title=" ">
<path fill="none" stroke="#63b8ff" d="M182.97,-294.2C181.26,-293.18 179.61,-292.11 178,-291 134.48,-260.89 98.24,-208.55 81.68,-182.17"/>
<polygon fill="#63b8ff" stroke="#63b8ff" points="181.29,-297.28 191.76,-298.9 184.59,-291.1 181.29,-297.28"/>
</a>
</g>
</g>
<!-- Node5&#45;&gt;Node4 -->
<g id="edge5_Node000005_Node000004" class="edge">
<title>Node5&#45;&gt;Node4</title>
<g id="a_edge5_Node000005_Node000004"><a xlink:title=" ">
<path fill="none" stroke="#63b8ff" d="M186.34,-245.06C183.49,-243.76 180.7,-242.4 178,-241 145.8,-224.26 112.17,-198.91 91.65,-182.4"/>
<polygon fill="#63b8ff" stroke="#63b8ff" points="184.87,-248.24 195.44,-248.97 187.64,-241.81 184.87,-248.24"/>
</a>
</g>
</g>
<!-- Node6&#45;&gt;Node4 -->
<g id="edge7_Node000006_Node000004" class="edge">
<title>Node6&#45;&gt;Node4</title>
<g id="a_edge7_Node000006_Node000004"><a xlink:title=" ">
<path fill="none" stroke="#63b8ff" d="M179.75,-196.61C163.34,-191.95 145.96,-187.01 130.06,-182.49"/>
<polygon fill="#63b8ff" stroke="#63b8ff" points="178.34,-199.85 188.92,-199.21 180.25,-193.11 178.34,-199.85"/>
</a>
</g>
</g>
<!-- Node7&#45;&gt;Node4 -->
<g id="edge9_Node000007_Node000004" class="edge">
<title>Node7&#45;&gt;Node4</title>
<g id="a_edge9_Node000007_Node000004"><a xlink:title=" ">
<path fill="none" stroke="#63b8ff" d="M166.17,-166C158.26,-166 150.28,-166 142.49,-166"/>
<polygon fill="#63b8ff" stroke="#63b8ff" points="166.17,-169.5 176.17,-166 166.17,-162.5 166.17,-169.5"/>
</a>
</g>
</g>
<!-- Node8&#45;&gt;Node4 -->
<g id="edge11_Node000008_Node000004" class="edge">
<title>Node8&#45;&gt;Node4</title>
<g id="a_edge11_Node000008_Node000004"><a xlink:title=" ">
<path fill="none" stroke="#63b8ff" d="M179.75,-135.39C163.34,-140.05 145.96,-144.99 130.06,-149.51"/>
<polygon fill="#63b8ff" stroke="#63b8ff" points="180.25,-138.89 188.92,-132.79 178.34,-132.15 180.25,-138.89"/>
</a>
</g>
</g>
<!-- Node9&#45;&gt;Node4 -->
<g id="edge13_Node000009_Node000004" class="edge">
<title>Node9&#45;&gt;Node4</title>
<g id="a_edge13_Node000009_Node000004"><a xlink:title=" ">
<path fill="none" stroke="#63b8ff" d="M186.34,-86.94C183.49,-88.24 180.7,-89.6 178,-91 145.8,-107.74 112.17,-133.09 91.65,-149.6"/>
<polygon fill="#63b8ff" stroke="#63b8ff" points="187.64,-90.19 195.44,-83.03 184.87,-83.76 187.64,-90.19"/>
</a>
</g>
</g>
<!-- Node10&#45;&gt;Node4 -->
<g id="edge15_Node000010_Node000004" class="edge">
<title>Node10&#45;&gt;Node4</title>
<g id="a_edge15_Node000010_Node000004"><a xlink:title=" ">
<path fill="none" stroke="#63b8ff" d="M182.97,-37.8C181.26,-38.82 179.61,-39.89 178,-41 134.48,-71.11 98.24,-123.45 81.68,-149.83"/>
<polygon fill="#63b8ff" stroke="#63b8ff" points="184.59,-40.9 191.76,-33.1 181.29,-34.72 184.59,-40.9"/>
</a>
</g>
</g>
</g>
</svg>
