<?xml version="1.0" encoding="UTF-8" standalone="no"?>
<!DOCTYPE svg PUBLIC "-//W3C//DTD SVG 1.1//EN"
 "http://www.w3.org/Graphics/SVG/1.1/DTD/svg11.dtd">
<!-- Generated by graphviz version 13.1.2 (20250808.2320)
 -->
<!-- Title: PyPSA&#45;GB.zone_data_processing.zone_links Pages: 1 -->
<svg width="318pt" height="90pt"
 viewBox="0.00 0.00 318.00 90.00" xmlns="http://www.w3.org/2000/svg" xmlns:xlink="http://www.w3.org/1999/xlink">
<g id="graph0" class="graph" transform="scale(1 1) rotate(0) translate(4 86)">
<title>PyPSA&#45;GB.zone_data_processing.zone_links</title>
<!-- Node1 -->
<g id="Node000001" class="node">
<title>Node1</title>
<g id="a_Node000001"><a xlink:title=" ">
<polygon fill="#999999" stroke="#666666" points="118,-57 0,-57 0,-25 118,-25 118,-57"/>
<text xml:space="preserve" text-anchor="start" x="8" y="-43.5" font-family="Helvetica,sans-Serif" font-size="10.00">PyPSA&#45;GB.zone_data</text>
<text xml:space="preserve" text-anchor="middle" x="59" y="-31.5" font-family="Helvetica,sans-Serif" font-size="10.00">_processing.zone_links</text>
</a>
</g>
</g>
<!-- Node2 -->
<g id="Node000002" class="node">
<title>Node2</title>
<g id="a_Node000002"><a xlink:href="namespace_py_p_s_a-_g_b_1_1zone__data__processing.html#ad7dd92b7c907c32bc2cfc6cdb24f5ce2" target="_top" xlink:title=" ">
<polygon fill="white" stroke="#666666" points="309.5,-82 154,-82 154,-50 309.5,-50 309.5,-82"/>
<text xml:space="preserve" text-anchor="start" x="162" y="-68.5" font-family="Helvetica,sans-Serif" font-size="10.00">PyPSA&#45;GB.zone_data</text>
<text xml:space="preserve" text-anchor="middle" x="231.75" y="-56.5" font-family="Helvetica,sans-Serif" font-size="10.00">_processing.copy_buses_based</text>
</a>
</g>
</g>
<!-- Node1&#45;&gt;Node2 -->
<g id="edge1_Node000001_Node000002" class="edge">
<title>Node1&#45;&gt;Node2</title>
<g id="a_edge1_Node000001_Node000002"><a xlink:title=" ">
<path fill="none" stroke="#63b8ff" d="M118.28,-49.53C126.12,-50.68 134.3,-51.88 142.51,-53.08"/>
<polygon fill="#63b8ff" stroke="#63b8ff" points="141.81,-56.51 152.21,-54.5 142.82,-49.59 141.81,-56.51"/>
</a>
</g>
</g>
<!-- Node3 -->
<g id="Node000003" class="node">
<title>Node3</title>
<g id="a_Node000003"><a xlink:href="namespace_py_p_s_a-_g_b_1_1zone__data__processing.html#a089f51774114af8ee38cb81d74ce614d" target="_top" xlink:title=" ">
<polygon fill="white" stroke="#666666" points="293,-32 170.5,-32 170.5,0 293,0 293,-32"/>
<text xml:space="preserve" text-anchor="start" x="178.5" y="-18.5" font-family="Helvetica,sans-Serif" font-size="10.00">PyPSA&#45;GB.zone_data</text>
<text xml:space="preserve" text-anchor="middle" x="231.75" y="-6.5" font-family="Helvetica,sans-Serif" font-size="10.00">_processing.create_path</text>
</a>
</g>
</g>
<!-- Node1&#45;&gt;Node3 -->
<g id="edge2_Node000001_Node000003" class="edge">
<title>Node1&#45;&gt;Node3</title>
<g id="a_edge2_Node000001_Node000003"><a xlink:title=" ">
<path fill="none" stroke="#63b8ff" d="M118.28,-32.47C131.34,-30.55 145.34,-28.5 158.88,-26.52"/>
<polygon fill="#63b8ff" stroke="#63b8ff" points="159.22,-30.01 168.61,-25.1 158.21,-23.08 159.22,-30.01"/>
</a>
</g>
</g>
</g>
</svg>
