<?xml version="1.0" encoding="UTF-8" standalone="no"?>
<!DOCTYPE svg PUBLIC "-//W3C//DTD SVG 1.1//EN"
 "http://www.w3.org/Graphics/SVG/1.1/DTD/svg11.dtd">
<!-- Generated by graphviz version 13.1.2 (20250808.2320)
 -->
<!-- Title: PyPSA&#45;GB.renewables.future_offshore_timeseries Pages: 1 -->
<svg width="927pt" height="90pt"
 viewBox="0.00 0.00 927.00 90.00" xmlns="http://www.w3.org/2000/svg" xmlns:xlink="http://www.w3.org/1999/xlink">
<g id="graph0" class="graph" transform="scale(1 1) rotate(0) translate(4 86)">
<title>PyPSA&#45;GB.renewables.future_offshore_timeseries</title>
<!-- Node1 -->
<g id="Node000001" class="node">
<title>Node1</title>
<g id="a_Node000001"><a xlink:title=" ">
<polygon fill="#999999" stroke="#666666" points="145.75,-57 0,-57 0,-25 145.75,-25 145.75,-57"/>
<text xml:space="preserve" text-anchor="start" x="8" y="-43.5" font-family="Helvetica,sans-Serif" font-size="10.00">PyPSA&#45;GB.renewables.future</text>
<text xml:space="preserve" text-anchor="middle" x="72.88" y="-31.5" font-family="Helvetica,sans-Serif" font-size="10.00">_offshore_timeseries</text>
</a>
</g>
</g>
<!-- Node2 -->
<g id="Node000002" class="node">
<title>Node2</title>
<g id="a_Node000002"><a xlink:href="namespace_py_p_s_a-_g_b_1_1renewables.html#aea44fe3cbfa597a01a30cf5137660d22" target="_top" xlink:title=" ">
<polygon fill="white" stroke="#666666" points="523.5,-82 377.75,-82 377.75,-50 523.5,-50 523.5,-82"/>
<text xml:space="preserve" text-anchor="start" x="385.75" y="-68.5" font-family="Helvetica,sans-Serif" font-size="10.00">PyPSA&#45;GB.renewables.future</text>
<text xml:space="preserve" text-anchor="middle" x="450.62" y="-56.5" font-family="Helvetica,sans-Serif" font-size="10.00">_offshore_capacity</text>
</a>
</g>
</g>
<!-- Node1&#45;&gt;Node2 -->
<g id="edge1_Node000001_Node000002" class="edge">
<title>Node1&#45;&gt;Node2</title>
<g id="a_edge1_Node000001_Node000002"><a xlink:title=" ">
<path fill="none" stroke="#63b8ff" d="M145.88,-45.79C208.83,-49.98 300.26,-56.06 366.34,-60.46"/>
<polygon fill="#63b8ff" stroke="#63b8ff" points="365.82,-63.93 376.04,-61.1 366.29,-56.95 365.82,-63.93"/>
</a>
</g>
</g>
<!-- Node5 -->
<g id="Node000005" class="node">
<title>Node5</title>
<g id="a_Node000005"><a xlink:href="namespace_py_p_s_a-_g_b_1_1renewables.html#a4b19fbcea0ad3bf7665422779b827419" target="_top" xlink:title=" ">
<polygon fill="white" stroke="#666666" points="341.75,-35 181.75,-35 181.75,-3 341.75,-3 341.75,-35"/>
<text xml:space="preserve" text-anchor="start" x="189.75" y="-21.5" font-family="Helvetica,sans-Serif" font-size="10.00">PyPSA&#45;GB.renewables.historical</text>
<text xml:space="preserve" text-anchor="middle" x="261.75" y="-9.5" font-family="Helvetica,sans-Serif" font-size="10.00">_RES_timeseries</text>
</a>
</g>
</g>
<!-- Node1&#45;&gt;Node5 -->
<g id="edge4_Node000001_Node000005" class="edge">
<title>Node1&#45;&gt;Node5</title>
<g id="a_edge4_Node000001_Node000005"><a xlink:title=" ">
<path fill="none" stroke="#63b8ff" d="M146.13,-32.49C154.01,-31.57 162.12,-30.61 170.19,-29.66"/>
<polygon fill="#63b8ff" stroke="#63b8ff" points="170.53,-33.15 180.05,-28.5 169.71,-26.19 170.53,-33.15"/>
</a>
</g>
</g>
<!-- Node3 -->
<g id="Node000003" class="node">
<title>Node3</title>
<g id="a_Node000003"><a xlink:href="namespace_py_p_s_a-_g_b_1_1renewables.html#a721b09963fd339351825ed23035b35c2" target="_top" xlink:title="corrects the REDP (renewable energy planning database) according to year of simulation">
<polygon fill="white" stroke="#666666" points="709,-57 559.5,-57 559.5,-25 709,-25 709,-57"/>
<text xml:space="preserve" text-anchor="start" x="567.5" y="-43.5" font-family="Helvetica,sans-Serif" font-size="10.00">PyPSA&#45;GB.renewables.REPD</text>
<text xml:space="preserve" text-anchor="middle" x="634.25" y="-31.5" font-family="Helvetica,sans-Serif" font-size="10.00">_date_corrected</text>
</a>
</g>
</g>
<!-- Node2&#45;&gt;Node3 -->
<g id="edge2_Node000002_Node000003" class="edge">
<title>Node2&#45;&gt;Node3</title>
<g id="a_edge2_Node000002_Node000003"><a xlink:title=" ">
<path fill="none" stroke="#63b8ff" d="M523.93,-56.05C531.8,-54.96 539.86,-53.86 547.86,-52.75"/>
<polygon fill="#63b8ff" stroke="#63b8ff" points="548.18,-56.24 557.61,-51.41 547.23,-49.31 548.18,-56.24"/>
</a>
</g>
</g>
<!-- Node4 -->
<g id="Node000004" class="node">
<title>Node4</title>
<g id="a_Node000004"><a xlink:href="namespace_py_p_s_a-_g_b_1_1renewables.html#ab85ba8dcaf38f80f959156e0c7295a14" target="_top" xlink:title="reads the REDP (renewable energy planning database) and converts to dataframe">
<polygon fill="white" stroke="#666666" points="918.5,-51 745,-51 745,-31 918.5,-31 918.5,-51"/>
<text xml:space="preserve" text-anchor="middle" x="831.75" y="-37.5" font-family="Helvetica,sans-Serif" font-size="10.00">PyPSA&#45;GB.renewables.read_REPD</text>
</a>
</g>
</g>
<!-- Node3&#45;&gt;Node4 -->
<g id="edge3_Node000003_Node000004" class="edge">
<title>Node3&#45;&gt;Node4</title>
<g id="a_edge3_Node000003_Node000004"><a xlink:title=" ">
<path fill="none" stroke="#63b8ff" d="M709.44,-41C717.29,-41 725.37,-41 733.43,-41"/>
<polygon fill="#63b8ff" stroke="#63b8ff" points="733.3,-44.5 743.3,-41 733.3,-37.5 733.3,-44.5"/>
</a>
</g>
</g>
<!-- Node6 -->
<g id="Node000006" class="node">
<title>Node6</title>
<g id="a_Node000006"><a xlink:href="namespace_py_p_s_a-_g_b_1_1renewables.html#ab477631ae6df1c1e2f5cf89bd1cec969" target="_top" xlink:title="fixes the timeseries of renewable profiles according to year">
<polygon fill="white" stroke="#666666" points="516.38,-32 384.88,-32 384.88,0 516.38,0 516.38,-32"/>
<text xml:space="preserve" text-anchor="start" x="392.88" y="-18.5" font-family="Helvetica,sans-Serif" font-size="10.00">PyPSA&#45;GB.renewables.fix</text>
<text xml:space="preserve" text-anchor="middle" x="450.62" y="-6.5" font-family="Helvetica,sans-Serif" font-size="10.00">_timeseries_res_for_year</text>
</a>
</g>
</g>
<!-- Node5&#45;&gt;Node6 -->
<g id="edge5_Node000005_Node000006" class="edge">
<title>Node5&#45;&gt;Node6</title>
<g id="a_edge5_Node000005_Node000006"><a xlink:title=" ">
<path fill="none" stroke="#63b8ff" d="M342,-17.73C352.27,-17.56 362.76,-17.39 372.98,-17.23"/>
<polygon fill="#63b8ff" stroke="#63b8ff" points="372.92,-20.73 382.86,-17.07 372.81,-13.73 372.92,-20.73"/>
</a>
</g>
</g>
<!-- Node6&#45;&gt;Node3 -->
<g id="edge6_Node000006_Node000003" class="edge">
<title>Node6&#45;&gt;Node3</title>
<g id="a_edge6_Node000006_Node000003"><a xlink:title=" ">
<path fill="none" stroke="#63b8ff" d="M516.68,-24.95C526.77,-26.34 537.33,-27.8 547.79,-29.24"/>
<polygon fill="#63b8ff" stroke="#63b8ff" points="547.19,-32.69 557.57,-30.58 548.14,-25.75 547.19,-32.69"/>
</a>
</g>
</g>
</g>
</svg>
