<?xml version="1.0" encoding="UTF-8" standalone="no"?>
<!DOCTYPE svg PUBLIC "-//W3C//DTD SVG 1.1//EN"
 "http://www.w3.org/Graphics/SVG/1.1/DTD/svg11.dtd">
<!-- Generated by graphviz version 13.1.2 (20250808.2320)
 -->
<!-- Title: PyPSA&#45;GB.renewables.future_RES_capacity Pages: 1 -->
<svg width="725pt" height="128pt"
 viewBox="0.00 0.00 725.00 128.00" xmlns="http://www.w3.org/2000/svg" xmlns:xlink="http://www.w3.org/1999/xlink">
<g id="graph0" class="graph" transform="scale(1 1) rotate(0) translate(4 124)">
<title>PyPSA&#45;GB.renewables.future_RES_capacity</title>
<!-- Node1 -->
<g id="Node000001" class="node">
<title>Node1</title>
<g id="a_Node000001"><a xlink:title=" ">
<polygon fill="#999999" stroke="#666666" points="145.75,-76 0,-76 0,-44 145.75,-44 145.75,-76"/>
<text xml:space="preserve" text-anchor="start" x="8" y="-62.5" font-family="Helvetica,sans-Serif" font-size="10.00">PyPSA&#45;GB.renewables.future</text>
<text xml:space="preserve" text-anchor="middle" x="72.88" y="-50.5" font-family="Helvetica,sans-Serif" font-size="10.00">_RES_capacity</text>
</a>
</g>
</g>
<!-- Node2 -->
<g id="Node000002" class="node">
<title>Node2</title>
<g id="a_Node000002"><a xlink:href="namespace_py_p_s_a-_g_b_1_1renewables.html#a668d4fb16ae5163575a36abcab6074db" target="_top" xlink:title="reads the biomass generators from REPD and converts to dataframe">
<polygon fill="white" stroke="#666666" points="321.5,-120 181.75,-120 181.75,-88 321.5,-88 321.5,-120"/>
<text xml:space="preserve" text-anchor="start" x="189.75" y="-106.5" font-family="Helvetica,sans-Serif" font-size="10.00">PyPSA&#45;GB.renewables.read</text>
<text xml:space="preserve" text-anchor="middle" x="251.62" y="-94.5" font-family="Helvetica,sans-Serif" font-size="10.00">_biomass</text>
</a>
</g>
</g>
<!-- Node1&#45;&gt;Node2 -->
<g id="edge1_Node000001_Node000002" class="edge">
<title>Node1&#45;&gt;Node2</title>
<g id="a_edge1_Node000001_Node000002"><a xlink:title=" ">
<path fill="none" stroke="#63b8ff" d="M139.94,-76.45C150.83,-79.16 162.19,-81.99 173.32,-84.76"/>
<polygon fill="#63b8ff" stroke="#63b8ff" points="172.33,-88.12 182.88,-87.13 174.02,-81.32 172.33,-88.12"/>
</a>
</g>
</g>
<!-- Node3 -->
<g id="Node000003" class="node">
<title>Node3</title>
<g id="a_Node000003"><a xlink:href="namespace_py_p_s_a-_g_b_1_1renewables.html#a721b09963fd339351825ed23035b35c2" target="_top" xlink:title="corrects the REDP (renewable energy planning database) according to year of simulation">
<polygon fill="white" stroke="#666666" points="507,-76 357.5,-76 357.5,-44 507,-44 507,-76"/>
<text xml:space="preserve" text-anchor="start" x="365.5" y="-62.5" font-family="Helvetica,sans-Serif" font-size="10.00">PyPSA&#45;GB.renewables.REPD</text>
<text xml:space="preserve" text-anchor="middle" x="432.25" y="-50.5" font-family="Helvetica,sans-Serif" font-size="10.00">_date_corrected</text>
</a>
</g>
</g>
<!-- Node1&#45;&gt;Node3 -->
<g id="edge6_Node000001_Node000003" class="edge">
<title>Node1&#45;&gt;Node3</title>
<g id="a_edge6_Node000001_Node000003"><a xlink:title=" ">
<path fill="none" stroke="#63b8ff" d="M146.2,-60C203.87,-60 284.79,-60 345.68,-60"/>
<polygon fill="#63b8ff" stroke="#63b8ff" points="345.68,-63.5 355.68,-60 345.68,-56.5 345.68,-63.5"/>
</a>
</g>
</g>
<!-- Node5 -->
<g id="Node000005" class="node">
<title>Node5</title>
<g id="a_Node000005"><a xlink:href="namespace_py_p_s_a-_g_b_1_1renewables.html#accc64b4fdfc806fe6448933fb8596eb3" target="_top" xlink:title="reads hydro data from REDP">
<polygon fill="white" stroke="#666666" points="321.5,-32 181.75,-32 181.75,0 321.5,0 321.5,-32"/>
<text xml:space="preserve" text-anchor="start" x="189.75" y="-18.5" font-family="Helvetica,sans-Serif" font-size="10.00">PyPSA&#45;GB.renewables.read</text>
<text xml:space="preserve" text-anchor="middle" x="251.62" y="-6.5" font-family="Helvetica,sans-Serif" font-size="10.00">_hydro</text>
</a>
</g>
</g>
<!-- Node1&#45;&gt;Node5 -->
<g id="edge4_Node000001_Node000005" class="edge">
<title>Node1&#45;&gt;Node5</title>
<g id="a_edge4_Node000001_Node000005"><a xlink:title=" ">
<path fill="none" stroke="#63b8ff" d="M139.94,-43.55C150.83,-40.84 162.19,-38.01 173.32,-35.24"/>
<polygon fill="#63b8ff" stroke="#63b8ff" points="174.02,-38.68 182.88,-32.87 172.33,-31.88 174.02,-38.68"/>
</a>
</g>
</g>
<!-- Node2&#45;&gt;Node3 -->
<g id="edge2_Node000002_Node000003" class="edge">
<title>Node2&#45;&gt;Node3</title>
<g id="a_edge2_Node000002_Node000003"><a xlink:title=" ">
<path fill="none" stroke="#63b8ff" d="M319.39,-87.55C330.39,-84.84 341.88,-82.01 353.13,-79.24"/>
<polygon fill="#63b8ff" stroke="#63b8ff" points="353.92,-82.65 362.8,-76.86 352.25,-75.86 353.92,-82.65"/>
</a>
</g>
</g>
<!-- Node4 -->
<g id="Node000004" class="node">
<title>Node4</title>
<g id="a_Node000004"><a xlink:href="namespace_py_p_s_a-_g_b_1_1renewables.html#ab85ba8dcaf38f80f959156e0c7295a14" target="_top" xlink:title="reads the REDP (renewable energy planning database) and converts to dataframe">
<polygon fill="white" stroke="#666666" points="716.5,-70 543,-70 543,-50 716.5,-50 716.5,-70"/>
<text xml:space="preserve" text-anchor="middle" x="629.75" y="-56.5" font-family="Helvetica,sans-Serif" font-size="10.00">PyPSA&#45;GB.renewables.read_REPD</text>
</a>
</g>
</g>
<!-- Node3&#45;&gt;Node4 -->
<g id="edge3_Node000003_Node000004" class="edge">
<title>Node3&#45;&gt;Node4</title>
<g id="a_edge3_Node000003_Node000004"><a xlink:title=" ">
<path fill="none" stroke="#63b8ff" d="M507.44,-60C515.29,-60 523.37,-60 531.43,-60"/>
<polygon fill="#63b8ff" stroke="#63b8ff" points="531.3,-63.5 541.3,-60 531.3,-56.5 531.3,-63.5"/>
</a>
</g>
</g>
<!-- Node5&#45;&gt;Node3 -->
<g id="edge5_Node000005_Node000003" class="edge">
<title>Node5&#45;&gt;Node3</title>
<g id="a_edge5_Node000005_Node000003"><a xlink:title=" ">
<path fill="none" stroke="#63b8ff" d="M319.39,-32.45C330.39,-35.16 341.88,-37.99 353.13,-40.76"/>
<polygon fill="#63b8ff" stroke="#63b8ff" points="352.25,-44.14 362.8,-43.14 353.92,-37.35 352.25,-44.14"/>
</a>
</g>
</g>
</g>
</svg>
