<?xml version="1.0" encoding="UTF-8" standalone="no"?>
<!DOCTYPE svg PUBLIC "-//W3C//DTD SVG 1.1//EN"
 "http://www.w3.org/Graphics/SVG/1.1/DTD/svg11.dtd">
<!-- Generated by graphviz version 13.1.2 (20250808.2320)
 -->
<!-- Title: PyPSA&#45;GB.renewables.future_RES_scale_p_nom Pages: 1 -->
<svg width="906pt" height="128pt"
 viewBox="0.00 0.00 906.00 128.00" xmlns="http://www.w3.org/2000/svg" xmlns:xlink="http://www.w3.org/1999/xlink">
<g id="graph0" class="graph" transform="scale(1 1) rotate(0) translate(4 124)">
<title>PyPSA&#45;GB.renewables.future_RES_scale_p_nom</title>
<!-- Node1 -->
<g id="Node000001" class="node">
<title>Node1</title>
<g id="a_Node000001"><a xlink:title=" ">
<polygon fill="#999999" stroke="#666666" points="145.75,-76 0,-76 0,-44 145.75,-44 145.75,-76"/>
<text xml:space="preserve" text-anchor="start" x="8" y="-62.5" font-family="Helvetica,sans-Serif" font-size="10.00">PyPSA&#45;GB.renewables.future</text>
<text xml:space="preserve" text-anchor="middle" x="72.88" y="-50.5" font-family="Helvetica,sans-Serif" font-size="10.00">_RES_scale_p_nom</text>
</a>
</g>
</g>
<!-- Node2 -->
<g id="Node000002" class="node">
<title>Node2</title>
<g id="a_Node000002"><a xlink:href="namespace_py_p_s_a-_g_b_1_1renewables.html#a2c63c9849737caba3540f2db1450b5bf" target="_top" xlink:title=" ">
<polygon fill="white" stroke="#666666" points="327.5,-76 181.75,-76 181.75,-44 327.5,-44 327.5,-76"/>
<text xml:space="preserve" text-anchor="start" x="189.75" y="-62.5" font-family="Helvetica,sans-Serif" font-size="10.00">PyPSA&#45;GB.renewables.future</text>
<text xml:space="preserve" text-anchor="middle" x="254.62" y="-50.5" font-family="Helvetica,sans-Serif" font-size="10.00">_RES_capacity</text>
</a>
</g>
</g>
<!-- Node1&#45;&gt;Node2 -->
<g id="edge1_Node000001_Node000002" class="edge">
<title>Node1&#45;&gt;Node2</title>
<g id="a_edge1_Node000001_Node000002"><a xlink:title=" ">
<path fill="none" stroke="#63b8ff" d="M146.21,-60C154.1,-60 162.18,-60 170.19,-60"/>
<polygon fill="#63b8ff" stroke="#63b8ff" points="169.93,-63.5 179.93,-60 169.93,-56.5 169.93,-63.5"/>
</a>
</g>
</g>
<!-- Node3 -->
<g id="Node000003" class="node">
<title>Node3</title>
<g id="a_Node000003"><a xlink:href="namespace_py_p_s_a-_g_b_1_1renewables.html#a668d4fb16ae5163575a36abcab6074db" target="_top" xlink:title="reads the biomass generators from REPD and converts to dataframe">
<polygon fill="white" stroke="#666666" points="503.25,-120 363.5,-120 363.5,-88 503.25,-88 503.25,-120"/>
<text xml:space="preserve" text-anchor="start" x="371.5" y="-106.5" font-family="Helvetica,sans-Serif" font-size="10.00">PyPSA&#45;GB.renewables.read</text>
<text xml:space="preserve" text-anchor="middle" x="433.38" y="-94.5" font-family="Helvetica,sans-Serif" font-size="10.00">_biomass</text>
</a>
</g>
</g>
<!-- Node2&#45;&gt;Node3 -->
<g id="edge2_Node000002_Node000003" class="edge">
<title>Node2&#45;&gt;Node3</title>
<g id="a_edge2_Node000002_Node000003"><a xlink:title=" ">
<path fill="none" stroke="#63b8ff" d="M321.69,-76.45C332.58,-79.16 343.94,-81.99 355.07,-84.76"/>
<polygon fill="#63b8ff" stroke="#63b8ff" points="354.08,-88.12 364.63,-87.13 355.77,-81.32 354.08,-88.12"/>
</a>
</g>
</g>
<!-- Node4 -->
<g id="Node000004" class="node">
<title>Node4</title>
<g id="a_Node000004"><a xlink:href="namespace_py_p_s_a-_g_b_1_1renewables.html#a721b09963fd339351825ed23035b35c2" target="_top" xlink:title="corrects the REDP (renewable energy planning database) according to year of simulation">
<polygon fill="white" stroke="#666666" points="688.75,-76 539.25,-76 539.25,-44 688.75,-44 688.75,-76"/>
<text xml:space="preserve" text-anchor="start" x="547.25" y="-62.5" font-family="Helvetica,sans-Serif" font-size="10.00">PyPSA&#45;GB.renewables.REPD</text>
<text xml:space="preserve" text-anchor="middle" x="614" y="-50.5" font-family="Helvetica,sans-Serif" font-size="10.00">_date_corrected</text>
</a>
</g>
</g>
<!-- Node2&#45;&gt;Node4 -->
<g id="edge7_Node000002_Node000004" class="edge">
<title>Node2&#45;&gt;Node4</title>
<g id="a_edge7_Node000002_Node000004"><a xlink:title=" ">
<path fill="none" stroke="#63b8ff" d="M327.95,-60C385.62,-60 466.54,-60 527.43,-60"/>
<polygon fill="#63b8ff" stroke="#63b8ff" points="527.43,-63.5 537.43,-60 527.43,-56.5 527.43,-63.5"/>
</a>
</g>
</g>
<!-- Node6 -->
<g id="Node000006" class="node">
<title>Node6</title>
<g id="a_Node000006"><a xlink:href="namespace_py_p_s_a-_g_b_1_1renewables.html#accc64b4fdfc806fe6448933fb8596eb3" target="_top" xlink:title="reads hydro data from REDP">
<polygon fill="white" stroke="#666666" points="503.25,-32 363.5,-32 363.5,0 503.25,0 503.25,-32"/>
<text xml:space="preserve" text-anchor="start" x="371.5" y="-18.5" font-family="Helvetica,sans-Serif" font-size="10.00">PyPSA&#45;GB.renewables.read</text>
<text xml:space="preserve" text-anchor="middle" x="433.38" y="-6.5" font-family="Helvetica,sans-Serif" font-size="10.00">_hydro</text>
</a>
</g>
</g>
<!-- Node2&#45;&gt;Node6 -->
<g id="edge5_Node000002_Node000006" class="edge">
<title>Node2&#45;&gt;Node6</title>
<g id="a_edge5_Node000002_Node000006"><a xlink:title=" ">
<path fill="none" stroke="#63b8ff" d="M321.69,-43.55C332.58,-40.84 343.94,-38.01 355.07,-35.24"/>
<polygon fill="#63b8ff" stroke="#63b8ff" points="355.77,-38.68 364.63,-32.87 354.08,-31.88 355.77,-38.68"/>
</a>
</g>
</g>
<!-- Node3&#45;&gt;Node4 -->
<g id="edge3_Node000003_Node000004" class="edge">
<title>Node3&#45;&gt;Node4</title>
<g id="a_edge3_Node000003_Node000004"><a xlink:title=" ">
<path fill="none" stroke="#63b8ff" d="M501.14,-87.55C512.14,-84.84 523.63,-82.01 534.88,-79.24"/>
<polygon fill="#63b8ff" stroke="#63b8ff" points="535.67,-82.65 544.55,-76.86 534,-75.86 535.67,-82.65"/>
</a>
</g>
</g>
<!-- Node5 -->
<g id="Node000005" class="node">
<title>Node5</title>
<g id="a_Node000005"><a xlink:href="namespace_py_p_s_a-_g_b_1_1renewables.html#ab85ba8dcaf38f80f959156e0c7295a14" target="_top" xlink:title="reads the REDP (renewable energy planning database) and converts to dataframe">
<polygon fill="white" stroke="#666666" points="898.25,-70 724.75,-70 724.75,-50 898.25,-50 898.25,-70"/>
<text xml:space="preserve" text-anchor="middle" x="811.5" y="-56.5" font-family="Helvetica,sans-Serif" font-size="10.00">PyPSA&#45;GB.renewables.read_REPD</text>
</a>
</g>
</g>
<!-- Node4&#45;&gt;Node5 -->
<g id="edge4_Node000004_Node000005" class="edge">
<title>Node4&#45;&gt;Node5</title>
<g id="a_edge4_Node000004_Node000005"><a xlink:title=" ">
<path fill="none" stroke="#63b8ff" d="M689.19,-60C697.04,-60 705.12,-60 713.18,-60"/>
<polygon fill="#63b8ff" stroke="#63b8ff" points="713.05,-63.5 723.05,-60 713.05,-56.5 713.05,-63.5"/>
</a>
</g>
</g>
<!-- Node6&#45;&gt;Node4 -->
<g id="edge6_Node000006_Node000004" class="edge">
<title>Node6&#45;&gt;Node4</title>
<g id="a_edge6_Node000006_Node000004"><a xlink:title=" ">
<path fill="none" stroke="#63b8ff" d="M501.14,-32.45C512.14,-35.16 523.63,-37.99 534.88,-40.76"/>
<polygon fill="#63b8ff" stroke="#63b8ff" points="534,-44.14 544.55,-43.14 535.67,-37.35 534,-44.14"/>
</a>
</g>
</g>
</g>
</svg>
