<?xml version="1.0" encoding="UTF-8" standalone="no"?>
<!DOCTYPE svg PUBLIC "-//W3C//DTD SVG 1.1//EN"
 "http://www.w3.org/Graphics/SVG/1.1/DTD/svg11.dtd">
<!-- Generated by graphviz version 13.1.2 (20250808.2320)
 -->
<!-- Title: PyPSA&#45;GB.scotland_LOLP.Margin Pages: 1 -->
<svg width="611pt" height="28pt"
 viewBox="0.00 0.00 611.00 28.00" xmlns="http://www.w3.org/2000/svg" xmlns:xlink="http://www.w3.org/1999/xlink">
<g id="graph0" class="graph" transform="scale(1 1) rotate(0) translate(4 24)">
<title>PyPSA&#45;GB.scotland_LOLP.Margin</title>
<!-- Node1 -->
<g id="Node000001" class="node">
<title>Node1</title>
<g id="a_Node000001"><a xlink:title=" ">
<polygon fill="#999999" stroke="#666666" points="166,-20 0,-20 0,0 166,0 166,-20"/>
<text xml:space="preserve" text-anchor="middle" x="83" y="-6.5" font-family="Helvetica,sans-Serif" font-size="10.00">PyPSA&#45;GB.scotland_LOLP.Margin</text>
</a>
</g>
</g>
<!-- Node2 -->
<g id="Node000002" class="node">
<title>Node2</title>
<g id="a_Node000002"><a xlink:href="namespace_py_p_s_a-_g_b_1_1scotland___l_o_l_p.html#af2245c2cb1d0a7faeb79d745da4287ef" target="_top" xlink:title=" ">
<polygon fill="white" stroke="#666666" points="374,-20 202,-20 202,0 374,0 374,-20"/>
<text xml:space="preserve" text-anchor="middle" x="288" y="-6.5" font-family="Helvetica,sans-Serif" font-size="10.00">PyPSA&#45;GB.scotland_LOLP.get_rate</text>
</a>
</g>
</g>
<!-- Node1&#45;&gt;Node2 -->
<g id="edge1_Node000001_Node000002" class="edge">
<title>Node1&#45;&gt;Node2</title>
<g id="a_edge1_Node000001_Node000002"><a xlink:title=" ">
<path fill="none" stroke="#63b8ff" d="M166.28,-10C174.19,-10 182.27,-10 190.31,-10"/>
<polygon fill="#63b8ff" stroke="#63b8ff" points="190.12,-13.5 200.12,-10 190.12,-6.5 190.12,-13.5"/>
</a>
</g>
</g>
<!-- Node3 -->
<g id="Node000003" class="node">
<title>Node3</title>
<g id="a_Node000003"><a xlink:href="namespace_py_p_s_a-_g_b_1_1scotland___l_o_l_p.html#a2f9d247207b3213f75f150aca3e003c2" target="_top" xlink:title=" ">
<polygon fill="white" stroke="#666666" points="603,-20 410,-20 410,0 603,0 603,-20"/>
<text xml:space="preserve" text-anchor="middle" x="506.5" y="-6.5" font-family="Helvetica,sans-Serif" font-size="10.00">PyPSA&#45;GB.scotland_LOLP.convert_type</text>
</a>
</g>
</g>
<!-- Node2&#45;&gt;Node3 -->
<g id="edge2_Node000002_Node000003" class="edge">
<title>Node2&#45;&gt;Node3</title>
<g id="a_edge2_Node000002_Node000003"><a xlink:title=" ">
<path fill="none" stroke="#63b8ff" d="M374.26,-10C382.14,-10 390.19,-10 398.24,-10"/>
<polygon fill="#63b8ff" stroke="#63b8ff" points="398.07,-13.5 408.07,-10 398.07,-6.5 398.07,-13.5"/>
</a>
</g>
</g>
</g>
</svg>
